<?xml version="1.0" encoding="UTF-8" standalone="no"?>
<!-- Generator: Adobe Illustrator 18.1.1, SVG Export Plug-In . SVG Version: 6.00 Build 0)  -->

<svg
   xmlns:dc="http://purl.org/dc/elements/1.1/"
   xmlns:cc="http://creativecommons.org/ns#"
   xmlns:rdf="http://www.w3.org/1999/02/22-rdf-syntax-ns#"
   xmlns:svg="http://www.w3.org/2000/svg"
   xmlns="http://www.w3.org/2000/svg"
   xmlns:sodipodi="http://sodipodi.sourceforge.net/DTD/sodipodi-0.dtd"
   xmlns:inkscape="http://www.inkscape.org/namespaces/inkscape"
   version="1.1"
   id="Book"
   x="0px"
   y="0px"
   viewBox="0 0 20 20"
   enable-background="new 0 0 20 20"
   xml:space="preserve"
   inkscape:version="0.91 r"
   sodipodi:docname="book.svg"><metadata
     id="metadata9"><rdf:RDF><cc:Work
         rdf:about=""><dc:format>image/svg+xml</dc:format><dc:type
           rdf:resource="http://purl.org/dc/dcmitype/StillImage" /><dc:title></dc:title></cc:Work></rdf:RDF></metadata><defs
     id="defs7" /><sodipodi:namedview
     pagecolor="#ffffff"
     bordercolor="#666666"
     borderopacity="1"
     objecttolerance="10"
     gridtolerance="10"
     guidetolerance="10"
     inkscape:pageopacity="0"
     inkscape:pageshadow="2"
     inkscape:window-width="888"
     inkscape:window-height="480"
     id="namedview5"
     showgrid="false"
     inkscape:zoom="11.8"
     inkscape:cx="10"
     inkscape:cy="10"
     inkscape:window-x="0"
     inkscape:window-y="0"
     inkscape:window-maximized="0"
     inkscape:current-layer="Book" /><path
     fill="#FFFFFF"
     d="M17,5.95v10.351c0,0.522-0.452,0.771-1,1.16c-0.44,0.313-1-0.075-1-0.587c0,0,0-9.905,0-10.114  c0-0.211-0.074-0.412-0.314-0.535C14.446,6.102,6.948,2.16,6.948,2.16C6.827,2.115,6.299,1.782,5.595,2.144  C4.926,2.488,4.562,2.862,4.469,3.038l8.18,4.482C12.866,7.634,13,7.81,13,8.036v10.802c0,0.23-0.142,0.476-0.369,0.585  c-0.104,0.052-0.219,0.077-0.333,0.077c-0.135,0-0.271-0.033-0.386-0.104c-0.215-0.131-7.774-4.766-8.273-5.067  c-0.24-0.144-0.521-0.439-0.527-0.658L3,3.385c0-0.198-0.023-0.547,0.289-1.032c0.697-1.084,3.129-2.317,4.36-1.678l8.999,4.555  C16.865,5.342,17,5.566,17,5.95z"
     id="path3"
     style="fill:#20c5df;fill-opacity:1" /></svg>