<?xml version="1.0" encoding="UTF-8" standalone="no"?>
<!-- Generator: Adobe Illustrator 18.1.1, SVG Export Plug-In . SVG Version: 6.00 Build 0)  -->

<svg
   xmlns:dc="http://purl.org/dc/elements/1.1/"
   xmlns:cc="http://creativecommons.org/ns#"
   xmlns:rdf="http://www.w3.org/1999/02/22-rdf-syntax-ns#"
   xmlns:svg="http://www.w3.org/2000/svg"
   xmlns="http://www.w3.org/2000/svg"
   xmlns:sodipodi="http://sodipodi.sourceforge.net/DTD/sodipodi-0.dtd"
   xmlns:inkscape="http://www.inkscape.org/namespaces/inkscape"
   version="1.1"
   id="Paper_plane"
   x="0px"
   y="0px"
   viewBox="0 0 20 20"
   enable-background="new 0 0 20 20"
   xml:space="preserve"
   inkscape:version="0.91 r"
   sodipodi:docname="paper-plane.svg"><metadata
     id="metadata9"><rdf:RDF><cc:Work
         rdf:about=""><dc:format>image/svg+xml</dc:format><dc:type
           rdf:resource="http://purl.org/dc/dcmitype/StillImage" /></cc:Work></rdf:RDF></metadata><defs
     id="defs7" /><sodipodi:namedview
     pagecolor="#ffffff"
     bordercolor="#666666"
     borderopacity="1"
     objecttolerance="10"
     gridtolerance="10"
     guidetolerance="10"
     inkscape:pageopacity="0"
     inkscape:pageshadow="2"
     inkscape:window-width="888"
     inkscape:window-height="480"
     id="namedview5"
     showgrid="false"
     inkscape:zoom="11.8"
     inkscape:cx="10"
     inkscape:cy="10"
     inkscape:window-x="0"
     inkscape:window-y="0"
     inkscape:window-maximized="0"
     inkscape:current-layer="Paper_plane" /><path
     fill="#FFFFFF"
     d="M18.64,2.634C18.296,2.755,1.319,8.738,0.984,8.856c-0.284,0.1-0.347,0.345-0.01,0.479  c0.401,0.161,3.796,1.521,3.796,1.521l0,0l2.25,0.901c0,0,10.838-7.958,10.984-8.066c0.148-0.108,0.318,0.095,0.211,0.211  c-0.107,0.117-7.871,8.513-7.871,8.513v0.002L9.892,12.92l0.599,0.322l0,0c0,0,4.65,2.504,4.982,2.682  c0.291,0.156,0.668,0.027,0.752-0.334c0.099-0.426,2.845-12.261,2.906-12.525C19.21,2.722,18.983,2.513,18.64,2.634z M7,17.162  c0,0.246,0.139,0.315,0.331,0.141c0.251-0.229,2.85-2.561,2.85-2.561L7,13.098V17.162z"
     id="path3"
     style="fill:#20c5df;fill-opacity:1" /></svg>