<?xml version="1.0" encoding="UTF-8" standalone="no"?>
<!-- License Agreement at http://iconmonstr.com/license/ -->

<svg
   xmlns:dc="http://purl.org/dc/elements/1.1/"
   xmlns:cc="http://creativecommons.org/ns#"
   xmlns:rdf="http://www.w3.org/1999/02/22-rdf-syntax-ns#"
   xmlns:svg="http://www.w3.org/2000/svg"
   xmlns="http://www.w3.org/2000/svg"
   xmlns:sodipodi="http://sodipodi.sourceforge.net/DTD/sodipodi-0.dtd"
   xmlns:inkscape="http://www.inkscape.org/namespaces/inkscape"
   version="1.1"
   x="0px"
   y="0px"
   width="1500"
   height="1500"
   viewBox="0 0 1500 1500"
   enable-background="new 0 0 512 512"
   xml:space="preserve"
   id="svg2"
   inkscape:version="0.91 r"
   sodipodi:docname="light-bulbs.svg"><metadata
     id="metadata9"><rdf:RDF><cc:Work
         rdf:about=""><dc:format>image/svg+xml</dc:format><dc:type
           rdf:resource="http://purl.org/dc/dcmitype/StillImage" /><dc:title></dc:title></cc:Work></rdf:RDF></metadata><defs
     id="defs7" /><sodipodi:namedview
     pagecolor="#ffffff"
     bordercolor="#666666"
     borderopacity="1"
     objecttolerance="10"
     gridtolerance="10"
     guidetolerance="10"
     inkscape:pageopacity="0"
     inkscape:pageshadow="2"
     inkscape:window-width="1920"
     inkscape:window-height="1027"
     id="namedview5"
     showgrid="false"
     inkscape:zoom="0.4609375"
     inkscape:cx="346.0339"
     inkscape:cy="863.45763"
     inkscape:window-x="1024"
     inkscape:window-y="0"
     inkscape:window-maximized="1"
     inkscape:current-layer="svg2" /><path
     id="light-bulb-17-icon"
     d="m 778.16611,889.8054 -72.511,0 c -5.082,0 -9.202,4.12 -9.202,9.202 0,5.083 4.12,9.203 9.202,9.203 l 72.511,0 c 5.083,0 9.203,-4.12 9.203,-9.203 0,-5.082 -4.12,-9.202 -9.203,-9.202 z m -1.655,30.638 -69.199,0 c -5.082,0 -9.202,4.12 -9.202,9.202 0,5.082 4.12,9.201 9.202,9.201 l 69.2,0 c 5.081,0 9.201,-4.119 9.201,-9.201 0,-5.082 -4.12,-9.202 -9.202,-9.202 z m -68.726,30.21 c 17.916,16.562 19.76,19.889 26.912,19.889 l 13.775,0 c 6.989,0 8.713,-3.083 27.564,-19.889 l -68.251,0 z m 138.88,-220.482 c 0,62.305 -53.581,97.22 -53.581,146.388 l -102.346,0 c 0,-49.168 -53.582,-84.083 -53.582,-146.388 0,-133.904 209.509,-134.04 209.509,0 z m -91.497,-126.517 -25.062,0 0,-45.112 25.062,0 0,45.112 z m 86.062,-21.142 -22.084,-11.85 -22.055,41.103 22.084,11.85 22.055,-41.103 z m 64.092,62.072 -14.599,-20.371 -40.101,28.738 14.6,20.371 40.1,-28.738 z m 4.426,158.099 -45.116,-18.277 -9.41,23.228 45.116,18.278 9.41,-23.229 z m 15.007,-88.586 -51.126,0 0,25.062 51.126,0 0,-25.062 z m -237.914,-102.332 -22.055,-41.103 -22.084,11.85 22.055,41.103 22.084,-11.85 z m -53.532,41.186 -40.101,-28.738 -14.599,20.371 40.1,28.738 14.6,-20.371 z m -4.166,152.491 -10.277,-22.857 -45.116,20.283 10.277,22.857 45.116,-20.283 z m -18.84,-91.345 -51.126,0 0,25.062 51.126,0 0,-25.062 z"
     inkscape:connector-curvature="0"
     style="fill:#c5df20;fill-opacity:1" /><path
     inkscape:connector-curvature="0"
     id="light-bulb-17-icon-3"
     d="m 1264.1322,980.92403 -72.511,0 c -5.082,0 -9.202,4.12 -9.202,9.202 0,5.083 4.12,9.203 9.202,9.203 l 72.511,0 c 5.083,0 9.203,-4.12 9.203,-9.203 0,-5.082 -4.12,-9.202 -9.203,-9.202 z m -1.655,30.63807 -69.199,0 c -5.082,0 -9.202,4.12 -9.202,9.202 0,5.082 4.12,9.201 9.202,9.201 l 69.2,0 c 5.081,0 9.201,-4.119 9.201,-9.201 0,-5.082 -4.12,-9.202 -9.202,-9.202 z m -68.726,30.21 c 17.916,16.562 19.76,19.889 26.912,19.889 l 13.775,0 c 6.989,0 8.713,-3.083 27.564,-19.889 l -68.251,0 z m 138.88,-220.48207 c 0,62.305 -53.581,97.22 -53.581,146.388 l -102.346,0 c 0,-49.168 -53.582,-84.083 -53.582,-146.388 0,-133.904 209.509,-134.04 209.509,0 z m -91.497,-126.517 -25.062,0 0,-45.112 25.062,0 0,45.112 z m 86.062,-21.142 -22.084,-11.85 -22.055,41.103 22.084,11.85 22.055,-41.103 z m 64.092,62.072 -14.599,-20.371 -40.101,28.738 14.6,20.371 40.1,-28.738 z m 4.426,158.099 -45.116,-18.277 -9.41,23.228 45.116,18.278 9.41,-23.229 z m 15.007,-88.586 -51.126,0 0,25.062 51.126,0 0,-25.062 z m -237.914,-102.332 -22.055,-41.103 -22.084,11.85 22.055,41.103 22.084,-11.85 z m -53.532,41.186 -40.101,-28.738 -14.599,20.371 40.1,28.738 14.6,-20.371 z m -4.166,152.491 -10.277,-22.857 -45.116,20.283 10.277,22.857 45.116,-20.283 z m -18.84,-91.345 -51.126,0 0,25.062 51.126,0 0,-25.062 z"
     style="fill:#20c5df;fill-opacity:1" /><path
     inkscape:connector-curvature="0"
     id="light-bulb-17-icon-6"
     d="m 732.60678,360.44944 -72.511,0 c -5.082,0 -9.202,4.12 -9.202,9.202 0,5.083 4.12,9.203 9.202,9.203 l 72.511,0 c 5.083,0 9.203,-4.12 9.203,-9.203 0,-5.082 -4.12,-9.202 -9.203,-9.202 z m -1.655,30.638 -69.199,0 c -5.082,0 -9.202,4.12 -9.202,9.202 0,5.082 4.12,9.201 9.202,9.201 l 69.2,0 c 5.081,0 9.201,-4.119 9.201,-9.201 0,-5.082 -4.12,-9.202 -9.202,-9.202 z m -68.726,30.21 c 17.916,16.562 19.76,19.889 26.912,19.889 l 13.775,0 c 6.989,0 8.713,-3.083 27.564,-19.889 l -68.251,0 z m 138.88,-220.482 c 0,62.305 -53.581,97.22 -53.581,146.388 l -102.346,0 c 0,-49.168 -53.582,-84.083 -53.582,-146.388 0,-133.904001 209.509,-134.040001 209.509,0 z m -91.497,-126.517001 -25.062,0 0,-45.112 25.062,0 0,45.112 z m 86.062,-21.142 -22.084,-11.85 -22.055,41.103 22.084,11.85 22.055,-41.103 z m 64.092,62.072001 -14.599,-20.371001 -40.101,28.738001 14.6,20.371 40.1,-28.738 z m 4.426,158.099 -45.116,-18.277 -9.41,23.228 45.116,18.278 9.41,-23.229 z m 15.007,-88.586 -51.126,0 0,25.062 51.126,0 0,-25.062 z m -237.914,-102.332001 -22.055,-41.103 -22.084,11.85 22.055,41.103 22.084,-11.85 z m -53.532,41.186001 -40.101,-28.738001 -14.599,20.371001 40.1,28.738 14.6,-20.371 z m -4.166,152.491 -10.277,-22.857 -45.116,20.283 10.277,22.857 45.116,-20.283 z m -18.84,-91.345 -51.126,0 0,25.062 51.126,0 0,-25.062 z"
     style="fill:#df3a20;fill-opacity:1" /><path
     inkscape:connector-curvature="0"
     id="light-bulb-17-icon-7"
     d="m 326.91187,492.78839 -72.51101,0 c -5.082,0 -9.202,4.12 -9.202,9.202 0,5.083 4.12,9.203 9.202,9.203 l 72.51101,0 c 5.083,0 9.203,-4.12 9.203,-9.203 0,-5.082 -4.12,-9.202 -9.203,-9.202 z m -1.655,30.638 -69.19901,0 c -5.082,0 -9.202,4.12 -9.202,9.202 0,5.082 4.12,9.201 9.202,9.201 l 69.20001,0 c 5.081,0 9.201,-4.119 9.201,-9.201 0,-5.082 -4.12,-9.202 -9.202,-9.202 z m -68.72601,30.21 c 17.916,16.562 19.76,19.889 26.912,19.889 l 13.775,0 c 6.98901,0 8.71301,-3.083 27.56401,-19.889 l -68.25101,0 z M 395.41087,333.15442 c 0,62.305 -53.581,97.22 -53.581,146.388 l -102.34601,0 c 0,-49.168 -53.582,-84.083 -53.582,-146.388 0,-133.904 209.50901,-134.04 209.50901,0 z m -91.497,-126.517 -25.06201,0 0,-45.112 25.06201,0 0,45.112 z m 86.062,-21.142 -22.084,-11.85 -22.055,41.103 22.084,11.85 22.055,-41.103 z m 64.09199,62.072 -14.599,-20.371 -40.101,28.738 14.6,20.371 40.1,-28.738 z m 4.426,158.099 -45.116,-18.277 -9.41,23.228 45.116,18.278 9.41,-23.229 z m 15.007,-88.586 -51.126,0 0,25.062 51.126,0 0,-25.062 z m -237.914,-102.332 -22.055,-41.103 -22.084,11.85 22.055,41.103 22.084,-11.85 z m -53.532,41.186 -40.101,-28.738 -14.599,20.371 40.1,28.738 14.6,-20.371 z m -4.166,152.491 -10.277,-22.857 -45.116,20.283 10.277,22.857 45.116,-20.283 z m -18.84,-91.345 -51.126,0 0,25.062 51.126,0 0,-25.062 z"
     style="fill:#20c5df;fill-opacity:1" /><path
     inkscape:connector-curvature="0"
     id="light-bulb-17-icon-5"
     d="m 500.47118,1341.0596 -72.511,0 c -5.082,0 -9.202,4.12 -9.202,9.202 0,5.083 4.12,9.203 9.202,9.203 l 72.511,0 c 5.083,0 9.203,-4.12 9.203,-9.203 0,-5.082 -4.12,-9.202 -9.203,-9.202 z m -1.655,30.638 -69.199,0 c -5.082,0 -9.202,4.12 -9.202,9.202 0,5.082 4.12,9.201 9.202,9.201 l 69.2,0 c 5.081,0 9.201,-4.119 9.201,-9.201 0,-5.082 -4.12,-9.202 -9.202,-9.202 z m -68.726,30.21 c 17.916,16.562 19.76,19.889 26.912,19.889 l 13.775,0 c 6.989,0 8.713,-3.083 27.564,-19.889 l -68.251,0 z m 138.88,-220.482 c 0,62.305 -53.581,97.22 -53.581,146.388 l -102.346,0 c 0,-49.168 -53.582,-84.083 -53.582,-146.388 0,-133.904 209.509,-134.04 209.509,0 z m -91.497,-126.517 -25.062,0 0,-45.112 25.062,0 0,45.112 z m 86.062,-21.142 -22.084,-11.85 -22.055,41.103 22.084,11.85 22.055,-41.103 z m 64.092,62.072 -14.599,-20.371 -40.101,28.738 14.6,20.371 40.1,-28.738 z m 4.426,158.099 -45.116,-18.277 -9.41,23.228 45.116,18.278 9.41,-23.229 z m 15.007,-88.586 -51.126,0 0,25.062 51.126,0 0,-25.062 z m -237.914,-102.332 -22.055,-41.103 -22.084,11.85 22.055,41.103 22.084,-11.85 z m -53.532,41.186 -40.101,-28.738 -14.599,20.371 40.1,28.738 14.6,-20.371 z m -4.166,152.491 -10.277,-22.857 -45.116,20.283 10.277,22.857 45.116,-20.283 z m -18.84,-91.345 -51.126,0 0,25.062 51.126,0 0,-25.062 z"
     style="fill:#df3a20;fill-opacity:1" /><path
     inkscape:connector-curvature="0"
     id="light-bulb-17-icon-35"
     d="m 1014.6407,1347.5681 -72.51103,0 c -5.082,0 -9.202,4.12 -9.202,9.202 0,5.083 4.12,9.203 9.202,9.203 l 72.51103,0 c 5.083,0 9.203,-4.12 9.203,-9.203 0,-5.082 -4.12,-9.202 -9.203,-9.202 z m -1.655,30.638 -69.19903,0 c -5.082,0 -9.202,4.12 -9.202,9.202 0,5.082 4.12,9.201 9.202,9.201 l 69.20003,0 c 5.081,0 9.201,-4.119 9.201,-9.201 0,-5.082 -4.12,-9.202 -9.202,-9.202 z m -68.72603,30.21 c 17.916,16.562 19.76,19.889 26.912,19.889 l 13.775,0 c 6.989,0 8.713,-3.083 27.56403,-19.889 l -68.25103,0 z m 138.88003,-220.482 c 0,62.305 -53.581,97.22 -53.581,146.388 l -102.34603,0 c 0,-49.168 -53.582,-84.083 -53.582,-146.388 0,-133.904 209.50903,-134.04 209.50903,0 z m -91.49703,-126.517 -25.062,0 0,-45.112 25.062,0 0,45.112 z m 86.06203,-21.142 -22.084,-11.85 -22.055,41.103 22.084,11.85 22.055,-41.103 z m 64.092,62.072 -14.599,-20.371 -40.101,28.738 14.6,20.371 40.1,-28.738 z m 4.426,158.099 -45.116,-18.277 -9.41,23.228 45.116,18.278 9.41,-23.229 z m 15.007,-88.586 -51.126,0 0,25.062 51.126,0 0,-25.062 z m -237.91403,-102.332 -22.055,-41.103 -22.084,11.85 22.055,41.103 22.084,-11.85 z m -53.532,41.186 -40.101,-28.738 -14.599,20.371 40.1,28.738 14.6,-20.371 z m -4.166,152.491 -10.277,-22.857 -45.116,20.283 10.277,22.857 45.116,-20.283 z m -18.84,-91.345 -51.126,0 0,25.062 51.126,0 0,-25.062 z"
     style="fill:#3a20df;fill-opacity:1" /><path
     inkscape:connector-curvature="0"
     id="light-bulb-17-icon-62"
     d="m 1177.3525,494.95792 -72.511,0 c -5.082,0 -9.202,4.12 -9.202,9.202 0,5.083 4.12,9.203 9.202,9.203 l 72.511,0 c 5.083,0 9.203,-4.12 9.203,-9.203 0,-5.082 -4.12,-9.202 -9.203,-9.202 z m -1.655,30.638 -69.199,0 c -5.082,0 -9.202,4.12 -9.202,9.202 0,5.082 4.12,9.201 9.202,9.201 l 69.2,0 c 5.081,0 9.201,-4.119 9.201,-9.201 0,-5.082 -4.12,-9.202 -9.202,-9.202 z m -68.726,30.21 c 17.916,16.562 19.76,19.889 26.912,19.889 l 13.775,0 c 6.989,0 8.713,-3.083 27.564,-19.889 l -68.251,0 z m 138.88,-220.482 c 0,62.305 -53.581,97.22 -53.581,146.388 l -102.346,0 c 0,-49.168 -53.582,-84.083 -53.582,-146.388 0,-133.904 209.509,-134.04 209.509,0 z m -91.497,-126.517 -25.062,0 0,-45.112 25.062,0 0,45.112 z m 86.062,-21.142 -22.084,-11.85 -22.055,41.103 22.084,11.85 22.055,-41.103 z m 64.092,62.072 -14.599,-20.371 -40.101,28.738 14.6,20.371 40.1,-28.738 z m 4.426,158.099 -45.116,-18.277 -9.41,23.228 45.116,18.278 9.41,-23.229 z m 15.007,-88.586 -51.126,0 0,25.062 51.126,0 0,-25.062 z m -237.914,-102.332 -22.055,-41.103 -22.084,11.85 22.055,41.103 22.084,-11.85 z m -53.532,41.186 -40.10096,-28.738 -14.599,20.371 40.09996,28.738 14.6,-20.371 z m -4.166,152.491 -10.277,-22.857 -45.11596,20.283 10.277,22.857 45.11596,-20.283 z m -18.84,-91.345 -51.12596,0 0,25.062 51.12596,0 0,-25.062 z"
     style="fill:#c5df20;fill-opacity:1" /><path
     inkscape:connector-curvature="0"
     id="light-bulb-17-icon-9"
     d="m 211.92882,946.21212 -72.511,0 c -5.082,0 -9.202,4.12 -9.202,9.202 0,5.083 4.12,9.203 9.202,9.203 l 72.511,0 c 5.083,0 9.203,-4.12 9.203,-9.203 0,-5.082 -4.12,-9.202 -9.203,-9.202 z m -1.655,30.638 -69.199,0 c -5.082,0 -9.202,4.12 -9.202,9.202 0,5.082 4.12,9.201 9.202,9.201 l 69.2,0 c 5.081,0 9.201,-4.119 9.201,-9.201 0,-5.082 -4.12,-9.202 -9.202,-9.202 z m -68.726,30.20998 c 17.916,16.562 19.76,19.889 26.912,19.889 l 13.775,0 c 6.989,0 8.713,-3.083 27.564,-19.889 l -68.251,0 z m 138.88,-220.48198 c 0,62.305 -53.581,97.22 -53.581,146.388 l -102.346,0 c 0,-49.168 -53.582004,-84.083 -53.582004,-146.388 0,-133.904 209.509004,-134.04 209.509004,0 z m -91.497,-126.517 -25.062,0 0,-45.112 25.062,0 0,45.112 z m 86.062,-21.142 -22.084,-11.85 -22.055,41.103 22.084,11.85 22.055,-41.103 z m 64.092,62.072 -14.599,-20.371 -40.101,28.738 14.6,20.371 40.1,-28.738 z m 4.426,158.099 -45.116,-18.277 -9.41,23.228 45.116,18.278 9.41,-23.229 z m 15.007,-88.586 -51.126,0 0,25.062 51.126,0 0,-25.062 z m -237.914,-102.332 -22.055004,-41.103 -22.084,11.85 22.055,41.103 22.084004,-11.85 z m -53.532014,41.186 -40.101,-28.738 -14.599,20.371 40.1,28.738 14.6,-20.371 z m -4.166,152.491 -10.277,-22.857 -45.1159999,20.283 10.2769999,22.857 45.116,-20.283 z m -18.84,-91.345 -51.1259999,0 0,25.062 51.1259999,0 0,-25.062 z"
     style="fill:#3a20df;fill-opacity:1" /></svg>