<?xml version="1.0" encoding="UTF-8" standalone="no"?>
<!-- Created with Inkscape (http://www.inkscape.org/) -->

<svg
   xmlns:dc="http://purl.org/dc/elements/1.1/"
   xmlns:cc="http://creativecommons.org/ns#"
   xmlns:rdf="http://www.w3.org/1999/02/22-rdf-syntax-ns#"
   xmlns:svg="http://www.w3.org/2000/svg"
   xmlns="http://www.w3.org/2000/svg"
   xmlns:sodipodi="http://sodipodi.sourceforge.net/DTD/sodipodi-0.dtd"
   xmlns:inkscape="http://www.inkscape.org/namespaces/inkscape"
   width="173mm"
   height="50mm"
   viewBox="0 0 612.99202 177.16535"
   id="svg52856"
   version="1.1"
   inkscape:version="0.91 r"
   sodipodi:docname="logo2.svg">
  <defs
     id="defs52858" />
  <sodipodi:namedview
     id="base"
     pagecolor="#ffffff"
     bordercolor="#666666"
     borderopacity="1.0"
     inkscape:pageopacity="0.0"
     inkscape:pageshadow="2"
     inkscape:zoom="0.98994949"
     inkscape:cx="-17.353242"
     inkscape:cy="180.20769"
     inkscape:document-units="px"
     inkscape:current-layer="layer1"
     showgrid="false"
     inkscape:window-width="1920"
     inkscape:window-height="1027"
     inkscape:window-x="1024"
     inkscape:window-y="0"
     inkscape:window-maximized="1"
     inkscape:snap-global="false"
     showguides="false" />
  <metadata
     id="metadata52861">
    <rdf:RDF>
      <cc:Work
         rdf:about="">
        <dc:format>image/svg+xml</dc:format>
        <dc:type
           rdf:resource="http://purl.org/dc/dcmitype/StillImage" />
        <dc:title></dc:title>
      </cc:Work>
    </rdf:RDF>
  </metadata>
  <g
     inkscape:label="Ebene 1"
     inkscape:groupmode="layer"
     id="layer1"
     transform="translate(0,-875.19685)">
    <flowRoot
       xml:space="preserve"
       id="flowRoot53620"
       style="font-style:normal;font-weight:normal;font-size:40px;line-height:125%;font-family:Sans;letter-spacing:0px;word-spacing:0px;fill:#000000;fill-opacity:1;stroke:none;stroke-width:1px;stroke-linecap:butt;stroke-linejoin:miter;stroke-opacity:1"
       inkscape:export-xdpi="149"
       inkscape:export-ydpi="149"><flowRegion
         id="flowRegion53622"><rect
           id="rect53624"
           width="1224.3049"
           height="141.42136"
           x="1854.64"
           y="-398.21686" /></flowRegion><flowPara
         id="flowPara53626"
         style="font-style:normal;font-variant:normal;font-weight:normal;font-stretch:normal;font-size:180px;font-family:'Helvetica Neue';-inkscape-font-specification:'Helvetica Neue'">IT </flowPara></flowRoot>    <g
       style="font-style:normal;font-weight:normal;font-size:34.83657455px;line-height:81.99999928%;font-family:Sans;letter-spacing:0px;word-spacing:0px;fill:#ffffff;fill-opacity:1;stroke:none;stroke-width:1px;stroke-linecap:butt;stroke-linejoin:miter;stroke-opacity:1"
       id="text42999"
       transform="translate(-88.893425,815.1931)">
      <path
         d="m 130.41971,72.673371 0,78.068769 c -0.15676,2.82176 0.15677,5.48676 0.4703,7.83823 0.31353,2.35146 1.09735,4.3894 2.03794,6.11381 0.94059,1.72441 2.35147,3.1353 4.07588,4.07588 1.72441,0.94059 3.91911,1.41088 6.58411,1.41088 2.665,0 4.8597,-0.47029 6.58411,-1.41088 1.56765,-0.94058 2.97853,-2.35147 3.91912,-4.07588 0.94059,-1.72441 1.72441,-3.76235 2.03794,-6.11381 0.31353,-2.35147 0.62706,-5.01647 0.62706,-7.83823 l 0,-78.068769 22.5741,0 0,78.068769 c 0,7.21117 -1.09736,13.01146 -2.97853,17.71439 -2.03794,4.70294 -4.70294,8.30853 -7.99499,10.97353 -3.44883,2.82176 -7.21118,4.54617 -11.44382,5.48676 -4.38941,0.94058 -8.77882,1.41088 -13.32499,1.41088 -4.70294,0 -9.09235,-0.31353 -13.32499,-1.25412 -4.38941,-0.78382 -8.15176,-2.50823 -11.44381,-5.01647 -3.44883,-2.50823 -6.11382,-6.27058 -7.995,-10.97352 -2.03794,-4.70294 -2.97853,-10.81675 -2.97853,-18.34145 l 0,-78.068769 22.5741,0 z"
         style="font-style:normal;font-variant:normal;font-weight:bold;font-stretch:condensed;font-size:156.7645874px;font-family:'Helvetica Neue';-inkscape-font-specification:'Helvetica Neue Bold Condensed';fill:#ffffff"
         id="path4925"
         inkscape:connector-curvature="0" />
      <path
         d="m 219.47915,72.673371 27.27704,76.657879 0.31352,0 0,-76.657879 20.69293,0 0,111.929919 -25.70939,0 -27.59057,-78.3823 -0.31353,0 0,78.3823 -20.69292,0 0,-111.929919 26.02292,0 z"
         style="font-style:normal;font-variant:normal;font-weight:bold;font-stretch:condensed;font-size:156.7645874px;font-family:'Helvetica Neue';-inkscape-font-specification:'Helvetica Neue Bold Condensed';fill:#ffffff"
         id="path4927"
         inkscape:connector-curvature="0" />
      <path
         d="m 284.57074,184.60329 0,-111.929919 22.5741,0 0,111.929919 -22.5741,0 z"
         style="font-style:normal;font-variant:normal;font-weight:bold;font-stretch:condensed;font-size:156.7645874px;font-family:'Helvetica Neue';-inkscape-font-specification:'Helvetica Neue Bold Condensed';fill:#ffffff"
         id="path4929"
         inkscape:connector-curvature="0" />
      <path
         d="m 409.36271,110.45364 c 0,-8.15176 -1.09735,-13.952051 -2.97853,-17.714401 -1.88117,-3.762351 -5.48676,-5.643526 -10.50323,-5.643526 -2.82176,0 -5.17323,0.783823 -7.0544,2.351469 -1.88118,1.567646 -3.29206,3.919115 -4.23265,7.367936 -1.09735,3.448822 -1.88117,7.838232 -2.1947,13.324992 -0.47029,5.48676 -0.62706,12.22764 -0.62706,20.06586 0,8.46529 0.15677,15.36293 0.78382,20.53617 0.62706,5.32999 1.41089,9.40587 2.665,12.22763 1.25412,2.82177 2.665,4.85971 4.54618,5.80029 1.88117,0.94059 3.91911,1.41088 6.42734,1.41088 1.88118,0 3.76235,-0.31352 5.48676,-0.94058 1.72442,-0.62706 3.29206,-2.03794 4.54618,-4.07588 1.09735,-2.03794 2.1947,-4.8597 2.97852,-8.62205 0.62706,-3.76235 0.94059,-8.62206 1.09736,-14.73588 l 22.5741,0 c 0,6.11382 -0.4703,11.91411 -1.41088,17.24411 -0.94059,5.48676 -2.82177,10.1897 -5.33,14.26558 -2.50823,4.07588 -6.11382,7.36793 -10.81676,9.56264 -4.70293,2.35147 -10.65999,3.44882 -18.02792,3.44882 -8.46529,0 -15.20617,-1.25412 -20.22264,-4.07588 -5.01646,-2.665 -8.93558,-6.58411 -11.60058,-11.75735 -2.66499,-5.01646 -4.3894,-11.13028 -5.17323,-18.34145 -0.78382,-7.05441 -1.09735,-14.89264 -1.09735,-23.51469 0,-8.46529 0.31353,-16.14675 1.09735,-23.35792 0.78383,-7.211176 2.50824,-13.324994 5.17323,-18.498226 2.665,-5.016467 6.58412,-9.092346 11.60058,-11.914108 5.01647,-2.821763 11.75735,-4.232644 20.22264,-4.389409 7.99499,0 14.26557,1.410881 18.96851,3.919115 4.70294,2.664998 8.15176,5.957054 10.50323,10.032933 2.1947,4.07588 3.60558,8.308524 4.23264,13.011461 0.62706,4.702934 0.78383,8.935584 0.94059,13.011464 l -22.5741,0 z"
         style="font-style:normal;font-variant:normal;font-weight:bold;font-stretch:condensed;font-size:156.7645874px;font-family:'Helvetica Neue';-inkscape-font-specification:'Helvetica Neue Bold Condensed';fill:#ffffff"
         id="path4931"
         inkscape:connector-curvature="0" />
      <path
         d="m 465.97186,128.63833 c -0.15676,7.5247 0.15677,13.95205 0.4703,19.28204 0.31353,5.33 1.09735,9.56264 2.1947,12.8547 1.09735,3.29206 2.665,5.64352 4.70294,7.21117 2.03794,1.56765 4.70294,2.1947 8.15176,2.1947 3.29205,0 5.95705,-0.62705 7.99499,-2.1947 2.03794,-1.56765 3.60559,-3.91911 4.70294,-7.21117 1.09735,-3.29206 1.88118,-7.5247 2.1947,-12.8547 0.31353,-5.32999 0.62706,-11.75734 0.62706,-19.28204 0,-7.5247 -0.31353,-13.79528 -0.62706,-19.12528 -0.31352,-5.17323 -1.09735,-9.40588 -2.1947,-12.854697 -1.09735,-3.292056 -2.665,-5.643525 -4.70294,-7.211171 -2.03794,-1.567646 -4.70294,-2.351469 -7.99499,-2.351469 -3.44882,0 -6.11382,0.783823 -8.15176,2.351469 -2.03794,1.567646 -3.60559,3.919115 -4.70294,7.211171 -1.09735,3.448817 -1.88117,7.681467 -2.1947,12.854697 -0.31353,5.33 -0.4703,11.60058 -0.4703,19.12528 z m -22.5741,0 c 0,-8.46529 0.31353,-16.14675 1.09736,-23.35792 0.78382,-7.211176 2.50823,-13.324994 5.17323,-18.498226 2.665,-5.016467 6.58411,-9.092346 11.60058,-11.914108 5.01646,-2.821763 11.75734,-4.232644 20.22263,-4.389409 8.46529,0 15.20616,1.567646 20.22263,4.389409 5.01647,2.821762 8.77882,6.897641 11.44382,11.914108 2.66499,5.173232 4.3894,11.28705 5.17323,18.498226 0.78382,7.21117 1.25411,14.89263 1.25411,23.35792 0,8.62205 -0.47029,16.46028 -1.25411,23.51469 -0.78383,7.21117 -2.50824,13.32499 -5.17323,18.34145 -2.665,5.17324 -6.42735,9.09235 -11.44382,11.75735 -5.01647,2.82176 -11.75734,4.07588 -20.22263,4.07588 -8.46529,0 -15.20617,-1.25412 -20.22263,-4.07588 -5.01647,-2.665 -8.93558,-6.58411 -11.60058,-11.75735 -2.665,-5.01646 -4.38941,-11.13028 -5.17323,-18.34145 -0.78383,-7.05441 -1.09736,-14.89264 -1.09736,-23.51469 z"
         style="font-style:normal;font-variant:normal;font-weight:bold;font-stretch:condensed;font-size:156.7645874px;font-family:'Helvetica Neue';-inkscape-font-specification:'Helvetica Neue Bold Condensed';fill:#ffffff"
         id="path4933"
         inkscape:connector-curvature="0" />
      <path
         d="m 556.68222,167.98624 10.03293,0 c 3.91912,0 7.05441,-0.62706 9.56264,-2.03794 2.35147,-1.25412 4.23265,-3.60558 5.64353,-6.74088 1.41088,-3.13529 2.35147,-7.21117 2.82176,-12.3844 0.4703,-5.01647 0.78382,-11.44381 0.78382,-19.12528 0,-6.27058 -0.31352,-11.91411 -0.62705,-16.77381 -0.4703,-4.70294 -1.41088,-8.77882 -2.665,-11.914108 -1.25412,-3.135292 -3.29206,-5.643525 -5.80029,-7.211171 -2.50823,-1.567646 -5.95706,-2.351469 -10.1897,-2.508233 l -9.56264,0 0,78.695822 z m -22.5741,-95.312869 36.99644,0 c 7.83823,0 14.10882,1.410882 18.96852,3.919115 4.70294,2.508233 8.46529,6.270584 11.13028,10.973521 2.665,4.702938 4.54618,10.503227 5.48676,17.087343 0.94059,6.74087 1.41089,14.26557 1.41089,22.41733 0,9.87617 -0.62706,18.49822 -1.88118,25.7094 -1.25412,7.21117 -3.29206,13.16822 -6.11382,17.87116 -2.97853,4.70294 -6.89764,8.30852 -11.75734,10.50323 -5.01647,2.35146 -11.13029,3.44882 -18.65499,3.44882 l -35.58556,0 0,-111.929919 z"
         style="font-style:normal;font-variant:normal;font-weight:bold;font-stretch:condensed;font-size:156.7645874px;font-family:'Helvetica Neue';-inkscape-font-specification:'Helvetica Neue Bold Condensed';fill:#ffffff"
         id="path4935"
         inkscape:connector-curvature="0" />
      <path
         d="m 685.57699,72.673371 0,18.498222 -39.97497,0 0,26.336447 37.6235,0 0,18.49822 -37.6235,0 0,30.09881 41.54262,0 0,18.49822 -64.11672,0 0,-111.929919 62.54907,0 z"
         style="font-style:normal;font-variant:normal;font-weight:bold;font-stretch:condensed;font-size:156.7645874px;font-family:'Helvetica Neue';-inkscape-font-specification:'Helvetica Neue Bold Condensed';fill:#ffffff"
         id="path4937"
         inkscape:connector-curvature="0" />
    </g>
    <g
       style="font-style:normal;font-weight:normal;font-size:17.68789101px;line-height:125%;font-family:Sans;letter-spacing:0px;word-spacing:0px;fill:#ffffff;fill-opacity:1;stroke:none;stroke-width:1px;stroke-linecap:butt;stroke-linejoin:miter;stroke-opacity:1"
       id="text53638"
       transform="translate(-88.893425,815.1931)">
      <path
         d="m 369.74082,227.47113 0,-28.4156 5.73088,0 0,28.4156 -5.73088,0 z"
         style="font-style:normal;font-variant:normal;font-weight:bold;font-stretch:condensed;font-size:39.7977562px;font-family:'Helvetica Neue';-inkscape-font-specification:'Helvetica Neue Bold Condensed';fill:#ffffff"
         id="path4894"
         inkscape:connector-curvature="0" />
      <path
         d="m 396.35806,199.05553 0,4.69614 -6.20845,0 0,23.71946 -5.73088,0 0,-23.71946 -6.20845,0 0,-4.69614 18.14778,0 z"
         style="font-style:normal;font-variant:normal;font-weight:bold;font-stretch:condensed;font-size:39.7977562px;font-family:'Helvetica Neue';-inkscape-font-specification:'Helvetica Neue Bold Condensed';fill:#ffffff"
         id="path4896"
         inkscape:connector-curvature="0" />
      <path
         d="m 413.0215,218.59623 0,0.83575 c 0,0.67657 0.0398,1.27353 0.1592,1.8307 0.0796,0.55717 0.27858,0.99494 0.59696,1.35312 0.27859,0.39798 0.67656,0.67657 1.15414,0.87555 0.47757,0.23879 1.11433,0.31839 1.87049,0.31839 0.87555,0 1.63171,-0.27859 2.34807,-0.83576 0.71636,-0.55716 1.03474,-1.47251 1.07454,-2.66645 0,-0.63676 -0.11939,-1.15413 -0.27859,-1.6317 -0.15919,-0.47758 -0.43777,-0.87555 -0.83575,-1.27353 -0.39798,-0.35818 -0.95514,-0.67656 -1.59191,-0.99495 -0.63676,-0.31838 -1.43272,-0.59696 -2.38786,-0.95514 -1.27353,-0.39798 -2.38787,-0.87555 -3.30322,-1.39292 -0.95514,-0.47758 -1.7113,-1.07454 -2.34807,-1.7511 -0.63676,-0.67657 -1.07453,-1.47252 -1.35312,-2.34807 -0.31838,-0.87555 -0.43777,-1.91029 -0.43777,-3.10423 0,-2.78584 0.75615,-4.89512 2.34806,-6.28804 1.55212,-1.35313 3.70119,-2.06949 6.44724,-2.06949 1.27353,0 2.42766,0.15919 3.5022,0.43778 1.07454,0.27858 1.98989,0.71636 2.78585,1.35312 0.79595,0.63677 1.39292,1.43272 1.83069,2.38787 0.43778,0.95514 0.67656,2.10928 0.67656,3.4624 l 0,0.79596 -5.49209,0 c 0,-1.31333 -0.23878,-2.38787 -0.71636,-3.10423 -0.47757,-0.71636 -1.27352,-1.07454 -2.38786,-1.11433 -0.63677,0 -1.19393,0.11939 -1.59191,0.27858 -0.43778,0.19899 -0.79596,0.43778 -1.03474,0.75616 -0.23879,0.31838 -0.43778,0.63676 -0.51737,1.03474 -0.0796,0.39798 -0.1194,0.83575 -0.1194,1.23373 0,0.87555 0.15919,1.63171 0.55717,2.22867 0.35818,0.59697 1.15414,1.15414 2.38787,1.63171 l 4.41755,1.91029 c 1.07454,0.47758 1.95009,0.99495 2.66645,1.51232 0.67656,0.51737 1.23373,1.07454 1.6317,1.6715 0.39798,0.59697 0.71636,1.23374 0.87556,1.95009 0.15919,0.71636 0.23878,1.51232 0.23878,2.38787 0,3.02463 -0.87555,5.21351 -2.62665,6.56663 -1.7511,1.35312 -4.13897,2.02969 -7.24319,2.02969 -3.26342,0 -5.57169,-0.67657 -6.96461,-2.10929 -1.39292,-1.39292 -2.06948,-3.4226 -2.06948,-6.04925 l 0,-1.15414 5.73087,0 z"
         style="font-style:normal;font-variant:normal;font-weight:bold;font-stretch:condensed;font-size:39.7977562px;font-family:'Helvetica Neue';-inkscape-font-specification:'Helvetica Neue Bold Condensed';fill:#ffffff"
         id="path4898"
         inkscape:connector-curvature="0" />
      <path
         d="m 434.21505,213.26333 c -0.0398,1.91029 0.0398,3.542 0.1194,4.89513 0.0796,1.35312 0.27858,2.42766 0.55717,3.26341 0.27858,0.83575 0.67656,1.43272 1.19393,1.8307 0.51737,0.39798 1.19393,0.55717 2.06948,0.55717 0.83575,0 1.51232,-0.15919 2.02969,-0.55717 0.51737,-0.39798 0.91535,-0.99495 1.19393,-1.8307 0.27858,-0.83575 0.47757,-1.91029 0.55717,-3.26341 0.0796,-1.35313 0.15919,-2.98484 0.15919,-4.89513 0,-1.91029 -0.0796,-3.5022 -0.15919,-4.85532 -0.0796,-1.31333 -0.27859,-2.38787 -0.55717,-3.26342 -0.27858,-0.83575 -0.67656,-1.43272 -1.19393,-1.8307 -0.51737,-0.39798 -1.19394,-0.59696 -2.02969,-0.59696 -0.87555,0 -1.55211,0.19898 -2.06948,0.59696 -0.51737,0.39798 -0.91535,0.99495 -1.19393,1.8307 -0.27859,0.87555 -0.47758,1.95009 -0.55717,3.26342 -0.0796,1.35312 -0.1194,2.94503 -0.1194,4.85532 z m -5.73087,0 c 0,-2.14908 0.0796,-4.09917 0.27858,-5.92986 0.19899,-1.8307 0.63677,-3.38281 1.31333,-4.69614 0.67656,-1.27353 1.6715,-2.30827 2.94503,-3.02463 1.27353,-0.71636 2.98483,-1.07454 5.13391,-1.11434 2.14908,0 3.86038,0.39798 5.13391,1.11434 1.27353,0.71636 2.22868,1.7511 2.90524,3.02463 0.67656,1.31333 1.11434,2.86544 1.31332,4.69614 0.19899,1.83069 0.31839,3.78078 0.31839,5.92986 0,2.18888 -0.1194,4.17877 -0.31839,5.96966 -0.19898,1.8307 -0.63676,3.38281 -1.31332,4.65634 -0.67656,1.31333 -1.63171,2.30827 -2.90524,2.98483 -1.27353,0.71636 -2.98483,1.03475 -5.13391,1.03475 -2.14908,0 -3.86038,-0.31839 -5.13391,-1.03475 -1.27353,-0.67656 -2.26847,-1.6715 -2.94503,-2.98483 -0.67656,-1.27353 -1.11434,-2.82564 -1.31333,-4.65634 -0.19899,-1.79089 -0.27858,-3.78078 -0.27858,-5.96966 z"
         style="font-style:normal;font-variant:normal;font-weight:bold;font-stretch:condensed;font-size:39.7977562px;font-family:'Helvetica Neue';-inkscape-font-specification:'Helvetica Neue Bold Condensed';fill:#ffffff"
         id="path4900"
         inkscape:connector-curvature="0" />
      <path
         d="m 451.23419,227.47113 0,-28.4156 5.73088,0 0,23.71947 10.14842,0 0,4.69613 -15.8793,0 z"
         style="font-style:normal;font-variant:normal;font-weight:bold;font-stretch:condensed;font-size:39.7977562px;font-family:'Helvetica Neue';-inkscape-font-specification:'Helvetica Neue Bold Condensed';fill:#ffffff"
         id="path4902"
         inkscape:connector-curvature="0" />
      <path
         d="m 475.0289,199.05553 0,19.81929 c -0.0398,0.71635 0.0398,1.39292 0.11939,1.98988 0.0796,0.59697 0.27859,1.11434 0.51737,1.55212 0.23879,0.43777 0.59697,0.79595 1.03474,1.03474 0.43778,0.23878 0.99495,0.35818 1.67151,0.35818 0.67656,0 1.23373,-0.1194 1.67151,-0.35818 0.39797,-0.23879 0.75615,-0.59697 0.99494,-1.03474 0.23879,-0.43778 0.43777,-0.95515 0.51737,-1.55212 0.0796,-0.59696 0.15919,-1.27353 0.15919,-1.98988 l 0,-19.81929 5.73088,0 0,19.81929 c 0,1.83069 -0.27859,3.30321 -0.75616,4.49714 -0.51737,1.19393 -1.19393,2.10928 -2.02968,2.78584 -0.87556,0.71636 -1.8307,1.15414 -2.90524,1.39293 -1.11434,0.23878 -2.22868,0.35818 -3.38281,0.35818 -1.19393,0 -2.30827,-0.0796 -3.38281,-0.31839 -1.11434,-0.19899 -2.06948,-0.63676 -2.90524,-1.27352 -0.87555,-0.63677 -1.55211,-1.59191 -2.02968,-2.78585 -0.51737,-1.19393 -0.75616,-2.74604 -0.75616,-4.65633 l 0,-19.81929 5.73088,0 z"
         style="font-style:normal;font-variant:normal;font-weight:bold;font-stretch:condensed;font-size:39.7977562px;font-family:'Helvetica Neue';-inkscape-font-specification:'Helvetica Neue Bold Condensed';fill:#ffffff"
         id="path4904"
         inkscape:connector-curvature="0" />
      <path
         d="m 507.66741,199.05553 0,4.69614 -6.20845,0 0,23.71946 -5.73088,0 0,-23.71946 -6.20845,0 0,-4.69614 18.14778,0 z"
         style="font-style:normal;font-variant:normal;font-weight:bold;font-stretch:condensed;font-size:39.7977562px;font-family:'Helvetica Neue';-inkscape-font-specification:'Helvetica Neue Bold Condensed';fill:#ffffff"
         id="path4906"
         inkscape:connector-curvature="0" />
      <path
         d="m 510.43211,227.47113 0,-28.4156 5.73087,0 0,28.4156 -5.73087,0 z"
         style="font-style:normal;font-variant:normal;font-weight:bold;font-stretch:condensed;font-size:39.7977562px;font-family:'Helvetica Neue';-inkscape-font-specification:'Helvetica Neue Bold Condensed';fill:#ffffff"
         id="path4908"
         inkscape:connector-curvature="0" />
      <path
         d="m 525.54779,213.26333 c -0.0398,1.91029 0.0398,3.542 0.1194,4.89513 0.0796,1.35312 0.27858,2.42766 0.55717,3.26341 0.27858,0.83575 0.67656,1.43272 1.19393,1.8307 0.51737,0.39798 1.19393,0.55717 2.06948,0.55717 0.83576,0 1.51232,-0.15919 2.02969,-0.55717 0.51737,-0.39798 0.91535,-0.99495 1.19393,-1.8307 0.27858,-0.83575 0.47757,-1.91029 0.55717,-3.26341 0.0796,-1.35313 0.15919,-2.98484 0.15919,-4.89513 0,-1.91029 -0.0796,-3.5022 -0.15919,-4.85532 -0.0796,-1.31333 -0.27859,-2.38787 -0.55717,-3.26342 -0.27858,-0.83575 -0.67656,-1.43272 -1.19393,-1.8307 -0.51737,-0.39798 -1.19393,-0.59696 -2.02969,-0.59696 -0.87555,0 -1.55211,0.19898 -2.06948,0.59696 -0.51737,0.39798 -0.91535,0.99495 -1.19393,1.8307 -0.27859,0.87555 -0.47758,1.95009 -0.55717,3.26342 -0.0796,1.35312 -0.1194,2.94503 -0.1194,4.85532 z m -5.73087,0 c 0,-2.14908 0.0796,-4.09917 0.27858,-5.92986 0.19899,-1.8307 0.63677,-3.38281 1.31333,-4.69614 0.67656,-1.27353 1.6715,-2.30827 2.94503,-3.02463 1.27353,-0.71636 2.98483,-1.07454 5.13391,-1.11434 2.14908,0 3.86038,0.39798 5.13391,1.11434 1.27353,0.71636 2.22868,1.7511 2.90524,3.02463 0.67656,1.31333 1.11434,2.86544 1.31332,4.69614 0.19899,1.83069 0.31839,3.78078 0.31839,5.92986 0,2.18888 -0.1194,4.17877 -0.31839,5.96966 -0.19898,1.8307 -0.63676,3.38281 -1.31332,4.65634 -0.67656,1.31333 -1.63171,2.30827 -2.90524,2.98483 -1.27353,0.71636 -2.98483,1.03475 -5.13391,1.03475 -2.14908,0 -3.86038,-0.31839 -5.13391,-1.03475 -1.27353,-0.67656 -2.26847,-1.6715 -2.94503,-2.98483 -0.67656,-1.27353 -1.11434,-2.82564 -1.31333,-4.65634 -0.19899,-1.79089 -0.27858,-3.78078 -0.27858,-5.96966 z"
         style="font-style:normal;font-variant:normal;font-weight:bold;font-stretch:condensed;font-size:39.7977562px;font-family:'Helvetica Neue';-inkscape-font-specification:'Helvetica Neue Bold Condensed';fill:#ffffff"
         id="path4910"
         inkscape:connector-curvature="0" />
      <path
         d="m 549.17336,199.05553 6.92481,19.46111 0.0796,0 0,-19.46111 5.25331,0 0,28.4156 -6.52684,0 -7.0044,-19.89888 -0.0796,0 0,19.89888 -5.2533,0 0,-28.4156 6.60643,0 z"
         style="font-style:normal;font-variant:normal;font-weight:bold;font-stretch:condensed;font-size:39.7977562px;font-family:'Helvetica Neue';-inkscape-font-specification:'Helvetica Neue Bold Condensed';fill:#ffffff"
         id="path4912"
         inkscape:connector-curvature="0" />
      <path
         d="m 570.03608,218.59623 0,0.83575 c 0,0.67657 0.0398,1.27353 0.1592,1.8307 0.0796,0.55717 0.27858,0.99494 0.59696,1.35312 0.27859,0.39798 0.67656,0.67657 1.15414,0.87555 0.47757,0.23879 1.11433,0.31839 1.87049,0.31839 0.87555,0 1.63171,-0.27859 2.34807,-0.83576 0.71636,-0.55716 1.03474,-1.47251 1.07454,-2.66645 0,-0.63676 -0.11939,-1.15413 -0.27859,-1.6317 -0.15919,-0.47758 -0.43777,-0.87555 -0.83575,-1.27353 -0.39798,-0.35818 -0.95514,-0.67656 -1.59191,-0.99495 -0.63676,-0.31838 -1.43272,-0.59696 -2.38786,-0.95514 -1.27353,-0.39798 -2.38787,-0.87555 -3.30322,-1.39292 -0.95514,-0.47758 -1.7113,-1.07454 -2.34807,-1.7511 -0.63676,-0.67657 -1.07454,-1.47252 -1.35312,-2.34807 -0.31838,-0.87555 -0.43777,-1.91029 -0.43777,-3.10423 0,-2.78584 0.75615,-4.89512 2.34806,-6.28804 1.55212,-1.35313 3.70119,-2.06949 6.44724,-2.06949 1.27353,0 2.42766,0.15919 3.5022,0.43778 1.07454,0.27858 1.98989,0.71636 2.78584,1.35312 0.79596,0.63677 1.39293,1.43272 1.8307,2.38787 0.43778,0.95514 0.67656,2.10928 0.67656,3.4624 l 0,0.79596 -5.49209,0 c 0,-1.31333 -0.23878,-2.38787 -0.71636,-3.10423 -0.47757,-0.71636 -1.27352,-1.07454 -2.38786,-1.11433 -0.63677,0 -1.19393,0.11939 -1.59191,0.27858 -0.43778,0.19899 -0.79596,0.43778 -1.03474,0.75616 -0.23879,0.31838 -0.43778,0.63676 -0.51737,1.03474 -0.0796,0.39798 -0.1194,0.83575 -0.1194,1.23373 0,0.87555 0.15919,1.63171 0.55717,2.22867 0.35818,0.59697 1.15414,1.15414 2.38787,1.63171 l 4.41755,1.91029 c 1.07454,0.47758 1.95009,0.99495 2.66645,1.51232 0.67656,0.51737 1.23373,1.07454 1.6317,1.6715 0.39798,0.59697 0.71636,1.23374 0.87556,1.95009 0.15919,0.71636 0.23878,1.51232 0.23878,2.38787 0,3.02463 -0.87555,5.21351 -2.62665,6.56663 -1.7511,1.35312 -4.13897,2.02969 -7.24319,2.02969 -3.26342,0 -5.57169,-0.67657 -6.96461,-2.10929 -1.39292,-1.39292 -2.06948,-3.4226 -2.06948,-6.04925 l 0,-1.15414 5.73087,0 z"
         style="font-style:normal;font-variant:normal;font-weight:bold;font-stretch:condensed;font-size:39.7977562px;font-family:'Helvetica Neue';-inkscape-font-specification:'Helvetica Neue Bold Condensed';fill:#ffffff"
         id="path4914"
         inkscape:connector-curvature="0" />
      <path
         d="m 608.2724,207.49266 c 0,-0.51737 -0.0796,-1.03474 -0.19899,-1.63171 -0.11939,-0.55717 -0.31838,-1.03474 -0.55716,-1.51232 -0.27859,-0.47757 -0.63677,-0.83575 -1.03475,-1.15413 -0.39797,-0.31838 -0.91534,-0.47757 -1.47251,-0.47757 -1.39292,0 -2.38787,0.79595 -2.98484,2.30827 -0.63676,1.55211 -0.91534,4.09916 -0.91534,7.64117 0,1.7113 0.0398,3.26341 0.15919,4.61653 0.0796,1.39293 0.27858,2.58686 0.55717,3.54201 0.27858,0.95514 0.67656,1.7113 1.19393,2.22867 0.51737,0.51737 1.19393,0.75616 2.02968,0.75616 0.31839,0 0.71636,-0.0796 1.11434,-0.27859 0.39798,-0.15919 0.79596,-0.43777 1.15414,-0.83575 0.35818,-0.35818 0.67656,-0.83575 0.91534,-1.39292 0.23879,-0.55717 0.35818,-1.23373 0.35818,-2.02969 l 0,-2.90523 -3.78078,0 0,-4.21857 9.27287,0 0,15.32214 -4.21856,0 0,-2.62665 -0.0796,0 c -0.71636,1.11434 -1.55212,1.91029 -2.50726,2.38786 -0.95515,0.47758 -2.10928,0.67657 -3.46241,0.67657 -1.7511,0 -3.18382,-0.27859 -4.29815,-0.91535 -1.11434,-0.59697 -1.95009,-1.55212 -2.58686,-2.82564 -0.63676,-1.27353 -1.03474,-2.82564 -1.23373,-4.69614 -0.23878,-1.87049 -0.31838,-4.05937 -0.31838,-6.52683 0,-2.38787 0.11939,-4.45735 0.43777,-6.28805 0.31839,-1.7909 0.83576,-3.30321 1.59192,-4.49714 0.71635,-1.19394 1.7113,-2.10928 2.94503,-2.74605 1.19393,-0.59696 2.74604,-0.87555 4.57674,-0.91535 3.10423,0 5.3727,0.79596 6.76562,2.34807 1.35312,1.55211 2.06948,3.78079 2.06948,6.64623 l -5.49209,0 z"
         style="font-style:normal;font-variant:normal;font-weight:bold;font-stretch:condensed;font-size:39.7977562px;font-family:'Helvetica Neue';-inkscape-font-specification:'Helvetica Neue Bold Condensed';fill:#ffffff"
         id="path4916"
         inkscape:connector-curvature="0" />
      <path
         d="m 617.65037,206.05994 5.2533,0 0,2.18887 0.0796,0 c 0.67656,-0.95514 1.43272,-1.6715 2.30827,-2.10928 0.87555,-0.39797 1.91029,-0.63676 3.10422,-0.63676 1.27353,0 2.30827,0.31838 3.18382,0.87555 0.87555,0.59697 1.43272,1.43272 1.7511,2.54706 l 0.0796,0 c 0.39798,-1.11434 1.07454,-1.98989 2.02969,-2.54706 0.95514,-0.55717 2.06948,-0.83575 3.3828,-0.87555 1.8307,0 3.14403,0.55717 4.01958,1.6715 0.87555,1.11434 1.31332,2.66645 1.31332,4.73594 l 0,15.56092 -5.49209,0 0,-14.96396 c 0,-0.87555 -0.19899,-1.59191 -0.51737,-2.06948 -0.31838,-0.47757 -0.87555,-0.71636 -1.63171,-0.71636 -0.87555,0 -1.59191,0.31838 -2.10928,0.87555 -0.51737,0.59697 -0.75615,1.51232 -0.75615,2.78584 l 0,14.08841 -5.49209,0 0,-14.96396 c 0,-0.87555 -0.19899,-1.59191 -0.51737,-2.06948 -0.31839,-0.47757 -0.87556,-0.71636 -1.63171,-0.71636 -0.87555,0 -1.59191,0.31838 -2.10928,0.87555 -0.51737,0.59697 -0.75616,1.51232 -0.75616,2.78584 l 0,14.08841 -5.49209,0 0,-21.41119 z"
         style="font-style:normal;font-variant:normal;font-weight:bold;font-stretch:condensed;font-size:39.7977562px;font-family:'Helvetica Neue';-inkscape-font-specification:'Helvetica Neue Bold Condensed';fill:#ffffff"
         id="path4918"
         inkscape:connector-curvature="0" />
      <path
         d="m 647.80961,199.05553 5.49209,0 0,8.9943 0.0796,0 c 0.55716,-0.83576 1.23373,-1.47252 1.95009,-1.9103 0.71635,-0.39797 1.6317,-0.63676 2.66644,-0.63676 2.22868,0 3.90018,0.91535 4.97472,2.66645 1.03475,1.7511 1.59191,4.61654 1.59191,8.59631 0,3.97978 -0.55716,6.84522 -1.59191,8.55652 -1.07454,1.7511 -2.74604,2.58686 -4.97472,2.58686 -1.11433,0 -2.06948,-0.19899 -2.82564,-0.59697 -0.75615,-0.39798 -1.43272,-1.07454 -2.02968,-2.10928 l -0.0796,0 0,2.26847 -5.2533,0 0,-28.4156 z m 5.49209,17.71 c 0,2.34807 0.15919,4.09917 0.51737,5.29311 0.35818,1.19393 1.15414,1.7511 2.38787,1.7511 1.19393,0 1.95009,-0.55717 2.30827,-1.7511 0.35818,-1.19394 0.55716,-2.94504 0.55716,-5.29311 0,-2.30827 -0.19898,-4.05937 -0.55716,-5.2533 -0.35818,-1.19393 -1.11434,-1.7909 -2.30827,-1.7909 -1.23373,0 -2.02969,0.59697 -2.38787,1.7909 -0.35818,1.19393 -0.51737,2.94503 -0.51737,5.2533 z"
         style="font-style:normal;font-variant:normal;font-weight:bold;font-stretch:condensed;font-size:39.7977562px;font-family:'Helvetica Neue';-inkscape-font-specification:'Helvetica Neue Bold Condensed';fill:#ffffff"
         id="path4920"
         inkscape:connector-curvature="0" />
      <path
         d="m 667.86766,199.05553 5.73088,0 0,10.86479 6.68602,0 0,-10.86479 5.73088,0 0,28.4156 -5.73088,0 0,-12.61589 -6.68602,0 0,12.61589 -5.73088,0 0,-28.4156 z"
         style="font-style:normal;font-variant:normal;font-weight:bold;font-stretch:condensed;font-size:39.7977562px;font-family:'Helvetica Neue';-inkscape-font-specification:'Helvetica Neue Bold Condensed';fill:#ffffff"
         id="path4922"
         inkscape:connector-curvature="0" />
    </g>
    <g
       style="font-style:normal;font-variant:normal;font-weight:normal;font-stretch:normal;font-size:156.25px;line-height:125%;font-family:'Helvetica Neue';-inkscape-font-specification:'Helvetica Neue';letter-spacing:0px;word-spacing:0px;fill:#ffffff;fill-opacity:1;stroke:none;stroke-width:1px;stroke-linecap:butt;stroke-linejoin:miter;stroke-opacity:1"
       id="text53838"
       transform="translate(-88.893425,815.1931)">
      <path
         d="m 322.57465,88.082626 20.625,0 0,24.375004 -20.625,0 0,-24.375004 z m 0,57.031254 20.625,0 0,24.375 -20.625,0 0,-24.375 z"
         style="font-style:normal;font-variant:normal;font-weight:bold;font-stretch:condensed;font-family:'Helvetica Neue';-inkscape-font-specification:'Helvetica Neue Bold Condensed';fill:#ffffff"
         id="path4891"
         inkscape:connector-curvature="0" />
    </g>
  </g>
</svg>
