<?xml version="1.0" encoding="UTF-8" standalone="no"?>
<!-- Created with Inkscape (http://www.inkscape.org/) -->

<svg
   xmlns:dc="http://purl.org/dc/elements/1.1/"
   xmlns:cc="http://creativecommons.org/ns#"
   xmlns:rdf="http://www.w3.org/1999/02/22-rdf-syntax-ns#"
   xmlns:svg="http://www.w3.org/2000/svg"
   xmlns="http://www.w3.org/2000/svg"
   xmlns:sodipodi="http://sodipodi.sourceforge.net/DTD/sodipodi-0.dtd"
   xmlns:inkscape="http://www.inkscape.org/namespaces/inkscape"
   width="50mm"
   height="50mm"
   viewBox="0 0 177.16535 177.16535"
   id="svg52856"
   version="1.1"
   inkscape:version="0.91 r"
   sodipodi:docname="logo1.svg">
  <defs
     id="defs52858" />
  <sodipodi:namedview
     id="base"
     pagecolor="#FFFFFF"
     bordercolor="#222222"
     borderopacity="1.0"
     inkscape:pageopacity="0.0"
     inkscape:pageshadow="2"
     inkscape:zoom="0.98994949"
     inkscape:cx="71.773536"
     inkscape:cy="258.99958"
     inkscape:document-units="px"
     inkscape:current-layer="layer1"
     showgrid="false"
     inkscape:window-width="1920"
     inkscape:window-height="1027"
     inkscape:window-x="1024"
     inkscape:window-y="0"
     inkscape:window-maximized="1"
     inkscape:snap-global="false"
     showguides="false" />
  <metadata
     id="metadata52861">
    <rdf:RDF>
      <cc:Work
         rdf:about="">
        <dc:format>image/svg+xml</dc:format>
        <dc:type
           rdf:resource="http://purl.org/dc/dcmitype/StillImage" />
        <dc:title></dc:title>
      </cc:Work>
    </rdf:RDF>
  </metadata>
  <g
     inkscape:label="Ebene 1"
     inkscape:groupmode="layer"
     id="layer1"
     transform="translate(0,-875.19695)">
    <flowRoot
       xml:space="preserve"
       id="flowRoot53620"
       style="font-style:normal;font-weight:normal;font-size:40px;line-height:125%;font-family:Sans;letter-spacing:0px;word-spacing:0px;fill:#ffffff;fill-opacity:1;stroke:none;stroke-width:1px;stroke-linecap:butt;stroke-linejoin:miter;stroke-opacity:1"
       inkscape:export-xdpi="149"
       inkscape:export-ydpi="149"><flowRegion
         id="flowRegion53622"><rect
           id="rect53624"
           width="1224.3049"
           height="141.42136"
           x="1854.64"
           y="-398.21686" /></flowRegion><flowPara
         id="flowPara53626"
         style="font-style:normal;font-variant:normal;font-weight:normal;font-stretch:normal;font-size:180px;font-family:'Helvetica Neue';-inkscape-font-specification:'Helvetica Neue'">IT </flowPara></flowRoot>    <path
       inkscape:connector-curvature="0"
       style="color:#ffffff;display:inline;overflow:visible;visibility:visible;opacity:1;fill:#ffffff;fill-opacity:1;fill-rule:nonzero;stroke:none;stroke-width:40;stroke-linecap:butt;stroke-linejoin:round;stroke-miterlimit:4;stroke-dasharray:none;stroke-dashoffset:0;stroke-opacity:1;marker:none;enable-background:accumulate"
       d="m 54.28658,907.6721 c -7.01629,0 -12.66473,5.67317 -12.66473,12.72038 l 0,91.70502 c 0,7.0472 5.64844,12.7208 12.66473,12.7208 l 93.48209,0 c 7.01629,0 12.66473,-5.6736 12.66473,-12.7208 l 0,-17.30832 -18.7447,0 0,3.0537 c 0,4.14462 -3.57199,7.48122 -8.00917,7.48122 l -64.58509,0 c -4.43719,0 -8.00955,-3.3366 -8.00955,-7.48122 l 0,-64.74882 c 0,-4.14462 3.57236,-7.48126 8.00955,-7.48126 l 64.58509,0 c 4.43718,0 8.00917,3.33664 8.00917,7.48126 l 0,3.02119 18.7447,0 0,-15.72277 c 0,-7.04721 -5.64844,-12.72038 -12.66473,-12.72038 l -93.48209,0 z"
       id="rect18539-8"
       inkscape:export-xdpi="149"
       inkscape:export-ydpi="149" />
    <g
       id="g53819"
       transform="translate(-35.407899,1024.5594)"
       inkscape:export-xdpi="149"
       inkscape:export-ydpi="149">
      <path
         sodipodi:nodetypes="scccssssssccccccscscccccccccccccccccccccccccccccccccccccccccccccccccccccccsccccccccccccscccccccssscsssscsccss"
         inkscape:connector-curvature="0"
         id="path4147-3-0"
         d="m 101.73715,-82.967238 c 0.48733,-1.042778 1.4545,-3.131823 1.4545,-3.131823 0.55937,-0.707413 -31.332478,-34.854439 -31.332478,-34.854439 0,0 35.117408,30.502174 35.766768,29.878874 1.60724,-1.54258 2.28771,-2.36934 4.37497,-3.11442 1.24214,-0.4434 2.59718,-0.39029 3.91019,-0.28926 1.33058,0.10239 2.67821,0.26176 3.99163,0.0227 1.09472,-0.19922 2.08111,-0.79731 3.16049,-1.06923 2.59275,-0.65317 5.25928,-0.93774 7.90182,-1.33576 2.5152,-0.37885 5.03796,-0.70337 7.56056,-1.02791 1.07338,-0.13809 2.14682,-0.27457 3.22062,-0.4091 0.32463,-0.0407 0.65009,-0.0806 0.97477,-0.12086 0.0885,-0.011 0.1772,-0.0221 0.2658,-0.0331 -0.005,5.1e-4 0.0732,-0.009 0.0692,-0.008 l 0.0183,-0.003 c 0,-3.5e-4 0.006,3.4e-4 0.007,0 0,0 4.82487,-1.894884 6.84758,-3.473194 1.57762,-1.23102 3.95091,-4.54139 3.95091,-4.54139 l -1.31697,4.54139 c -0.69412,2.393584 -4.0379,2.849034 -6.05721,4.273824 l 15.01317,-0.5341 4.74029,0.80166 -6.32103,1.86986 11.06231,2.67153 -16.59297,0 17.90994,4.00728 -7.19125,0.80167 c 0,0 9.91358,3.241855 13.51327,5.379068 l -9.48256,-1.371787 c 4.12649,2.048164 8.25278,4.096552 12.37928,6.144712 l -20.54383,-4.007285 c 6.05768,2.137107 12.11603,4.274143 18.17371,6.411243 l -17.38438,-1.068196 23.44263,5.609581 -7.90182,-0.534095 -10.00911,0.80166 16.85674,2.403959 -21.07147,0.267565 22.6522,5.075486 -15.27698,0.801662 16.06741,4.27485 -21.33529,-3.473189 16.59401,4.80895 -20.80765,-3.74075 c 8.77943,2.760463 17.55882,5.521667 26.33826,8.282137 l -9.48152,-1.069233 -17.12056,-5.07548 0.0183,0.0062 c 0,0.001 0.0527,0.01777 0.055,0.01862 0.0703,0.02407 0.14055,0.04819 0.21084,0.07232 0.26685,0.09154 0.5339,0.18391 0.80059,0.275833 0.95699,0.329842 1.9133,0.661621 2.86919,0.994843 2.95888,1.03151 5.91239,2.076172 8.85922,3.142608 6.99494,2.47883 13.56346,7.161233 13.56346,7.161233 0,0 -16.28042,-5.25999 -26.64044,-9.0001 8.69193,4.452524 17.3836,8.905092 26.07553,13.357615 l -23.70437,-7.212902 22.91499,12.55595 -21.59802,-7.480469 20.01728,10.953659 c -5.00447,-2.137212 -10.00874,-4.275064 -15.01322,-6.412279 5.71035,3.117811 11.08392,6.878421 16.13337,10.106923 0,0 -10.48766,-4.007871 -13.28223,-4.442633 -0.14023,-0.02206 -0.28067,-0.04401 -0.42069,-0.06818 -0.065,-0.0429 -0.12886,-0.08771 -0.19655,-0.126035 -0.0734,-0.04152 -0.1493,-0.08002 -0.22919,-0.106405 -0.0516,-0.01698 -0.10581,-0.03142 -0.1589,-0.02068 -0.0297,0.0061 -0.061,0.0127 -0.0876,0.02788 -0.012,0.0067 -0.0229,0.01878 -0.0172,0.03099 l 0,10e-4 c 0.008,0.0183 0.0287,0.0265 0.0469,0.03512 0.0349,0.01655 0.072,0.02825 0.10899,0.03925 0.17496,0.05226 0.35373,0.0877 0.53369,0.118803 0.154,0.10163 0.30372,0.210367 0.44916,0.324385 0.66766,0.523426 1.28996,1.103888 1.90672,1.68804 1.78438,1.690074 3.49075,3.462199 5.18638,5.243873 1.66443,1.749001 3.30999,3.517265 4.94294,5.296558 0.53515,0.583084 1.06806,1.167203 1.60013,1.753123 0.1491,0.16416 0.2984,0.3283 0.44713,0.49278 0.0391,0.0435 0.0789,0.0867 0.11817,0.13017 0,-0.002 0.0328,0.0361 0.0308,0.0341 l 0.007,0.008 -18.17063,-11.483634 c 5.44341,4.897774 15.6517,11.940914 15.6517,11.940914 l -18.56506,-5.12838 14.93229,11.2234 c -19.21298,-1.2291 -81.983368,0.69684 -81.983368,0.69684 0,0 7.795508,-11.242334 9.386838,-13.967121 3.02521,-5.180114 4.67765,-15.277215 6.32202,-21.06227 0.38668,-1.360499 0.63809,-2.756004 0.88919,-4.148817 l 0.42778,-2.52999 c 0,1.32e-4 -0.0177,0.0021 -0.0193,0.0021 -0.0177,0.0015 -0.036,0.0037 -0.054,0.0053 -0.0681,0.0065 -0.13663,0.01295 -0.20474,0.01962 -0.24906,0.02444 -0.49766,0.05035 -0.74657,0.07645 -0.82186,0.08613 -1.64269,0.179294 -2.46284,0.280995 -1.92241,0.238386 -3.85182,0.477421 -5.73127,0.951455 -2.27286,0.573253 -4.58061,1.176036 -6.584848,2.404994 -1.22613,0.751826 -2.06604,2.000182 -3.16049,2.938059 -0.77551,0.664535 -1.37783,1.657189 -2.37116,1.869856 -1.8017,0.385746 -3.57883,-0.591881 -5.26788,-1.335761 -1.65067,-0.72696 -3.41185,-1.467191 -4.47746,-2.938053 -0.98541,-1.360165 -1.24573,-3.122601 -1.31697,-4.808951 -0.0617,-1.461843 0.18325,-2.947546 0.79037,-4.27485 0.98369,-2.150663 2.3394,-4.104641 3.75024,-5.994921 1.57172,-2.105866 3.26103,-4.119602 5.00203,-6.083758 l 6.26095,-6.620958 c 0,0 1.07284,-1.571331 1.531058,-2.403375 0.61724,-1.1208 1.09177,-2.314471 1.6335,-3.473657 z"
         style="fill:#ffffff;fill-opacity:1;fill-rule:evenodd;stroke:#222222;stroke-width:4;stroke-linecap:butt;stroke-linejoin:miter;stroke-miterlimit:4;stroke-dasharray:none;stroke-opacity:1" />
      <path
         sodipodi:nodetypes="scccssssssccccccscscccccccccccccccccccccccccccccccccccccccccccccccccccccccsccccccccccccscccccccssscsssscsccss"
         inkscape:connector-curvature="0"
         id="path4147-3"
         d="m 101.73715,-82.967203 c 0.48733,-1.042778 1.4545,-3.131823 1.4545,-3.131823 0.55937,-0.707413 -31.332478,-34.854434 -31.332478,-34.854434 0,0 35.117408,30.502169 35.766768,29.878869 1.60724,-1.54258 2.28771,-2.36934 4.37497,-3.11442 1.24214,-0.4434 2.59718,-0.39029 3.91019,-0.28926 1.33058,0.10239 2.67821,0.26176 3.99163,0.0227 1.09472,-0.19922 2.08111,-0.79731 3.16049,-1.06923 2.59275,-0.65317 5.25928,-0.93774 7.90182,-1.33576 2.5152,-0.37885 5.03796,-0.70337 7.56056,-1.02791 1.07338,-0.13809 2.14682,-0.27457 3.22062,-0.4091 0.32463,-0.0407 0.65009,-0.0806 0.97477,-0.12086 0.0885,-0.011 0.1772,-0.0221 0.2658,-0.0331 -0.005,5.1e-4 0.0732,-0.009 0.0692,-0.008 l 0.0183,-0.003 c 0,-3.5e-4 0.006,3.4e-4 0.007,0 0,0 4.82487,-1.894879 6.84758,-3.473189 1.57762,-1.23102 3.95091,-4.54139 3.95091,-4.54139 l -1.31697,4.54139 c -0.69412,2.393579 -4.0379,2.849029 -6.05721,4.273819 l 15.01317,-0.5341 4.74029,0.80166 -6.32103,1.86986 11.06231,2.67153 -16.59297,0 17.90994,4.00728 -7.19125,0.80167 c 0,0 9.91358,3.241855 13.51327,5.379068 l -9.48256,-1.371787 c 4.12649,2.048164 8.25278,4.096552 12.37928,6.144712 l -20.54383,-4.007285 c 6.05768,2.137107 12.11603,4.274143 18.17371,6.411243 l -17.38438,-1.068196 23.44263,5.609581 -7.90182,-0.534095 -10.00911,0.80166 16.85674,2.403959 -21.07147,0.267565 22.6522,5.075486 -15.27698,0.801662 16.06741,4.27485 -21.33529,-3.473189 16.59401,4.80895 -20.80765,-3.74075 c 8.77943,2.760463 17.55882,5.521667 26.33826,8.282137 l -9.48152,-1.069233 -17.12056,-5.07548 0.0183,0.0062 c 0,10e-4 0.0527,0.01777 0.055,0.01862 0.0703,0.02407 0.14055,0.04819 0.21084,0.07232 0.26685,0.09154 0.5339,0.18391 0.80059,0.275833 0.95699,0.329842 1.9133,0.661621 2.86919,0.994843 2.95888,1.03151 5.91239,2.076172 8.85922,3.142608 6.99494,2.47883 13.56346,7.161233 13.56346,7.161233 0,0 -16.28042,-5.25999 -26.64044,-9.0001 8.69193,4.452524 17.3836,8.905092 26.07553,13.357615 l -23.70437,-7.212902 22.91499,12.55595 -21.59802,-7.480469 20.01728,10.953659 c -5.00447,-2.137212 -10.00874,-4.275064 -15.01322,-6.412279 5.71035,3.117811 11.08392,6.878421 16.13337,10.106923 0,0 -10.48766,-4.007871 -13.28223,-4.442633 -0.14023,-0.02206 -0.28067,-0.04401 -0.42069,-0.06818 -0.065,-0.0429 -0.12886,-0.08771 -0.19655,-0.126035 -0.0734,-0.04152 -0.1493,-0.08002 -0.22919,-0.106405 -0.0516,-0.01698 -0.10581,-0.03142 -0.1589,-0.02068 -0.0297,0.0061 -0.061,0.0127 -0.0876,0.02788 -0.012,0.0067 -0.0229,0.01878 -0.0172,0.03099 l 0,10e-4 c 0.008,0.0183 0.0287,0.0265 0.0469,0.03512 0.0349,0.01655 0.072,0.02825 0.10899,0.03925 0.17496,0.05226 0.35373,0.0877 0.53369,0.118803 0.154,0.10163 0.30372,0.210367 0.44916,0.324385 0.66766,0.523426 1.28996,1.103888 1.90672,1.68804 1.78438,1.690074 3.49075,3.462199 5.18638,5.243873 1.66443,1.749001 3.30999,3.517265 4.94294,5.296558 0.53515,0.583084 1.06806,1.167202 1.60013,1.753126 0.1491,0.164156 0.2984,0.328299 0.44713,0.492776 0.0391,0.04348 0.0789,0.08666 0.11817,0.130166 0,-0.0021 0.0328,0.03613 0.0308,0.03406 l 0.007,0.0083 -18.17063,-11.483629 c 5.44341,4.897774 15.6517,11.940918 15.6517,11.940918 l -18.56506,-5.128384 14.93229,11.223397 c -19.21298,-1.229102 -81.983368,0.696838 -81.983368,0.696838 0,0 7.795508,-11.242329 9.386838,-13.967116 3.02521,-5.180114 4.67765,-15.277215 6.32202,-21.06227 0.38668,-1.360499 0.63809,-2.756004 0.88919,-4.148817 l 0.42778,-2.52999 c 0,1.32e-4 -0.0177,0.0021 -0.0193,0.0021 -0.0177,0.0015 -0.036,0.0037 -0.054,0.0053 -0.0681,0.0065 -0.13663,0.01295 -0.20474,0.01962 -0.24906,0.02444 -0.49766,0.05035 -0.74657,0.07645 -0.82186,0.08613 -1.64269,0.179294 -2.46284,0.280995 -1.92241,0.238386 -3.85182,0.477421 -5.73127,0.951455 -2.27286,0.573253 -4.58061,1.176036 -6.584848,2.404994 -1.22613,0.751826 -2.06604,2.000182 -3.16049,2.938059 -0.77551,0.664535 -1.37783,1.657189 -2.37116,1.869856 -1.8017,0.385746 -3.57883,-0.591881 -5.26788,-1.335761 -1.65067,-0.72696 -3.41185,-1.467191 -4.47746,-2.938053 -0.98541,-1.360165 -1.24573,-3.122601 -1.31697,-4.808951 -0.0617,-1.461843 0.18325,-2.947546 0.79037,-4.27485 0.98369,-2.150663 2.3394,-4.104641 3.75024,-5.994921 1.57172,-2.105866 3.26103,-4.119602 5.00203,-6.083758 l 6.26095,-6.620958 c 0,0 1.07284,-1.571331 1.531058,-2.403375 0.61724,-1.1208 1.09177,-2.314471 1.6335,-3.473657 z"
         style="fill:#ffffff;fill-opacity:1;fill-rule:evenodd;stroke:none;stroke-width:1;stroke-linecap:butt;stroke-linejoin:miter;stroke-miterlimit:4;stroke-dasharray:none;stroke-opacity:1" />
    </g>
    <path
       sodipodi:type="star"
       style="color:#ffffff;display:inline;overflow:visible;visibility:visible;opacity:1;fill:#ffffff;fill-opacity:1;fill-rule:nonzero;stroke:none;stroke-width:74.35007477;stroke-linecap:butt;stroke-linejoin:round;stroke-miterlimit:4;stroke-dasharray:none;stroke-dashoffset:0;stroke-opacity:1;marker:none;enable-background:accumulate"
       id="path53597"
       sodipodi:sides="5"
       sodipodi:cx="-1225.7144"
       sodipodi:cy="-1061.9235"
       sodipodi:r1="483.59201"
       sodipodi:r2="188.60088"
       sodipodi:arg1="0.61750224"
       sodipodi:arg2="1.2458208"
       inkscape:flatsided="false"
       inkscape:rounded="0"
       inkscape:randomized="0"
       d="m -831.42863,-781.92346 -334.06817,-101.27077 -204.6724,282.78353 -6.9185,-349.01211 -332.1904,-107.27009 329.7923,-114.4306 -0.6325,-349.0801 210.7413,278.2902 331.79946,-108.4733 -199.54696,286.4233 z"
       transform="matrix(0.02357738,0.00161532,-0.0016193,0.02363562,51.92414,920.84459)"
       inkscape:export-xdpi="149"
       inkscape:export-ydpi="149" />
    <path
       id="rect18539-8-3-8"
       d="m 41.61692,984.09522 0,28.58988 c 0,7.0472 5.64844,12.7207 12.66472,12.7207 l 93.4821,0 c 7.01629,0 12.66473,-5.6735 12.66473,-12.7207 l 0,-17.30842 -18.7447,0 0,3.0537 c 0,4.14462 -3.572,7.48132 -8.00918,7.48132 l -64.58509,0 c -4.43718,0 -8.00954,-3.3367 -8.00954,-7.48132 l 0,-14.37439 z"
       style="color:#ffffff;display:inline;overflow:visible;visibility:visible;opacity:1;fill:#ffffff;fill-opacity:1;fill-rule:nonzero;stroke:#222222;stroke-width:4;stroke-linecap:butt;stroke-linejoin:round;stroke-miterlimit:4;stroke-dasharray:none;stroke-dashoffset:0;stroke-opacity:1;marker:none;enable-background:accumulate"
       inkscape:connector-curvature="0"
       sodipodi:nodetypes="cssssccsssscc"
       inkscape:export-xdpi="149"
       inkscape:export-ydpi="149" />
    <path
       id="rect18539-8-3"
       d="m 41.61692,984.09526 0,28.58984 c 0,7.0472 5.64844,12.7208 12.66472,12.7208 l 93.48209,0 c 7.01629,0 12.66473,-5.6736 12.66473,-12.7208 l 0,-17.30842 -18.7447,0 0,3.0538 c 0,4.14462 -3.57199,7.48122 -8.00917,7.48122 l -64.58509,0 c -4.43718,0 -8.00954,-3.3366 -8.00954,-7.48122 l 0,-14.37444 z"
       style="color:#ffffff;display:inline;overflow:visible;visibility:visible;opacity:1;fill:#ffffff;fill-opacity:1;fill-rule:nonzero;stroke:none;stroke-width:40;stroke-linecap:butt;stroke-linejoin:round;stroke-miterlimit:4;stroke-dasharray:none;stroke-dashoffset:0;stroke-opacity:1;marker:none;enable-background:accumulate"
       inkscape:connector-curvature="0"
       sodipodi:nodetypes="cssssccsssscc"
       inkscape:export-xdpi="149"
       inkscape:export-ydpi="149" />
    <rect
       style="color:#ffffff;display:inline;overflow:visible;visibility:visible;opacity:1;fill:#ffffff;fill-opacity:1;fill-rule:nonzero;stroke:none;stroke-width:4;stroke-linecap:butt;stroke-linejoin:round;stroke-miterlimit:4;stroke-dasharray:none;stroke-dashoffset:0;stroke-opacity:1;marker:none;enable-background:accumulate"
       id="rect53722"
       width="19.47476"
       height="9.5964499"
       x="41.594837"
       y="981.63116"
       inkscape:export-xdpi="149"
       inkscape:export-ydpi="149" />
  </g>
</svg>
