<?xml version="1.0" encoding="UTF-8" standalone="no"?>
<svg
   xmlns:dc="http://purl.org/dc/elements/1.1/"
   xmlns:cc="http://creativecommons.org/ns#"
   xmlns:rdf="http://www.w3.org/1999/02/22-rdf-syntax-ns#"
   xmlns:svg="http://www.w3.org/2000/svg"
   xmlns="http://www.w3.org/2000/svg"
   version="1.1"
   id="svg2"
   height="900"
   width="900">
  <metadata
     id="metadata30">
    <rdf:RDF>
      <cc:Work
         rdf:about="">
        <dc:format>image/svg+xml</dc:format>
        <dc:type
           rdf:resource="http://purl.org/dc/dcmitype/StillImage" />
        <dc:title>big blue wire globe</dc:title>
      </cc:Work>
    </rdf:RDF>
  </metadata>
  <defs
     id="defs28" />
  <title
     id="title4">big blue wire globe</title>
  <g
     style="fill:none;stroke:#222222;stroke-width:13.60000038;stroke-miterlimit:4;stroke-dasharray:none;stroke-opacity:1"
     transform="translate(98.011085,-185.49216)"
     id="g6">
    <title
       id="title8">Layer 1</title>
    <g
       style="fill:none;stroke:#222222;stroke-width:13.60000038;stroke-miterlimit:4;stroke-dasharray:none;stroke-opacity:1"
       id="g1006">
      <path
         style="fill:none;fill-rule:evenodd;stroke:#222222;stroke-width:13.60000038;stroke-miterlimit:4;stroke-dasharray:none;stroke-opacity:1"
         d="m 785.98102,627.5426 a 387.30286,397.4653 0 1 0 -774.60571,0 387.30286,397.4653 0 1 0 774.60571,0 z"
         id="path908"
         stroke-miterlimit="4" />
      <path
         style="fill:none;fill-opacity:0.75;fill-rule:evenodd;stroke:#222222;stroke-width:13.60000038;stroke-miterlimit:4;stroke-dasharray:none;stroke-opacity:1"
         d="m 381.74078,232.33549 c 0,0 -109.95126,45.97692 -112.20953,398.27572 -2.25836,352.29876 123.50107,394.39669 123.50107,394.39669"
         id="path4042"
         stroke-miterlimit="4" />
      <path
         style="fill:none;fill-opacity:0.75;fill-rule:evenodd;stroke:#222222;stroke-width:13.60000038;stroke-miterlimit:4;stroke-dasharray:none;stroke-opacity:1"
         d="m 381.74078,232.33549 c 0,0 338.74884,45.16652 336.49048,397.46535 -2.2583,352.29889 -325.19894,395.20706 -325.19894,395.20706"
         id="path7092"
         stroke-miterlimit="4" />
      <path
         style="fill:none;fill-opacity:0.75;fill-rule:evenodd;stroke:#222222;stroke-width:13.60000038;stroke-miterlimit:4;stroke-dasharray:none;stroke-opacity:1"
         d="m 381.74078,232.33549 c 0,0 121.20835,47.45946 118.94999,399.75826 -2.25837,352.29883 -107.65845,392.91415 -107.65845,392.91415"
         id="path7093"
         stroke-miterlimit="4" />
      <path
         style="fill:none;fill-opacity:0.75;fill-rule:evenodd;stroke:#222222;stroke-width:13.60000038;stroke-miterlimit:4;stroke-dasharray:none;stroke-opacity:1"
         d="m 381.74078,232.33549 c 0,0 -307.839168,40.68447 -310.097469,392.9833 -2.258324,352.29889 321.389009,399.68911 321.389009,399.68911"
         id="path7094"
         stroke-miterlimit="4" />
      <path
         style="fill:none;fill-opacity:0.75;fill-rule:evenodd;stroke:#222222;stroke-width:13.60000038;stroke-miterlimit:4;stroke-dasharray:none;stroke-opacity:1"
         d="m 381.74078,232.33549 c 0,0 225.83252,40.64992 223.5741,392.94863 -2.25824,352.29889 -212.28256,399.72378 -212.28256,399.72378"
         id="path7095"
         stroke-miterlimit="4" />
      <path
         style="fill:none;fill-opacity:0.75;fill-rule:evenodd;stroke:#222222;stroke-width:13.60000038;stroke-miterlimit:4;stroke-dasharray:none;stroke-opacity:1"
         d="m 381.74078,232.33549 c 0,0 -227.72024,42.23598 -229.9786,394.53481 -2.25837,352.29883 241.27014,398.1376 241.27014,398.1376"
         id="path7096"
         stroke-miterlimit="4" />
      <path
         style="fill:none;fill-opacity:0.75;fill-rule:evenodd;stroke:#222222;stroke-width:13.60000038;stroke-miterlimit:4;stroke-dasharray:none;stroke-opacity:1"
         d="m 381.74078,232.33549 c 0,0 6.77497,33.87496 4.51661,386.17366 -2.25824,352.29889 6.77493,406.49875 6.77493,406.49875"
         id="path7097"
         stroke-miterlimit="4" />
      <path
         style="fill:none;fill-opacity:0.75;fill-rule:evenodd;stroke:#222222;stroke-width:13.60000038;stroke-miterlimit:4;stroke-dasharray:none;stroke-opacity:1"
         d="m 241.98286,263.95209 c 0,0 9.42046,51.94146 146.01619,51.94146 136.5958,0 176.63242,-47.42474 176.63242,-47.42474"
         id="path7107"
         stroke-miterlimit="4" />
      <path
         style="fill:none;fill-opacity:0.75;fill-rule:evenodd;stroke:#222222;stroke-width:13.60000038;stroke-miterlimit:4;stroke-dasharray:none;stroke-opacity:1"
         d="m 116.88469,356.54343 c 0,0 6.43471,79.04144 265.11134,79.04144 258.67633,0 307.50891,-74.52484 302.99231,-72.26645"
         id="path7108"
         stroke-miterlimit="4" />
      <path
         style="fill:none;fill-opacity:0.75;fill-rule:evenodd;stroke:#222222;stroke-width:13.60000038;stroke-miterlimit:4;stroke-dasharray:none;stroke-opacity:1"
         d="m 51.895241,449.1348 c 0,0 29.876831,101.62466 332.107999,101.62466 302.23101,0 363.71624,-92.59143 363.71624,-92.59143"
         id="path7109"
         stroke-miterlimit="4" />
      <path
         style="fill:none;fill-opacity:0.75;fill-rule:evenodd;stroke:#222222;stroke-width:13.60000038;stroke-miterlimit:4;stroke-dasharray:none;stroke-opacity:1"
         d="m 16.009199,573.34265 c 0,0 49.445604,83.55805 373.457441,83.55805 324.01139,0 391.88053,-79.04139 391.88053,-79.04139"
         id="path7110"
         stroke-miterlimit="4" />
      <path
         style="fill:none;fill-opacity:0.75;fill-rule:evenodd;stroke:#222222;stroke-width:13.60000038;stroke-miterlimit:4;stroke-dasharray:none;stroke-opacity:1"
         d="m 16.01255,665.93414 c 0,0 47.43153,94.84955 372.61288,94.84955 325.18121,0 395.48791,-90.33301 395.48791,-90.33301"
         id="path7111"
         stroke-miterlimit="4" />
      <path
         style="fill:none;fill-opacity:0.75;fill-rule:evenodd;stroke:#222222;stroke-width:13.60000038;stroke-miterlimit:4;stroke-dasharray:none;stroke-opacity:1"
         d="m 38.36776,765.30042 c 0,0 46.069489,88.0747 351.35694,88.0747 305.28732,0 369.75302,-83.55804 369.75302,-83.55804"
         id="path7112"
         stroke-miterlimit="4" />
      <path
         style="fill:none;fill-opacity:0.75;fill-rule:evenodd;stroke:#222222;stroke-width:13.60000038;stroke-miterlimit:4;stroke-dasharray:none;stroke-opacity:1"
         d="m 87.568619,862.40845 c 0,0 38.425961,76.78302 300.891191,76.78302 262.46506,0 319.06955,-72.26642 319.06955,-72.26642"
         id="path7113"
         stroke-miterlimit="4" />
    </g>
  </g>
  <g
     transform="translate(-742.23946,-1066.619)"
     id="g7836">
    <path
       style="fill:#ffffff;fill-opacity:1;fill-rule:evenodd;stroke:none;stroke-width:1.39999998;stroke-linecap:butt;stroke-linejoin:miter;stroke-miterlimit:4;stroke-dasharray:none;stroke-opacity:1"
       d="m 975.19467,1699.9923 161.71903,-242.5784 28.5386,-9.5129 4.7564,9.5129 142.6932,-142.6932 171.2318,171.2319 -142.6931,133.1803 0.3703,21.6174 -11.0374,19.2698 -231.9113,154.1268 z"
       id="path4213" />
    <path
       d="m 1315.8395,1333.1172 -139.9264,140.2312 51.5197,51.5197 12.8037,-13.1085 -12.8037,-21.6444 73.1641,-73.1641 -17.3764,-17.3765 49.6906,-49.3858 z m 25.6074,25.6074 -43.2888,42.9839 8.5358,8.5359 42.984,-43.2888 z m 17.3765,17.3765 -43.2888,42.9839 8.5358,8.5358 42.9839,-43.2887 z m 17.3764,17.3765 -43.2887,42.9839 8.5358,8.5358 42.9839,-43.2888 z m 17.0717,17.0716 -43.2888,42.9839 8.5358,8.5358 42.9839,-43.2887 z m -84.1387,14.9377 -66.7623,66.7622 13.1086,21.6444 -60.3604,60.3604 25.9123,25.9123 60.3604,-60.3604 21.6443,12.8037 66.7623,-66.7622 z m 101.5152,2.1339 -43.2888,42.9839 8.5358,8.5359 42.9839,-43.2888 z m 17.3764,17.3765 -43.2887,43.2888 8.5358,8.5358 42.9839,-43.2888 z m 17.3765,17.3765 -49.6906,49.6906 -17.6813,-17.6813 -73.1642,73.4689 -21.6443,-13.1085 -13.1086,13.1085 51.8246,51.8246 140.2312,-140.2312 z m -288.9982,4.2679 -19.5104,15.2425 -48.1664,72.5544 54.5682,54.5683 -13.1086,12.8037 -52.1294,-51.8246 -13.7182,20.7298 48.4712,48.4712 -12.8037,13.1086 -46.0325,-45.7276 -13.7182,20.7299 42.3742,42.3742 -13.1086,13.1086 -39.6305,-39.6306 -13.7183,20.7298 36.2772,36.2772 -13.1086,13.1086 -33.8384,-33.8384 -13.71826,20.7298 30.18016,30.1802 C 893.01189,1873.617 718.33259,1674.5497 846.36978,1528.2215 l 0,-45.7276 c -237.78335,204.2498 39.63055,485.3219 219.18752,290.2176 l 30.1801,30.1802 20.7299,-13.7182 -33.5336,-33.8384 12.8037,-12.8038 36.2773,36.2772 20.7298,-13.7182 -39.9354,-39.6306 13.1085,-13.1085 42.3742,42.3742 20.7299,-13.7183 -46.0324,-45.7276 13.1085,-13.1085 48.4712,48.4712 20.7299,-13.7183 -52.1294,-52.1294 13.1085,-13.1086 54.5683,54.5682 72.5544,-48.1663 14.9376,-19.5105 -64.6283,-64.6283 -49.6906,49.6907 -43.2888,-43.2888 49.6907,-49.6906 z"
       id="path4"
       style="fill:#222222;fill-opacity:1" />
  </g>
</svg>
