<?xml version="1.0" encoding="UTF-8" standalone="no"?>
<!-- License Agreement at http://iconmonstr.com/license/ -->

<svg
   xmlns:dc="http://purl.org/dc/elements/1.1/"
   xmlns:cc="http://creativecommons.org/ns#"
   xmlns:rdf="http://www.w3.org/1999/02/22-rdf-syntax-ns#"
   xmlns:svg="http://www.w3.org/2000/svg"
   xmlns="http://www.w3.org/2000/svg"
   xmlns:sodipodi="http://sodipodi.sourceforge.net/DTD/sodipodi-0.dtd"
   xmlns:inkscape="http://www.inkscape.org/namespaces/inkscape"
   version="1.1"
   x="0px"
   y="0px"
   width="512px"
   height="512px"
   viewBox="0 0 512 512"
   enable-background="new 0 0 512 512"
   xml:space="preserve"
   id="svg2"
   inkscape:version="0.91 r"
   sodipodi:docname="philo_oss.svg"><metadata
     id="metadata9"><rdf:RDF><cc:Work
         rdf:about=""><dc:format>image/svg+xml</dc:format><dc:type
           rdf:resource="http://purl.org/dc/dcmitype/StillImage" /><dc:title></dc:title></cc:Work></rdf:RDF></metadata><defs
     id="defs7" /><sodipodi:namedview
     pagecolor="#ffffff"
     bordercolor="#666666"
     borderopacity="1"
     objecttolerance="10"
     gridtolerance="10"
     guidetolerance="10"
     inkscape:pageopacity="0"
     inkscape:pageshadow="2"
     inkscape:window-width="1920"
     inkscape:window-height="1027"
     id="namedview5"
     showgrid="false"
     inkscape:zoom="0.4609375"
     inkscape:cx="-252.74576"
     inkscape:cy="247.32204"
     inkscape:window-x="1024"
     inkscape:window-y="0"
     inkscape:window-maximized="1"
     inkscape:current-layer="svg2" /><path
     inkscape:connector-curvature="0"
     style="fill:#20c5df;fill-opacity:1"
     d="m 231.10508,273.48927 22.60283,12.3288 c -4.10961,8.21922 -12.32881,16.43843 -20.54803,22.60283 -8.21921,6.16441 -18.49321,8.21921 -28.76723,8.21921 -16.43842,0 -30.82203,-4.1096 -41.09605,-16.43842 -10.27401,-10.27401 -14.38361,-24.65762 -14.38361,-43.15084 0,-18.49323 6.1644,-32.87684 16.43842,-43.15086 8.21921,-10.274 22.60282,-16.4384 39.04124,-16.4384 22.60282,0 41.09605,8.2192 49.31526,26.71242 l -24.65763,14.38361 c -4.10961,-6.1644 -6.16441,-10.27401 -10.27401,-12.32881 -4.1096,-2.0548 -8.21922,-2.0548 -10.27402,-2.0548 -16.43841,0 -24.65762,10.27401 -24.65762,32.87684 0,10.274 2.0548,18.49322 6.16441,24.65763 4.1096,6.1644 10.274,8.2192 18.49321,8.2192 10.27402,0 18.49322,-4.10961 22.60283,-16.43841 z m 221.91864,-16.43842 c 0,55.47966 -18.49322,100.68531 -55.47966,137.67174 -39.04124,39.04125 -86.30169,59.58927 -141.78135,59.58927 -53.42486,0 -100.68532,-18.49322 -139.72656,-57.53446 -39.041228,-39.04124 -57.534453,-84.24689 -57.534453,-139.72655 0,-53.42486 18.493225,-100.68531 57.534453,-139.72656 39.04124,-39.041236 84.24689,-57.534457 139.72656,-57.534457 55.47966,0 102.74011,18.493221 139.72655,57.534457 39.04124,36.98644 57.53446,84.24689 57.53446,139.72656 z m -34.93164,0 c 0,-45.20566 -16.43841,-82.19209 -47.26045,-115.06893 -32.87683,-30.82203 -69.86327,-47.260449 -115.06892,-47.260449 -45.20566,0 -82.19209,16.438419 -113.01413,47.260449 -32.87683,32.87684 -49.31525,71.91807 -49.31525,115.06893 0,43.15084 16.43842,82.19209 47.26045,113.01412 32.87684,32.87684 69.86327,47.26046 115.06893,47.26046 43.15085,0 82.19209,-16.43843 115.06892,-49.31526 30.82204,-28.76723 47.26045,-65.75367 47.26045,-110.95932 z m -100.6853,32.87683 c -8.21922,0 -14.38362,-2.0548 -18.49322,-8.2192 -4.10962,-6.16441 -6.16441,-14.38363 -6.16441,-24.65763 0,-22.60283 8.21921,-32.87684 24.65763,-32.87684 4.10959,0 8.21921,2.0548 10.27401,4.1096 4.1096,2.05481 8.2192,6.16441 10.27401,12.32881 l 24.65763,-12.32881 c -10.27401,-18.49322 -26.71244,-26.71243 -49.31526,-26.71243 -16.43842,0 -28.76724,6.16441 -39.04124,16.43843 -10.27402,10.274 -16.43842,24.65762 -16.43842,43.15084 0,18.49322 4.1096,32.87684 14.38362,43.15085 10.27401,10.27401 24.65762,16.43841 41.09604,16.43841 10.27401,0 20.54802,-2.05479 28.76723,-8.2192 8.21921,-6.1644 16.43842,-12.32882 20.54803,-22.60283 L 337.9548,277.59887 c -2.05481,8.2192 -10.27401,12.32881 -20.54802,12.32881 z"
     id="path3-7" /></svg>