<?xml version="1.0" encoding="UTF-8" standalone="no"?>
<!-- License Agreement at http://iconmonstr.com/license/ -->

<svg
   xmlns:dc="http://purl.org/dc/elements/1.1/"
   xmlns:cc="http://creativecommons.org/ns#"
   xmlns:rdf="http://www.w3.org/1999/02/22-rdf-syntax-ns#"
   xmlns:svg="http://www.w3.org/2000/svg"
   xmlns="http://www.w3.org/2000/svg"
   xmlns:sodipodi="http://sodipodi.sourceforge.net/DTD/sodipodi-0.dtd"
   xmlns:inkscape="http://www.inkscape.org/namespaces/inkscape"
   version="1.1"
   x="0px"
   y="0px"
   width="512px"
   height="512px"
   viewBox="0 0 512 512"
   enable-background="new 0 0 512 512"
   xml:space="preserve"
   id="svg2"
   inkscape:version="0.91 r"
   sodipodi:docname="philo_service.svg"><metadata
     id="metadata9"><rdf:RDF><cc:Work
         rdf:about=""><dc:format>image/svg+xml</dc:format><dc:type
           rdf:resource="http://purl.org/dc/dcmitype/StillImage" /><dc:title></dc:title></cc:Work></rdf:RDF></metadata><defs
     id="defs7" /><sodipodi:namedview
     pagecolor="#ffffff"
     bordercolor="#666666"
     borderopacity="1"
     objecttolerance="10"
     gridtolerance="10"
     guidetolerance="10"
     inkscape:pageopacity="0"
     inkscape:pageshadow="2"
     inkscape:window-width="1920"
     inkscape:window-height="1027"
     id="namedview5"
     showgrid="false"
     inkscape:zoom="0.4609375"
     inkscape:cx="-252.74576"
     inkscape:cy="247.32204"
     inkscape:window-x="1024"
     inkscape:window-y="0"
     inkscape:window-maximized="1"
     inkscape:current-layer="svg2" /><g
     id="g5138"
     transform="matrix(0.80775835,0,0,0.80775835,53.507904,54.894487)"><path
       id="path4850"
       d="m 248.42436,47.687987 c -3.35367,0.08704 -6.67859,0.246955 -10.01554,0.492051 -1.06131,0.07561 -2.11765,0.234943 -3.176,0.326545 L 220.5651,97.094818 c -10.64346,2.196394 -21.03123,5.427532 -31.00844,9.657712 L 148.30451,75.748549 c -1.37852,0.790166 -2.76389,1.533045 -4.12431,2.352906 -2.84662,1.720045 -5.64886,3.517272 -8.41415,5.37238 -2.76531,1.855139 -5.50819,3.771254 -8.18602,5.761517 -2.67804,1.990248 -5.30573,4.065574 -7.89079,6.190961 -1.02719,0.842804 -2.00114,1.748796 -3.01048,2.616829 l 17.22195,47.340228 c -0.037,0.0412 -0.0614,0.093 -0.0983,0.1343 l 0.12973,0.39363 c -7.24214,7.89233 -13.75712,16.60367 -19.38254,26.09236 l -51.862661,-1.40461 c -1.028371,2.32921 -2.078084,4.65526 -3.010417,7.00506 -1.270144,3.19956 -2.444555,6.39707 -3.538324,9.62642 -1.093464,3.22931 -2.122903,6.50159 -3.041821,9.75613 -0.823185,2.9132 -1.543929,5.81365 -2.22763,8.74067 l 42.433021,28.38712 c -0.05153,0.4649 -0.02012,0.93965 -0.06707,1.4046 l 0.295234,0.19672 c -0.488058,4.94932 -0.649661,9.89991 -0.653106,14.83323 l 0.259455,0 c 0.03811,4.51328 0.241072,9.04327 0.688884,13.56731 l -42.956423,28.74507 c 0.01524,0.055 0.05488,0.11067 0.06707,0.16569 0.746049,3.27284 1.56832,6.53519 2.487085,9.78744 0.918767,3.25449 1.916955,6.49552 3.010572,9.7248 1.093464,3.22934 2.268179,6.42684 3.538323,9.6264 0.921967,2.32236 1.924881,4.64071 2.943344,6.94246 l 51.468954,-1.40908 c 0.34426,0.58173 0.76206,1.12268 1.11386,1.69983 l 0.32653,0 c 2.52276,4.14316 5.20625,8.14752 8.0563,11.98379 2.85003,3.83854 5.85431,7.51299 9.00462,11.03546 l -17.4859,47.99777 c 1.51916,1.3238 3.03042,2.65186 4.58506,3.92749 2.58482,2.12321 5.21275,4.19628 7.89078,6.18649 2.67782,1.99033 5.42096,3.90638 8.18601,5.76152 2.76532,1.85511 5.5678,3.65688 8.41418,5.37235 0.81441,0.49242 1.62946,0.97314 2.4558,1.44038 l 40.8585,-30.74459 c 0.59411,0.26122 1.20204,0.43697 1.79823,0.68887 l 0.0983,-0.0671 c 4.51029,1.91705 9.12116,3.60144 13.7865,5.10843 4.66534,1.50477 9.38437,2.80828 14.17568,3.8962 l 0.0671,0.16104 c 0.0232,0.006 0.0386,0.0312 0.0626,0.0357 l 14.70352,48.78506 c 2.06722,0.21306 4.11103,0.46622 6.18648,0.61719 3.33698,0.24752 6.69766,0.3739 10.05135,0.46077 2.2422,0.0605 4.49497,0.0383 6.74565,0.0323 1.12729,-0.0201 2.24757,0.0302 3.3728,0 3.35254,-0.0867 6.67862,-0.24691 10.01557,-0.492 1.06017,-0.0767 2.11674,-0.23261 3.176,-0.32653 l 14.67221,-48.58376 c 10.64068,-2.19627 21.02743,-5.43203 31.00396,-9.66217 l 41.25213,31.00843 c 1.37879,-0.79021 2.76389,-1.53517 4.12433,-2.35739 2.84683,-1.71544 5.64978,-3.51721 8.41417,-5.37236 2.76665,-1.85511 5.50866,-3.7712 8.18601,-5.76152 2.67965,-1.99023 5.30729,-4.06329 7.89076,-6.18648 1.02834,-0.84273 2.00052,-1.74886 3.01048,-2.61683 l -17.22193,-47.34469 c 0.0367,-0.0413 0.0619,-0.0907 0.0986,-0.12958 l -0.12958,-0.39362 c 7.24193,-7.8923 13.75757,-16.60588 19.38253,-26.09685 l 51.86264,1.40909 c 1.02837,-2.32924 2.07836,-4.65524 3.01051,-7.00509 1.2688,-3.19956 2.44355,-6.39704 3.53831,-9.62641 1.09247,-3.22927 2.12339,-6.50164 3.04177,-9.75609 0.82226,-2.91329 1.54524,-5.81818 2.22771,-8.74516 l -42.43308,-28.38267 c 0.0526,-0.46494 0.0181,-0.94183 0.0671,-1.4091 l -0.29523,-0.19671 c 0.48552,-4.94937 0.6508,-9.89551 0.65307,-14.82878 l -0.25944,0 c -0.037,-4.5136 -0.24044,-9.04538 -0.68888,-13.57179 l 42.95646,-28.74501 c -0.0122,-0.055 -0.0556,-0.10594 -0.0671,-0.16105 -0.74664,-3.27283 -1.56868,-6.53521 -2.48708,-9.78741 -0.91842,-3.25454 -1.91577,-6.49548 -3.0105,-9.7248 -1.09476,-3.22933 -2.2672,-6.42684 -3.53833,-9.62641 -0.92068,-2.32233 -1.92867,-4.6407 -2.94786,-6.94242 l -51.46902,1.40905 c -0.34354,-0.58173 -0.75666,-1.12714 -1.10934,-1.7043 l -0.33102,0 c -2.52163,-4.1431 -5.20274,-8.14523 -8.05183,-11.98379 -2.85145,-3.83624 -5.85316,-7.5085 -9.0046,-11.03098 L 391.8634,99.355075 c -1.51845,-1.323773 -3.02994,-2.651799 -4.58505,-3.927491 -2.58576,-2.125388 -5.21347,-4.200713 -7.8908,-6.190961 -2.67964,-1.990279 -5.42165,-3.906379 -8.18601,-5.761518 -2.7644,-1.855108 -5.56734,-3.652334 -8.41414,-5.372379 -0.81537,-0.490085 -1.629,-0.97084 -2.45581,-1.440345 l -40.8585,30.748989 c -0.59548,-0.26114 -1.20724,-0.43694 -1.80271,-0.68888 l -0.0986,0.0625 c -4.51185,-1.91697 -9.11438,-3.60139 -13.78202,-5.10843 -4.66534,-1.50699 -9.38437,-2.803858 -14.17567,-3.891727 l -0.0671,-0.165491 c -0.023,-0.0046 -0.0396,-0.02683 -0.0625,-0.0314 L 274.78095,48.802747 c -2.06812,-0.213022 -4.111,-0.470648 -6.18647,-0.621779 -3.33696,-0.245081 -6.6986,-0.373726 -10.05136,-0.46074 -2.24312,-0.05717 -4.49427,-0.03826 -6.74563,-0.0314 -1.12636,0.0122 -2.24875,-0.02988 -3.37281,0 z m 5.20686,107.921183 a 95.34054,95.34054 0 0 1 95.34246,95.34246 95.34054,95.34054 0 0 1 -95.34246,95.33799 95.34054,95.34054 0 0 1 -95.34245,-95.33799 95.34054,95.34054 0 0 1 95.34245,-95.34246 z"
       style="fill:#20c5df;fill-opacity:1;fill-rule:nonzero;stroke-width:33.80530548;stroke-linecap:round;stroke-miterlimit:4;stroke-dashoffset:0;marker-start:none;marker-mid:none;marker-end:none"
       inkscape:connector-curvature="0" /><path
       style="fill:#20c5df;fill-opacity:1;stroke:#222222;stroke-width:7.62208319;stroke-miterlimit:4;stroke-dasharray:none;stroke-opacity:1"
       id="path7-1"
       d="m 449.66068,464.12735 c 14.02463,0.45732 25.76264,-10.51848 26.21997,-24.54311 0.30488,-8.68918 -3.81104,-16.61614 -10.36604,-21.49428 l -153.96607,-150.7648 4.4208,-4.72569 5.4879,-57.31807 -35.97623,-34.14692 -56.25097,9.1465 -1.52442,1.67686 48.93377,46.34225 -41.15924,43.29344 -48.93377,-46.34227 -1.0671,1.06709 -6.55499,57.31807 36.12867,34.14693 57.31807,-9.1465 4.42081,-4.57325 c 0,0 153.20387,150.15504 157.16735,153.96608 3.81104,3.81104 9.60383,5.94522 15.70149,6.09767 z m 0,-38.26286 c 6.40255,0.15244 11.43313,5.64034 11.28068,12.04289 -0.15244,6.40255 -5.64034,11.43313 -12.04289,11.28068 -6.40255,-0.15244 -11.43312,-5.64034 -11.28068,-12.04289 0.15244,-6.40255 5.4879,-11.43312 12.04289,-11.28068 z"
       class="st0"
       inkscape:connector-curvature="0" /></g></svg>