<?xml version="1.0" encoding="UTF-8" standalone="no"?>
<!-- Generator: Adobe Illustrator 16.0.0, SVG Export Plug-In . SVG Version: 6.00 Build 0)  -->

<svg
   xmlns:dc="http://purl.org/dc/elements/1.1/"
   xmlns:cc="http://creativecommons.org/ns#"
   xmlns:rdf="http://www.w3.org/1999/02/22-rdf-syntax-ns#"
   xmlns:svg="http://www.w3.org/2000/svg"
   xmlns="http://www.w3.org/2000/svg"
   xmlns:sodipodi="http://sodipodi.sourceforge.net/DTD/sodipodi-0.dtd"
   xmlns:inkscape="http://www.inkscape.org/namespaces/inkscape"
   version="1.1"
   id="Ebene_1"
   x="0px"
   y="0px"
   width="420"
   height="420"
   viewBox="0 0 419.99999 419.99998"
   enable-background="new 0 0 841.89 595.28"
   xml:space="preserve"
   inkscape:version="0.91 r"
   sodipodi:docname="portrait-03.svg"><metadata
     id="metadata357"><rdf:RDF><cc:Work
         rdf:about=""><dc:format>image/svg+xml</dc:format><dc:type
           rdf:resource="http://purl.org/dc/dcmitype/StillImage" /><dc:title></dc:title></cc:Work></rdf:RDF></metadata><defs
     id="defs355" /><sodipodi:namedview
     pagecolor="#ffffff"
     bordercolor="#666666"
     borderopacity="1"
     objecttolerance="10"
     gridtolerance="10"
     guidetolerance="10"
     inkscape:pageopacity="0"
     inkscape:pageshadow="2"
     inkscape:window-width="1920"
     inkscape:window-height="1027"
     id="namedview353"
     showgrid="false"
     inkscape:zoom="0.39645207"
     inkscape:cx="424.72857"
     inkscape:cy="297.64001"
     inkscape:window-x="1024"
     inkscape:window-y="0"
     inkscape:window-maximized="1"
     inkscape:current-layer="Ebene_1" /><path
     d="m 122.33108,171.85038 c 2.80804,-2.47187 5.43067,-4.77827 8.76809,-7.71454 -2.31765,-0.28505 -3.55142,-0.43494 -4.60758,-0.56403 0.15855,-1.12201 0.7919,-2.45628 0.37516,-3.21526 -1.92691,-3.50897 -1.08389,-6.61766 0.83349,-9.71249 0.15335,-0.24866 0.25299,-0.54064 0.3249,-0.82309 0.0269,-0.10917 -0.0936,-0.25732 -0.33444,-0.84735 -1.48849,1.28662 -2.86869,2.48054 -4.25148,3.67619 0.89413,-7.03181 7.68681,-8.83481 16.41852,-4.37105 1.42351,-2.73267 1.42351,-2.73267 1.42785,-10.15263 2.18942,2.51346 2.36184,5.31111 1.91997,7.95714 -0.48433,2.91114 -1.21645,5.93146 -2.57845,8.51423 -4.01062,7.59931 -9.10599,14.38852 -16.3622,19.29415 -1.48417,1.00417 -2.8687,2.16516 -4.38665,3.11215 -3.7481,2.33585 -5.63861,5.58057 -5.44194,10.06859 0.21141,4.83285 0.3353,9.61631 4.74015,12.92861 1.54481,1.16272 2.85742,2.63043 4.32859,3.89539 3.33223,2.86523 3.73858,6.25377 1.87319,10.05905 -0.44534,0.9106 -1.00677,1.76228 -1.82467,3.17887 -0.98251,-2.71187 0.78584,-4.36585 0.90887,-6.6064 -1.77181,-1.84026 -3.64587,-3.94737 -5.6958,-5.86648 -2.06033,-1.9295 -4.29567,-3.66839 -6.50156,-5.52944 -4.80686,7.87309 -6.50243,16.89245 -4.41351,26.47584 2.86003,13.11922 5.32064,26.35887 10.55118,38.83695 0.97818,2.33152 2.03953,4.63357 3.11908,6.9209 2.85657,6.05536 2.93888,12.40097 2.12532,18.87914 -0.48346,3.84774 -0.95306,7.70934 -1.1506,11.58047 -0.16115,3.15807 0.29111,6.34214 2.1435,9.01589 2.79505,4.03055 5.44021,8.24738 8.76464,11.81007 4.23849,4.54174 9.78959,6.87152 16.14127,6.40799 9.06787,-0.65674 18.21373,-0.56317 27.14731,-2.63909 1.28835,-0.29891 2.62176,-0.40288 4.86924,-0.73732 -5.34577,3.0879 -9.90137,5.72006 -14.95775,8.64074 2.12618,1.73109 3.82694,3.30623 5.71226,4.61451 3.47258,2.4069 5.55544,5.75125 7.0578,9.58686 3.77149,9.63797 6.21737,19.63724 8.06977,29.78207 1.82206,9.98454 3.55662,19.98728 5.08757,30.0212 0.59609,3.90926 0.53371,7.92161 0.29805,11.9487 -3.64673,-6.382 -3.4076,-13.69365 -5.27039,-20.47333 -1.89658,-6.90445 -3.54016,-13.88427 -5.1387,-20.86755 -1.5916,-6.9495 -2.99172,-13.94319 -4.58245,-21.42726 -5.74952,2.67548 -11.18886,5.20974 -16.6282,7.74053 -0.19841,-0.3379 -0.39508,-0.67667 -0.59176,-1.01717 4.67517,-4.59545 10.68114,-7.3827 16.41679,-11.33874 -0.72172,-3.54623 -1.85066,-7.07513 -4.7852,-9.57559 -4.08946,-3.48385 -8.36694,-6.75976 -12.68774,-9.95509 -0.80837,-0.59869 -2.26654,-0.73558 -3.3149,-0.52677 -16.80408,3.33222 -26.27224,-5.61263 -32.85611,-15.46807 -5.6698,-8.48651 -5.24266,-17.38631 -3.6164,-26.71497 0.73905,-4.2333 1.0163,-8.57056 1.19391,-12.87056 0.0632,-1.54049 -0.37082,-3.43706 -1.28575,-4.62751 -6.27976,-8.17028 -9.16925,-17.70255 -11.37947,-27.51381 -1.54308,-6.84119 -3.01338,-13.70405 -4.31473,-20.59376 -1.80907,-9.57993 0.29718,-18.42254 5.72439,-26.43339 1.41918,-2.09499 2.23621,-4.04788 1.73629,-6.62459 -0.33704,-1.73369 -0.078,-3.57742 -0.17155,-5.36743 -0.24693,-4.73408 1.61499,-8.32796 5.47746,-11.09875 3.10349,-2.22494 3.5237,-3.82348 2.33758,-7.67381 -1.93123,-6.2763 -3.9803,-12.51447 -6.05103,-18.99264 -1.78654,0.5805 -3.57568,0.73125 -3.32096,-1.88791 0.15682,-1.60373 0.76678,-3.16067 1.08735,-4.75748 0.30498,-1.51535 0.49992,-3.05323 0.89847,-5.55543 -1.83073,1.56907 -2.80804,2.40516 -3.78362,3.24298 -0.24606,-0.10397 -0.65501,-0.14989 -0.71393,-0.31797 -1.24157,-3.56269 -0.98338,-4.57726 1.79001,-6.92611 0.68187,-0.57703 1.3802,-1.27189 2.19203,-1.53268 3.43012,-1.10208 5.208,-3.74637 6.71036,-6.73983 5.09624,-10.16302 10.97745,-19.85038 17.96074,-29.062947 -3.05497,-5.095373 -4.35632,-10.519117 -3.84427,-16.347476 0.0503,-0.570099 -0.0546,-1.207779 -0.26859,-1.73889 -4.02795,-10.002735 -0.6992,-18.004057 6.72596,-24.906768 0.53458,-0.49732 1.07868,-0.985977 2.03087,-1.854989 -1.56474,-0.302378 -2.74566,-0.529378 -4.50361,-0.869012 0.93919,-1.110741 1.44257,-2.003146 2.19895,-2.542055 2.18596,-1.558677 4.38232,-3.145079 6.73636,-4.420438 12.98233,-7.025742 26.00365,-13.983037 39.0345,-20.923003 7.13751,-3.801819 8.99683,-4.128457 21.617,-4.178708 -1.70597,-1.916505 -3.24299,-3.646732 -4.78173,-5.375225 0.20967,-0.291115 0.41847,-0.580497 0.62901,-0.872478 2.37484,0.741649 4.72975,1.563875 7.13058,2.210219 6.04149,1.626257 12.10118,3.178868 18.16001,4.739278 0.57183,0.146424 1.22511,0.301511 1.77008,0.166351 4.82245,-1.197382 9.44563,0.21487 14.17711,0.779772 6.13507,0.731252 11.57094,2.955333 16.55975,6.341275 4.49582,3.050639 9.1987,5.360495 14.53927,6.603798 5.56064,1.295287 10.49053,4.111994 15.40569,7.047401 4.68642,2.79938 9.2169,5.943592 14.46562,7.808979 4.02796,1.429581 7.0526,4.388381 9.82079,7.606238 1.04663,1.21471 2.25268,2.443284 3.64067,3.1832 4.41697,2.347979 7.41389,5.909802 9.69949,10.24793 1.45384,2.760391 3.05151,5.449736 4.67256,8.116555 2.83491,4.666499 4.59979,9.685628 5.29119,15.10244 0.4514,3.529766 0.91233,6.957295 3.44399,9.918693 1.23897,1.45124 1.3698,3.84687 2.11404,6.16713 -2.26913,-0.18195 -3.02551,-1.47291 -3.70911,-2.98739 -0.99117,-2.19896 -0.92533,-5.11184 -3.90059,-6.101283 -0.0572,-0.0182 0.73645,-1.856723 0.46786,-2.093253 -2.53425,-2.244876 -2.67548,-5.776374 -4.65003,-8.276841 -0.22874,-0.288516 -0.73299,-0.629882 -1.01977,-0.562302 -2.84703,0.660206 -2.90682,-1.688639 -4.14319,-3.4128 3.7637,-1.093413 4.85971,2.226681 7.81591,3.633735 -1.10121,-2.927609 -1.97542,-5.316309 -2.91548,-7.677283 -0.1161,-0.291982 -0.6524,-0.692264 -0.86208,-0.627283 -1.98495,0.630748 -2.29772,-1.037963 -2.78725,-2.134841 -1.27536,-2.860895 -2.2674,-5.849153 -3.57568,-8.693586 -0.91233,-1.985818 -2.1591,-3.817414 -3.47865,-6.102145 -0.69053,0.99031 -1.0293,1.477234 -1.49283,2.14004 -0.48692,-0.343966 -1.0163,-0.601291 -1.39406,-1.00244 -2.45368,-2.604437 -3.83214,-6.461706 -8.12781,-6.894913 -5.20021,-5.824892 -12.93728,-8.005653 -18.70326,-13.100161 -4.12412,-3.644132 -9.09906,-6.090016 -14.90923,-7.718005 1.01371,1.431314 1.72936,2.441551 2.44502,3.451788 -4.81639,-0.424542 -8.17634,-3.37641 -11.87765,-5.643813 -3.73857,-2.289062 -7.13838,-5.160354 -11.64286,-7.053466 0.37949,1.982353 0.66801,3.483846 1.04403,5.440206 -8.09143,-8.95091 -10.71146,-10.422079 -19.85385,-11.268564 0.70613,1.379329 1.37673,2.689345 2.04647,3.999361 -7.46588,-4.124125 -15.85882,-3.503773 -22.52847,-5.830091 -2.34884,0.732118 -3.86766,1.558676 -5.41681,1.616726 -3.72731,0.142958 -7.46848,-0.131695 -11.20272,-0.129096 -2.68241,0.0026 -5.24786,0.58223 -7.51873,2.6157 4.2307,0 8.46053,0 12.68949,0 0.071,0.301512 0.14122,0.601291 0.2114,0.901936 -0.7971,0.382088 -1.56647,1.007638 -2.39736,1.104676 -4.74361,0.561436 -9.54701,0.733852 -14.23776,1.559543 -3.63027,0.638546 -7.22589,1.793475 -10.65082,3.178869 -3.30536,1.338607 -6.34647,3.32096 -9.55306,4.922957 -5.73652,2.866093 -11.51636,5.64468 -17.26328,8.489979 -1.9373,0.959119 -3.82868,2.010944 -5.58836,3.363415 3.81481,-0.323172 7.22155,-2.34538 11.3734,-1.521421 -1.16619,0.777172 -2.30119,1.608928 -3.50637,2.321986 -2.57065,1.518822 -5.26866,2.840101 -7.75007,4.490618 -4.99487,3.32096 -8.73777,7.689413 -10.37442,13.597481 -0.3457,1.249367 -0.46527,2.562849 -0.39769,3.959506 3.07663,-2.984792 3.45959,-7.894752 7.82458,-9.994071 -3.82262,8.389475 -6.23558,16.968694 -4.83805,26.28523 1.31435,-7.273535 3.95257,-13.821882 9.22383,-18.987435 0.26339,0.146424 0.52851,0.291115 0.7919,0.435806 -0.96259,1.385394 -2.12964,2.675482 -2.82884,4.182174 -0.69053,1.488497 -0.90887,3.19533 -1.33427,4.806858 0.30411,0.142092 0.60648,0.28245 0.90973,0.423676 0.92013,-1.281425 2.09585,-2.451948 2.7188,-3.864201 3.29064,-7.46068 9.40318,-12.103786 15.95413,-16.345743 4.7878,-0.209672 9.58686,-1.967623 14.35386,0.07711 0.46353,0.198408 0.81789,0.653275 1.18439,1.400123 -6.44611,-0.257325 -12.50581,0.485191 -18.36102,4.665632 3.87979,0.194077 7.03614,-2.435486 10.9012,-0.299778 -1.27276,0.541508 -2.13484,0.868145 -2.96226,1.266695 -3.34349,1.606329 -6.74156,3.119086 -9.97675,4.922091 -1.06395,0.593492 -1.91997,1.848058 -2.4918,2.98999 -4.69596,9.374586 -10.13703,18.270912 -16.30676,26.759158 -5.26952,7.24841 -10.26612,14.70043 -15.23846,22.15937 -1.29962,1.94943 -2.0612,4.25582 -3.30364,6.89318 3.66406,0 7.03701,-0.65327 9.98195,0.18975 2.80631,0.80316 5.16468,3.16847 7.74659,4.86317 -1.86105,1.93124 -3.85813,2.78725 -6.42098,2.41643 -1.76489,-0.25559 -3.58002,-0.17675 -5.37349,-0.20188 -7.27441,-0.1005 -11.31362,4.81813 -9.51755,11.80055 0.96519,3.7507 2.26827,7.41736 3.43446,11.11607 1.34727,4.27488 2.87649,8.50644 2.41209,13.12009 -0.0329,0.31538 0.37083,0.6732 0.85515,1.4833 z m 26.47584,-95.993337 c -0.28852,-0.254725 -0.57877,-0.510317 -0.86642,-0.765909 -3.47431,4.575526 -7.01448,9.1008 -10.35363,13.773364 -0.54411,0.762443 -0.19754,2.164299 -0.26166,3.269842 4.77654,-4.944618 8.34269,-10.468866 11.48171,-16.277297 z m -12.84024,74.910917 c -0.3535,1.63492 -0.64894,2.93107 -0.908,4.23156 -0.22007,1.10641 -0.39768,2.21975 -0.75551,4.23416 4.48368,-5.97478 4.48368,-5.97478 1.66351,-8.46572 z"
     id="path3"
     inkscape:connector-curvature="0"
     style="clip-rule:evenodd;fill-rule:evenodd" /><path
     d="m 307.50774,257.19897 c -2.17556,-1.45644 -4.22896,-2.82884 -6.68177,-4.46723 -3.11822,14.27415 -11.05803,25.53925 -22.32053,34.48496 -0.38382,-0.25905 -0.76677,-0.51984 -1.14973,-0.77803 0.44014,-0.61516 0.79883,-1.31522 1.33428,-1.83247 9.74714,-9.44909 15.92466,-20.8095 18.21633,-34.20857 0.52764,-3.08876 1.62019,-5.51385 5.29551,-6.26243 0.4462,1.48676 0.81616,3.04024 1.37586,4.52007 0.98078,2.58624 2.05687,3.23172 4.78434,3.01165 0.73731,-0.0581 1.47983,-0.22613 2.18682,-0.4488 10.98785,-3.43099 19.74468,-9.6553 25.22301,-20.04706 3.82261,-7.25187 8.00825,-14.32786 11.53369,-21.71923 2.65209,-5.55891 3.72211,-11.69657 3.26117,-17.8715 -0.27465,-3.68485 -1.36806,-7.30906 -2.08459,-10.96099 -0.882,-4.48975 -3.18233,-6.40712 -9.09733,-6.89491 -10.40215,-0.85775 -19.07841,2.59144 -25.46647,11.09008 -0.43494,0.57877 -0.62815,1.33775 -1.48676,1.52056 0.60302,-5.41855 4.01409,-8.77503 8.05244,-11.87419 -0.21054,-2.01787 -1.73456,-4.10766 0.12476,-6.81607 0.5545,2.06986 0.95045,3.5471 1.43478,5.3527 1.08128,-0.24606 2.00834,-0.45573 3.0567,-0.69313 -0.22266,-1.91564 -0.42107,-3.63027 -0.61948,-5.34317 0.34483,-0.0641 0.68966,-0.12649 1.0345,-0.18974 0.50511,1.42871 1.00937,2.85916 1.5838,4.48715 1.38799,-0.36822 2.66075,-0.70613 4.02535,-1.06915 0,-1.6046 0,-3.0931 0,-4.58246 0.2322,-0.0312 0.4618,-0.0641 0.6914,-0.0962 0.53284,1.43564 1.06569,2.87042 1.803,4.85971 1.00851,-1.12201 1.7077,-1.90351 2.02308,-2.25614 1.38279,0.53717 2.61743,1.01457 4.37105,1.69384 -0.79623,-2.73787 -0.89674,-4.57206 -3.32183,-5.66981 -2.36357,-1.07175 -3.27244,-3.68312 -2.78032,-7.3749 1.47377,2.68241 2.55592,4.6535 3.69352,6.72163 0.77977,-0.40375 1.37847,-0.71393 2.41556,-1.25024 0.65414,2.57671 1.28056,5.04599 1.98149,7.80985 1.349,-0.40202 2.40516,-0.71739 4.01235,-1.19565 -1.10467,-2.76299 -2.08458,-5.21234 -3.06536,-7.66342 0.26512,-0.17155 0.52937,-0.34484 0.7945,-0.51639 2.06812,2.32719 4.13712,4.65351 6.369,7.16697 -0.36823,1.52922 -0.77111,3.19533 -1.12461,4.6665 8.04638,11.59434 8.94918,23.33683 2.08199,35.77765 -4.02968,7.30212 -7.68941,14.83732 -11.07362,22.46175 -4.85018,10.92633 -13.46405,17.70428 -23.91646,22.46002 -2.55765,1.16186 -4.18477,2.47967 -4.8701,5.17681 -4.33986,17.10039 -6.33868,33.99457 2.28386,50.59851 4.00543,7.7102 9.77227,13.49524 16.85866,18.16521 3.86247,2.54465 7.75786,5.09104 11.86812,7.18429 2.18163,1.10988 4.83112,1.41312 7.31166,1.79954 10.17775,1.5838 20.38496,3.00385 30.20748,6.28409 1.41399,0.47306 2.82277,0.96432 4.2151,1.49803 0.37082,0.14296 0.67234,0.47306 0.88027,1.34207 -2.84963,-0.34829 -5.71572,-0.58829 -8.54196,-1.06308 -12.06653,-2.02568 -24.14259,-4.00716 -36.16493,-6.2633 -3.33483,-0.62555 -6.55442,-2.01181 -9.72029,-3.30797 -1.74582,-0.71739 -4.11633,-1.02583 -3.75416,-4.12239 0.0884,-0.75811 -1.79175,-1.80474 -2.84097,-2.62436 -11.50856,-9.0081 -18.29171,-20.86149 -20.21688,-35.22401 -1.52055,-11.33355 -1.20778,-22.67836 3.31057,-33.50938 0.27725,-0.6836 0.44013,-1.41312 0.60215,-1.9373 z"
     id="path5"
     inkscape:connector-curvature="0"
     style="clip-rule:evenodd;fill-rule:evenodd" /><path
     d="m 149.73658,237.57472 c 1.31088,0.88027 2.53686,2.33412 3.94738,2.54465 8.54629,1.27103 17.13244,2.27001 25.70993,3.32183 1.02236,0.12476 2.07332,0.0165 3.25858,-0.48259 -4.31994,-1.21471 -8.63987,-2.43116 -12.95981,-3.6476 0.0598,-0.25039 0.12044,-0.50079 0.18022,-0.74945 4.45076,0.85169 8.94051,1.53529 13.34189,2.59664 5.65941,1.36114 11.18279,1.69817 16.85519,-1.16532 0.42801,2.3757 0.0537,3.97163 -2.1617,4.73581 -18.20593,6.29362 -36.46731,12.31779 -56.12362,11.58567 -3.49164,-0.13083 -6.71557,-1.02583 -9.00896,-2.65729 -0.29891,-3.41366 -0.54584,-6.22691 -0.78064,-8.90585 -5.84655,-1.10035 -6.16019,-1.64359 -3.84947,-6.63499 0.85775,0.43754 1.73369,0.81356 2.53339,1.31001 0.77457,0.48173 1.47204,1.09082 2.75866,1.07262 -1.28576,-1.42611 -2.57238,-2.85136 -3.85814,-4.27834 4.96282,1.0189 9.21517,-1.06309 13.60615,-2.49007 3.68659,-1.19739 5.26952,-1.07782 8.97604,0.40028 -1.31088,0.52591 -2.28993,0.91753 -3.56183,1.42611 0.44187,0.74945 0.86035,1.45991 1.27969,2.1695 -1.73109,-0.76764 -3.46218,-1.53442 -5.19241,-2.29946 1.00851,2.2778 2.09326,4.21857 4.86491,4.45076 0.0702,-0.89327 0.12736,-1.59766 0.18455,-2.30292 z m -9.67957,0.8049 c -0.61861,-0.18282 -1.23723,-0.36736 -2.21455,-0.65501 1.31435,1.88878 1.31435,1.88878 2.83924,1.41572 0.908,0 1.81686,0 3.85467,0 -1.58814,-1.29962 -2.36444,-1.93644 -3.14335,-2.57325 -0.44533,0.60476 -0.89067,1.20778 -1.33601,1.81254 z m 35.92754,8.1954 c -13.6356,-2.07766 -26.95757,-4.95675 -41.23345,-3.74204 0.54324,2.22408 1.04056,3.76196 1.27536,5.33364 0.3457,2.32025 2.07246,3.35994 3.78969,2.67721 4.0938,-1.62366 7.77779,0.73992 11.66452,0.58916 1.17745,-0.0468 2.53599,0.33357 3.49424,-0.13343 1.52662,-0.74424 2.69714,-0.71739 4.15358,0.0797 1.89571,1.0371 3.73598,0.78584 5.21667,-0.95478 1.36634,-1.6072 2.83231,-1.88705 4.68037,-0.64895 2.35664,1.57947 4.5322,0.20968 6.5986,-0.84215 0.34916,-0.17848 0.2192,-1.30135 0.36042,-2.35837 z"
     id="path7"
     inkscape:connector-curvature="0"
     style="clip-rule:evenodd;fill-rule:evenodd" /><path
     d="m 223.42412,127.07157 c -3.04891,-1.29182 -6.11428,-1.73543 -9.49155,-1.26323 -3.67186,0.51205 -7.44076,0.40115 -11.16806,0.40461 -1.07089,0.002 -2.14351,-0.54064 -3.64067,-0.95045 2.65122,-2.77426 5.62648,-0.79277 8.14774,-1.92777 -0.61168,-1.98668 -2.04646,-2.08199 -3.76716,-1.71896 -4.73841,0.9981 -9.50108,1.88878 -14.21523,2.98912 -1.25024,0.29371 -2.37311,1.17226 -3.53063,1.82207 -1.51016,0.84821 -2.99693,1.73542 -4.64571,2.69367 -1.44171,-2.8141 0.84129,-3.0697 1.89051,-3.95084 1.22598,-1.0293 2.56025,-1.92777 4.08081,-3.05497 -1.69037,-1.10034 -2.88342,-0.66974 -3.88067,0.28505 -1.61586,1.54395 -3.07576,3.25165 -4.69855,4.78866 -1.33601,1.26323 -1.56388,4.07214 -4.62578,3.1806 -0.46526,-0.13516 -1.54741,1.85066 -2.41556,2.94494 -0.96951,-2.64256 -0.96951,-2.64256 2.90075,-8.58442 -0.40721,-0.65154 -0.84475,-1.3542 -1.45211,-2.32891 1.4885,-0.97992 2.90595,-1.91304 4.66824,-3.07317 -3.74291,-0.32577 -5.86995,1.10814 -6.67138,4.29308 -0.72519,2.88515 -1.22684,5.82576 -1.88445,8.72737 -0.28245,1.24764 -0.26252,3.12775 -2.08892,2.82104 -1.03536,-0.17328 -2.17643,-1.37759 -2.73873,-2.40689 -1.4729,-2.70494 -2.65469,-5.56671 -4.09727,-8.67799 0.82743,0.3197 1.64272,0.63508 2.51953,0.97298 0.55017,-0.5805 1.11854,-1.17832 1.68691,-1.77961 0.33443,0.26858 0.71132,0.42714 0.71739,0.60042 0.0502,1.27969 0.0277,2.56025 0.36389,3.89106 1.01197,-2.84357 -0.30844,-6.31095 2.81584,-9.33646 0,2.03433 0,3.36341 0,5.34316 0.99204,-1.75968 1.52315,-2.99865 2.32199,-4.03141 0.70699,-0.91407 1.60459,-2.08979 2.60097,-2.30726 5.65074,-1.23291 11.14986,-3.39807 17.08479,-3.06017 1.04056,0.0589 2.11491,-0.11437 3.12515,0.0745 4.96021,0.93226 9.90483,1.74669 14.94216,0.4696 0.49212,-0.12477 1.109,0.24259 2.00401,0.46353 -0.48779,0.64028 -0.79797,1.04662 -1.37067,1.7978 4.72455,-0.12736 8.42067,2.25614 12.21036,4.27922 3.84601,2.05339 7.52739,4.41437 10.99478,7.28566 -2.94927,-0.60995 -5.89854,-1.21904 -8.84781,-1.8264 l 0.15509,0.15076 z m -13.71532,-7.13231 c 2.55592,2.70494 3.31577,2.85223 7.91642,1.86885 -3.29324,-0.77717 -5.60483,-1.32301 -7.91642,-1.86885 z m -22.4115,-0.21574 c 2.54466,0.41675 4.60932,0.0295 6.42446,-2.12964 -2.65469,-0.3405 -4.98274,-0.73819 -6.42446,2.12964 z"
     id="path9"
     inkscape:connector-curvature="0"
     style="clip-rule:evenodd;fill-rule:evenodd" /><path
     d="m 193.38992,139.92307 c -2.80025,0.64807 -4.78606,1.10987 -6.9469,1.60979 7.64003,-9.41877 31.88399,-2.57498 37.1847,10.96619 -5.05118,-3.35908 -9.5444,-6.34907 -13.94058,-9.27321 -1.19825,3.25078 -2.20242,5.97911 -3.30883,8.9795 2.75693,0 5.50432,0 9.08781,0 -3.0957,2.964 -6.21132,3.54276 -9.40405,3.58781 -7.29953,0.10224 -14.60252,0.0312 -22.47215,0.0312 2.18596,-5.96698 6.51196,-10.14136 9.8,-15.90127 z m -6.89231,13.93452 c 2.90421,-0.32837 5.15775,-0.58397 6.92263,-0.78324 0.62209,-4.06954 1.17919,-7.71281 1.73543,-11.35521 -0.18022,-0.11696 -0.3613,-0.23393 -0.54238,-0.34916 -2.5975,3.99763 -5.19674,7.99612 -8.11568,12.48761 z"
     id="path11"
     inkscape:connector-curvature="0"
     style="clip-rule:evenodd;fill-rule:evenodd" /><path
     d="m 346.09863,136.45049 c 0.72692,-3.96904 0.2426,-7.59411 -1.95462,-11.18713 -1.01197,-1.65571 -0.49039,-4.17957 -0.99551,-6.22864 -0.85342,-3.46218 -1.96849,-6.85852 -2.9744,-10.28172 0.28852,-0.16115 0.57617,-0.3197 0.86382,-0.47999 1.32041,1.65225 2.9328,3.15201 3.88153,4.99574 0.9955,1.93123 2.7136,4.00196 0.39681,6.48596 -0.43407,0.46527 0.59696,3.02638 1.5864,3.91619 1.39146,1.25196 1.42352,2.73959 1.99882,4.21943 1.29182,3.32182 -0.065,7.00321 1.70163,10.17428 -1.96589,1.40879 0.34657,2.28907 0.3561,3.36948 0.0104,1.28316 -0.75638,2.56285 -1.13067,3.85987 -0.12043,0.41068 -0.25992,1.10728 -0.0589,1.27363 3.27071,2.71794 0.68187,6.20005 1.11421,9.27148 0.42714,3.03245 -0.35523,6.23558 -0.63595,9.72375 -2.50393,-1.06742 -2.91634,-3.97596 -4.28614,-5.51125 0.69573,-2.88602 1.96589,-5.48093 1.72936,-7.93201 -0.2296,-2.39476 0.47826,-5.44627 -2.5022,-7.22675 -1.82033,-1.08734 -2.17989,-3.49857 -1.89831,-7.40783 0.92013,-0.33183 1.88358,-0.681 2.84357,-1.0267 -1.18092,1.589 -0.51899,2.75173 1.35507,3.55663 -0.46354,-1.19045 -0.9262,-2.37657 -1.3906,-3.56442 z"
     id="path13"
     inkscape:connector-curvature="0"
     style="clip-rule:evenodd;fill-rule:evenodd" /><path
     d="m 311.21945,209.68056 c 3.80096,3.05584 1.75969,7.32206 3.85814,10.66294 3.77409,-1.78654 7.19989,-0.4332 10.76171,1.25457 4.09207,1.93643 8.39988,0.091 10.43595,-4.0037 0.82049,-1.64964 1.57947,-3.33049 2.61136,-5.51385 1.64705,5.05379 0.10657,9.54614 -3.76543,11.69398 -3.37554,1.86798 -6.96942,2.58017 -10.67767,0.7737 -0.53544,-0.26079 -1.1116,-0.46093 -1.59766,-0.79536 -2.7396,-1.88965 -5.14649,-1.76922 -7.45462,0.83782 -1.17225,1.32041 -2.66942,2.3679 -4.07734,3.46478 -1.33254,1.03883 -2.77685,1.83073 -4.49754,0.82136 -1.75362,-1.02843 -1.38973,-2.48574 -1.2537,-4.24195 0.2166,-2.78899 1.11767,-4.71416 3.58781,-6.15933 2.42769,-1.42179 3.37121,-3.66666 2.30466,-6.5059 -0.19234,-0.51638 -0.12563,-1.12807 -0.23567,-2.28906 z"
     id="path15"
     inkscape:connector-curvature="0"
     style="clip-rule:evenodd;fill-rule:evenodd" /><path
     d="m 345.27987,202.34984 c -0.18628,-5.16815 -0.32057,-10.16735 -0.55883,-15.16049 -0.29632,-6.19398 -2.52993,-7.6123 -8.41287,-5.33104 -4.22636,1.63666 -8.15554,3.67186 -10.254,8.08277 -0.42194,0.88721 -1.31001,1.55261 -2.63129,1.96242 1.22337,-2.3731 2.44588,-4.74187 3.73164,-7.23454 -2.21195,0.83175 -2.18423,0.85428 -6.58907,6.52755 -1.90091,2.44935 -3.94218,4.78693 -6.49203,7.86616 0.4462,-1.5682 0.49992,-2.52906 0.95479,-3.22912 2.75259,-4.23589 5.29204,-8.66326 8.49431,-12.53959 3.4102,-4.12672 8.06457,-6.58474 13.54983,-7.07079 5.51731,-0.48693 8.14514,1.39405 9.08693,6.73809 1.14627,6.52062 1.11161,13.01092 -0.87941,19.38858 z"
     id="path17"
     inkscape:connector-curvature="0"
     style="clip-rule:evenodd;fill-rule:evenodd" /><path
     d="m 136.55757,270.72627 c -1.91997,-3.74464 -3.81655,-7.44855 -6.18012,-12.05787 4.05914,3.7611 8.35915,3.14422 12.52746,3.06017 6.68264,-0.13082 13.36269,-0.39768 20.48807,-0.62035 -1.94943,2.33585 -3.95344,3.32876 -6.84293,3.60168 -4.19171,0.39855 -8.66413,0.52591 -12.58638,4.76354 0.34396,-1.44951 0.46873,-1.97456 0.66973,-2.82364 -4.04788,-1.26756 -5.18894,3.27331 -8.07583,4.07647 z"
     id="path19"
     inkscape:connector-curvature="0"
     style="clip-rule:evenodd;fill-rule:evenodd" /><path
     d="m 181.53999,37.646507 c 3.1884,-1.196516 6.41492,-0.609954 9.40491,0.26339 6.27283,1.830731 12.55172,3.725575 17.2009,8.932716 1.30914,1.465971 3.58608,2.063795 5.41161,3.074899 1.10554,0.61342 2.19549,1.257165 3.06797,2.698876 -0.91147,0 -1.9581,0.29458 -2.70668,-0.05372 -2.42509,-1.128069 -5.0044,-2.170364 -7.0344,-3.840808 -2.89989,-2.384368 -6.05363,-3.53583 -9.70123,-3.879796 -5.93232,-0.558836 -11.84039,-1.402722 -17.77965,-1.847192 -2.47621,-0.185412 -5.00787,0.343099 -7.51873,0.240863 9.17011,-3.474315 18.33503,-0.451401 27.54759,0.218336 -5.48439,-3.481247 -11.66105,-4.648306 -17.89229,-5.807566 z"
     id="path21"
     inkscape:connector-curvature="0"
     style="clip-rule:evenodd;fill-rule:evenodd" /><path
     d="m 156.01807,56.915528 c 4.6639,-4.669965 10.38656,-6.461706 16.58401,-6.98502 1.33427,-0.112633 2.71014,0.07278 4.00542,-0.185412 0.5779,-0.114367 1.00331,-0.992909 1.93037,-1.989284 4.2099,1.582936 8.95178,3.364281 13.82622,5.196744 -0.49906,0.72692 -0.75985,1.165325 -0.79364,1.147997 -4.38145,-2.192024 -8.89113,1.095146 -13.28817,-0.312775 -0.69833,-0.223535 -1.56994,-0.02599 -2.19289,-0.347432 -5.76598,-2.987391 -10.922,-0.358695 -16.13694,1.681707 -1.34121,0.523314 -2.62436,1.190452 -3.93438,1.793475 z"
     id="path23"
     inkscape:connector-curvature="0"
     style="clip-rule:evenodd;fill-rule:evenodd" /><path
     d="m 149.15001,202.83763 c -0.61861,0.52938 -0.84215,0.88808 -1.06568,0.88808 -4.73062,-0.005 -9.46383,-0.0147 -14.19271,-0.10831 -1.38973,-0.0286 -2.70148,-0.40894 -2.82017,-2.19722 -0.11177,-1.70597 0.64287,-3.02898 2.21195,-3.46912 1.67911,-0.47046 3.53756,-0.89847 5.21667,-0.65327 3.99589,0.58656 7.65389,2.09325 10.64995,5.53984 z"
     id="path25"
     inkscape:connector-curvature="0"
     style="clip-rule:evenodd;fill-rule:evenodd" /><path
     d="m 305.19702,58.568643 c 3.0671,1.303085 4.25322,4.111129 5.82403,6.775348 2.23794,3.795754 4.82678,7.424291 7.61403,10.840556 1.43825,1.76315 1.33081,3.05064 -0.009,4.941152 -2.18596,-6.677443 -8.15121,-10.119701 -12.13411,-15.200345 -0.69747,-0.888073 -1.81081,-1.896577 -2.82538,-2.008345 -3.57308,-0.39595 -4.94635,-3.19533 -6.58646,-5.864748 1.17572,0.802299 2.35057,1.605463 3.54189,2.418158 0.70873,-0.558836 1.42265,-1.122004 2.13571,-1.685172 0.78324,0.885473 1.56474,1.770081 2.7084,3.063635 0.0815,-1.164459 0.17849,-1.601131 0.12477,-2.017875 -0.0563,-0.430607 -0.25733,-0.842153 -0.39422,-1.262364 z"
     id="path27"
     inkscape:connector-curvature="0"
     style="clip-rule:evenodd;fill-rule:evenodd" /><path
     d="m 209.15517,385.25911 c -4.40225,0.66627 -7.19903,-1.05703 -9.70383,-3.13815 -6.76495,-5.62389 -10.65774,-12.94248 -11.87678,-21.79635 0.39681,0.59176 0.86814,1.14367 1.17572,1.77875 3.90059,8.03078 8.89806,15.12583 16.65678,19.95175 1.19132,0.73992 2.1643,1.8316 3.74811,3.204 z"
     id="path29"
     inkscape:connector-curvature="0"
     style="clip-rule:evenodd;fill-rule:evenodd" /><path
     d="m 153.94821,205.53478 c 2.24574,-0.32837 4.24976,-0.50512 6.20005,-0.9288 4.57726,-0.99291 6.54228,-3.74117 5.82576,-8.38254 -0.37516,-2.43289 -1.18439,-4.79646 -1.88791,-7.54819 5.1127,4.12932 6.1186,11.11261 2.56458,15.54778 -3.10696,3.87633 -8.43106,4.54347 -12.70248,1.31175 z"
     id="path31"
     inkscape:connector-curvature="0"
     style="clip-rule:evenodd;fill-rule:evenodd" /><path
     d="m 183.50068,45.49794 c 4.45337,1.465104 8.90759,2.931941 13.67286,4.500148 -0.5441,-0.96605 -0.88894,-1.575138 -1.29962,-2.302925 4.86058,-0.543241 8.97258,0.693997 12.78046,4.566862 -9.45256,0.492989 -17.69215,-1.515356 -25.1537,-6.764085 z"
     id="path33"
     inkscape:connector-curvature="0"
     style="clip-rule:evenodd;fill-rule:evenodd" /><path
     d="m 197.14062,228.55796 c 2.60184,2.21802 5.30591,4.3286 7.75353,6.70257 1.00244,0.97125 2.05773,2.5126 2.05426,3.79402 -0.0182,6.69651 0.15509,13.45106 -2.1435,19.9093 -0.2322,0.65154 -0.694,1.22251 -1.6176,1.65138 0.27379,-1.40878 0.66628,-2.80631 0.80057,-4.22809 0.50512,-5.33537 0.94612,-10.67247 1.3698,-16.01391 0.17155,-2.17643 -1.13673,-3.54709 -2.65642,-4.8935 -2.19116,-1.9373 -4.2255,-4.05481 -6.32568,-6.09521 0.25472,-0.27552 0.51031,-0.55191 0.76504,-0.82656 z"
     id="path35"
     inkscape:connector-curvature="0"
     style="clip-rule:evenodd;fill-rule:evenodd" /><path
     d="m 319.27536,199.82772 c 6.85592,1.46597 12.15837,12.78218 8.67626,19.63724 -1.11248,-3.74117 -1.78655,-7.23021 -3.19273,-10.39609 -1.42958,-3.21092 -3.58349,-6.10214 -5.48353,-9.24115 z"
     id="path37"
     inkscape:connector-curvature="0"
     style="clip-rule:evenodd;fill-rule:evenodd" /><path
     d="m 298.63221,166.7862 c 0.50772,8.78196 -4.33206,16.1534 -7.83064,24.4389 -2.50826,-2.1643 -1.62366,-3.72124 -0.25126,-5.17595 1.49716,-1.58813 4.67083,-7.86269 4.86924,-9.73848 0.1083,-1.0241 0.17155,-2.09325 0.52418,-3.04457 0.84649,-2.27174 1.84979,-4.48542 2.68848,-6.4799 z"
     id="path39"
     inkscape:connector-curvature="0"
     style="clip-rule:evenodd;fill-rule:evenodd" /><path
     d="m 220.61694,40.393903 c 3.41713,1.746688 6.89231,3.389407 10.2332,5.270389 3.14768,1.771814 6.68091,2.989124 9.53574,6.020702 -3.01252,0.402016 -4.88743,-1.279692 -7.01448,-2.182494 -2.81584,-1.19305 -4.98707,-3.424929 -8.24305,-4.130189 -1.91131,-0.414146 -3.32009,-3.140747 -4.95501,-4.827652 0.14815,-0.04939 0.29631,-0.09964 0.4436,-0.150756 z"
     id="path41"
     inkscape:connector-curvature="0"
     style="clip-rule:evenodd;fill-rule:evenodd" /><path
     d="m 294.67097,222.43242 c 1.08042,-4.40051 2.12531,-8.80795 3.25078,-13.1946 1.08302,-4.22896 2.24661,-8.43366 3.26205,-12.22075 0.61515,6.00857 -2.28127,18.19814 -6.51283,25.41535 z"
     id="path43"
     inkscape:connector-curvature="0"
     style="clip-rule:evenodd;fill-rule:evenodd" /><path
     d="m 247.99385,51.736112 c -3.53236,-1.066554 -12.45468,-8.366081 -15.28439,-12.503203 5.38043,2.451949 12.98233,8.670193 15.28439,12.503203 z"
     id="path45"
     inkscape:connector-curvature="0"
     style="clip-rule:evenodd;fill-rule:evenodd" /><path
     d="m 289.12853,103.40984 c -0.009,2.34624 0.0754,4.35112 1.69037,6.40105 1.0215,1.29356 0.77804,3.58609 1.10121,5.42981 -0.34137,0.0806 -0.68273,0.16115 -1.0241,0.2426 -0.50338,-1.86712 -1.00417,-3.73424 -1.50756,-5.59963 -0.14296,-0.003 -0.28591,-0.005 -0.42801,-0.007 -0.15942,1.31955 -0.32057,2.64083 -0.52071,4.29481 -0.6758,-0.49126 -1.09948,-0.79537 -1.67651,-1.21385 -0.53024,1.45644 -1.05182,2.88862 -1.57254,4.32167 -0.18021,-0.0165 -0.36129,-0.0329 -0.54151,-0.0511 -0.0442,-0.47219 -0.25299,-1.0059 -0.10743,-1.41052 1.49629,-4.14925 3.04977,-8.27511 4.58679,-12.40789 z"
     id="path47"
     inkscape:connector-curvature="0"
     style="clip-rule:evenodd;fill-rule:evenodd" /><path
     d="m 273.76097,49.205321 c -0.29978,-1.072619 -0.59956,-2.146105 -1.16186,-4.156182 1.5942,1.309149 2.44328,1.997081 3.28197,2.698875 0.66887,0.56057 1.31175,1.611528 1.98582,1.629723 3.75936,0.09964 5.4428,2.996055 7.60017,5.279053 0.32664,0.28245 0.65414,0.563168 0.98078,0.845619 -0.50425,0.331836 -1.19305,1.061355 -1.47984,0.927928 -1.17485,-0.549306 -2.51086,-1.143665 -3.26724,-2.121845 -1.62972,-2.108849 -3.97943,-2.645158 -6.22864,-3.483846 -0.5701,-0.540641 -1.14106,-1.080417 -1.71116,-1.619325 z"
     id="path49"
     inkscape:connector-curvature="0"
     style="clip-rule:evenodd;fill-rule:evenodd" /><path
     d="m 286.44871,55.501542 c -0.32663,-0.281584 -0.65414,-0.563168 -0.98078,-0.845619 -0.0944,-0.73645 -0.19061,-1.472901 -0.34396,-2.655555 4.29394,-0.210538 6.67484,2.41296 8.86254,5.071114 -0.73299,1.808204 -1.35161,3.337422 -1.97023,4.866641 l -0.0121,-0.01733 c -2.63216,-0.798832 -0.18108,-2.327184 -0.59349,-3.810483 -1.50756,-0.791035 -3.23519,-1.699035 -4.96195,-2.608769 z"
     id="path51"
     inkscape:connector-curvature="0"
     style="clip-rule:evenodd;fill-rule:evenodd" /><path
     d="m 122.94103,254.18645 c -5.78504,-5.62388 -7.60711,-12.37497 -5.7036,-20.13543 0.60216,3.46392 0.9314,7.00321 1.88272,10.36663 0.94872,3.34782 2.52126,6.52062 3.82088,9.7688 z"
     id="path53"
     inkscape:connector-curvature="0"
     style="clip-rule:evenodd;fill-rule:evenodd" /><path
     d="m 238.65305,33.035458 c 4.82246,4.905629 8.95698,10.28692 11.89325,16.498233 -0.30497,0.214004 -0.60822,0.426275 -0.9132,0.638546 -3.91272,-5.514717 -7.8263,-11.031168 -11.73902,-16.548484 0.25299,-0.194943 0.50512,-0.391619 0.75897,-0.588295 z"
     id="path55"
     inkscape:connector-curvature="0"
     style="clip-rule:evenodd;fill-rule:evenodd" /><path
     d="m 287.75526,119.07978 c 0.68447,2.75952 1.36894,5.51905 2.0534,8.27857 -0.214,0.0745 -0.42714,0.15162 -0.63941,0.22613 -0.52505,-1.31261 -1.05009,-2.62609 -1.74755,-4.37105 -0.20534,1.68258 -0.36043,2.94927 -0.51292,4.19431 -0.8075,0.26079 -1.55868,0.50338 -2.59664,0.83695 0.65847,-3.22825 1.26323,-6.20092 1.86799,-9.17358 0.52591,0.003 1.05009,0.005 1.57513,0.009 z"
     id="path57"
     inkscape:connector-curvature="0"
     style="clip-rule:evenodd;fill-rule:evenodd" /><path
     d="m 276.64959,83.802048 c -0.5805,-0.232198 -1.47204,-0.587428 -2.46495,-0.983378 2.03434,-2.960533 4.15012,-6.036298 6.85593,-9.97501 -1.38107,4.316468 0.96345,8.732574 -4.39098,10.958388 z"
     id="path59"
     inkscape:connector-curvature="0"
     style="clip-rule:evenodd;fill-rule:evenodd" /><path
     d="m 204.14383,164.93727 c -6.21997,0.50772 -12.09598,-0.54064 -17.66788,-2.97093 0.0693,-0.3119 0.13689,-0.62468 0.20534,-0.93486 5.82056,1.30136 11.64112,2.60444 17.46254,3.90579 z"
     id="path61"
     inkscape:connector-curvature="0"
     style="clip-rule:evenodd;fill-rule:evenodd" /><path
     d="m 255.80283,50.386241 c -2.26567,-3.833876 -4.53134,-7.66602 -6.9313,-11.726897 5.60482,2.001414 7.02574,6.38113 7.86529,11.13687 -0.31191,0.196676 -0.62295,0.392485 -0.93399,0.590027 z"
     id="path63"
     inkscape:connector-curvature="0"
     style="clip-rule:evenodd;fill-rule:evenodd" /><path
     d="m 132.17872,288.16629 c 5.72179,-0.70179 11.42365,-2.03173 17.25288,0.32664 -5.77118,0.26686 -11.54149,0.53198 -17.31093,0.79883 0.0191,-0.37342 0.039,-0.74944 0.058,-1.12547 z"
     id="path65"
     inkscape:connector-curvature="0"
     style="clip-rule:evenodd;fill-rule:evenodd" /><path
     d="m 318.99984,139.21174 c -2.80111,-1.17485 -2.34018,-3.72471 -1.94943,-5.75991 0.71219,-3.72124 1.95723,-7.34198 3.10956,-11.46437 0.77284,2.62783 0.78843,5.06245 -0.41761,7.36364 -1.7025,3.24905 -1.589,6.49896 -0.74339,9.87017 l 8.7e-4,-0.01 z"
     id="path67"
     inkscape:connector-curvature="0"
     style="clip-rule:evenodd;fill-rule:evenodd" /><path
     d="m 271.44245,96.171823 c -0.20015,-0.673203 -0.40115,-1.344672 -0.70873,-2.372238 -1.32994,1.844593 -2.5178,3.495109 -3.70651,5.144759 -0.23134,-0.15942 -0.46094,-0.315374 -0.69313,-0.474794 1.92516,-3.505506 3.8512,-7.010146 5.77637,-10.515652 0.15595,0.05372 0.31104,0.105703 0.46786,0.158554 -0.18368,2.70494 -0.36822,5.407282 -0.5519,8.112222 -0.19408,-0.01733 -0.38902,-0.03552 -0.58396,-0.05285 z"
     id="path69"
     inkscape:connector-curvature="0"
     style="clip-rule:evenodd;fill-rule:evenodd" /><path
     d="m 327.75927,157.34576 c -0.91753,-4.67083 -3.48384,-9.07654 -2.61916,-14.03068 0.32144,-0.0546 0.64201,-0.1083 0.96258,-0.16289 0.84476,4.67863 1.68951,9.35813 2.53513,14.03849 -0.29285,0.0503 -0.5857,0.10397 -0.87855,0.15508 z"
     id="path71"
     inkscape:connector-curvature="0"
     style="clip-rule:evenodd;fill-rule:evenodd" /><path
     d="m 223.2699,126.91995 c 1.60026,0.92879 3.13381,2.00574 4.81552,2.74652 1.99881,0.88201 4.12412,1.47637 6.05449,2.56632 -4.77307,-0.24433 -9.27755,-1.21038 -13.88513,-4.80946 1.74929,-0.18974 2.46408,-0.26859 3.17454,-0.3483 -0.005,-0.003 -0.15942,-0.15508 -0.15942,-0.15508 z"
     id="path73"
     inkscape:connector-curvature="0"
     style="clip-rule:evenodd;fill-rule:evenodd" /><path
     d="m 134.63587,108.27908 c -2.08546,5.07024 -5.94359,8.85127 -9.45257,12.88269 2.80285,-4.54434 4.94116,-9.5834 9.54268,-12.79692 l -0.0901,-0.0858 z"
     id="path75"
     inkscape:connector-curvature="0"
     style="clip-rule:evenodd;fill-rule:evenodd" /><path
     d="m 288.2136,130.87512 c -1.64879,5.79977 -3.06624,10.77817 -4.48889,15.77998 -0.68273,-5.56584 0.76331,-10.53645 4.48889,-15.77998 z"
     id="path77"
     inkscape:connector-curvature="0"
     style="clip-rule:evenodd;fill-rule:evenodd" /><path
     d="m 291.40633,178.2705 c 0.55104,-2.36877 0.95478,-3.89972 1.25196,-5.45147 0.22007,-1.14453 1.51796,-2.39217 -0.41327,-3.46738 -0.25906,-0.14469 0.50511,-2.12965 0.95478,-3.87633 2.20069,3.95517 1.61066,7.84796 -1.79347,12.79518 z"
     id="path79"
     inkscape:connector-curvature="0"
     style="clip-rule:evenodd;fill-rule:evenodd" /><path
     d="m 322.71155,102.32855 c 0.19841,-1.47463 0.39509,-2.949267 0.5935,-4.422168 0.57789,3.127748 5.77031,4.138858 3.54536,8.418928 -1.41745,-1.38019 -2.77079,-2.69541 -4.12326,-4.01149 l -0.0156,0.0147 z"
     id="path81"
     inkscape:connector-curvature="0"
     style="clip-rule:evenodd;fill-rule:evenodd" /><path
     d="m 301.21585,167.87874 c 0.90454,-3.89625 1.81081,-7.79251 2.79505,-12.03014 2.31679,4.86318 -0.70353,8.36782 -2.79505,12.03014 z"
     id="path83"
     inkscape:connector-curvature="0"
     style="clip-rule:evenodd;fill-rule:evenodd" /><path
     d="m 318.99811,139.22127 c 0.227,3.63894 0.45573,7.27961 0.70093,11.20706 -1.14627,-0.39769 -1.76402,-0.61342 -2.75086,-0.95652 0.668,-3.34176 1.36026,-6.80048 2.05253,-10.26007 l -0.003,0.01 z"
     id="path85"
     inkscape:connector-curvature="0"
     style="clip-rule:evenodd;fill-rule:evenodd" /><path
     d="m 338.99665,141.79365 c 2.65902,3.94045 4.70462,6.97203 7.14184,10.58497 -2.25008,-1.56561 -4.37192,-2.3705 -5.35097,-3.90406 -1.09601,-1.71463 -1.15666,-4.09033 -1.79087,-6.68091 z"
     id="path87"
     inkscape:connector-curvature="0"
     style="clip-rule:evenodd;fill-rule:evenodd" /><path
     d="m 268.69072,108.47835 c 0.22093,-1.51622 1.04749,-3.3019 0.52504,-4.49322 -0.87681,-2.00574 0.45487,-2.92501 0.84562,-4.837179 1.95463,4.470689 1.94857,4.523539 -1.37066,9.330399 z"
     id="path89"
     inkscape:connector-curvature="0"
     style="clip-rule:evenodd;fill-rule:evenodd" /><path
     d="m 303.35763,58.173559 c -3.48558,-3.14941 -6.97376,-6.298821 -10.45934,-9.449097 4.6769,1.656581 7.78299,5.29898 11.06669,8.716978 -0.20274,0.243462 -0.40548,0.487791 -0.60735,0.732119 z"
     id="path91"
     inkscape:connector-curvature="0"
     style="clip-rule:evenodd;fill-rule:evenodd" /><path
     d="m 342.16252,119.79197 c 1.03103,3.14594 0.35523,4.91256 -1.91651,6.76148 -1.06568,-1.51449 -2.05599,-2.92241 -3.04457,-4.3286 0.24173,-0.19061 0.48433,-0.37948 0.72519,-0.56836 0.6888,0.7945 1.37673,1.58813 2.3757,2.7396 0.54064,-1.33601 1.0163,-2.51433 1.86019,-4.60412 z"
     id="path93"
     inkscape:connector-curvature="0"
     style="clip-rule:evenodd;fill-rule:evenodd" /><path
     d="m 122.44284,146.40644 c 2.34105,-4.97755 3.48385,-5.78504 8.6494,-5.9462 -1.41139,0.71306 -2.90768,1.30136 -4.21163,2.1773 -1.32735,0.89241 -2.46408,2.069 -4.43777,3.7689 z"
     id="path95"
     inkscape:connector-curvature="0"
     style="clip-rule:evenodd;fill-rule:evenodd" /><path
     d="m 117.14386,186.49102 c 3.79142,-1.2485 7.58285,-2.497 11.3734,-3.74723 -3.36775,2.57844 -6.99108,4.35805 -11.3734,3.74723 z"
     id="path97"
     inkscape:connector-curvature="0"
     style="clip-rule:evenodd;fill-rule:evenodd" /><path
     d="m 292.50754,147.84988 c 1.61153,-3.11129 2.83577,-6.45738 6.13507,-8.57229 -1.68604,3.09916 -3.37121,6.19745 -5.05639,9.29661 -0.35956,-0.24346 -0.71912,-0.48346 -1.07868,-0.72432 z"
     id="path99"
     inkscape:connector-curvature="0"
     style="clip-rule:evenodd;fill-rule:evenodd" /><path
     d="m 298.79943,126.38364 c -0.68967,2.81064 -1.37933,5.62301 -2.12791,8.67279 -1.17486,-1.81167 -1.22684,-1.82467 -0.53285,-4.69769 0.3613,-1.49456 0.94439,-2.93887 1.42699,-4.40484 0.41154,0.14382 0.82222,0.28591 1.23377,0.42974 z"
     id="path101"
     inkscape:connector-curvature="0"
     style="clip-rule:evenodd;fill-rule:evenodd" /><path
     d="m 263.00272,44.779684 c 1.28489,1.682574 1.97282,2.584509 2.88775,3.781026 -1.09774,0.493855 -1.91304,1.020634 -2.80371,1.231172 -2.65815,0.627283 -3.20313,-1.225107 -3.93525,-4.0938 1.58294,1.225974 2.56112,1.982352 4.04702,3.132082 -0.0685,-1.409654 -0.10484,-2.164299 -0.19581,-4.05048 z"
     id="path103"
     inkscape:connector-curvature="0"
     style="clip-rule:evenodd;fill-rule:evenodd" /><path
     d="m 294.12253,71.395884 c -0.81009,2.722269 -1.62192,5.446271 -2.43202,8.167673 -0.95912,-3.348685 -0.72172,-6.327412 2.43202,-8.167673 z"
     id="path105"
     inkscape:connector-curvature="0"
     style="clip-rule:evenodd;fill-rule:evenodd" /><path
     d="m 335.30833,142.21213 c 0.44447,2.84704 0.88894,5.6958 1.33427,8.54457 -1.91044,-2.6339 -2.62349,-5.48266 -2.41989,-8.50991 0.3613,-0.013 0.72346,-0.0234 1.08562,-0.0347 z"
     id="path107"
     inkscape:connector-curvature="0"
     style="clip-rule:evenodd;fill-rule:evenodd" /><path
     d="m 313.5579,151.35539 c 0.41675,2.31159 0.89414,4.96281 1.34468,7.46068 -3.37642,-1.98236 -3.5523,-3.02032 -1.34468,-7.46068 z"
     id="path109"
     inkscape:connector-curvature="0"
     style="clip-rule:evenodd;fill-rule:evenodd" /><path
     d="m 312.81452,169.8611 c 0,2.45628 0,4.91082 0,7.8445 -2.18423,-2.73613 -1.29009,-5.25653 0,-7.8445 z"
     id="path111"
     inkscape:connector-curvature="0"
     style="clip-rule:evenodd;fill-rule:evenodd" /><path
     d="m 306.88219,131.93734 c 0.67234,0.99464 1.34641,1.98929 2.03261,3.00385 -1.34727,0.93226 -2.31852,1.60633 -3.78103,2.6183 0.13516,-2.01094 0.24433,-3.63373 0.35436,-5.25566 0.4644,-0.12216 0.92967,-0.24432 1.39406,-0.36649 z"
     id="path113"
     inkscape:connector-curvature="0"
     style="clip-rule:evenodd;fill-rule:evenodd" /><path
     d="m 291.55708,162.02959 c 0.53285,-1.84286 0.99551,-3.61554 0.0624,-5.56063 -0.52592,-1.09342 -0.45834,-2.47101 -0.42195,-3.7559 3.35822,5.36222 3.35908,6.62372 0.25733,9.23076 l 0.10223,0.0858 z"
     id="path115"
     inkscape:connector-curvature="0"
     style="clip-rule:evenodd;fill-rule:evenodd" /><path
     d="m 285.14736,155.45612 c 1.64099,3.418 -0.67927,5.14996 -2.10711,7.29779 -0.29285,-0.12909 -0.58483,-0.25645 -0.87681,-0.38468 0.99464,-2.30466 1.98928,-4.60759 2.98392,-6.91311 z"
     id="path117"
     inkscape:connector-curvature="0"
     style="clip-rule:evenodd;fill-rule:evenodd" /><path
     d="m 336.91119,113.40997 c -1.77441,-2.7266 -3.0489,-4.68643 -4.32426,-6.64712 0.26772,-0.17848 0.53717,-0.35783 0.80403,-0.53631 0.9002,2.21715 4.63444,2.44849 3.52023,7.18343 z"
     id="path119"
     inkscape:connector-curvature="0"
     style="clip-rule:evenodd;fill-rule:evenodd" /><path
     d="m 305.85029,190.03812 c 0,2.83143 0,5.662 0,8.49171 -1.74148,-2.89555 -0.94872,-5.74085 0,-8.49171 z"
     id="path121"
     inkscape:connector-curvature="0"
     style="clip-rule:evenodd;fill-rule:evenodd" /><path
     d="m 273.76097,49.205321 c 0.5701,0.539775 1.14106,1.078684 1.71116,1.619325 -0.0814,0.417611 -0.16288,0.835222 -0.26945,1.374131 -2.18943,-2.010078 -4.28875,-3.93698 -6.3872,-5.863882 2.35751,-0.07365 3.51677,1.608062 4.94549,2.870426 z"
     id="path123"
     inkscape:connector-curvature="0"
     style="clip-rule:evenodd;fill-rule:evenodd" /><path
     d="m 296.44798,159.40956 c 0.29025,-2.5022 0.5805,-5.00267 0.87075,-7.50313 0.35783,0.0329 0.71479,0.0632 1.07262,0.0962 0.67147,2.53512 -0.86901,4.92036 -0.60996,7.42949 -0.44447,-0.008 -0.88894,-0.0156 -1.33341,-0.0225 z"
     id="path125"
     inkscape:connector-curvature="0"
     style="clip-rule:evenodd;fill-rule:evenodd" /><path
     d="m 308.38369,110.28309 c -0.51899,-2.59318 -1.0371,-5.18462 -1.55522,-7.77692 0.36823,-0.078 0.73472,-0.15682 1.10208,-0.2348 0.46527,2.60444 0.93053,5.20627 1.39493,7.81158 -0.31451,0.0667 -0.62815,0.13342 -0.94179,0.20014 z"
     id="path127"
     inkscape:connector-curvature="0"
     style="clip-rule:evenodd;fill-rule:evenodd" /><path
     d="m 297.12985,76.044188 c -0.59003,2.043002 -1.18179,4.086003 -2.04647,7.077726 -0.62815,-4.314735 -0.60995,-4.383182 2.04647,-7.077726 z"
     id="path129"
     inkscape:connector-curvature="0"
     style="clip-rule:evenodd;fill-rule:evenodd" /><path
     d="m 299.5636,123.25329 c 0.99118,-1.90698 1.98236,-3.81569 3.204,-6.16886 0.0736,3.24385 -0.0381,3.50637 -3.204,6.16886 z"
     id="path131"
     inkscape:connector-curvature="0"
     style="clip-rule:evenodd;fill-rule:evenodd" /><path
     d="m 270.25113,84.146881 c 1.05442,-2.166032 2.11058,-4.332064 3.35302,-6.880184 0.29198,3.266376 -0.0364,5.807565 -3.35302,6.880184 z"
     id="path133"
     inkscape:connector-curvature="0"
     style="clip-rule:evenodd;fill-rule:evenodd" /><path
     d="m 269.80146,54.686248 c -0.66541,1.623657 -1.32994,3.246448 -2.41209,5.884675 -0.2426,-2.01181 -0.34224,-2.936273 -0.46873,-3.857269 -0.1369,-0.993776 -0.29892,-1.984086 -0.46093,-3.043708 1.19998,0.409813 2.30379,0.786702 3.4076,1.163592 l -0.0659,-0.14729 z"
     id="path135"
     inkscape:connector-curvature="0"
     style="clip-rule:evenodd;fill-rule:evenodd" /><path
     d="m 149.73658,237.57472 c -0.0563,0.70526 -0.11437,1.40965 -0.18628,2.30119 -2.77166,-0.2322 -3.8564,-2.17296 -4.86491,-4.45076 1.73023,0.76591 3.46132,1.53268 5.19241,2.29946 l -0.14122,-0.14989 z"
     id="path137"
     inkscape:connector-curvature="0"
     style="clip-rule:evenodd;fill:none;fill-rule:evenodd" /><path
     d="m 313.67487,127.50217 c 0.681,-1.89831 1.36287,-3.79402 2.043,-5.69233 0.35263,0.12217 0.70699,0.2426 1.06049,0.36476 -0.61515,1.91131 -1.23031,3.82175 -1.84633,5.73479 -0.41847,-0.13689 -0.83695,-0.27205 -1.25716,-0.40722 z"
     id="path139"
     inkscape:connector-curvature="0"
     style="clip-rule:evenodd;fill-rule:evenodd" /><path
     d="m 280.51205,124.90727 c 0.28072,-2.25701 0.56144,-4.51315 0.84389,-6.77102 0.40375,0.0528 0.8101,0.10744 1.21384,0.16116 -0.34223,2.2466 -0.68273,4.49495 -1.0241,6.74155 -0.34483,-0.0442 -0.69053,-0.0884 -1.03363,-0.13169 z"
     id="path141"
     inkscape:connector-curvature="0"
     style="clip-rule:evenodd;fill-rule:evenodd" /><path
     d="m 291.33442,99.739711 c -0.46527,-2.14957 -0.93053,-4.297407 -1.39406,-6.446977 0.37429,-0.08577 0.74771,-0.172417 1.122,-0.257325 0.48779,2.155635 0.97645,4.308671 1.46424,6.464306 -0.39682,0.07971 -0.79537,0.160286 -1.19218,0.239996 z"
     id="path143"
     inkscape:connector-curvature="0"
     style="clip-rule:evenodd;fill-rule:evenodd" /><path
     d="m 308.42874,143.81066 c -0.6966,1.92344 -1.39319,3.84514 -2.08979,5.76945 -0.35783,-0.1213 -0.71479,-0.24346 -1.07175,-0.36303 0.61169,-1.97629 1.22337,-3.95257 1.8342,-5.92886 0.4436,0.17415 0.88547,0.34743 1.32734,0.52244 z"
     id="path145"
     inkscape:connector-curvature="0"
     style="clip-rule:evenodd;fill-rule:evenodd" /><path
     d="m 332.12859,151.65343 c 0.0849,-1.77614 0.17069,-3.55229 0.25473,-5.32757 0.43234,0.0364 0.86295,0.0745 1.29615,0.1109 -0.12303,1.79001 -0.24606,3.58002 -0.36996,5.36916 -0.39335,-0.0511 -0.7867,-0.10224 -1.18092,-0.15249 z"
     id="path147"
     inkscape:connector-curvature="0"
     style="clip-rule:evenodd;fill-rule:evenodd" /><path
     d="m 285.03473,100.97608 c -1.84113,-2.18769 -1.54741,-4.053943 -0.53285,-5.987777 1.00504,1.732826 0.7122,3.598213 0.53285,5.987777 z"
     id="path149"
     inkscape:connector-curvature="0"
     style="clip-rule:evenodd;fill-rule:evenodd" /><path
     d="m 310.94394,101.02547 c 0.44187,2.47794 0.8846,4.95501 1.32734,7.43295 -0.34137,0.0641 -0.681,0.1291 -1.0215,0.19408 -0.46093,-2.47274 -0.9236,-4.94462 -1.38539,-7.41736 0.35869,-0.0693 0.71912,-0.13863 1.07955,-0.20967 z"
     id="path151"
     inkscape:connector-curvature="0"
     style="clip-rule:evenodd;fill-rule:evenodd" /><path
     d="m 286.33175,87.841265 c 0.58569,-2.175563 1.17225,-4.349392 1.75882,-6.524088 1.21817,2.556784 -0.0598,4.549533 -0.6888,6.684374 -0.3561,-0.05458 -0.71306,-0.107435 -1.07002,-0.160286 z"
     id="path153"
     inkscape:connector-curvature="0"
     style="clip-rule:evenodd;fill-rule:evenodd" /><path
     d="m 291.45485,161.94382 c 0.65501,3.62507 -1.92171,5.75644 -3.3071,8.43886 -0.33357,-0.16289 -0.66887,-0.32491 -1.00244,-0.48519 1.47377,-2.6209 2.9484,-5.24007 4.41697,-7.86443 -0.005,-0.003 -0.10743,-0.0892 -0.10743,-0.0892 z"
     id="path155"
     inkscape:connector-curvature="0"
     style="clip-rule:evenodd;fill-rule:evenodd" /><path
     d="m 307.75727,174.43056 c 0.35176,-2.12271 0.70526,-4.24629 1.05876,-6.36987 0.25472,0.0355 0.50945,0.0702 0.76504,0.10397 -0.21574,2.12964 -0.43061,4.25842 -0.64635,6.38806 -0.39248,-0.039 -0.78497,-0.0814 -1.17745,-0.12216 z"
     id="path157"
     inkscape:connector-curvature="0"
     style="clip-rule:evenodd;fill-rule:evenodd" /><path
     d="m 303.30044,110.31774 c -0.895,-2.33238 -1.78914,-4.66649 -2.68501,-6.99888 0.29891,-0.12043 0.59609,-0.24086 0.89414,-0.36129 0.92359,2.32285 1.84806,4.64657 2.77252,6.96769 -0.32664,0.13169 -0.65501,0.26339 -0.98165,0.39248 z"
     id="path159"
     inkscape:connector-curvature="0"
     style="clip-rule:evenodd;fill-rule:evenodd" /><path
     d="m 304.82706,180.68173 c -0.71652,2.10018 -1.43131,4.20123 -2.14784,6.30142 -0.37255,-0.1161 -0.74338,-0.23394 -1.1168,-0.3483 0.63508,-2.09499 1.27103,-4.18824 1.90697,-6.28149 0.45227,0.10916 0.9054,0.2192 1.35767,0.32837 z"
     id="path161"
     inkscape:connector-curvature="0"
     style="clip-rule:evenodd;fill-rule:evenodd" /><path
     d="m 269.86731,54.834404 c 0.12823,-0.529378 0.25646,-1.058756 0.42541,-1.756218 1.29355,1.548279 2.47014,2.957066 3.91705,4.688159 -2.56458,0.132561 -3.2915,-1.736291 -4.40138,-3.063635 -0.007,-0.01646 0.0589,0.131694 0.0589,0.131694 z"
     id="path163"
     inkscape:connector-curvature="0"
     style="clip-rule:evenodd;fill-rule:evenodd" /><path
     d="m 303.51185,129.25406 c -0.3535,1.87752 -0.707,3.75417 -1.06136,5.63082 -0.37082,-0.0624 -0.74251,-0.12217 -1.11421,-0.18455 0.26946,-1.90697 0.53978,-3.81481 0.80837,-5.72179 0.45486,0.0936 0.91146,0.18455 1.3672,0.27552 z"
     id="path165"
     inkscape:connector-curvature="0"
     style="clip-rule:evenodd;fill-rule:evenodd" /><path
     d="m 323.98951,126.91128 c 0.10311,-1.68604 0.20534,-3.37294 0.33704,-5.54071 1.69037,2.45455 1.69037,2.45455 -0.33704,5.54071 z"
     id="path167"
     inkscape:connector-curvature="0"
     style="clip-rule:evenodd;fill-rule:evenodd" /><path
     d="m 288.15381,155.18406 c -0.24692,-1.70596 -0.49212,-3.41193 -0.73905,-5.11876 0.38902,-0.0529 0.77891,-0.10397 1.16706,-0.15682 0.12217,1.72069 0.24433,3.44399 0.36563,5.16468 -0.26426,0.0381 -0.52938,0.0745 -0.79364,0.1109 z"
     id="path169"
     inkscape:connector-curvature="0"
     style="clip-rule:evenodd;fill-rule:evenodd" /><path
     d="m 294.96382,194.76873 c 0.36129,-1.98149 0.72085,-3.96557 1.08042,-5.94792 0.36389,0.0693 0.72865,0.13949 1.09341,0.2088 -0.40288,1.97629 -0.8049,3.95084 -1.20865,5.9254 -0.32144,-0.0615 -0.64374,-0.1239 -0.96518,-0.18628 z"
     id="path171"
     inkscape:connector-curvature="0"
     style="clip-rule:evenodd;fill-rule:evenodd" /><path
     d="m 295.29999,137.35329 c -1.24677,1.78134 -2.49354,3.56442 -3.74031,5.34576 -0.30151,-0.20447 -0.60215,-0.41068 -0.90453,-0.61515 1.23983,-1.81427 2.48054,-3.62854 3.72037,-5.44454 0.30758,0.24 0.61602,0.4774 0.92447,0.71393 z"
     id="path173"
     inkscape:connector-curvature="0"
     style="clip-rule:evenodd;fill-rule:evenodd" /><path
     d="m 308.83942,162.9168 c -0.72259,-1.80301 -1.44518,-3.60601 -2.16777,-5.40902 0.29545,-0.12996 0.59176,-0.25732 0.88634,-0.38555 0.74425,1.7207 1.48937,3.44399 2.23362,5.16642 -0.31711,0.20881 -0.63422,0.41848 -0.95219,0.62815 z"
     id="path175"
     inkscape:connector-curvature="0"
     style="clip-rule:evenodd;fill-rule:evenodd" /><path
     d="m 325.37577,138.01956 c -0.30497,-2.16083 -0.61082,-4.3234 -0.91493,-6.48423 0.36996,-0.0606 0.74165,-0.12044 1.11247,-0.17935 0.38556,2.16603 0.77111,4.33466 1.1558,6.50243 -0.45054,0.0537 -0.9028,0.1083 -1.35334,0.16115 z"
     id="path177"
     inkscape:connector-curvature="0"
     style="clip-rule:evenodd;fill-rule:evenodd" /><path
     d="m 304.12873,173.68804 c 0.47826,-2.05859 0.95739,-4.11719 1.43738,-6.17579 0.73039,2.90422 0.73039,2.90422 -1.43738,6.17579 z"
     id="path179"
     inkscape:connector-curvature="0"
     style="clip-rule:evenodd;fill-rule:evenodd" /><path
     d="m 278.19787,104.46686 c -0.59523,1.97715 -1.19132,3.95257 -1.78568,5.92973 -0.34397,-0.10397 -0.6888,-0.20967 -1.0319,-0.31364 0.61515,-1.96936 1.23117,-3.94045 1.84633,-5.9098 0.32317,0.0988 0.64721,0.19754 0.97125,0.29371 z"
     id="path181"
     inkscape:connector-curvature="0"
     style="clip-rule:evenodd;fill-rule:evenodd" /><path
     d="m 270.81256,108.75907 c 0.78151,-1.75189 1.56215,-3.50378 2.34278,-5.25566 0.29198,0.1187 0.58397,0.2348 0.87508,0.35176 -0.72172,1.77008 -1.44344,3.54276 -2.16603,5.31284 -0.35003,-0.13689 -0.70006,-0.27118 -1.05183,-0.40894 z"
     id="path183"
     inkscape:connector-curvature="0"
     style="clip-rule:evenodd;fill-rule:evenodd" /><path
     d="m 294.21784,118.41004 c -0.76678,1.86712 -1.53529,3.73424 -2.30379,5.60309 -0.32491,-0.13343 -0.65068,-0.26685 -0.97645,-0.39942 0.76937,-1.9165 1.53788,-3.83214 2.30812,-5.74864 0.32317,0.18021 0.64721,0.36302 0.97212,0.54497 z"
     id="path185"
     inkscape:connector-curvature="0"
     style="clip-rule:evenodd;fill-rule:evenodd" /><path
     d="m 303.26492,95.641579 c 0.71826,1.530951 1.43651,3.061902 2.22062,4.731481 -2.46495,-1.173124 -2.46495,-1.173124 -2.22062,-4.731481 z"
     id="path187"
     inkscape:connector-curvature="0"
     style="clip-rule:evenodd;fill-rule:evenodd" /><path
     d="m 265.36196,92.577077 c -0.52851,2.526459 -0.99118,4.740144 -1.45384,6.952962 -0.0866,-2.344513 -1.05356,-4.916026 1.45384,-6.952962 z"
     id="path189"
     inkscape:connector-curvature="0"
     style="clip-rule:evenodd;fill-rule:evenodd" /><path
     d="m 304.89464,74.125084 c 0.31971,1.726761 0.63941,3.453521 0.95912,5.181149 -0.24519,0.04245 -0.48952,0.08317 -0.73385,0.125629 -0.31624,-1.798673 -0.63335,-3.595613 -0.95046,-5.393419 0.2426,0.02859 0.48346,0.05718 0.72519,0.08664 z"
     id="path191"
     inkscape:connector-curvature="0"
     style="clip-rule:evenodd;fill-rule:evenodd" /><path
     d="m 324.39413,113.67423 c 0.45746,1.43564 0.91753,2.87389 1.53961,4.82678 -2.21888,-1.78134 -2.21888,-1.78134 -1.53961,-4.82678 z"
     id="path193"
     inkscape:connector-curvature="0"
     style="clip-rule:evenodd;fill-rule:evenodd" /><path
     d="m 284.61279,67.902508 c 0.15942,-1.277959 0.3197,-2.555918 0.47912,-3.832144 0.32837,0.03379 0.65674,0.06845 0.98511,0.103104 -0.0658,1.281424 -0.13256,2.563715 -0.19841,3.845139 -0.42194,-0.03899 -0.84388,-0.07798 -1.26582,-0.116099 z"
     id="path195"
     inkscape:connector-curvature="0"
     style="clip-rule:evenodd;fill-rule:evenodd" /><path
     d="m 305.19702,58.568643 c 0.13689,0.420211 0.3379,0.831757 0.39335,1.261497 0.0537,0.416745 -0.0425,0.853417 -0.12476,2.017876 -1.14367,-1.293555 -1.92604,-2.178162 -2.70841,-3.063636 0.19754,-0.207072 0.39768,-0.410679 0.60043,-0.610821 0.20187,-0.243462 0.40461,-0.48779 0.60735,-0.732119 0.41068,0.376024 0.82136,0.752047 1.23204,1.127203 z"
     id="path197"
     inkscape:connector-curvature="0"
     style="clip-rule:evenodd;fill:none;fill-rule:evenodd" /><path
     d="m 311.6258,90.210037 c 1.27796,1.776146 2.14351,2.98046 3.13815,4.359789 -2.81411,-0.440138 -2.81411,-0.440138 -3.13815,-4.359789 z"
     id="path199"
     inkscape:connector-curvature="0"
     style="clip-rule:evenodd;fill-rule:evenodd" /><path
     d="m 333.66474,123.58252 c -0.0884,1.37413 -0.17761,2.74826 -0.26685,4.12066 -1.34554,-2.11924 -1.34554,-2.11924 0.26685,-4.12066 z"
     id="path201"
     inkscape:connector-curvature="0"
     style="clip-rule:evenodd;fill-rule:evenodd" /><path
     d="m 275.50159,53.894347 c 0.79797,1.49976 1.59766,2.997788 2.47014,4.636174 -2.28906,-0.812695 -2.28906,-0.812695 -2.47014,-4.636174 z"
     id="path203"
     inkscape:connector-curvature="0"
     style="clip-rule:evenodd;fill-rule:evenodd" /><path
     d="m 297.58818,104.07264 c 0.3509,1.75362 0.70093,3.50724 1.05096,5.26173 -0.29978,0.0546 -0.59782,0.10916 -0.8976,0.16375 -0.30585,-1.76055 -0.61169,-3.5237 -0.91753,-5.28772 0.25472,-0.0442 0.50945,-0.0918 0.76417,-0.13776 z"
     id="path205"
     inkscape:connector-curvature="0"
     style="clip-rule:evenodd;fill-rule:evenodd" /><path
     d="m 341.47632,152.53024 c 1.03103,1.34727 2.06293,2.69195 3.09483,4.03662 -0.28245,0.20967 -0.56404,0.42021 -0.84649,0.62988 -1.0293,-1.3464 -2.05859,-2.69541 -3.08789,-4.04268 0.27898,-0.20794 0.5597,-0.41501 0.83955,-0.62382 z"
     id="path207"
     inkscape:connector-curvature="0"
     style="clip-rule:evenodd;fill-rule:evenodd" /><path
     d="m 280.87335,106.01514 c -0.27206,1.47463 -0.54584,2.94753 -0.81876,4.42044 -0.32924,-0.0563 -0.65848,-0.1135 -0.98858,-0.17155 0.22094,-1.44518 0.44274,-2.89036 0.66367,-4.33553 0.38122,0.0277 0.76158,0.0572 1.14367,0.0866 z"
     id="path209"
     inkscape:connector-curvature="0"
     style="clip-rule:evenodd;fill-rule:evenodd" /><path
     d="m 312.91329,120.41925 c -0.58309,1.47983 -1.16619,2.9588 -1.74842,4.4369 -0.31711,-0.12216 -0.63248,-0.24433 -0.94959,-0.36649 0.57617,-1.48243 1.15147,-2.96227 1.72763,-4.44383 0.32317,0.12389 0.64721,0.24952 0.97038,0.37342 z"
     id="path211"
     inkscape:connector-curvature="0"
     style="clip-rule:evenodd;fill-rule:evenodd" /><path
     d="m 287.37578,73.095786 c -0.6836,1.480699 -1.36634,2.963132 -2.0508,4.444697 -0.33617,-0.146423 -0.67234,-0.293714 -1.00937,-0.44187 0.6524,-1.461638 1.30395,-2.92241 1.95636,-4.383182 0.36735,0.127362 0.73471,0.253859 1.10381,0.380355 z"
     id="path213"
     inkscape:connector-curvature="0"
     style="clip-rule:evenodd;fill-rule:evenodd" /><path
     d="m 282.56892,87.531089 c 0.62901,-1.522287 1.25716,-3.041975 1.88618,-4.564263 0.30151,0.116966 0.60216,0.233932 0.90367,0.350898 -0.5909,1.536149 -1.18179,3.071433 -1.77355,4.60585 -0.33877,-0.129962 -0.67753,-0.261657 -1.0163,-0.392485 z"
     id="path215"
     inkscape:connector-curvature="0"
     style="clip-rule:evenodd;fill-rule:evenodd" /><path
     d="m 307.79712,178.33461 c 0,2.66249 0,4.39445 0,6.4825 -2.41296,-1.95809 -1.48676,-3.77062 0,-6.4825 z"
     id="path217"
     inkscape:connector-curvature="0"
     style="clip-rule:evenodd;fill-rule:evenodd" /><path
     d="m 330.9858,130.30415 c 0.58829,1.39753 1.17658,2.79765 1.94249,4.61538 -2.38003,-1.6921 -2.38003,-1.6921 -1.94249,-4.61538 z"
     id="path219"
     inkscape:connector-curvature="0"
     style="clip-rule:evenodd;fill-rule:evenodd" /><path
     d="m 302.63244,142.13502 c -0.54931,1.55521 -1.09775,3.10956 -1.9295,5.46447 -0.18888,-3.39028 -0.18888,-3.39028 1.9295,-5.46447 z"
     id="path221"
     inkscape:connector-curvature="0"
     style="clip-rule:evenodd;fill-rule:evenodd" /><path
     d="m 314.23111,100.33147 c 0.30411,1.62452 0.60822,3.24905 0.91319,4.87357 -0.24692,0.0511 -0.49298,0.10397 -0.73991,0.15509 -0.41588,-1.5994 -0.83176,-3.19966 -1.24764,-4.79819 0.35697,-0.0771 0.71566,-0.15336 1.07436,-0.23047 z"
     id="path223"
     inkscape:connector-curvature="0"
     style="clip-rule:evenodd;fill-rule:evenodd" /><path
     d="m 307.86817,118.23156 c -0.60822,1.87925 -1.21818,3.75936 -1.8264,5.63948 -0.30844,-0.0858 -0.61688,-0.17242 -0.92533,-0.25559 0.54238,-1.89138 1.08562,-3.78189 1.62799,-5.67241 0.37516,0.0944 0.75032,0.19148 1.12374,0.28852 z"
     id="path225"
     inkscape:connector-curvature="0"
     style="clip-rule:evenodd;fill-rule:evenodd" /><path
     d="m 292.01542,61.938123 c 0.71912,1.938165 1.43824,3.87633 2.42509,6.538816 -2.95967,-2.047333 -2.69888,-4.298273 -2.43549,-6.553545 -0.003,-0.0017 0.0104,0.01473 0.0104,0.01473 z"
     id="path227"
     inkscape:connector-curvature="0"
     style="clip-rule:evenodd;fill-rule:evenodd" /><path
     d="m 315.85476,135.88472 c -0.15335,1.349 -0.30497,2.69714 -0.45746,4.04615 -0.36909,-0.0329 -0.73905,-0.0659 -1.10728,-0.10051 0.0849,-1.32908 0.16982,-2.65902 0.25473,-3.98983 0.43667,0.0147 0.87334,0.0295 1.31001,0.0442 z"
     id="path229"
     inkscape:connector-curvature="0"
     style="clip-rule:evenodd;fill-rule:evenodd" /><path
     d="m 330.71634,162.63955 c -0.2348,-1.5916 -0.46959,-3.1806 -0.70526,-4.77047 0.31191,-0.0581 0.62555,-0.1161 0.93833,-0.17502 0.30671,1.58034 0.61255,3.16068 0.91839,4.74188 -0.38295,0.0667 -0.76677,0.13429 -1.15146,0.20361 z"
     id="path231"
     inkscape:connector-curvature="0"
     style="clip-rule:evenodd;fill-rule:evenodd" /><path
     d="m 262.63103,58.160563 c -0.19495,-1.370665 -0.38902,-2.739597 -0.61602,-4.339862 1.83506,2.162567 1.83506,2.162567 0.61602,4.339862 z"
     id="path233"
     inkscape:connector-curvature="0"
     style="clip-rule:evenodd;fill-rule:evenodd" /><path
     d="m 319.16706,153.96329 c 0.0866,1.2433 0.17328,2.484 0.25992,3.72731 -0.25992,0.0451 -0.52071,0.0927 -0.7789,0.14036 -0.25646,-1.22078 -0.51292,-2.44156 -0.76938,-3.6632 0.42974,-0.0693 0.86035,-0.13689 1.28836,-0.20447 z"
     id="path235"
     inkscape:connector-curvature="0"
     style="clip-rule:evenodd;fill-rule:evenodd" /><path
     d="m 286.56568,101.14763 c 0.24173,-1.06742 0.48346,-2.135706 0.72605,-3.203126 0.18802,0.02166 0.37689,0.04159 0.56577,0.06411 -0.0754,1.078684 -0.14816,2.156506 -0.2218,3.235186 -0.35696,-0.0312 -0.71479,-0.0632 -1.07002,-0.0962 z"
     id="path237"
     inkscape:connector-curvature="0"
     style="clip-rule:evenodd;fill-rule:evenodd" /><path
     d="m 329.83173,101.1303 c -2.19202,-0.55623 -2.35057,-1.748418 -1.93296,-3.609472 1.72936,0.735584 2.0196,1.855856 1.93296,3.609472 z"
     id="path239"
     inkscape:connector-curvature="0"
     style="clip-rule:evenodd;fill-rule:evenodd" /><path
     d="m 317.38052,92.590073 c 1.0007,1.085615 1.99968,2.173829 2.99865,3.259445 -0.19841,0.197542 -0.39682,0.39595 -0.59609,0.595225 -1.07522,-0.967783 -2.15044,-1.934699 -3.22739,-2.902483 0.27552,-0.317973 0.55017,-0.63508 0.82483,-0.952187 z"
     id="path241"
     inkscape:connector-curvature="0"
     style="clip-rule:evenodd;fill-rule:evenodd" /><path
     d="m 318.55451,101.09998 c 0.28505,1.25023 0.57009,2.50133 0.85514,3.75417 -0.17155,0.0927 -0.34309,0.18454 -0.51638,0.27725 -0.26339,-0.35783 -0.58483,-0.6862 -0.77717,-1.07869 -0.19148,-0.39248 -0.31364,-0.84128 -0.35956,-1.27709 -0.0615,-0.5623 -0.0156,-1.13587 -0.0156,-1.70337 0.27119,0.01 0.54238,0.0182 0.81357,0.0277 z"
     id="path243"
     inkscape:connector-curvature="0"
     style="clip-rule:evenodd;fill-rule:evenodd" /><path
     d="m 311.48804,148.25796 c 0.5857,-1.44171 1.17139,-2.88342 1.75709,-4.32513 0.28678,0.10743 0.57443,0.21747 0.86121,0.3249 -0.54584,1.5015 -1.09341,3.00212 -1.63925,4.50448 -0.32664,-0.16808 -0.65328,-0.33616 -0.97905,-0.50425 z"
     id="path245"
     inkscape:connector-curvature="0"
     style="clip-rule:evenodd;fill-rule:evenodd" /><path
     d="m 285.32844,149.04726 c 0.39595,-1.54048 0.7919,-3.07923 1.18872,-4.61971 0.29285,0.0641 0.58483,0.12736 0.87681,0.19148 -0.29371,1.56214 -0.58656,3.12428 -0.88027,4.68642 -0.39422,-0.0849 -0.78931,-0.17328 -1.18526,-0.25819 z"
     id="path247"
     inkscape:connector-curvature="0"
     style="clip-rule:evenodd;fill-rule:evenodd" /><path
     d="m 277.26041,62.126134 c 0.30931,1.471169 0.61948,2.941471 0.93052,4.411774 -0.34656,0.07798 -0.69399,0.154221 -1.04056,0.232198 -0.32057,-1.43218 -0.64201,-2.862627 -0.96172,-4.294807 0.35697,-0.1161 0.71393,-0.232199 1.07176,-0.349165 z"
     id="path249"
     inkscape:connector-curvature="0"
     style="clip-rule:evenodd;fill-rule:evenodd" /><path
     d="m 294.51242,91.473267 c 0.24779,1.355069 0.49472,2.711872 0.74078,4.067808 -0.24866,0.05458 -0.49905,0.110901 -0.74771,0.166351 -0.36216,-1.339474 -0.72346,-2.677215 -1.08649,-4.014957 0.36476,-0.07538 0.72952,-0.148156 1.09342,-0.219202 z"
     id="path251"
     inkscape:connector-curvature="0"
     style="clip-rule:evenodd;fill-rule:evenodd" /><path
     d="m 328.62395,141.82138 c 0.53805,1.40186 1.07522,2.80545 1.61326,4.20643 -0.29717,0.12737 -0.59522,0.25733 -0.8924,0.38469 -0.63681,-1.39666 -1.27363,-2.79245 -1.91304,-4.18824 0.39855,-0.13429 0.79537,-0.26772 1.19218,-0.40288 z"
     id="path253"
     inkscape:connector-curvature="0"
     style="clip-rule:evenodd;fill-rule:evenodd" /><path
     d="m 301.403,66.313507 c 0.65154,1.495428 1.30222,2.990857 1.95289,4.485419 -0.27292,0.120431 -0.54497,0.23913 -0.81962,0.359561 -0.65588,-1.492829 -1.31349,-2.986525 -1.96936,-4.479354 0.27812,-0.121298 0.5571,-0.243462 0.83609,-0.365626 z"
     id="path255"
     inkscape:connector-curvature="0"
     style="clip-rule:evenodd;fill-rule:evenodd" /><path
     d="m 316.6484,170.08723 c 0.2218,1.34294 0.44533,2.68848 0.79536,4.81466 -2.15563,-1.78828 -1.6765,-3.30883 -0.79536,-4.81466 z"
     id="path257"
     inkscape:connector-curvature="0"
     style="clip-rule:evenodd;fill-rule:evenodd" /><path
     d="m 272.65022,64.078162 c -0.29544,-1.219043 -0.59089,-2.436353 -0.93919,-3.878063 0.82916,0.128229 1.2641,0.117832 1.28923,0.213137 0.27985,1.08215 0.49732,2.179895 0.73298,3.274174 -0.36129,0.129962 -0.72172,0.259924 -1.08302,0.390752 z"
     id="path259"
     inkscape:connector-curvature="0"
     style="clip-rule:evenodd;fill-rule:evenodd" /><path
     d="m 286.41579,103.9964 c -0.37169,1.2303 -0.74338,2.45801 -1.11594,3.68832 -0.28678,-0.0745 -0.57356,-0.14903 -0.86121,-0.22441 0.35003,-1.349 0.70179,-2.698 1.05182,-4.04614 0.30931,0.19494 0.61775,0.38902 0.92533,0.58223 z"
     id="path261"
     inkscape:connector-curvature="0"
     style="clip-rule:evenodd;fill-rule:evenodd" /><path
     d="m 289.09387,65.347457 c 0.15769,1.019767 0.31538,2.039535 0.47306,3.060169 -0.28505,0.05458 -0.56923,0.109168 -0.85428,0.164619 -0.22353,-1.063089 -0.44707,-2.126177 -0.6706,-3.188399 0.35089,-0.013 0.70093,-0.02513 1.05182,-0.03639 z"
     id="path263"
     inkscape:connector-curvature="0"
     style="clip-rule:evenodd;fill-rule:evenodd" /><path
     d="m 298.29518,187.86689 c 0.40461,-1.20432 0.81009,-2.4069 1.38539,-4.11373 0.2426,2.33065 0.2426,2.33065 -1.38539,4.11373 z"
     id="path265"
     inkscape:connector-curvature="0"
     style="clip-rule:evenodd;fill-rule:evenodd" /><path
     d="m 307.56753,86.226271 c -0.10138,0.848218 -0.20275,1.699036 -0.30498,2.549853 -0.23047,-0.01819 -0.46007,-0.03812 -0.68967,-0.05632 0,-0.817894 0,-1.635787 0,-2.451082 0.33271,-0.0156 0.66281,-0.03032 0.99465,-0.04245 z"
     id="path267"
     inkscape:connector-curvature="0"
     style="clip-rule:evenodd;fill-rule:evenodd" /><path
     d="m 328.54598,129.15962 c 0,-1.80647 0,-3.61554 0,-5.42374 1.67044,1.79521 0.81009,3.60947 0,5.42374 z"
     id="path269"
     inkscape:connector-curvature="0"
     style="clip-rule:evenodd;fill-rule:evenodd" /><path
     d="m 321.89539,155.17713 c 0,1.77268 0,3.5445 0,5.31631 -0.201,-0.003 -0.40201,-0.01 -0.60302,-0.013 0,-1.78655 0,-3.57309 0,-5.3605 0.20101,0.0191 0.40202,0.039 0.60302,0.0572 z"
     id="path271"
     inkscape:connector-curvature="0"
     style="clip-rule:evenodd;fill-rule:evenodd" /><path
     d="m 277.33232,97.43332 c 0.0572,-1.227707 0.11437,-2.458013 0.17155,-3.68572 0.33703,0.01993 0.6732,0.04159 1.0111,0.06238 -0.11436,1.224241 -0.22786,2.449349 -0.34223,3.671857 -0.27899,-0.01559 -0.5597,-0.03206 -0.84042,-0.04852 z"
     id="path273"
     inkscape:connector-curvature="0"
     style="clip-rule:evenodd;fill-rule:evenodd" /><path
     d="m 300.37457,84.862538 c 0,-1.078684 0,-2.159101 0,-3.236919 0.25559,-0.01386 0.51118,-0.02946 0.76677,-0.04332 0.10051,1.132401 0.20188,2.265669 0.30238,3.396338 -0.3561,-0.03726 -0.71219,-0.07798 -1.06915,-0.116099 z"
     id="path275"
     inkscape:connector-curvature="0"
     style="clip-rule:evenodd;fill-rule:evenodd" /><path
     d="m 341.73018,128.25249 c 0.668,1.21211 1.33601,2.42422 2.00488,3.63547 -0.30498,0.16461 -0.60909,0.32837 -0.9132,0.49125 -0.681,-1.20258 -1.362,-2.40776 -2.043,-3.61034 0.31624,-0.17328 0.63335,-0.34483 0.95132,-0.51638 z"
     id="path277"
     inkscape:connector-curvature="0"
     style="clip-rule:evenodd;fill-rule:evenodd" /><path
     d="m 283.22912,133.76807 c 0.50339,-1.0163 1.00504,-2.03347 1.50756,-3.04804 0.3431,0.17328 0.68534,0.3483 1.02843,0.52332 -0.5545,0.98944 -1.1064,1.97888 -1.66004,2.96746 -0.29198,-0.14729 -0.5831,-0.29545 -0.87595,-0.44274 z"
     id="path279"
     inkscape:connector-curvature="0"
     style="clip-rule:evenodd;fill-rule:evenodd" /><path
     d="m 322.21597,116.71967 c -2.20762,-0.19754 -2.62783,-1.52402 -2.53859,-3.92399 1.08128,1.67218 1.80993,2.79852 2.53859,3.92399 z"
     id="path281"
     inkscape:connector-curvature="0"
     style="clip-rule:evenodd;fill-rule:evenodd" /><path
     d="m 278.37635,86.718394 c 0.84821,-1.105543 1.69643,-2.211952 2.54552,-3.317495 0.24346,0.165485 0.48692,0.330103 0.73125,0.494722 -0.79883,1.128069 -1.59767,2.256139 -2.3965,3.385075 -0.29371,-0.188012 -0.58743,-0.374291 -0.88027,-0.562302 z"
     id="path283"
     inkscape:connector-curvature="0"
     style="clip-rule:evenodd;fill-rule:evenodd" /><path
     d="m 324.0233,88.68775 c -2.56285,-1.029299 -2.98826,-2.192024 -2.23881,-4.031419 0.59176,1.063955 1.18352,2.130509 2.23881,4.031419 z"
     id="path285"
     inkscape:connector-curvature="0"
     style="clip-rule:evenodd;fill-rule:evenodd" /><path
     d="m 299.84259,90.601656 c -0.34397,-0.965184 -0.68707,-1.932101 -1.03103,-2.898151 0.29458,-0.102237 0.59002,-0.204473 0.88461,-0.304977 0.3249,0.972981 0.64894,1.945963 0.97471,2.918078 -0.27812,0.09617 -0.55277,0.191477 -0.82829,0.28505 z"
     id="path287"
     inkscape:connector-curvature="0"
     style="clip-rule:evenodd;fill-rule:evenodd" /><path
     d="m 338.83549,131.2676 c 0.54758,0.65155 1.09428,1.30309 1.64099,1.95463 -0.23913,0.18975 -0.47999,0.37949 -0.71999,0.56924 -0.49732,-0.69747 -0.99464,-1.39406 -1.49196,-2.09153 0.18974,-0.14382 0.38035,-0.28764 0.57096,-0.43234 z"
     id="path289"
     inkscape:connector-curvature="0"
     style="clip-rule:evenodd;fill-rule:evenodd" /><path
     d="m 303.12889,87.712169 c 0.22874,0.981646 0.45574,1.961559 0.6836,2.941471 -0.12823,0.09271 -0.25732,0.186279 -0.38642,0.277252 -0.31191,-0.465263 -0.74685,-0.892405 -0.9002,-1.407054 -0.15596,-0.519848 -0.0355,-1.126336 -0.0355,-1.69557 0.21313,-0.03812 0.42627,-0.07624 0.63854,-0.116099 z"
     id="path291"
     inkscape:connector-curvature="0"
     style="clip-rule:evenodd;fill-rule:evenodd" /><path
     d="m 281.56734,99.574226 c -0.23306,-1.162726 -0.46613,-2.327185 -0.70006,-3.489044 0.20621,-0.04765 0.41328,-0.09271 0.61949,-0.138626 0.29371,1.151462 0.58743,2.305524 0.88114,3.456987 -0.26686,0.05805 -0.53371,0.1135 -0.80057,0.170683 z"
     id="path293"
     inkscape:connector-curvature="0"
     style="clip-rule:evenodd;fill-rule:evenodd" /><path
     d="m 276.18692,69.620604 c 0,1.107276 0,2.212819 0,3.320094 -0.13603,0.0035 -0.27292,0.0069 -0.40895,0.01126 0,-1.107275 0,-2.214551 0,-3.32096 0.13517,-0.0035 0.27206,-0.0061 0.40895,-0.0104 z"
     id="path295"
     inkscape:connector-curvature="0"
     style="clip-rule:evenodd;fill-rule:evenodd" /><path
     d="m 310.85989,87.492967 c -0.32144,-1.011104 -0.64028,-2.020475 -0.96171,-3.031579 0.30757,-0.09271 0.61428,-0.185412 0.92186,-0.277252 0.28678,1.021501 0.5727,2.043868 0.85948,3.066235 -0.27379,0.08144 -0.54671,0.162019 -0.81963,0.242596 z"
     id="path297"
     inkscape:connector-curvature="0"
     style="clip-rule:evenodd;fill-rule:evenodd" /><path
     d="m 264.77886,104.93819 c 0.37083,-1.2667 0.74252,-2.53339 1.11508,-3.80009 0.25386,0.0676 0.50858,0.13516 0.76157,0.20447 -0.3405,1.27536 -0.68013,2.55072 -1.01976,3.82868 -0.28505,-0.078 -0.57097,-0.15682 -0.85689,-0.23306 z"
     id="path299"
     inkscape:connector-curvature="0"
     style="clip-rule:evenodd;fill-rule:evenodd" /><path
     d="m 325.88436,89.649468 c 0.7997,0.702661 1.5994,1.403589 2.39909,2.104517 -0.18454,0.237397 -0.36822,0.473927 -0.55103,0.711324 -0.87248,-0.664538 -1.74496,-1.329943 -2.61744,-1.997081 0.25646,-0.271187 0.51292,-0.544974 0.76938,-0.81876 z"
     id="path301"
     inkscape:connector-curvature="0"
     style="clip-rule:evenodd;fill-rule:evenodd" /><path
     d="m 307.80925,99.112428 c -0.5519,-1.096878 -1.10294,-2.193757 -1.65398,-3.289769 0.25213,-0.126496 0.50252,-0.252126 0.75465,-0.377756 0.54584,1.100344 1.09168,2.200688 1.63838,3.2993 -0.24779,0.12303 -0.49298,0.246061 -0.73905,0.368225 z"
     id="path303"
     inkscape:connector-curvature="0"
     style="clip-rule:evenodd;fill-rule:evenodd" /><path
     d="m 322.72628,102.31382 c 0.11524,1.90871 0.23307,3.81828 0.3483,5.72526 -0.33963,-0.0165 -0.68013,-0.0329 -1.0189,-0.0494 0.21747,-1.88791 0.43667,-3.77409 0.65501,-5.66114 8.6e-4,0 0.0156,-0.0147 0.0156,-0.0147 z"
     id="path305"
     inkscape:connector-curvature="0"
     style="clip-rule:evenodd;fill-rule:evenodd" /><path
     d="m 298.27438,99.295241 c -0.35609,-0.778905 -0.71132,-1.558676 -1.06829,-2.337581 0.2426,-0.105703 0.48433,-0.212272 0.72693,-0.317974 0.3249,0.793634 0.64807,1.589868 0.97211,2.383502 -0.20967,0.09097 -0.42108,0.182813 -0.63075,0.272053 z"
     id="path307"
     inkscape:connector-curvature="0"
     style="clip-rule:evenodd;fill-rule:evenodd" /><path
     d="m 330.81251,114.17415 c 0.39076,0.78497 0.78064,1.57167 1.17226,2.35751 -0.17155,0.12996 -0.3431,0.25732 -0.51378,0.38555 -0.31364,-0.3327 -0.73992,-0.61515 -0.9132,-1.00937 -0.20708,-0.47133 -0.19841,-1.0371 -0.28419,-1.56041 0.17935,-0.0581 0.3587,-0.11697 0.53891,-0.17328 z"
     id="path309"
     inkscape:connector-curvature="0"
     style="clip-rule:evenodd;fill-rule:evenodd" /><path
     d="m 321.0853,91.527851 c 0.61342,0.740783 1.22857,1.481566 1.84286,2.223215 -0.15249,0.17155 -0.30498,0.344832 -0.45747,0.516382 -0.48866,-0.363027 -1.07522,-0.64981 -1.43478,-1.11334 -0.28332,-0.361295 -0.28418,-0.939192 -0.41068,-1.423517 0.15336,-0.06758 0.30671,-0.13516 0.46007,-0.20274 z"
     id="path311"
     inkscape:connector-curvature="0"
     style="clip-rule:evenodd;fill-rule:evenodd" /><path
     d="m 327.41617,116.43375 c -0.28678,-0.93053 -0.57269,-1.86192 -0.85774,-2.79418 0.28505,-0.091 0.56923,-0.18195 0.85428,-0.27552 0.31971,0.9236 0.63768,1.84546 0.95739,2.76819 -0.31798,0.1005 -0.63595,0.20101 -0.95393,0.30151 z"
     id="path313"
     inkscape:connector-curvature="0"
     style="clip-rule:evenodd;fill-rule:evenodd" /><path
     d="m 292.49887,88.019746 c -0.34656,0.918397 -0.69399,1.836795 -1.04142,2.754326 -0.2426,-0.07105 -0.48519,-0.140359 -0.72606,-0.211405 0.28852,-1.0241 0.57617,-2.049933 0.86642,-3.074899 0.29891,0.175882 0.59955,0.355229 0.90106,0.531978 z"
     id="path315"
     inkscape:connector-curvature="0"
     style="clip-rule:evenodd;fill-rule:evenodd" /><path
     d="m 331.40514,100.55587 c -0.0399,-0.707857 -0.0797,-1.41485 -0.12043,-2.12271 0.19494,-0.03119 0.38988,-0.06411 0.58656,-0.0953 0.17155,0.684466 0.34397,1.367199 0.51551,2.05167 -0.32663,0.0554 -0.65414,0.11177 -0.98164,0.16635 z"
     id="path317"
     inkscape:connector-curvature="0"
     style="clip-rule:evenodd;fill-rule:evenodd" /><path
     d="m 311.17267,179.40463 c 0,1.08562 0,2.17123 0,3.25512 -0.22614,0.0182 -0.4514,0.0355 -0.67754,0.0511 -0.0719,-1.07868 -0.14295,-2.1565 -0.214,-3.23518 0.29718,-0.0243 0.59523,-0.0485 0.89154,-0.0711 z"
     id="path319"
     inkscape:connector-curvature="0"
     style="clip-rule:evenodd;fill-rule:evenodd" /><path
     d="m 299.37126,179.89676 c 0.12043,-0.80057 0.24086,-1.60027 0.36129,-2.4017 0.24607,0.0312 0.49299,0.0624 0.73819,0.0927 -0.091,0.80143 -0.18108,1.60286 -0.27292,2.40169 -0.27552,-0.0303 -0.55104,-0.0615 -0.82656,-0.0927 z"
     id="path321"
     inkscape:connector-curvature="0"
     style="clip-rule:evenodd;fill-rule:evenodd" /><path
     d="m 298.11583,116.57065 c 0,-1.19739 0,-2.39304 0,-3.58782 0.16722,8.7e-4 0.33357,0.003 0.50078,0.003 0,1.19651 0,2.39303 0,3.58781 -0.16721,0 -0.33443,-0.002 -0.50078,-0.003 z"
     id="path323"
     inkscape:connector-curvature="0"
     style="clip-rule:evenodd;fill-rule:evenodd" /><path
     d="m 328.56071,112.65793 c 0.34656,-0.85602 0.69313,-1.71464 1.03969,-2.56979 0.20361,0.0658 0.40808,0.12997 0.61256,0.19581 -0.25213,0.95133 -0.50339,1.90005 -0.75465,2.84877 -0.29891,-0.15769 -0.59869,-0.31624 -0.8976,-0.47479 z"
     id="path325"
     inkscape:connector-curvature="0"
     style="clip-rule:evenodd;fill-rule:evenodd" /><path
     d="m 275.3335,95.076677 c 0,1.063955 0,2.128777 0,3.191865 -0.16461,0.0069 -0.3301,0.01473 -0.49472,0.02166 -0.0762,-1.031031 -0.15249,-2.060329 -0.22873,-3.089627 0.24086,-0.04072 0.48173,-0.08318 0.72345,-0.123898 z"
     id="path327"
     inkscape:connector-curvature="0"
     style="clip-rule:evenodd;fill-rule:evenodd" /><path
     d="m 293.31763,104.05964 c -0.0529,1.08735 -0.10483,2.17557 -0.15855,3.26292 -0.15162,-0.005 -0.30324,-0.009 -0.45573,-0.0121 0,-1.09688 0,-2.19376 0,-3.29064 0.20447,0.013 0.41068,0.0277 0.61428,0.0399 z"
     id="path329"
     inkscape:connector-curvature="0"
     style="clip-rule:evenodd;fill-rule:evenodd" /><path
     d="m 134.72598,108.36485 c 0.39681,-0.82916 0.79363,-1.65918 1.19045,-2.48747 0.23479,0.15855 0.46959,0.31537 0.70526,0.47219 -0.66194,0.64461 -1.32302,1.28663 -1.98582,1.92951 l 0.0901,0.0858 z"
     id="path331"
     inkscape:connector-curvature="0"
     style="clip-rule:evenodd;fill-rule:evenodd" /><path
     d="m 315.26387,83.94414 c -0.32144,-0.780638 -0.64288,-1.560409 -0.96258,-2.341047 0.30411,-0.110035 0.60735,-0.219203 0.91146,-0.330104 0.2348,0.80923 0.46873,1.618459 0.70353,2.425956 -0.21747,0.08318 -0.43581,0.163752 -0.65241,0.245195 z"
     id="path333"
     inkscape:connector-curvature="0"
     style="clip-rule:evenodd;fill-rule:evenodd" /><path
     d="m 148.80692,75.857043 c -3.13902,5.808431 -6.70604,11.332679 -11.48171,16.278163 0.065,-1.105542 -0.28245,-2.507398 0.26166,-3.269842 3.33916,-4.672564 6.87932,-9.197837 10.35363,-13.773363 0.28765,0.255592 0.5779,0.510317 0.86642,0.765042 z"
     id="path335"
     inkscape:connector-curvature="0"
     style="clip-rule:evenodd;fill:none;fill-rule:evenodd" /><path
     d="m 135.96668,150.76796 c 2.82017,2.49094 2.82017,2.49094 -1.66351,8.46572 0.35783,-2.01441 0.53544,-3.12775 0.75551,-4.23416 0.25906,-1.30049 0.5545,-2.59664 0.908,-4.23156 z"
     id="path337"
     inkscape:connector-curvature="0"
     style="clip-rule:evenodd;fill:none;fill-rule:evenodd" /><path
     d="m 175.98455,246.57502 c -0.14122,1.05702 -0.0113,2.17989 -0.36129,2.35837 -2.06639,1.05183 -4.24196,2.42162 -6.5986,0.84215 -1.84892,-1.2381 -3.31403,-0.95825 -4.68036,0.64895 -1.47983,1.74062 -3.32096,1.99188 -5.21667,0.95478 -1.45644,-0.7971 -2.62697,-0.82395 -4.15359,-0.0797 -0.95825,0.467 -2.31678,0.0875 -3.49424,0.13343 -3.88673,0.15076 -7.57072,-2.21282 -11.66452,-0.58916 -1.71723,0.68273 -3.44399,-0.35696 -3.78968,-2.67721 -0.2348,-1.57168 -0.73126,-3.10956 -1.27536,-5.33364 14.27674,-1.21385 27.59871,1.66438 41.23431,3.74204 z"
     id="path339"
     inkscape:connector-curvature="0"
     style="clip-rule:evenodd;fill:none;fill-rule:evenodd" /><path
     d="m 140.05701,238.37962 c 0.44534,-0.60476 0.89068,-1.20865 1.33601,-1.81254 0.77804,0.63595 1.55521,1.27363 3.14335,2.57325 -2.03867,0 -2.94667,0 -3.85467,0 -0.20881,-0.253 -0.41675,-0.50772 -0.62469,-0.76071 z"
     id="path341"
     inkscape:connector-curvature="0"
     style="clip-rule:evenodd;fill:none;fill-rule:evenodd" /><path
     d="m 140.05701,238.37962 c 0.20794,0.25299 0.41588,0.50771 0.62469,0.76071 -1.52489,0.47306 -1.52489,0.47306 -2.83924,-1.41572 0.97732,0.28851 1.59594,0.47306 2.21455,0.65501 z"
     id="path343"
     inkscape:connector-curvature="0"
     style="clip-rule:evenodd;fill:none;fill-rule:evenodd" /><path
     d="m 209.7088,119.93926 c 2.31159,0.54584 4.62232,1.09168 7.91642,1.86885 -4.59979,0.98425 -5.35963,0.83609 -7.91642,-1.86885 z"
     id="path345"
     inkscape:connector-curvature="0"
     style="clip-rule:evenodd;fill:none;fill-rule:evenodd" /><path
     d="m 187.2973,119.72352 c 1.44172,-2.86869 3.77063,-2.47101 6.42446,-2.12964 -1.81514,2.1591 -3.88067,2.54639 -6.42446,2.12964 z"
     id="path347"
     inkscape:connector-curvature="0"
     style="clip-rule:evenodd;fill:none;fill-rule:evenodd" /><path
     d="m 186.49761,153.85759 c 2.91894,-4.49149 5.51818,-8.48998 8.11568,-12.48761 0.18022,0.11523 0.3613,0.2322 0.54238,0.34916 -0.5571,3.6424 -1.11334,7.28567 -1.73543,11.35521 -1.76488,0.19927 -4.01928,0.45487 -6.92263,0.78324 z"
     id="path349"
     inkscape:connector-curvature="0"
     style="clip-rule:evenodd;fill:none;fill-rule:evenodd" /><path
     d="m 346.09863,136.45049 c 0.4644,1.18785 0.9262,2.37397 1.38973,3.56269 -1.87405,-0.8049 -2.53599,-1.96763 -1.35507,-3.55663 0.004,-0.003 -0.0329,-0.006 -0.0347,-0.006 z"
     id="path351"
     inkscape:connector-curvature="0"
     style="clip-rule:evenodd;fill:none;fill-rule:evenodd" /></svg>