<?xml version="1.0" encoding="UTF-8" standalone="no"?>
<!-- Generator: Adobe Illustrator 16.0.0, SVG Export Plug-In . SVG Version: 6.00 Build 0)  -->

<svg
   xmlns:dc="http://purl.org/dc/elements/1.1/"
   xmlns:cc="http://creativecommons.org/ns#"
   xmlns:rdf="http://www.w3.org/1999/02/22-rdf-syntax-ns#"
   xmlns:svg="http://www.w3.org/2000/svg"
   xmlns="http://www.w3.org/2000/svg"
   xmlns:sodipodi="http://sodipodi.sourceforge.net/DTD/sodipodi-0.dtd"
   xmlns:inkscape="http://www.inkscape.org/namespaces/inkscape"
   version="1.1"
   id="Ebene_1"
   x="0px"
   y="0px"
   width="420"
   height="420"
   viewBox="0 0 419.99999 419.99998"
   enable-background="new 0 0 841.89 595.28"
   xml:space="preserve"
   inkscape:version="0.91 r"
   sodipodi:docname="portrait-04.svg"><metadata
     id="metadata169"><rdf:RDF><cc:Work
         rdf:about=""><dc:format>image/svg+xml</dc:format><dc:type
           rdf:resource="http://purl.org/dc/dcmitype/StillImage" /><dc:title></dc:title></cc:Work></rdf:RDF></metadata><defs
     id="defs167" /><sodipodi:namedview
     pagecolor="#ffffff"
     bordercolor="#666666"
     borderopacity="1"
     objecttolerance="10"
     gridtolerance="10"
     guidetolerance="10"
     inkscape:pageopacity="0"
     inkscape:pageshadow="2"
     inkscape:window-width="1920"
     inkscape:window-height="1027"
     id="namedview165"
     showgrid="false"
     inkscape:zoom="0.39645207"
     inkscape:cx="424.72857"
     inkscape:cy="297.64001"
     inkscape:window-x="1024"
     inkscape:window-y="0"
     inkscape:window-maximized="1"
     inkscape:current-layer="Ebene_1" /><path
     d="m 326.86233,180.63656 c -0.74865,-0.30405 -1.49821,-0.60718 -1.9869,-0.80652 -0.40142,-7.73998 -0.79182,-15.29074 -1.18314,-22.84058 0.15433,-0.0588 0.30957,-0.11575 0.46481,-0.17362 0.39131,1.63784 0.69812,3.30231 1.19783,4.908 0.677,2.17428 -1.14547,5.03843 2.10999,6.6533 0.62831,0.31232 0.09,2.97529 0.58973,4.65722 1.25203,-4.8639 2.50314,-9.7278 3.93981,-15.3082 1.71316,5.41873 1.14088,10.7263 2.4269,15.88507 2.09253,-0.79641 4.04176,-1.53679 6.38783,-2.42873 -0.33069,-3.05154 -0.65771,-6.0599 -1.08577,-9.98777 -1.13078,2.49855 -1.91616,4.23284 -3.0203,6.66984 -2.43976,-9.50275 -2.0264,-17.82145 2.98448,-25.80027 1.86289,4.23559 -2.5307,8.38392 -0.0616,13.27538 1.79675,-6.20963 3.50624,-11.73491 4.94198,-17.33184 0.42806,-1.67274 0.46021,-3.63943 0.0322,-5.30574 -4.03074,-15.70595 -7.39735,-31.61215 -13.30568,-46.77705 -4.75827,-12.211655 -11.6008,-23.233744 -19.84142,-33.367562 -1.69938,-2.087941 -4.09229,-3.67801 -6.34374,-5.235928 -8.15059,-5.63735 -16.45276,-11.056995 -24.5565,-16.757727 -10.1329,-7.126375 -21.03925,-12.056415 -33.5127,-13.33784 -9.52021,-0.980129 -18.98254,-3.100221 -28.50274,-3.327111 -9.68371,-0.229646 -19.68985,0.04593 -29.04195,2.264309 -11.62468,2.75759 -22.56134,8.012808 -33.11036,13.934001 -13.98177,7.851137 -25.10031,18.963247 -35.97726,30.373897 -5.88537,6.173803 -8.64755,12.869361 -9.54133,21.355239 5.86148,-9.923462 12.57358,-17.875643 22.39783,-22.940715 -0.57963,0.742216 -1.02881,1.666311 -1.76092,2.198171 -12.89692,9.378742 -20.07198,22.700965 -25.82232,37.067617 -2.98448,7.457979 -5.00995,15.196139 -5.50875,23.129019 -0.784467,12.47805 -0.843256,25.00386 -1.189563,37.50946 -0.01286,0.45837 0.191984,0.92134 0.338958,1.58272 4.228235,-1.10873 8.392185,-2.20093 12.974085,-3.40244 -0.71007,-0.9149 -1.20519,-1.55516 -1.79032,-2.31023 0.48685,-0.23424 0.92593,-0.64301 1.30806,-0.59525 2.40669,0.29762 4.79776,0.7312 7.20262,1.05546 2.99917,0.40509 5.91476,1.72142 9.05907,0.68618 0.69812,-0.22873 1.64059,-0.0101 2.38464,0.25077 6.66525,2.33504 11.47404,6.79936 14.4429,13.45358 -2.00068,-1.44309 -4.00043,-2.88803 -6.00203,-4.33112 -0.20025,0.13871 -0.39866,0.27741 -0.59708,0.41796 0.4547,1.13261 0.9094,2.26614 1.54782,3.85897 -8.21949,-2.6097 -16.26629,-4.06474 -24.51885,-4.77664 -5.58774,-0.48134 -9.70208,1.84084 -13.84857,4.79593 -1.43483,1.02146 -1.530359,2.36627 -1.12159,3.8902 0.88276,3.28669 1.38798,6.73598 2.72544,9.82517 2.32494,5.36729 2.33228,10.7309 0.99023,16.20199 -3.6578,14.89851 -4.01972,29.8797 -1.2355,44.93896 0.47124,2.54632 1.14548,5.06967 1.90882,7.54801 6.11318,19.85335 12.18043,39.7214 18.51315,59.50403 0.9342,2.91466 3.19391,5.40678 4.84002,8.09364 l -0.16627,-0.16351 c 1.21253,2.27441 2.36627,4.5819 3.65321,6.81406 1.84635,3.20402 3.791,6.35292 5.73839,9.60104 4.50566,-2.50315 -0.64025,-4.62691 -0.0799,-7.00421 0.74038,0.16259 1.69019,0.0955 2.18347,0.53829 1.26489,1.13262 2.44527,3.6376 3.4502,3.53471 2.50406,-0.25352 2.3773,1.33746 3.12778,2.62532 0.24067,0.4106 1.53036,0.21127 2.76035,0.33253 -1.40544,1.23825 -2.5748,2.2643 -3.53012,3.10481 -1.42289,-0.79366 -2.60143,-1.99884 -3.68077,-1.91892 -1.43115,0.10747 -2.85863,1.11332 -4.14189,1.95291 -0.62097,0.40601 -0.85061,1.36685 -1.3641,1.98781 -1.91341,2.31024 -2.77596,4.61956 -2.08978,7.87043 0.86163,4.07851 0.75232,8.36279 1.08301,12.55429 0.0239,0.29945 0.22965,0.58422 0.40326,1.00309 0.63566,-0.92501 1.22447,-1.78205 2.06957,-3.0102 2.70707,3.47592 2.12744,7.62884 3.84335,11.1709 0.64301,-1.14456 1.23091,-2.19082 1.97955,-3.52093 0.38673,0.81386 0.63566,1.34021 0.99024,2.08151 1.15649,-1.21988 2.25971,-2.38189 4.01421,-4.23008 0.19106,5.27818 0.3509,9.65799 0.50981,14.03596 0.33529,0.057 0.66965,0.11482 1.00493,0.17361 0.88644,-1.80501 1.77195,-3.61095 2.68135,-5.4619 1.43575,3.49062 2.5555,6.64504 4.05555,9.60656 0.48777,0.96726 0.69904,3.31792 3.28026,1.89963 0.80744,-0.44276 2.22757,3.16911 2.06682,6.589 -4.74174,-2.55642 -6.4108,-7.26049 -9.40079,-11.15804 0.47582,2.30105 0.95165,4.60302 1.54873,7.49565 -2.22022,-1.75726 -4.08954,-3.23893 -6.37589,-5.04946 2.11825,6.15727 4.09321,11.89658 6.06725,17.63773 -0.31967,0.15065 -0.64118,0.30221 -0.96084,0.45378 -1.05729,-1.70581 -2.37914,-3.3069 -3.1186,-5.14223 -1.75633,-4.3596 -3.63943,-8.73941 -4.68294,-13.29283 -0.66413,-2.89538 -3.29863,-5.15693 -2.61245,-8.45005 0.0266,-0.12493 -1.66631,-0.3261 -2.01629,-0.85429 -2.31575,-3.47959 -4.88319,-6.87927 -6.56237,-10.66476 -1.20518,-2.71533 -1.18589,-5.98273 -1.65161,-9.01406 -0.12125,-0.78447 -0.0193,-1.60293 -0.0193,-2.8963 -1.16476,0.8598 -1.95842,1.44677 -3.20126,2.36628 -0.914,-5.90099 3.11675,-9.36497 5.14958,-13.95329 -1.24468,-2.51784 -2.59776,-5.25614 -4.1125,-8.31778 -0.85061,1.01228 -1.40544,1.67182 -2.14214,2.54631 -2.68043,-1.41094 -1.82431,-4.76286 -3.91684,-6.81313 -0.82857,0.17269 -1.91801,0.28751 -2.93212,0.62463 -16.48859,5.48211 -32.94961,11.04597 -49.459319,16.46195 -5.043945,1.65528 -10.098912,3.49521 -16.482152,3.4851 1.166602,-0.82397 1.557,-1.2952 2.033745,-1.40911 11.136912,-2.64276 21.206429,-8.13773 31.91528,-11.91311 9.799454,-3.45296 19.676986,-6.68086 29.522376,-10.00338 0.89837,-0.30313 1.81328,-0.56125 3.17646,-0.98197 -2.60694,-6.63033 -5.13029,-13.05124 -7.79786,-19.83406 -0.2324,0.5934 -0.41428,1.06464 -0.86714,2.22757 -0.59525,-1.55149 -1.18773,-2.62532 -1.42013,-3.77355 -1.57262,-7.78316 -3.01572,-15.59388 -4.61313,-23.37153 -1.07383,-5.23133 -1.95934,-10.54626 -3.58616,-15.61409 -3.34823,-10.4296 -5.722774,-20.99883 -6.059895,-31.9658 -0.304969,-9.95929 0.407852,-19.81661 3.415295,-29.39193 2.72452,-8.66868 2.87333,-8.71093 -0.20025,-17.33919 -1.21988,-3.42448 -3.212289,-6.56971 -4.778474,-9.87754 -0.401422,-0.84693 -0.729356,-1.82798 -0.731193,-2.74748 -0.02848,-11.18284 -0.09829,-22.3666 0.06155,-33.54669 0.254448,-17.61476 3.079093,-34.6104 12.421087,-50.009538 0.85796,-1.4137 1.03433,-3.373959 1.11424,-5.099059 0.36009,-7.737233 2.67216,-14.825945 7.8493,-20.556072 15.71514,-17.393387 33.36297,-32.146763 55.21149,-41.621039 17.67631,-7.662827 36.0039,-9.215234 54.83671,-8.321452 8.97272,0.424386 17.61109,2.833831 26.40653,4.304484 20.67549,3.455713 36.25283,15.918143 52.27477,27.905663 9.30526,6.961948 16.74212,15.396385 22.16819,25.560517 3.28026,6.137978 6.51276,12.391697 8.85515,18.920992 5.10549,14.222434 9.51837,28.652474 10.39378,43.941374 0.31323,5.47936 -0.12401,10.7309 -1.98414,15.81894 -2.02364,5.53722 -2.13755,10.93666 -0.76335,16.71731 1.14272,4.80878 2.2983,9.25473 5.07334,13.58861 6.16554,9.63319 5.91844,20.21252 3.03776,31.02976 -4.32745,16.24884 -18.29268,35.22127 -28.92988,44.02314 6.72954,8.71001 7.90441,19.07715 9.14266,29.61698 1.05821,9.00488 3.17463,17.93444 7.63527,26.01889 2.57755,4.67192 5.48027,9.16472 8.11661,13.53901 -3.3712,-0.0331 -3.3712,-0.0331 -14.24081,-12.46886 0.59892,2.08151 0.84877,3.25546 1.27224,4.36511 2.81822,7.38174 7.98525,12.9998 13.97626,17.84533 7.69314,6.22341 12.69758,14.26286 16.51246,23.18874 0.88827,2.07875 1.62222,4.22273 2.59776,6.7865 -1.30531,-0.28385 -2.53254,-0.37846 -3.62474,-0.81663 -17.26754,-6.89948 -33.68814,-15.37525 -48.69505,-26.43684 -1.53495,-1.1317 -3.09012,-2.30932 -4.35041,-3.71843 -1.16844,-1.30623 -1.9575,-2.95416 -3.17555,-4.86206 -0.7661,1.87207 -1.38614,3.38773 -2.2147,5.41413 -1.8041,-2.93304 -2.28636,-5.62449 -2.10632,-8.34258 0.62372,-9.39436 1.25938,-18.79147 2.16143,-28.16103 1.19967,-12.44865 2.68778,-24.86882 3.92879,-37.31196 0.10839,-1.0876 -0.6127,-2.30656 -1.11608,-3.38774 -0.57136,-1.23641 -1.32919,-2.38372 -2.08795,-3.71199 -1.78021,8.01097 -3.22974,16.25434 -5.4968,24.26715 -2.32586,8.22224 -2.55642,16.58044 -2.45354,26.07033 -1.31725,-1.23917 -1.79032,-1.68377 -2.34239,-2.20185 -0.63198,0.5484 -1.37512,1.18957 -2.1155,1.83258 l 0.0643,0.0579 c 0.55942,-3.76252 1.11976,-7.52229 1.74256,-11.70735 -0.0882,0.0147 0.49971,-0.0836 1.11975,-0.18464 1.93546,-14.28674 5.63,-28.31627 9.08847,-42.39908 0.38305,-1.56527 0.25445,-3.2674 0.71558,-4.79776 0.17637,-0.58422 1.34664,-0.86806 2.2689,-1.40911 0.46389,-11.76982 0.94339,-23.8841 1.42013,-35.99931 0.26272,-0.002 0.52543,-0.004 0.78723,-0.006 0.12217,1.25571 0.3858,2.51692 0.34355,3.76803 -0.42714,12.49918 -0.90389,24.99651 -1.37696,37.49385 -0.0303,0.80835 -0.12033,1.61762 -0.24894,2.41679 -0.67883,4.24845 2.18256,6.67351 6.27761,4.89697 2.47007,-1.07199 4.95668,-2.66849 6.74883,-4.65079 11.30318,-12.50376 19.6283,-26.7161 22.79191,-43.43708 1.34572,-7.11076 2.4122,-14.374 0.44551,-21.6942 -2.62164,-9.75719 -6.31986,-11.30593 -14.23713,-5.1358 -4.72428,3.68169 -8.99753,7.94851 -13.40765,12.02335 -3.50164,3.23433 -5.3976,7.18883 -5.04578,12.08489 -0.42439,-7.2706 -0.84602,-14.54119 -1.26949,-21.81178 0.20944,-0.057 0.41888,-0.11298 0.62831,-0.16626 0.25078,0.68894 0.50247,1.37879 0.77529,2.1256 0.23975,-0.91307 0.47858,-1.8289 0.80652,-3.07634 0.50981,0.7413 0.76518,1.11149 1.39165,2.02181 0.39958,-3.56411 0.98656,-6.6726 1.03249,-9.78935 0.0469,-3.20862 -0.43265,-6.42458 -0.71742,-10.08973 2.04385,2.77964 2.45446,5.70441 2.07233,12.63053 -0.24067,4.36052 -0.44919,8.72471 -0.69078,13.43429 3.11584,-2.54172 6.00663,-4.90156 8.89649,-7.26232 2.05855,-2.16327 4.11985,-4.32653 6.23994,-6.55043 -0.43265,-1.94464 -0.89654,-4.03166 -1.33838,-6.01488 -1.64518,3.27015 -3.36201,6.51276 -4.88594,9.84446 -0.34631,0.75048 -0.0193,1.80777 -9.2e-4,2.7236 z m 24.69245,160.65941 c 3.27659,4.82533 6.53297,9.66443 9.85365,14.45943 0.5438,0.78723 1.36961,1.3788 2.06498,2.06039 -1.84176,-5.08253 -4.24018,-9.65616 -7.03635,-13.96983 -1.08118,-1.66723 -3.06532,-2.75116 -4.63793,-4.10055 -2.29922,-2.04294 -4.5672,-4.12077 -6.90316,-6.12053 -7.81715,-6.68913 -12.68197,-15.10336 -14.69,-25.16553 -0.91674,-4.59659 -1.69662,-9.22166 -2.56744,-13.98176 0.87909,0.21311 1.55884,0.37754 2.18899,0.53002 -1.275,-6.47142 -2.48294,-12.84088 -3.79284,-19.18922 -1.30806,-6.34006 -2.11458,-12.84088 -5.53722,-18.55172 -0.24067,-0.40234 -0.56401,-0.75416 -0.97829,-1.29979 -1.41921,0.64117 -2.66573,1.20426 -3.49062,1.5772 -1.3494,11.00372 -2.58949,21.46731 -3.92787,31.9208 -0.92593,7.23752 -2.04844,14.4484 -2.97253,21.68593 -0.84602,6.62482 -1.55792,13.26986 3.44285,18.85301 0.20576,0.22781 0.18923,0.6623 0.40234,0.87266 0.87449,0.8699 1.66539,1.95015 2.72268,2.4866 10.12923,5.13856 20.30346,10.18802 30.46943,15.25125 0.97003,0.48134 1.97955,0.88552 3.53747,1.57721 -0.66322,-1.88126 -1.10873,-3.14431 -1.9327,-5.48211 3.31057,3.55584 5.77146,6.19861 8.23235,8.84045 -0.20393,-2.1899 -1.25938,-3.78181 -2.00435,-5.50507 -0.94615,-2.19266 -1.64151,-4.49463 -2.44344,-6.74884 z M 111.79702,297.12403 c 0.36376,-0.0863 0.7266,-0.16994 1.08945,-0.25537 0.31691,-3.75517 -1.57078,-6.98767 -3.26925,-10.2863 0.7266,3.51358 1.4532,7.02717 2.1798,10.54167 z m 34.6196,80.5148 c 0,-2.05763 0,-4.11617 0,-6.67719 -2.71993,2.61429 -0.90205,4.60211 0,6.67719 z M 106.72369,160.78964 c 0.0147,0.21219 0.0285,0.4253 0.0432,0.63841 0.99207,-0.079 1.98506,-0.15891 2.97805,-0.23791 -0.0119,-0.18647 -0.0239,-0.37295 -0.0349,-0.56034 -0.99574,0.0542 -1.99057,0.10656 -2.98631,0.15984 z"
     id="path3"
     inkscape:connector-curvature="0"
     style="clip-rule:evenodd;fill-rule:evenodd" /><path
     d="m 212.39115,165.72703 c -0.40509,0.46388 -0.92317,1.38706 -1.19508,1.31908 -2.39383,-0.59708 -4.45237,0.88184 -6.59451,0.97462 -2.7089,0.11666 -4.96586,0.53645 -7.06115,2.31024 -0.47399,0.40142 -1.70122,-0.0891 -3.03868,-0.21036 -0.31875,0.38397 -1.07107,1.28969 -1.82155,2.19542 -0.19933,-0.11942 -0.4005,-0.23883 -0.60076,-0.35917 0.82581,-1.95291 1.65162,-3.9049 2.83108,-6.69739 -3.37763,2.23675 -3.85622,5.3682 -5.78065,7.67201 -0.49695,-2.24226 -0.14605,-4.33296 1.03892,-6.30332 1.72234,-1.86473 3.45663,-3.74507 5.19,-5.62541 5.35626,-2.66206 10.89165,-4.69121 16.88357,-4.49739 -0.17453,0.519 -0.46756,1.38798 -1.04167,3.09747 2.19449,-0.74865 3.5935,-1.22448 5.22766,-1.78206 -0.53186,0.90756 -0.95257,1.62498 -1.50923,2.57296 8.97823,-3.1186 18.27247,-2.22022 27.02198,-4.81706 0.0799,0.30589 0.16075,0.61178 0.24067,0.91859 -3.07818,1.08393 -6.15543,2.16785 -9.23544,3.2527 0.0211,0.22322 0.0404,0.4446 0.0606,0.66781 0.67241,0 1.3494,-0.0377 2.01905,0.006 7.18792,0.46481 14.374,0.94247 21.6648,2.31116 -2.91467,0.38948 -5.82933,0.77988 -8.744,1.17028 -0.006,0.11666 -0.0147,0.23516 -0.0211,0.35273 1.35491,0.0854 2.70983,0.23975 4.06382,0.24251 3.71292,0.004 6.37681,3.13421 10.02267,3.30323 1.49178,2.88619 4.22457,2.40944 6.7424,2.46456 1.83717,0.0404 3.67618,0.007 5.5014,0.32058 -5.59325,3.19392 -19.25168,1.75542 -28.36036,-2.87424 2.62348,-0.16168 4.69029,-0.28844 6.75527,-0.41704 -3.79559,-1.43299 -7.54249,-0.77345 -11.27011,-0.36835 -2.23399,0.2425 -4.21446,0.37294 -6.42825,-0.7955 -1.71591,-0.9048 -4.2117,1.49362 -6.24729,-0.69077 -0.41795,-0.44827 -1.81787,-0.14238 -2.71809,0.0441 -4.35776,0.90572 -8.70082,1.89045 -13.10268,2.85863 -0.1681,-0.87725 -0.33436,-1.75082 -0.50063,-2.62439 1.84544,1.09679 3.39142,0.50889 5.52253,-1.24009 -2.34606,0.53094 -3.93062,0.89011 -5.51518,1.24836 z"
     id="path5"
     inkscape:connector-curvature="0"
     style="clip-rule:evenodd;fill-rule:evenodd" /><path
     d="m 294.41978,301.29624 c -0.0919,2.19909 0.21679,4.51024 -0.36743,6.56787 -0.87909,3.09104 -2.27442,6.05347 -3.65964,8.97273 -0.91859,1.93362 -2.39383,3.18106 -4.60394,1.51199 -2.00252,4.00594 -3.87184,7.74825 -6.01949,12.04355 -1.45871,-2.34055 -2.58673,-4.15291 -3.8755,-6.22157 -1.48076,2.1302 -2.86231,4.10975 -4.23651,6.09297 -4.70774,6.79477 -10.90267,11.92965 -17.85911,16.28098 -2.1651,1.35491 -3.96461,3.28302 -6.06816,4.75092 -0.98197,0.68526 -2.29187,0.89929 -3.94165,1.5074 -1.39073,8.62642 -7.55351,15.10886 -13.67679,21.63265 -0.75692,0.80468 -1.26765,1.84451 -1.87575,2.78606 -0.85337,1.32001 -1.69112,2.64644 -2.8568,4.47534 -0.88643,-1.48994 -1.4238,-2.39015 -2.0365,-3.4208 -1.31541,1.7104 -2.62991,3.34915 -3.86632,5.04302 -3.6036,4.93831 -9.11419,6.61564 -14.49342,8.49507 -2.0319,0.70914 -2.85496,-0.5833 -2.9165,-3.00745 -2.07876,2.36903 -3.66056,4.16854 -5.71451,6.50909 -0.50706,-1.43758 -0.69078,-1.95842 -0.87541,-2.47742 1.57169,-2.0907 3.14247,-4.18323 4.71141,-6.27485 1.59191,-1.46973 3.18382,-2.94039 5.48211,-5.06415 -0.203,3.27199 -3.10757,5.17163 -0.42806,8.27828 0.8451,-1.13813 1.59191,-2.33321 2.52887,-3.35192 0.90847,-0.98564 1.56526,-2.60877 3.54573,-1.6957 0.33712,0.15524 1.26765,-0.68894 1.76644,-1.21804 2.50314,-2.6593 4.95208,-5.36545 7.59485,-8.24338 0.20301,0.86164 0.34263,1.4532 0.56585,2.40118 2.00802,-1.10965 2.76953,-5.52436 6.23075,-2.43516 3.12319,-5.22491 6.23627,-10.2909 9.18951,-15.44599 1.39625,-2.43609 1.25938,-2.51509 4.51393,-2.9753 0.52634,-2.43149 1.07382,-4.95392 1.7104,-7.89155 3.94072,0.22505 3.96277,-3.95542 6.1637,-6.51919 0.59616,0.89929 1.05912,1.59925 1.83165,2.76218 2.67125,-4.26315 5.19735,-8.29757 7.72438,-12.33107 0.19014,0.0854 0.38213,0.17086 0.57319,0.25628 -1.0086,2.61889 -2.01721,5.23869 -3.33354,8.6549 8.08262,-4.20987 10.39562,-12.14184 15.728,-18.65093 -0.2122,1.76736 -0.33253,2.75943 -0.45195,3.74966 0.1975,0.13412 0.39408,0.26731 0.59157,0.40142 2.92018,-4.40277 5.84128,-8.80738 8.85056,-13.34518 0,0.91215 0,1.86656 0,2.9661 0.75875,-0.20851 1.46789,-0.61637 2.07416,-0.49879 0.45562,0.0882 0.7808,0.85429 1.32643,1.5175 1.57262,-3.18197 3.04878,-6.17012 4.52495,-9.15828 0.30405,0.10931 0.60718,0.21863 0.91123,0.32794 -0.801,2.25696 -1.60017,4.51484 -2.54631,7.18516 3.57054,-2.99642 6.32078,-8.47394 7.65364,-14.85626 -0.0248,-0.0294 -0.09,-0.0873 -0.09,-0.0873 z"
     id="path7"
     inkscape:connector-curvature="0"
     style="clip-rule:evenodd;fill-rule:evenodd" /><path
     d="m 201.94226,194.14526 c -1.3393,0.5787 -2.67859,1.15649 -4.06841,1.75449 3.26649,-7.61414 15.15847,-15.59112 30.55119,-14.02769 7.88604,0.80008 14.17742,4.152 18.75932,10.41031 -0.15708,0.40693 -0.31416,0.81386 -0.47124,1.21988 -1.44585,-0.25261 -2.8917,-0.50614 -4.34031,-0.75783 -1.06831,-1.10598 -2.1357,-2.21195 -3.54297,-3.6725 -0.97462,2.85036 -1.73062,5.06415 -2.54264,7.44236 3.22882,0.37938 4.29805,-2.39199 6.16094,-3.89112 0.22873,1.77379 0.17912,3.23158 -1.73613,4.36511 -5.02557,2.9753 -10.4397,3.06164 -15.77392,1.90607 -4.98699,-1.0821 -7.15577,-5.80545 -6.4705,-12.91621 -6.89398,0.22229 -12.17767,3.27199 -16.57401,8.225 l 0.0487,-0.0579 z"
     id="path9"
     inkscape:connector-curvature="0"
     style="clip-rule:evenodd;fill-rule:evenodd" /><path
     d="m 327.85991,230.02515 c 0.63933,1.99332 1.14823,3.58615 1.79124,5.59693 -1.13078,-0.13503 -1.68836,-0.0303 -1.95842,-0.2618 -3.83601,-3.27199 -4.85839,-3.31241 -9.29607,-0.72568 -1.30807,0.76334 -3.21229,1.9722 -4.19334,1.53036 -2.14305,-0.96359 -1.25846,-3.34732 -1.08576,-5.24236 0.28843,-3.18197 1.66631,-5.88996 3.59717,-8.37748 1.00585,-1.29704 2.09713,-2.75851 0.92042,-4.37981 -0.56309,-0.77804 -1.74898,-1.1023 -3.03776,-1.85646 0.20944,-0.69169 0.4593,-1.94005 0.95166,-3.08277 4.85655,-11.28848 12.31453,-20.54413 22.07173,-27.96077 1.40911,-1.07015 2.96427,-2.06406 4.60578,-2.68686 2.34147,-0.89011 3.66423,0.1286 3.80753,3.00377 -1.6314,0.15524 -3.12134,0.29946 -5.06782,0.48501 1.01136,2.98448 2.22389,5.61163 2.74564,8.36738 0.52635,2.78147 0.36836,5.69338 0.51074,8.54742 -0.39408,0.0616 -0.78723,0.12218 -1.18222,0.18372 -1.17211,-4.9135 -2.34331,-9.82793 -3.64402,-15.27789 -6.21882,3.29496 -9.8509,8.31594 -14.0277,13.20281 10.41766,2.35158 12.3228,12.9502 3.79559,21.44894 0.39132,-1.01412 0.66781,-2.0907 1.19324,-3.02949 2.03558,-3.62566 2.05212,-7.45707 1.13078,-11.32798 -0.55391,-2.33229 -1.96026,-4.19426 -4.46616,-4.6315 -2.56285,-0.44368 -4.31367,0.97278 -5.5804,3.07725 -1.41737,2.3525 -2.83107,4.70867 -4.31918,7.18333 0.57228,0.78263 1.0031,1.43483 1.49454,2.03558 2.6446,3.22423 2.79617,4.77572 0.51073,8.23511 -1.51199,2.28911 -3.24536,4.4487 -2.86782,7.46349 14.30327,-3.2178 20.93361,-10.44062 22.94715,-23.24568 2.14765,2.75575 2.45262,4.80603 0.86163,8.46383 -2.53254,5.81923 -6.40069,10.48839 -12.2089,13.2616 z"
     id="path11"
     inkscape:connector-curvature="0"
     style="clip-rule:evenodd;fill-rule:evenodd" /><path
     d="m 159.01775,289.80108 c -1.02422,-0.35917 -2.04936,-0.71742 -3.791,-1.32644 1.00126,1.89963 1.71133,3.2472 2.50774,4.75827 0.47583,-0.57596 0.76518,-0.92594 1.34481,-1.62773 3.0451,4.90983 7.98341,4.49555 12.74535,4.28335 11.22326,-0.50338 22.26739,-2.36627 33.22242,-4.78214 0.59892,-0.13228 1.14088,-0.51441 2.69513,-1.24009 -4.21722,-0.66414 -7.50483,-1.17946 -10.79336,-1.69846 7.03359,-0.33161 14.33542,2.07508 20.72601,-3.40703 1.32184,2.66114 -0.38581,3.44009 -1.79675,4.38715 -1.794,1.20335 -4.56537,0.98656 -5.33881,3.67067 l 0.0266,-0.0698 c -9.15553,4.11159 -19.00734,5.18633 -28.79669,6.15911 -6.40804,0.63566 -12.92999,0.43908 -19.38488,0.19474 -4.71693,-0.17821 -9.184,-1.69754 -13.3213,-4.11434 -2.08151,-1.21529 -4.3201,-2.15867 -6.48704,-3.22607 l 0.0386,0.12034 c -1.78114,-1.7545 -3.56227,-3.50991 -5.34432,-5.26532 0.14605,-0.24986 0.29119,-0.50155 0.43724,-0.75141 2.53438,0.66506 5.06875,1.32736 7.52872,1.97128 3.8112,-5.15141 11.03954,-3.9646 13.69057,2.06498 l 0.0909,-0.10104 z m -5.59601,-0.65495 c -0.5732,-2.07233 -1.81512,-2.99826 -3.9444,-2.38924 -0.23149,0.0661 -0.37478,0.43816 -0.72752,0.87909 0.65403,1.10321 1.35675,2.28727 1.94556,3.28485 0.95808,-0.62464 1.69754,-1.10506 2.72636,-1.7747 z"
     id="path13"
     inkscape:connector-curvature="0"
     style="clip-rule:evenodd;fill-rule:evenodd" /><path
     d="m 151.17304,193.23402 c -3.50164,1.14823 -5.78432,5.0118 -10.4296,4.06014 1.40635,-2.37821 4.34031,-2.04477 6.1738,-4.21905 -1.24284,-1.59834 -2.5555,-3.28945 -4.17772,-5.37831 -1.47432,3.32986 -1.95107,6.90959 -5.32962,7.99719 -2.06406,0.66414 -4.51943,1.01136 -6.59911,0.56493 -5.30023,-1.13721 -7.20078,-5.49864 -6.01121,-12.66636 -6.18666,0.92594 -7.12362,1.67091 -8.05782,5.75401 -0.4299,1.88035 0.0873,3.13513 1.67091,4.09781 1.10781,0.6724 2.20368,1.36869 3.26648,2.10998 0.85337,0.59617 1.64794,1.27592 2.28176,2.24227 -3.69546,0.008 -6.86366,-1.38523 -9.545,-3.63392 -1.7545,-1.46973 -2.51417,-3.45663 0.24893,-5.07701 -0.81202,-0.37662 -1.30898,-0.60811 -2.05762,-0.95717 3.06439,-4.49279 7.57648,-6.47142 12.47253,-7.77673 8.74951,-2.33228 20.81052,1.44493 26.09329,12.88222 z"
     id="path15"
     inkscape:connector-curvature="0"
     style="clip-rule:evenodd;fill-rule:evenodd" /><path
     d="m 214.43041,53.272147 c 1.86197,0.259959 3.71751,0.658624 5.58774,0.755076 10.92656,0.562173 21.73738,-0.588813 32.52614,-2.19909 10.59771,-1.582721 21.2147,-3.031327 31.83445,-4.457888 1.69387,-0.226891 3.44469,-0.03215 5.24328,0.793656 -5.54274,0.92777 -11.06894,1.951991 -16.62821,2.764019 -10.76397,1.571697 -21.54079,3.052455 -32.31946,4.516678 -7.95034,1.081173 -16.14779,1.583638 -23.74356,-0.575034 -6.6037,-1.875748 -12.6489,-0.969106 -18.96692,-0.147892 -0.21219,0.02756 -0.47215,-0.306807 -1.50739,-1.032488 20.45962,-4.07392 40.35706,-6.114095 60.56224,-4.790416 -14.17743,1.116998 -28.35393,2.233997 -42.53044,3.350995 -0.0184,0.341713 -0.0386,0.681589 -0.0579,1.022384 z"
     id="path17"
     inkscape:connector-curvature="0"
     style="clip-rule:evenodd;fill-rule:evenodd" /><path
     d="m 233.90531,60.122027 c 23.77662,-1.49178 46.6016,3.753334 69.48904,8.518948 -0.045,0.371107 -0.0919,0.742215 -0.13687,1.113323 -5.17163,-0.688019 -10.34418,-1.37512 -15.51672,-2.061302 -0.0753,0.200251 -0.15249,0.400503 -0.22873,0.600754 4.953,2.698799 9.90601,5.39668 14.85901,8.09548 -0.0863,0.157078 -0.17361,0.313237 -0.26179,0.470315 -11.0671,-4.10607 -21.88251,-9.235443 -33.27111,-12.032531 -11.3436,-2.786065 -23.26406,-3.231578 -34.93283,-4.704987 z"
     id="path19"
     inkscape:connector-curvature="0"
     style="clip-rule:evenodd;fill-rule:evenodd" /><path
     d="m 245.42343,334.70789 c 1.47984,-1.01412 1.90698,-3.4502 4.56261,-2.26063 0.42989,0.19198 1.42472,-0.62189 2.03007,-1.12435 1.99516,-1.6608 4.12536,-3.2178 5.85321,-5.12937 4.63518,-5.13213 9.06459,-10.45073 13.64557,-15.63155 0.62188,-0.70455 1.71959,-0.96543 2.46089,-1.59098 0.81662,-0.69078 1.66171,-1.46515 2.17061,-2.38281 1.17854,-2.12469 1.62957,-4.98883 3.32895,-6.42366 4.67651,-3.94532 4.40185,-9.5744 5.73839,-14.60181 2.89905,-10.92747 5.46649,-21.94497 8.91486,-32.92756 -0.11758,1.72418 0.006,3.50715 -0.39316,5.16428 -2.91558,12.13082 -5.86332,24.25521 -8.98099,36.33734 -0.73119,2.83384 -1.06831,5.87067 -4.32102,7.70784 -1.52117,0.86071 -1.93362,3.61463 -2.94682,5.45547 -1.63508,2.97162 -3.46765,5.55192 -6.48336,7.627 -3.39509,2.33413 -5.81372,6.05164 -8.82208,8.99386 -3.46858,3.39049 -7.03452,6.6928 -10.72998,9.83252 -1.56527,1.32736 -3.51818,2.4122 -6.02775,0.95441 z"
     id="path21"
     inkscape:connector-curvature="0"
     style="clip-rule:evenodd;fill-rule:evenodd" /><path
     d="m 163.75397,266.79974 c -0.91767,2.29094 -1.97955,5.1606 -5.14223,6.64962 0.3362,-2.59959 0.63933,-4.94106 0.95165,-7.35326 -4.57914,-1.68193 -10.1081,-1.58823 -11.30869,-8.20112 7.07402,6.34099 16.27547,6.984 24.82933,1.91066 3.69179,-2.19083 7.38541,-3.9343 11.86351,-3.32344 1.34848,0.18372 2.75208,0.0459 2.97805,1.72326 0.23699,1.7646 -1.03341,2.71993 -2.52519,3.02674 -1.21253,0.24893 -2.64644,0.32701 -3.77354,-0.0854 -2.73279,-1.00218 -4.85196,-0.158 -7.25773,1.17028 -3.07542,1.70121 -6.49072,2.78147 -10.61516,4.48269 z"
     id="path23"
     inkscape:connector-curvature="0"
     style="clip-rule:evenodd;fill-rule:evenodd" /><path
     d="m 310.03295,198.10619 c -0.2076,-1.24468 -0.36835,-2.5013 -0.63107,-3.73588 -1.37144,-6.4604 -2.85679,-12.89876 -4.09596,-19.38396 -0.31508,-1.64426 0.12401,-3.43275 0.21954,-5.15417 0.0597,-1.11516 0.32334,-2.26064 0.15616,-3.33906 -1.56159,-10.08788 -3.57605,-20.07197 -7.10617,-29.6923 -0.54747,-1.49086 -1.00676,-3.01296 -0.96084,-4.81706 0.53554,0.76151 1.19325,1.46698 1.59007,2.29646 4.1566,8.68062 7.28346,17.53669 7.36888,27.43259 0.0496,5.76871 1.7251,11.51353 2.50958,17.29051 0.63198,4.65446 1.06739,9.33741 1.49361,14.01667 0.15341,1.67091 0.0248,3.36753 0.0248,5.05221 -0.19014,0.0129 -0.37845,0.023 -0.5686,0.034 z"
     id="path25"
     inkscape:connector-curvature="0"
     style="clip-rule:evenodd;fill-rule:evenodd" /><path
     d="m 149.67943,235.88939 c 2.29829,-11.78544 2.48477,-22.70648 6.46132,-33.23896 3.0304,-8.02567 2.076,-16.67322 -3.72027,-23.95116 -0.48869,-0.61545 -0.93328,-1.26765 -1.99333,-2.7135 4.11526,1.47433 5.98733,3.97839 7.14842,6.91969 2.43425,6.15819 3.26741,12.66911 1.3292,18.99816 -2.1945,7.16863 -4.09138,14.30143 -4.72704,21.80902 -0.33436,3.94807 -1.10689,7.988 -4.4983,12.17675 z"
     id="path27"
     inkscape:connector-curvature="0"
     style="clip-rule:evenodd;fill-rule:evenodd" /><path
     d="m 171.51784,392.37751 c 1.65896,-2.58306 0.1929,-6.64228 4.71142,-7.05289 0.95073,1.76736 1.91433,3.56043 3.12594,5.81096 1.33746,-2.7337 2.47558,-5.06415 3.59901,-7.36245 3.78824,0.99299 2.09345,4.78583 4.25029,6.40805 1.31266,-1.99149 2.64368,-4.01146 3.97471,-6.03051 0.31691,0.17821 0.63382,0.35641 0.95165,0.53462 -1.22079,2.87608 -2.43975,5.75217 -3.6927,8.70358 -3.8057,-0.41979 -3.11951,-3.92327 -5.13397,-6.52562 -0.76242,3.00285 -1.37604,5.4224 -2.04017,8.03669 -3.1783,-1.61946 -3.98023,-4.94933 -6.48337,-7.32295 0.14146,2.74932 0.28293,5.49772 0.41979,8.13406 -5.74758,-1.20334 -11.45657,-6.30883 -13.79162,-13.23496 2.04385,2.22757 3.44745,3.90307 5.00721,5.41965 1.59558,1.55149 3.34089,2.94957 5.10181,4.48177 z"
     id="path29"
     inkscape:connector-curvature="0"
     style="clip-rule:evenodd;fill-rule:evenodd" /><path
     d="m 307.32221,197.20965 c 1.13261,6.49807 -0.44643,12.63421 -2.8917,18.38179 -1.2998,3.05245 -2.01538,6.04703 -2.53897,9.22258 -1.52117,9.26116 -3.10206,18.51222 -4.72703,27.75593 -0.27006,1.54322 -0.87357,3.02674 -2.13112,4.36787 0.72752,-4.73255 1.40452,-9.47428 2.1945,-14.19672 1.14731,-6.86549 2.1651,-13.76038 3.63392,-20.55882 1.14731,-5.30942 2.94957,-10.47462 4.35225,-15.73259 0.81478,-3.05062 1.41278,-6.15635 2.10815,-9.24004 z"
     id="path31"
     inkscape:connector-curvature="0"
     style="clip-rule:evenodd;fill-rule:evenodd" /><path
     d="m 299.3241,81.580148 c -3.67342,-1.961177 -7.32203,-3.961853 -11.02301,-5.865159 -2.6942,-1.383387 -5.45547,-2.636335 -7.98157,-4.327448 13.60606,3.303227 25.96102,8.833103 35.06878,20.317239 -1.26673,-0.502465 -2.5353,-1.004012 -3.80294,-1.505559 l 0.16534,0.18831 c -1.36501,-1.028814 -2.73003,-2.057628 -4.09504,-3.087361 l 0.19841,0.16259 c -1.40543,-1.022384 -2.80995,-2.045687 -4.21538,-3.068071 -1.43942,-0.938793 -2.87793,-1.876667 -4.31459,-2.814541 z"
     id="path33"
     inkscape:connector-curvature="0"
     style="clip-rule:evenodd;fill-rule:evenodd" /><path
     d="m 162.88683,47.847908 c 9.59185,-11.213154 21.8035,-18.348714 35.50878,-23.106979 0.16626,0.291191 0.33344,0.581463 0.49879,0.871736 -4.17221,2.007106 -8.42985,3.862646 -12.49917,6.06541 -4.11893,2.230322 -8.18183,4.619559 -12.03437,7.281615 -3.97288,2.748403 -7.66099,5.908332 -11.47403,8.888218 z"
     id="path35"
     inkscape:connector-curvature="0"
     style="clip-rule:evenodd;fill-rule:evenodd" /><path
     d="m 102.30529,152.06952 c -2.694201,-8.02475 0.27099,-33.4089 4.62875,-41.69544 -1.0527,6.52838 -2.43884,13.45174 -3.21872,20.44124 -0.78172,6.9941 -0.95808,14.05526 -1.41003,21.2542 z"
     id="path37"
     inkscape:connector-curvature="0"
     style="clip-rule:evenodd;fill-rule:evenodd" /><path
     d="m 189.92994,260.46885 c 1.99792,-1.36226 4.06381,-2.64092 5.97906,-4.11158 3.32987,-2.55733 3.68812,-4.73805 1.5864,-8.37289 -1.45504,-2.516 -2.45079,-3.32435 -7.2063,-5.71635 5.3333,-0.45378 7.96505,2.5555 10.00522,6.34925 1.41186,2.62532 1.63692,5.43343 -0.57779,7.67018 -2.58306,2.61062 -5.19643,5.51334 -9.22901,5.33238 -0.18739,-0.38305 -0.37203,-0.7661 -0.55758,-1.15099 z"
     id="path39"
     inkscape:connector-curvature="0"
     style="clip-rule:evenodd;fill-rule:evenodd" /><path
     d="m 195.35877,161.00459 c -1.73337,1.88034 -3.46766,3.75976 -5.19,5.6254 -1.03157,1.7049 -2.076,3.42632 -3.2031,5.28278 -1.38431,-5.59601 4.51576,-13.76406 12.54418,-17.58445 -1.41738,2.28084 -2.78423,4.47809 -4.15108,6.67627 z"
     id="path41"
     inkscape:connector-curvature="0"
     style="clip-rule:evenodd;fill-rule:evenodd" /><path
     d="m 158.92957,289.9012 c 6.14992,-1.35766 12.28789,-2.76953 18.4571,-4.03717 2.20828,-0.4547 4.49004,-0.56585 7.1126,1.24927 -1.44218,0.49236 -2.35341,0.97921 -3.31241,1.10322 -5.62082,0.7165 -11.24439,1.43115 -16.88358,1.96026 -1.71959,0.16075 -3.49429,-0.26272 -5.26348,-0.39591 -0.022,0.0202 -0.11023,0.12033 -0.11023,0.12033 z"
     id="path43"
     inkscape:connector-curvature="0"
     style="clip-rule:evenodd;fill-rule:evenodd" /><path
     d="m 153.76713,310.5473 c 8.92404,0 17.84808,0 26.77121,0 -0.006,0.36376 -0.012,0.72476 -0.0193,1.08944 -8.94609,0.72935 -17.92066,2.68042 -26.75192,-1.08944 z"
     id="path45"
     inkscape:connector-curvature="0"
     style="clip-rule:evenodd;fill-rule:evenodd" /><path
     d="m 192.55893,33.092695 c -8.9167,5.022816 -17.83431,10.044715 -26.75376,15.067532 8.07343,-6.585328 16.80457,-11.945266 26.75376,-15.067532 z"
     id="path47"
     inkscape:connector-curvature="0"
     style="clip-rule:evenodd;fill-rule:evenodd" /><path
     d="m 165.965,343.44271 c 0.81387,-2.32678 1.63876,-4.68938 2.53254,-7.24304 1.06372,0.58055 2.09988,1.14548 3.33262,1.81788 -0.32059,1.28693 -0.65311,2.62347 -1.24284,4.9971 1.70672,-1.47892 2.67032,-2.31484 3.66606,-3.18014 0.16994,0.23791 0.47675,0.52451 0.42715,0.61545 -2.76035,4.96862 -3.97564,5.40678 -8.71553,2.99275 z"
     id="path49"
     inkscape:connector-curvature="0"
     style="clip-rule:evenodd;fill-rule:evenodd" /><path
     d="m 170.04168,50.186623 c 7.68028,-4.959435 16.10002,-7.818068 25.3079,-8.248884 -8.43627,2.750241 -16.87347,5.499562 -25.3079,8.248884 z"
     id="path51"
     inkscape:connector-curvature="0"
     style="clip-rule:evenodd;fill-rule:evenodd" /><path
     d="m 200.18593,386.56195 c -1.56894,2.09162 -3.13972,4.18415 -4.71142,6.27485 -1.12526,-1.54046 -2.3874,-0.45745 -4.3844,-9.2e-4 2.74014,-4.06932 4.81797,-7.86675 8.11018,-10.89257 2.24134,1.47892 0.79549,3.18198 0.98564,4.61864 z"
     id="path53"
     inkscape:connector-curvature="0"
     style="clip-rule:evenodd;fill-rule:evenodd" /><path
     d="m 202.00197,46.210992 c -9.12889,2.813622 -18.25686,5.627245 -27.56395,8.496901 3.71016,-3.154417 19.76701,-8.330638 27.56395,-8.496901 z"
     id="path55"
     inkscape:connector-curvature="0"
     style="clip-rule:evenodd;fill-rule:evenodd" /><path
     d="m 337.06871,120.51616 c -5.84586,-7.25773 -11.22693,-13.93859 -16.31037,-20.25018 4.66365,2.16694 12.99337,12.10694 16.31037,20.25018 z"
     id="path57"
     inkscape:connector-curvature="0"
     style="clip-rule:evenodd;fill-rule:evenodd" /><path
     d="m 201.89449,194.20313 c 1.29888,-0.55115 2.5996,-1.09955 3.40979,-1.44034 1.61027,1.37971 3.03041,3.06807 4.83818,4.0188 1.92994,1.01412 4.22549,1.33195 6.66065,2.0411 -4.93188,2.26431 -10.00062,0.55941 -14.85166,-4.68662 -0.009,0.009 -0.057,0.0671 -0.057,0.0671 z"
     id="path59"
     inkscape:connector-curvature="0"
     style="clip-rule:evenodd;fill-rule:evenodd" /><path
     d="m 140.17208,214.00412 c 4.5966,-4.06657 9.2777,-8.20846 13.50227,-11.94802 -0.59708,4.99894 -7.39368,11.27562 -13.50227,11.94802 z"
     id="path61"
     inkscape:connector-curvature="0"
     style="clip-rule:evenodd;fill-rule:evenodd" /><path
     d="m 210.54112,292.81863 c 0.16076,0.75415 0.72385,1.88309 0.42072,2.20643 -4.07668,4.389 -8.88271,7.73724 -14.86545,9.44305 0.73303,-0.6274 1.4385,-1.28969 2.20644,-1.8684 0.77069,-0.57963 1.66172,-1.00861 2.40485,-1.61947 3.30139,-2.71349 6.5688,-5.47016 9.85365,-8.2204 0.007,-0.011 -0.0193,0.0588 -0.0202,0.0588 z"
     id="path63"
     inkscape:connector-curvature="0"
     style="clip-rule:evenodd;fill-rule:evenodd" /><path
     d="m 303.1399,121.81228 c -0.0193,-9.27861 -0.35458,-18.42128 -3.09196,-27.308579 3.45388,4.78491 5.04119,20.545049 3.09196,27.308579 z"
     id="path65"
     inkscape:connector-curvature="0"
     style="clip-rule:evenodd;fill-rule:evenodd" /><path
     d="m 142.83506,256.94333 c -6.27301,-3.71843 -5.25155,-9.95194 1.6461,-13.88899 -3.76252,7.85481 -3.76252,7.85481 -1.6461,13.88899 z"
     id="path67"
     inkscape:connector-curvature="0"
     style="clip-rule:evenodd;fill-rule:evenodd" /><path
     d="m 299.3241,81.580148 c 1.43666,0.937874 2.87517,1.875748 4.31367,2.814541 1.40543,1.022384 2.80995,2.045687 4.21538,3.068071 l -0.19841,-0.16259 c 1.36501,1.028814 2.73095,2.058547 4.09504,3.087361 l -0.16534,-0.18831 c 0.45562,0.806517 0.91123,1.614871 1.36777,2.42139 -5.00261,-2.664815 -9.7673,-5.698897 -13.83571,-9.708516 -0.18647,-0.183717 0.12676,-0.876329 0.2076,-1.331947 z"
     id="path69"
     inkscape:connector-curvature="0"
     style="clip-rule:evenodd;fill-rule:evenodd" /><path
     d="m 190.15315,191.65406 c -0.78447,5.19918 4.03442,8.22041 5.03752,13.52523 -3.6082,-3.10022 -5.13948,-6.35752 -6.11042,-9.80864 -0.2967,-1.05545 0.67975,-2.46732 1.0729,-3.71659 z"
     id="path71"
     inkscape:connector-curvature="0"
     style="clip-rule:evenodd;fill-rule:evenodd" /><path
     d="m 166.86521,38.209207 c -3.21045,4.517596 -6.41998,9.034273 -9.63135,13.55095 -0.28935,-0.203007 -0.57871,-0.405095 -0.86898,-0.608102 2.68961,-4.919017 6.00111,-9.413648 9.55327,-13.742016 0.316,0.266389 0.63107,0.532779 0.94706,0.799168 z"
     id="path73"
     inkscape:connector-curvature="0"
     style="clip-rule:evenodd;fill-rule:evenodd" /><path
     d="m 329.08806,156.20774 c 0.82489,-4.48728 1.54965,-8.42984 2.33136,-12.67921 2.94131,4.89329 1.77379,8.76145 -2.33136,12.67921 z"
     id="path75"
     inkscape:connector-curvature="0"
     style="clip-rule:evenodd;fill-rule:evenodd" /><path
     d="m 183.22244,171.12095 c -0.34539,-4.5672 2.27166,-9.44855 8.43444,-14.61283 -3.13972,5.44077 -5.85322,10.14116 -8.43444,14.61283 z"
     id="path77"
     inkscape:connector-curvature="0"
     style="clip-rule:evenodd;fill-rule:evenodd" /><path
     d="m 314.34111,144.64552 c -0.43265,4.8538 -0.82673,9.27862 -1.26305,14.17743 -2.06865,-3.994 -1.60385,-8.70175 1.26305,-14.17743 z"
     id="path79"
     inkscape:connector-curvature="0"
     style="clip-rule:evenodd;fill-rule:evenodd" /><path
     d="m 142.57877,291.76317 c 0.75783,2.2487 1.4679,4.51392 2.28728,6.73965 0.64392,1.74531 1.42013,3.44102 2.50773,6.0452 -3.47592,-2.83566 -6.24453,-8.51251 -5.85413,-11.20856 0.0753,-0.51624 0.73486,-0.94614 1.11148,-1.43483 -0.0138,-0.0211 -0.0524,-0.14146 -0.0524,-0.14146 z"
     id="path81"
     inkscape:connector-curvature="0"
     style="clip-rule:evenodd;fill-rule:evenodd" /><path
     d="m 229.21594,276.21981 c 6.33271,4.9723 7.38357,9.3962 3.15717,13.29467 l -3.15717,-13.29467 z"
     id="path83"
     inkscape:connector-curvature="0"
     style="clip-rule:evenodd;fill-rule:evenodd" /><path
     d="m 238.35493,346.88648 c -0.39499,0.92593 -0.78998,1.85094 -1.34297,3.14707 -3.31885,-3.08553 -2.78056,-6.18575 -1.14364,-9.54317 0.19566,1.08393 0.4005,2.16602 0.58238,3.2527 0.23057,1.37145 -0.006,3.02766 2.03742,3.26741 l -0.13319,-0.12401 z"
     id="path85"
     inkscape:connector-curvature="0"
     style="clip-rule:evenodd;fill-rule:evenodd" /><path
     d="m 130.87142,278.66876 c 0.65679,3.54757 1.22998,6.65146 1.83074,9.8959 -4.12353,-2.7585 -4.76378,-6.09113 -1.83074,-9.8959 z"
     id="path87"
     inkscape:connector-curvature="0"
     style="clip-rule:evenodd;fill-rule:evenodd" /><path
     d="m 154.25397,344.17665 c -2.97804,-4.01513 -2.92293,-6.41263 0,-8.82942 0,2.83475 0,5.49221 0,8.82942 z"
     id="path89"
     inkscape:connector-curvature="0"
     style="clip-rule:evenodd;fill-rule:evenodd" /><path
     d="m 121.44307,176.38627 c -3.18381,1.96026 -6.3667,3.92052 -10.18525,6.27209 2.50957,-4.42941 5.87434,-6.10215 10.18525,-6.27209 z"
     id="path91"
     inkscape:connector-curvature="0"
     style="clip-rule:evenodd;fill-rule:evenodd" /><path
     d="m 205.60649,179.74186 c 4.67559,-2.70064 8.82208,-3.27934 13.24323,-2.28727 -4.11618,0.71006 -8.23052,1.42196 -13.24323,2.28727 z"
     id="path93"
     inkscape:connector-curvature="0"
     style="clip-rule:evenodd;fill-rule:evenodd" /><path
     d="m 227.21067,345.36806 c -2.39291,-5.93038 -2.39291,-5.93038 -1.69663,-7.15577 2.23859,1.89136 3.79835,3.79559 1.69663,7.15577 z"
     id="path95"
     inkscape:connector-curvature="0"
     style="clip-rule:evenodd;fill-rule:evenodd" /><path
     d="m 157.92831,42.780081 c -1.3347,3.229741 -2.66849,6.458563 -4.12077,9.971228 -0.43816,-4.256718 1.60385,-7.305498 4.12077,-9.971228 z"
     id="path97"
     inkscape:connector-curvature="0"
     style="clip-rule:evenodd;fill-rule:evenodd" /><path
     d="m 212.39575,344.35394 c -1.13629,0.11758 -2.313,0.0919 -3.39785,0.39407 -0.97278,0.2719 -1.84635,0.90389 -3.24995,0.73671 1.28878,-1.39349 2.57663,-2.78699 4.16303,-4.50474 0.10655,1.26305 0.1681,1.99792 0.23975,2.84577 0.73027,-0.21862 1.43115,-0.42714 2.13203,-0.63566 0.0377,0.38581 0.0753,0.77529 0.11299,1.16385 z"
     id="path99"
     inkscape:connector-curvature="0"
     style="clip-rule:evenodd;fill-rule:evenodd" /><path
     d="m 320.49746,159.72867 c 1.43575,4.3495 1.56894,7.28897 0,12.31362 0,-3.9986 0,-7.99535 0,-12.31362 z"
     id="path101"
     inkscape:connector-curvature="0"
     style="clip-rule:evenodd;fill-rule:evenodd" /><path
     d="m 312.79238,167.28678 c -0.33896,2.87701 -0.67975,5.75401 -1.01871,8.63102 -0.39499,-0.0432 -0.7909,-0.0854 -1.18681,-0.12861 0.30313,-2.88159 0.60626,-5.76227 0.90848,-8.64387 0.43265,0.0469 0.86438,0.0937 1.29704,0.14146 z"
     id="path103"
     inkscape:connector-curvature="0"
     style="clip-rule:evenodd;fill-rule:evenodd" /><path
     d="m 325.91343,157.81985 c -0.2177,-2.73095 -0.43541,-5.46281 -0.65311,-8.19376 0.26547,-0.0312 0.53186,-0.0634 0.79825,-0.0937 0.38672,2.66298 0.77528,5.32595 1.16292,7.98984 -0.43632,0.0992 -0.87173,0.1975 -1.30806,0.29762 z"
     id="path105"
     inkscape:connector-curvature="0"
     style="clip-rule:evenodd;fill-rule:evenodd" /><path
     d="m 325.37422,94.598321 c 1.42289,2.50314 2.84394,5.00628 4.26682,7.509419 -0.28108,0.15984 -0.56125,0.32243 -0.84234,0.48226 -1.46514,-2.39842 -2.93028,-4.796849 -4.39634,-7.195269 0.32426,-0.26639 0.64852,-0.53094 0.97186,-0.79641 z"
     id="path107"
     inkscape:connector-curvature="0"
     style="clip-rule:evenodd;fill-rule:evenodd" /><path
     d="m 157.59946,337.45262 c -0.4152,2.7879 -0.83132,5.57397 -1.2456,8.36279 -0.31508,-0.0358 -0.63015,-0.0707 -0.94614,-0.10564 0.29211,-2.76402 0.5833,-5.52804 0.87633,-8.29022 0.43816,0.011 0.87724,0.0211 1.31541,0.0331 z"
     id="path109"
     inkscape:connector-curvature="0"
     style="clip-rule:evenodd;fill-rule:evenodd" /><path
     d="m 239.93581,339.04728 c 1.2557,-1.02881 2.36352,-1.93637 3.82498,-3.13329 -1.24743,2.83567 -2.28176,4.09872 -3.6679,3.83968 -1.22172,-0.22689 -2.30381,-1.19691 -3.01112,-2.65011 0.95625,0.65127 1.91341,1.30347 2.85404,1.94372 z"
     id="path111"
     inkscape:connector-curvature="0"
     style="clip-rule:evenodd;fill-rule:evenodd" /><path
     d="m 164.45944,339.80787 c -0.99299,2.09804 -1.98598,4.19609 -3.25362,6.8756 -0.4547,-3.53012 -0.32886,-3.85438 3.25362,-6.8756 z"
     id="path113"
     inkscape:connector-curvature="0"
     style="clip-rule:evenodd;fill-rule:evenodd" /><path
     d="m 238.48812,347.00957 c 0.37203,-1.46606 0.74497,-2.93029 1.22999,-4.84461 2.13019,3.11491 2.13019,3.11491 -1.36135,4.72244 -0.002,-9.2e-4 0.13136,0.12217 0.13136,0.12217 z"
     id="path115"
     inkscape:connector-curvature="0"
     style="clip-rule:evenodd;fill-rule:evenodd" /><path
     d="m 202.02677,204.34705 c 1.27867,1.75725 2.55826,3.51267 3.83601,5.26992 -0.31324,0.24158 -0.6274,0.48133 -0.94155,0.72292 -1.3099,-1.7352 -2.6198,-3.47041 -3.92879,-5.20469 0.34447,-0.26272 0.68986,-0.52543 1.03433,-0.78815 z"
     id="path117"
     inkscape:connector-curvature="0"
     style="clip-rule:evenodd;fill-rule:evenodd" /><path
     d="m 128.10097,319.47961 c -0.30864,-1.05086 -0.6081,-2.10448 -0.92777,-3.15075 -0.25996,-0.84785 -0.54196,-1.68835 -0.23975,-2.75575 1.06005,2.08427 2.11917,4.16762 3.53104,6.94358 -1.30072,-0.61454 -1.91066,-0.90113 -2.52519,-1.19416 -0.005,-0.006 0.16167,0.15708 0.16167,0.15708 z"
     id="path119"
     inkscape:connector-curvature="0"
     style="clip-rule:evenodd;fill-rule:evenodd" /><path
     d="m 182.07329,346.00555 c 0,-2.12284 0,-3.27291 0,-5.23592 2.46915,2.13479 1.39625,3.20585 0,5.23592 z"
     id="path121"
     inkscape:connector-curvature="0"
     style="clip-rule:evenodd;fill-rule:evenodd" /><path
     d="m 196.82391,344.02876 c 1.17211,-1.26581 2.34331,-2.52886 3.5145,-3.79375 0.29211,0.2719 0.58238,0.54564 0.87449,0.81754 -1.12251,1.30623 -2.24501,2.61062 -3.36844,3.91776 -0.33988,-0.31324 -0.68067,-0.62739 -1.02055,-0.94155 z"
     id="path123"
     inkscape:connector-curvature="0"
     style="clip-rule:evenodd;fill-rule:evenodd" /><path
     d="m 194.91693,339.55342 c -0.70364,1.89504 -1.40727,3.79008 -2.10907,5.68512 -0.34079,-0.11758 -0.67975,-0.23608 -1.02055,-0.35549 0.66322,-1.94924 1.3246,-3.89848 1.98874,-5.84679 0.37937,0.17269 0.75967,0.34539 1.14088,0.51716 z"
     id="path125"
     inkscape:connector-curvature="0"
     style="clip-rule:evenodd;fill-rule:evenodd" /><path
     d="m 152.43793,45.637795 c 0,2.985398 0,5.013632 0,7.041865 -1.38706,-2.045687 -1.59374,-4.076676 0,-7.041865 z"
     id="path127"
     inkscape:connector-curvature="0"
     style="clip-rule:evenodd;fill-rule:evenodd" /><path
     d="m 147.31867,54.093361 c -1.44034,-0.667811 -2.8816,-1.335621 -4.32286,-2.002513 0.13962,-0.332528 0.28109,-0.665974 0.42163,-0.996664 1.43758,0.597998 2.87609,1.197833 4.31459,1.79675 -0.13779,0.400503 -0.27466,0.801924 -0.41336,1.202427 z"
     id="path129"
     inkscape:connector-curvature="0"
     style="clip-rule:evenodd;fill-rule:evenodd" /><path
     d="m 204.60248,343.27828 c -1.21437,0.96359 -2.42874,1.92719 -3.64219,2.88986 -0.22321,-0.26914 -0.44643,-0.5392 -0.67056,-0.80927 1.1914,-0.99391 2.3828,-1.98781 3.57421,-2.9808 0.24526,0.30037 0.49236,0.60075 0.73854,0.90021 z"
     id="path131"
     inkscape:connector-curvature="0"
     style="clip-rule:evenodd;fill-rule:evenodd" /><path
     d="m 230.69394,346.63754 c 0.36284,-1.47341 0.7266,-2.9459 1.08852,-4.41839 1.19416,1.77471 1.43575,3.36845 -1.08852,4.41839 z"
     id="path133"
     inkscape:connector-curvature="0"
     style="clip-rule:evenodd;fill-rule:evenodd" /><path
     d="m 175.27761,342.45523 c 0.96359,-0.91675 1.9281,-1.83166 2.8917,-2.74657 0.22413,0.21679 0.4501,0.43633 0.67332,0.65311 -0.94982,0.96911 -1.89871,1.9373 -2.84853,2.90549 -0.23883,-0.27007 -0.47858,-0.54105 -0.71649,-0.81203 z"
     id="path135"
     inkscape:connector-curvature="0"
     style="clip-rule:evenodd;fill-rule:evenodd" /><path
     d="m 222.26685,342.42859 c -0.34355,1.19691 -0.68894,2.39475 -1.03157,3.59442 -0.31048,-0.0818 -0.62188,-0.16443 -0.93145,-0.24343 0.30222,-1.26948 0.60351,-2.53896 0.90665,-3.80845 0.35181,0.15341 0.70363,0.30589 1.05637,0.45746 z"
     id="path137"
     inkscape:connector-curvature="0"
     style="clip-rule:evenodd;fill-rule:evenodd" /><path
     d="m 214.05838,344.21799 c 0.49879,-1.00493 1.03065,-2.07508 1.64519,-3.31058 0.35365,0.52176 0.66046,0.81111 0.60534,0.92318 -0.46664,0.96727 -0.99207,1.90331 -1.52117,2.83934 -0.0377,0.0661 -0.26823,0.0983 -0.34631,0.0496 -0.12401,-0.0799 -0.19382,-0.24251 -0.38305,-0.50155 z"
     id="path139"
     inkscape:connector-curvature="0"
     style="clip-rule:evenodd;fill-rule:evenodd" /><path
     d="m 187.09611,340.52436 c -0.20393,0.84143 -0.40694,1.68285 -0.60902,2.52611 -0.3013,-0.0257 -0.60168,-0.0524 -0.8993,-0.0762 0.0423,-0.90664 0.0864,-1.81421 0.12952,-2.72177 0.45929,0.0909 0.9195,0.18096 1.3788,0.2719 z"
     id="path141"
     inkscape:connector-curvature="0"
     style="clip-rule:evenodd;fill-rule:evenodd" /><path
     d="m 351.55478,341.29597 c 0.80193,2.25421 1.49729,4.55618 2.44252,6.74976 0.74497,1.72326 1.7995,3.31517 2.00435,5.50507 -2.46089,-2.64184 -4.92178,-5.28461 -8.23235,-8.84045 0.82397,2.3378 1.2704,3.60085 1.9327,5.48211 -1.55792,-0.69169 -2.56744,-1.09495 -3.53747,-1.57721 -10.16597,-5.06323 -20.34112,-10.11269 -30.46943,-15.25125 -1.05729,-0.53645 -1.84819,-1.61671 -2.72268,-2.4866 -0.21311,-0.21036 -0.1975,-0.64485 -0.40234,-0.87266 -4.99985,-5.58315 -4.28795,-12.22819 -3.44285,-18.85302 0.92409,-7.23752 2.04752,-14.4484 2.97254,-21.68593 1.33929,-10.45348 2.57938,-20.91707 3.92786,-31.92079 0.82489,-0.37294 2.07141,-0.93603 3.49062,-1.57721 0.41428,0.54564 0.73854,0.89838 0.97829,1.2998 3.42264,5.71175 4.22916,12.21165 5.53723,18.55172 1.3099,6.34833 2.51783,12.7178 3.79283,19.18922 -0.63015,-0.15249 -1.3099,-0.31691 -2.18899,-0.53002 0.87082,4.7601 1.6507,9.38517 2.56744,13.98176 2.00803,10.06217 6.87193,18.4764 14.69,25.16553 2.33596,1.99976 4.60302,4.07759 6.90316,6.12052 -0.0799,0.51533 -0.16259,1.03157 -0.24343,1.54965 z"
     id="path143"
     inkscape:connector-curvature="0"
     style="clip-rule:evenodd;fill:none;fill-rule:evenodd" /><path
     d="m 351.55478,341.29597 c 0.0808,-0.51716 0.16351,-1.03432 0.24343,-1.55056 1.57261,1.34939 3.55675,2.43241 4.63793,4.10055 2.79617,4.31367 5.19459,8.8873 7.03635,13.96983 -0.69445,-0.68159 -1.52026,-1.27316 -2.06498,-2.06039 -3.31976,-4.795 -6.57522,-9.6341 -9.85273,-14.45943 z"
     id="path145"
     inkscape:connector-curvature="0"
     style="clip-rule:evenodd;fill:none;fill-rule:evenodd" /><path
     d="m 326.86233,180.63656 c -0.0184,-0.91583 -0.34539,-1.97312 -0.002,-2.72452 1.52393,-3.33078 3.24076,-6.5743 4.88595,-9.84446 0.44184,1.98414 0.9048,4.07116 1.33838,6.01489 -2.1201,2.22297 -4.1814,4.38715 -6.23995,6.55042 0.002,0.002 0.0175,0.004 0.0175,0.004 z"
     id="path147"
     inkscape:connector-curvature="0"
     style="clip-rule:evenodd;fill:none;fill-rule:evenodd" /><path
     d="m 111.79702,297.12403 c -0.72751,-3.5145 -1.4532,-7.02717 -2.1798,-10.54259 1.69847,3.29864 3.58524,6.53113 3.26925,10.2863 -0.36285,0.0863 -0.72569,0.16994 -1.08945,0.25629 z"
     id="path149"
     inkscape:connector-curvature="0"
     style="clip-rule:evenodd;fill:none;fill-rule:evenodd" /><path
     d="m 146.41662,377.63883 c -0.90205,-2.07508 -2.71993,-4.0629 0,-6.67719 0,2.56102 0,4.61956 0,6.67719 z"
     id="path151"
     inkscape:connector-curvature="0"
     style="clip-rule:evenodd;fill:none;fill-rule:evenodd" /><path
     d="m 106.72369,160.78964 c 0.99574,-0.0542 1.99057,-0.10656 2.98631,-0.15984 0.011,0.18739 0.022,0.37387 0.0349,0.56034 -0.99299,0.079 -1.98598,0.15891 -2.97805,0.23791 -0.0147,-0.21219 -0.0285,-0.42622 -0.0432,-0.63841 z"
     id="path153"
     inkscape:connector-curvature="0"
     style="clip-rule:evenodd;fill:none;fill-rule:evenodd" /><path
     d="m 212.39115,165.72703 c 1.58456,-0.35825 3.16912,-0.71742 5.5161,-1.24928 -2.13112,1.74807 -3.67617,2.33688 -5.52253,1.24009 -9.2e-4,-9.2e-4 0.006,0.009 0.006,0.009 z"
     id="path155"
     inkscape:connector-curvature="0"
     style="clip-rule:evenodd;fill:none;fill-rule:evenodd" /><path
     d="m 242.44906,192.62316 c -1.86289,1.49913 -2.93212,4.2705 -6.16095,3.89112 0.81203,-2.37821 1.56895,-4.59291 2.54264,-7.44236 1.40727,1.45963 2.47467,2.56652 3.54298,3.6725 9.2e-4,-0.002 0.0753,-0.12126 0.0753,-0.12126 z"
     id="path157"
     inkscape:connector-curvature="0"
     style="clip-rule:evenodd;fill:none;fill-rule:evenodd" /><path
     d="m 153.42174,289.14613 c -1.02974,0.66964 -1.7692,1.15006 -2.72728,1.77562 -0.58881,-0.99758 -1.29153,-2.18164 -1.94556,-3.28486 0.35366,-0.44092 0.49604,-0.81294 0.72752,-0.87908 2.1302,-0.60994 3.37212,0.31599 3.94532,2.38832 z"
     id="path159"
     inkscape:connector-curvature="0"
     style="clip-rule:evenodd;fill:none;fill-rule:evenodd" /><path
     d="m 307.85315,87.463678 c -1.40543,-1.022384 -2.80995,-2.045686 -4.21538,-3.06807 1.40543,1.022384 2.80995,2.044768 4.21538,3.06807 z"
     id="path161"
     inkscape:connector-curvature="0"
     style="clip-rule:evenodd;fill:none;fill-rule:evenodd" /><path
     d="m 311.7507,90.387531 c -1.36501,-1.028814 -2.73003,-2.058547 -4.09504,-3.087361 1.36409,1.029733 2.73003,2.059465 4.09504,3.087361 z"
     id="path163"
     inkscape:connector-curvature="0"
     style="clip-rule:evenodd;fill:none;fill-rule:evenodd" /></svg>