<?xml version="1.0" encoding="UTF-8" standalone="no"?>
<svg
   xmlns:dc="http://purl.org/dc/elements/1.1/"
   xmlns:cc="http://creativecommons.org/ns#"
   xmlns:rdf="http://www.w3.org/1999/02/22-rdf-syntax-ns#"
   xmlns:svg="http://www.w3.org/2000/svg"
   xmlns="http://www.w3.org/2000/svg"
   id="svg2"
   xml:space="preserve"
   enable-background="new 0 0 512 512"
   viewBox="0 0 512 512"
   height="512px"
   width="512px"
   y="0px"
   x="0px"
   version="1.1"><metadata
     id="metadata9"><rdf:RDF><cc:Work
         rdf:about=""><dc:format>image/svg+xml</dc:format><dc:type
           rdf:resource="http://purl.org/dc/dcmitype/StillImage" /><dc:title></dc:title></cc:Work></rdf:RDF></metadata><defs
     id="defs7" /><g
     style="fill:#20c5df;fill-opacity:1"
     transform="matrix(1.1362766,0,0,1.1362766,4.7503988,90.19194)"
     id="g4312"><path
       style="fill:#20c5df;fill-opacity:1;fill-rule:nonzero;stroke-width:33.80530548;stroke-linecap:round;stroke-miterlimit:4;stroke-dashoffset:0;marker-start:none;marker-mid:none;marker-end:none"
       d="m 86.257812,114.79102 c -1.464302,0.038 -2.916046,0.10783 -4.373046,0.21484 -0.463394,0.033 -0.924622,0.10258 -1.386719,0.14258 l -6.404297,21.21484 c -4.647202,0.959 -9.182761,2.3698 -13.539062,4.2168 L 42.542969,127.04297 c -0.601898,0.345 -1.206781,0.66936 -1.800781,1.02734 -1.242897,0.75101 -2.466431,1.53572 -3.673829,2.34571 -1.207401,0.81 -2.405017,1.64662 -3.574218,2.51562 -1.1693,0.869 -2.316613,1.77513 -3.445313,2.70313 -0.448502,0.36799 -0.873752,0.76357 -1.314453,1.14257 l 7.519531,20.66993 c -0.0162,0.018 -0.02687,0.0406 -0.04297,0.0586 l 0.05664,0.17187 c -3.162098,3.44599 -6.006691,7.24958 -8.46289,11.39258 L 5.1601562,168.45703 c -0.44904,1.017 -0.9073931,2.0326 -1.3144531,3.05859 -0.55456,1.39701 -1.0673218,2.79312 -1.5449219,4.20313 -0.4774198,1.41 -0.9268949,2.83876 -1.32812495,4.25977 C 0.61324625,181.2505 0.29851,182.51692 0,183.79492 l 18.527344,12.39453 c -0.0225,0.20299 -0.0087,0.41028 -0.0293,0.61328 l 0.128906,0.0859 c -0.2131,2.161 -0.283655,4.32255 -0.285156,6.47656 l 0.113281,0 c 0.01665,1.97061 0.105252,3.94852 0.300781,5.92383 L 0,221.83984 c 0.0055,0.024 0.02378687,0.0483 0.02929688,0.0723 0.32575999,1.42901 0.68475748,2.85342 1.08593752,4.27344 0.40118,1.42099 0.8369931,2.83611 1.3144531,4.24609 0.47746,1.41001 0.9903719,2.80612 1.5449219,4.20313 0.40259,1.014 0.8405152,2.02625 1.2851562,3.03125 l 22.4726564,-0.61524 c 0.150301,0.254 0.332727,0.49019 0.486328,0.74219 l 0.142578,0 c 1.101501,1.80901 2.273178,3.55741 3.517578,5.23242 1.2444,1.676 2.556142,3.28036 3.931641,4.81836 l -7.634766,20.95703 c 0.6633,0.578 1.32315,1.15787 2.001953,1.71484 1.128597,0.92704 2.276013,1.8322 3.445313,2.70118 1.169201,0.86902 2.366921,1.70562 3.574219,2.51562 1.207401,0.80999 2.43103,1.59669 3.673828,2.3457 0.355602,0.215 0.711463,0.4249 1.072265,0.62891 L 59.783203,265.2832 c 0.259399,0.11405 0.524853,0.1908 0.785156,0.30078 l 0.04297,-0.0293 c 1.969296,0.83703 3.982528,1.57248 6.019531,2.23047 2.037003,0.65701 4.097451,1.22616 6.189453,1.70117 l 0.0293,0.0703 c 0.0101,0.003 0.01684,0.0136 0.02734,0.0156 l 6.419922,21.30078 c 0.902596,0.093 1.794976,0.20358 2.701172,0.26953 1.457001,0.108 2.92437,0.16318 4.388672,0.20117 0.978996,0.026 1.962615,0.0167 2.945312,0.0137 0.492203,-0.005 0.981352,0.013 1.472657,0 1.463797,-0.038 2.916046,-0.10782 4.373046,-0.21484 0.462898,-0.033 0.924218,-0.10156 1.386719,-0.14258 l 6.406247,-21.21289 c 4.64599,-0.95895 9.18111,-2.37176 13.53711,-4.21875 l 18.01172,13.53906 c 0.60201,-0.34503 1.20678,-0.67029 1.80078,-1.0293 1.243,-0.749 2.46683,-1.5357 3.67383,-2.3457 1.20799,-0.80999 2.40523,-1.6466 3.57422,-2.51562 1.17001,-0.86899 2.3173,-1.77414 3.44531,-2.70118 0.449,-0.36795 0.87347,-0.7636 1.31445,-1.14257 l -7.51953,-20.67188 c 0.016,-0.018 0.027,-0.0396 0.043,-0.0566 l -0.0566,-0.17187 c 3.162,-3.44598 6.0069,-7.25054 8.46289,-11.39454 l 22.64453,0.61524 c 0.44901,-1.017 0.90747,-2.03259 1.31446,-3.05859 0.554,-1.39701 1.06692,-2.79312 1.54492,-4.20313 0.477,-1.40999 0.92712,-2.83878 1.32812,-4.25976 0.35901,-1.27201 0.67468,-2.54036 0.97266,-3.81836 l -18.52734,-12.39258 c 0.023,-0.203 0.008,-0.41123 0.0293,-0.61524 l -0.1289,-0.0859 c 0.21199,-2.16101 0.28416,-4.32062 0.28515,-6.47461 l -0.11328,0 c -0.0162,-1.97075 -0.10498,-3.94944 -0.30078,-5.92578 l 18.75586,-12.55079 c -0.005,-0.024 -0.0243,-0.0463 -0.0293,-0.0703 -0.32601,-1.429 -0.68493,-2.85344 -1.08593,-4.27344 -0.401,-1.42101 -0.83647,-2.83609 -1.31446,-4.24609 -0.478,-1.41001 -0.98991,-2.80612 -1.54492,-4.20313 -0.40199,-1.01399 -0.8421,-2.02625 -1.28711,-3.03124 l -22.47266,0.61523 c -0.15,-0.254 -0.33038,-0.49214 -0.48437,-0.74414 l -0.14453,0 c -1.101,-1.80899 -2.27164,-3.55641 -3.51563,-5.23242 -1.24501,-1.675 -2.55563,-3.2784 -3.93164,-4.81641 l 7.63477,-20.95703 c -0.663,-0.57799 -1.32295,-1.15784 -2.00195,-1.71484 -1.129,-0.928 -2.27633,-1.83413 -3.44532,-2.70313 -1.17,-0.869 -2.36722,-1.70562 -3.57422,-2.51562 -1.207,-0.80999 -2.43083,-1.5947 -3.67382,-2.34571 -0.35601,-0.21399 -0.71126,-0.4239 -1.07227,-0.6289 l -17.83984,13.42578 c -0.26,-0.11402 -0.52711,-0.19078 -0.78711,-0.30078 l -0.043,0.0273 c -1.96999,-0.837 -3.97957,-1.57246 -6.01758,-2.23047 -2.037,-0.65799 -4.09745,-1.22423 -6.18945,-1.69922 l -0.0293,-0.0723 c -0.01,-0.002 -0.0173,-0.0117 -0.0273,-0.0137 L 97.765715,115.2773 c -0.903,-0.093 -1.794976,-0.20549 -2.701172,-0.27148 -1.457001,-0.10701 -2.924774,-0.16317 -4.388672,-0.20117 -0.979401,-0.025 -1.96231,-0.0167 -2.945312,-0.0137 -0.491798,0.005 -0.981858,-0.013 -1.472657,0 z m 2.273438,47.12109 a 41.628067,41.628067 0 0 1 41.62891,41.62891 41.628067,41.628067 0 0 1 -41.62891,41.62695 41.628067,41.628067 0 0 1 -41.628906,-41.62695 41.628067,41.628067 0 0 1 41.628906,-41.62891 z"
       id="path4850" /><path
       style="fill:#20c5df;fill-opacity:1;fill-rule:nonzero;stroke-width:33.80530548;stroke-linecap:round;stroke-miterlimit:4;stroke-dashoffset:0;marker-start:none;marker-mid:none;marker-end:none"
       d="m 207.23839,-1.0512211 c -1.4643,0.038 -2.91604,0.10783 -4.37304,0.21484 -0.4634,0.033 -0.92463,0.10258 -1.38672,0.14258 l -6.4043,21.2148401 c -4.6472,0.959 -9.18276,2.3698 -13.53906,4.2168 l -18.01172,-13.53711 c -0.6019,0.345 -1.20678,0.66936 -1.80078,1.02734 -1.2429,0.75101 -2.46643,1.53572 -3.67383,2.34571 -1.2074,0.81 -2.40502,1.64662 -3.57422,2.51562 -1.1693,0.869 -2.31661,1.77513 -3.44531,2.70313 -0.4485,0.36799 -0.87375,0.76357 -1.31445,1.14257 l 7.51953,20.66993 c -0.0162,0.018 -0.0269,0.0406 -0.043,0.0586 l 0.0566,0.17187 c -3.1621,3.44599 -6.00669,7.249575 -8.46289,11.392575 l -22.64453,-0.61329 c -0.44904,1.017 -0.9074,2.0326 -1.31446,3.05859 -0.55456,1.39701 -1.06732,2.79312 -1.54492,4.20313 -0.47742,1.41 -0.92689,2.83876 -1.32812,4.25977 -0.35941,1.27198 -0.67415,2.5384 -0.97266,3.8164 l 18.52734,12.39453 c -0.0225,0.20299 -0.009,0.41028 -0.0293,0.61328 l 0.12891,0.0859 c -0.2131,2.161 -0.28365,4.32255 -0.28516,6.47656 l 0.11329,0 c 0.0166,1.97061 0.10525,3.94852 0.30078,5.92383 l -18.75586,12.550816 c 0.005,0.024 0.0238,0.0483 0.0293,0.0723 0.32576,1.42901 0.68476,2.85342 1.08594,4.27344 0.40118,1.42099 0.83699,2.83611 1.31445,4.24609 0.47746,1.41001 0.99037,2.80612 1.54492,4.20313 0.40259,1.014 0.84052,2.02625 1.28516,3.03125 l 22.47265,-0.61524 c 0.1503,0.254 0.33273,0.49019 0.48633,0.74219 l 0.14258,0 c 1.1015,1.80901 2.27318,3.55741 3.51758,5.23242 1.2444,1.676 2.55614,3.28036 3.93164,4.81836 l -7.63477,20.95703 c 0.6633,0.578 1.32315,1.15787 2.00195,1.71484 1.1286,0.92704 2.27602,1.8322 3.44532,2.70118 1.1692,0.86902 2.36692,1.70562 3.57422,2.51562 1.2074,0.80999 2.43103,1.59669 3.67382,2.3457 0.35561,0.215 0.71147,0.4249 1.07227,0.62891 l 17.83984,-13.42386 c 0.2594,0.11405 0.52486,0.1908 0.78516,0.30078 l 0.043,-0.0293 c 1.9693,0.83703 3.98253,1.57248 6.01953,2.23047 2.037,0.65701 4.09745,1.22616 6.18945,1.70117 l 0.0293,0.0703 c 0.0101,0.003 0.0168,0.0136 0.0273,0.0156 l 6.41993,21.30078 c 0.90259,0.093 1.79497,0.20358 2.70117,0.26953 1.457,0.108 2.92437,0.16318 4.38867,0.20117 0.979,0.026 1.96261,0.0167 2.94531,0.0137 0.4922,-0.005 0.98135,0.013 1.47266,0 1.4638,-0.038 2.91604,-0.10782 4.37304,-0.21484 0.4629,-0.033 0.92422,-0.10156 1.38672,-0.14258 l 6.40625,-21.21289 c 4.64599,-0.95895 9.18111,-2.37176 13.53711,-4.21875 l 18.01172,13.53906 c 0.60201,-0.34503 1.20678,-0.67029 1.80078,-1.0293 1.243,-0.749 2.46683,-1.5357 3.67383,-2.3457 1.20799,-0.80999 2.40523,-1.6466 3.57422,-2.51562 1.17001,-0.86899 2.3173,-1.77414 3.44531,-2.70118 0.449,-0.36795 0.87347,-0.7636 1.31445,-1.14257 l -7.51953,-20.67188 c 0.016,-0.018 0.027,-0.0396 0.043,-0.0566 l -0.0566,-0.17187 c 3.162,-3.44598 6.0069,-7.25054 8.46289,-11.39454 l 22.64453,0.61524 c 0.44901,-1.017 0.90747,-2.03259 1.31446,-3.05859 0.554,-1.39701 1.06692,-2.79312 1.54492,-4.20313 0.477,-1.40999 0.92712,-2.83878 1.32812,-4.25976 0.35901,-1.27201 0.67468,-2.54036 0.97266,-3.81836 L 279.51581,94.118714 c 0.023,-0.203 0.008,-0.41123 0.0293,-0.61524 l -0.1289,-0.0859 c 0.21199,-2.16101 0.28416,-4.32062 0.28515,-6.47461 l -0.11328,0 c -0.0162,-1.97075 -0.10498,-3.94944 -0.30078,-5.92578 l 18.75586,-12.55079 c -0.005,-0.024 -0.0243,-0.0463 -0.0293,-0.0703 -0.32601,-1.429 -0.68493,-2.85344 -1.08593,-4.27344 -0.401,-1.42101 -0.83647,-2.83609 -1.31446,-4.24609 -0.478,-1.41001 -0.98991,-2.80612 -1.54492,-4.20313 -0.40199,-1.01399 -0.8421,-2.02625 -1.28711,-3.03124 l -22.47266,0.61523 c -0.15,-0.254 -0.33038,-0.49214 -0.48437,-0.74414 l -0.14453,0 c -1.101,-1.80899 -2.27164,-3.55641 -3.51563,-5.232415 -1.24501,-1.675 -2.55563,-3.2784 -3.93164,-4.81641 l 7.63477,-20.95703 c -0.663,-0.57799 -1.32295,-1.15784 -2.00195,-1.71484 -1.129,-0.928 -2.27633,-1.83413 -3.44532,-2.70313 -1.17,-0.869 -2.36722,-1.70562 -3.57422,-2.51562 -1.207,-0.80999 -2.43083,-1.5947 -3.67382,-2.34571 -0.35601,-0.21399 -0.71126,-0.4239 -1.07227,-0.6289 l -17.83984,13.42578 c -0.26,-0.11402 -0.52711,-0.19078 -0.78711,-0.30078 l -0.043,0.0273 c -1.96999,-0.837 -3.97957,-1.57246 -6.01758,-2.23047 -2.037,-0.65799 -4.09745,-1.22423 -6.18945,-1.69922 l -0.0293,-0.0723 c -0.01,-0.002 -0.0173,-0.0117 -0.0273,-0.0137 L 218.7463,-0.5649411 c -0.903,-0.093 -1.79498,-0.20549 -2.70118,-0.27148 -1.457,-0.10701 -2.92477,-0.16317 -4.38867,-0.20117 -0.9794,-0.025 -1.96231,-0.0167 -2.94531,-0.0137 -0.4918,0.005 -0.98186,-0.013 -1.47266,0 z m 2.27344,47.1210901 a 41.628067,41.628067 0 0 1 41.62891,41.628905 41.628067,41.628067 0 0 1 -41.62891,41.626946 41.628067,41.628067 0 0 1 -41.62891,-41.626946 41.628067,41.628067 0 0 1 41.62891,-41.628905 z"
       id="path4850-3" /><path
       style="fill:#20c5df;fill-opacity:1;fill-rule:nonzero;stroke-width:33.80530548;stroke-linecap:round;stroke-miterlimit:4;stroke-dashoffset:0;marker-start:none;marker-mid:none;marker-end:none"
       d="m 354.94875,71.93205 c -1.4643,0.038 -2.91604,0.10783 -4.37304,0.21484 -0.4634,0.033 -0.92462,0.10258 -1.38672,0.14258 l -6.4043,21.21484 c -4.6472,0.959 -9.18276,2.3698 -13.53906,4.2168 L 311.23391,84.184 c -0.6019,0.345 -1.20678,0.66936 -1.80078,1.02734 -1.2429,0.75101 -2.46643,1.53572 -3.67383,2.34571 -1.2074,0.81 -2.40502,1.64662 -3.57422,2.51562 -1.1693,0.869 -2.31661,1.77513 -3.44531,2.70313 -0.4485,0.36799 -0.87375,0.76357 -1.31445,1.14257 l 7.51953,20.66993 c -0.0162,0.018 -0.0269,0.0406 -0.043,0.0586 l 0.0566,0.17187 c -3.1621,3.44599 -6.00669,7.24958 -8.46289,11.39258 l -22.64453,-0.61329 c -0.44904,1.017 -0.90739,2.0326 -1.31445,3.05859 -0.55456,1.39701 -1.06733,2.79312 -1.54493,4.20313 -0.47742,1.41 -0.92689,2.83876 -1.32812,4.25977 -0.35941,1.27198 -0.67415,2.5384 -0.97266,3.8164 l 18.52735,12.39453 c -0.0225,0.20299 -0.009,0.41028 -0.0293,0.61328 l 0.1289,0.0859 c -0.2131,2.161 -0.28365,4.32255 -0.28515,6.47656 l 0.11328,0 c 0.0166,1.97061 0.10525,3.94852 0.30078,5.92383 l -18.75586,12.55082 c 0.005,0.024 0.0238,0.0483 0.0293,0.0723 0.32576,1.42901 0.68476,2.85342 1.08594,4.27344 0.40118,1.42099 0.83699,2.83611 1.31445,4.24609 0.47746,1.41001 0.99037,2.80612 1.54492,4.20313 0.40259,1.014 0.84052,2.02625 1.28516,3.03125 l 22.47265,-0.61524 c 0.15031,0.254 0.33273,0.49019 0.48633,0.74219 l 0.14258,0 c 1.1015,1.80901 2.27318,3.55741 3.51758,5.23242 1.2444,1.676 2.55614,3.28036 3.93164,4.81836 l -7.63477,20.95703 c 0.6633,0.578 1.32315,1.15787 2.00196,1.71484 1.12859,0.92704 2.27601,1.8322 3.44531,2.70118 1.1692,0.86902 2.36692,1.70562 3.57422,2.51562 1.2074,0.80999 2.43103,1.59669 3.67383,2.3457 0.3556,0.215 0.71146,0.4249 1.07226,0.62891 l 17.83985,-13.42386 c 0.25939,0.11405 0.52485,0.1908 0.78515,0.30078 l 0.043,-0.0293 c 1.9693,0.83703 3.98253,1.57248 6.01953,2.23047 2.03701,0.65701 4.09745,1.22616 6.18946,1.70117 l 0.0293,0.0703 c 0.0101,0.003 0.0168,0.0136 0.0273,0.0156 l 6.41992,21.30078 c 0.90259,0.093 1.79497,0.20358 2.70117,0.26953 1.457,0.108 2.92437,0.16318 4.38867,0.20117 0.979,0.026 1.96262,0.0167 2.94531,0.0137 0.49221,-0.005 0.98136,0.013 1.47266,0 1.4638,-0.038 2.91605,-0.10782 4.37305,-0.21484 0.46289,-0.033 0.92421,-0.10156 1.38672,-0.14258 l 6.40624,-21.21289 c 4.64599,-0.95895 9.18111,-2.37176 13.53711,-4.21875 l 18.01172,13.53906 c 0.60201,-0.34503 1.20678,-0.67029 1.80078,-1.0293 1.243,-0.749 2.46683,-1.5357 3.67383,-2.3457 1.20799,-0.80999 2.40523,-1.6466 3.57422,-2.51562 1.17001,-0.86899 2.3173,-1.77414 3.44531,-2.70118 0.449,-0.36795 0.87347,-0.7636 1.31445,-1.14257 l -7.51953,-20.67188 c 0.016,-0.018 0.027,-0.0396 0.043,-0.0566 l -0.0566,-0.17187 c 3.162,-3.44598 6.0069,-7.25054 8.46289,-11.39454 l 22.64453,0.61524 c 0.44901,-1.017 0.90747,-2.03259 1.31446,-3.05859 0.554,-1.39701 1.06692,-2.79312 1.54492,-4.20313 0.477,-1.40999 0.92712,-2.83878 1.32812,-4.25976 0.35901,-1.27201 0.67468,-2.54036 0.97266,-3.81836 l -18.52734,-12.39258 c 0.023,-0.203 0.008,-0.41123 0.0293,-0.61524 l -0.1289,-0.0859 c 0.21199,-2.16101 0.28416,-4.32062 0.28515,-6.47461 l -0.11328,0 c -0.0162,-1.97075 -0.10498,-3.94944 -0.30078,-5.92578 l 18.75586,-12.55079 c -0.005,-0.024 -0.0243,-0.0463 -0.0293,-0.0703 -0.32601,-1.429 -0.68493,-2.85344 -1.08593,-4.27344 -0.401,-1.42101 -0.83647,-2.83609 -1.31446,-4.24609 -0.478,-1.41001 -0.98991,-2.80612 -1.54492,-4.20313 -0.40199,-1.01399 -0.8421,-2.02625 -1.28711,-3.03124 l -22.47266,0.61523 c -0.15,-0.254 -0.33038,-0.49214 -0.48437,-0.74414 l -0.14453,0 c -1.101,-1.80899 -2.27164,-3.55641 -3.51563,-5.23242 -1.24501,-1.675 -2.55563,-3.2784 -3.93164,-4.81641 l 7.63477,-20.95703 c -0.663,-0.57799 -1.32295,-1.15784 -2.00195,-1.71484 -1.129,-0.928 -2.27633,-1.83413 -3.44532,-2.70313 -1.17,-0.869 -2.36722,-1.70562 -3.57422,-2.51562 -1.207,-0.80999 -2.43083,-1.5947 -3.67382,-2.34571 -0.35601,-0.21399 -0.71126,-0.4239 -1.07227,-0.6289 l -17.83984,13.42578 c -0.26,-0.11402 -0.52711,-0.19078 -0.78711,-0.30078 l -0.043,0.0273 c -1.96999,-0.837 -3.97957,-1.57246 -6.01758,-2.23047 -2.037,-0.65799 -4.09745,-1.22423 -6.18945,-1.69922 l -0.0293,-0.0723 c -0.01,-0.002 -0.0173,-0.0117 -0.0273,-0.0137 l -6.41992,-21.30078 c -0.903,-0.093 -1.79498,-0.20549 -2.70117,-0.27148 -1.45701,-0.10701 -2.92478,-0.16317 -4.38868,-0.20117 -0.9794,-0.025 -1.96231,-0.0167 -2.94531,-0.0137 -0.4918,0.005 -0.98186,-0.013 -1.47266,0 z m 2.27344,47.12109 a 41.628067,41.628067 0 0 1 41.62891,41.62891 41.628067,41.628067 0 0 1 -41.62891,41.62695 41.628067,41.628067 0 0 1 -41.6289,-41.62695 41.628067,41.628067 0 0 1 41.6289,-41.62891 z"
       id="path4850-6" /></g></svg>