<?xml version="1.0" encoding="UTF-8" standalone="no"?>
<svg
   xmlns:dc="http://purl.org/dc/elements/1.1/"
   xmlns:cc="http://creativecommons.org/ns#"
   xmlns:rdf="http://www.w3.org/1999/02/22-rdf-syntax-ns#"
   xmlns:svg="http://www.w3.org/2000/svg"
   xmlns="http://www.w3.org/2000/svg"
   id="svg2"
   xml:space="preserve"
   enable-background="new 0 0 512 512"
   viewBox="0 0 512 512"
   height="512px"
   width="512px"
   y="0px"
   x="0px"
   version="1.1"><metadata
     id="metadata9"><rdf:RDF><cc:Work
         rdf:about=""><dc:format>image/svg+xml</dc:format><dc:type
           rdf:resource="http://purl.org/dc/dcmitype/StillImage" /><dc:title></dc:title></cc:Work></rdf:RDF></metadata><defs
     id="defs7" /><path
     id="path3-3"
     d="m 413.35301,142.70622 -113.81675,0 c -25.06328,0 -45.38031,20.31704 -45.38031,45.38032 l 0,250.2041 c 0,25.06328 20.31703,45.38168 45.38031,45.38168 l 113.81675,0 c 25.06329,0 45.3826,-20.3184 45.3826,-45.38168 l 0,-250.2041 c 0,-25.06328 -20.31931,-45.38032 -45.3826,-45.38032 z m -56.90724,318.23503 c -15.69353,0 -28.41384,-10.16829 -28.41384,-22.73107 0,-12.56415 12.72031,-22.73108 28.41384,-22.73108 15.67308,0 28.41385,10.16693 28.41385,22.73108 0,12.56278 -12.74077,22.73107 -28.41385,22.73107 z m 56.82769,-68.19323 -113.65537,0 0,-204.57966 113.65537,0 0,204.57966 z m -204.57966,0 -113.655368,0 0,-318.235024 272.772888,0 0,22.731071 45.46214,0 0,-22.731071 c 0,-25.028503 -20.44432,-45.462147 -45.46214,-45.462147 l -272.772888,0 c -24.995089,0 -45.462147,20.433644 -45.462147,45.462147 l 0,363.697184 c 0,24.99532 20.467058,45.46214 45.462147,45.46214 l 126.275668,0 c -7.81495,-13.4077 -12.6203,-28.78004 -12.6203,-45.38441 l 0,-45.53989 z"
     style="fill:#20c5df;fill-opacity:1" /></svg>