<?xml version="1.0" encoding="UTF-8" standalone="no"?>
<svg
   xmlns:dc="http://purl.org/dc/elements/1.1/"
   xmlns:cc="http://creativecommons.org/ns#"
   xmlns:rdf="http://www.w3.org/1999/02/22-rdf-syntax-ns#"
   xmlns:svg="http://www.w3.org/2000/svg"
   xmlns="http://www.w3.org/2000/svg"
   xmlns:sodipodi="http://sodipodi.sourceforge.net/DTD/sodipodi-0.dtd"
   xmlns:inkscape="http://www.inkscape.org/namespaces/inkscape"
   id="svg2"
   xml:space="preserve"
   enable-background="new 0 0 512 512"
   viewBox="0 0 512 512"
   height="512px"
   width="512px"
   y="0px"
   x="0px"
   version="1.1"
   inkscape:version="0.91 r13725"
   sodipodi:docname="portfo_ing.svg"><sodipodi:namedview
     pagecolor="#ffffff"
     bordercolor="#666666"
     borderopacity="1"
     objecttolerance="10"
     gridtolerance="10"
     guidetolerance="10"
     inkscape:pageopacity="0"
     inkscape:pageshadow="2"
     inkscape:window-width="874"
     inkscape:window-height="480"
     id="namedview7"
     showgrid="false"
     inkscape:zoom="0.4609375"
     inkscape:cx="-272.27119"
     inkscape:cy="256"
     inkscape:window-x="0"
     inkscape:window-y="0"
     inkscape:window-maximized="0"
     inkscape:current-layer="svg2" /><metadata
     id="metadata9"><rdf:RDF><cc:Work
         rdf:about=""><dc:format>image/svg+xml</dc:format><dc:type
           rdf:resource="http://purl.org/dc/dcmitype/StillImage" /><dc:title /></cc:Work></rdf:RDF></metadata><defs
     id="defs7" /><g
     style="font-style:normal;font-variant:normal;font-weight:300;font-stretch:normal;font-size:187.44335938px;line-height:125%;font-family:Roboto;-inkscape-font-specification:'Roboto Light';letter-spacing:0px;word-spacing:0px;fill:#20c5df;fill-opacity:1;stroke:none;stroke-width:1px;stroke-linecap:butt;stroke-linejoin:miter;stroke-opacity:1"
     id="text4136"
     transform="matrix(0.91433838,0,0,0.91433838,19.945726,19.049419)"><path
       d="m 28.30425,252.23963 52.169295,18.39654 0,25.62702 -78.8030924,-33.40666 0,-21.59991 78.8030924,-33.40666 0,25.62702 -52.169295,18.76265 z"
       style="font-style:normal;font-variant:normal;font-weight:bold;font-stretch:normal;font-family:Roboto;-inkscape-font-specification:'Roboto Bold';fill:#20c5df;fill-opacity:1"
       id="path4136"
       inkscape:connector-curvature="0" /><path
       d="m 130.35472,308.80212 -26.54228,0 0,-99.03013 26.54228,0 0,99.03013 z m -28.0982,-124.65715 q 0,-5.94913 3.93558,-9.79319 4.0271,-3.84405 10.89148,-3.84405 6.77286,0 10.79996,3.84405 4.0271,3.84406 4.0271,9.79319 0,6.04065 -4.11863,9.88471 -4.0271,3.84405 -10.70843,3.84405 -6.68133,0 -10.79996,-3.84405 -4.0271,-3.84406 -4.0271,-9.88471 z"
       style="font-style:normal;font-variant:normal;font-weight:bold;font-stretch:normal;font-family:Roboto;-inkscape-font-specification:'Roboto Bold';fill:#20c5df;fill-opacity:1"
       id="path4138"
       inkscape:connector-curvature="0" /><path
       d="m 176.57488,209.77199 0.82373,11.44063 q 10.6169,-13.27113 28.4643,-13.27113 15.74231,0 23.43041,9.24403 7.68811,9.24403 7.87116,27.64057 l 0,63.97603 -26.45075,0 0,-63.33535 q 0,-8.42031 -3.661,-12.17284 -3.661,-3.84405 -12.17283,-3.84405 -11.16606,0 -16.74909,9.51861 l 0,69.83363 -26.45075,0 0,-99.03013 24.89482,0 z"
       style="font-style:normal;font-variant:normal;font-weight:bold;font-stretch:normal;font-family:Roboto;-inkscape-font-specification:'Roboto Bold';fill:#20c5df;fill-opacity:1"
       id="path4140"
       inkscape:connector-curvature="0" /><path
       d="m 253.45594,258.55486 q 0,-22.78975 10.79996,-36.70156 10.89149,-13.91181 29.28803,-13.91181 16.29146,0 25.35244,11.16606 l 1.0983,-9.33556 23.97957,0 0,95.73523 q 0,12.99656 -5.94913,22.6067 -5.8576,9.61013 -16.56604,14.64401 -10.70843,5.03388 -25.07787,5.03388 -10.89148,0 -21.23381,-4.39321 -10.34234,-4.30168 -15.65079,-11.16606 l 11.71521,-16.10841 q 9.88471,11.07453 23.97957,11.07453 10.52538,0 16.38299,-5.67455 5.8576,-5.58303 5.8576,-15.92536 l 0,-5.30846 q -9.15251,10.34234 -24.07109,10.34234 -17.84739,0 -28.92193,-13.91182 -10.98301,-14.00333 -10.98301,-37.06765 l 0,-1.0983 z m 26.45075,1.92202 q 0,13.45419 5.39998,21.1423 5.39998,7.59658 14.82706,7.59658 12.08131,0 17.29824,-9.06099 l 0,-41.64391 q -5.30845,-9.06098 -17.11519,-9.06098 -9.51861,0 -15.01011,7.77963 -5.39998,7.77963 -5.39998,23.24737 z"
       style="font-style:normal;font-variant:normal;font-weight:bold;font-stretch:normal;font-family:Roboto;-inkscape-font-specification:'Roboto Bold';fill:#20c5df;fill-opacity:1"
       id="path4142"
       inkscape:connector-curvature="0" /><path
       d="m 372.53007,320.24276 -19.67789,0 49.05744,-144.70115 19.67789,0 -49.05744,144.70115 z"
       style="font-style:normal;font-variant:normal;font-weight:bold;font-stretch:normal;font-family:Roboto;-inkscape-font-specification:'Roboto Bold';fill:#20c5df;fill-opacity:1"
       id="path4144"
       inkscape:connector-curvature="0" /><path
       d="m 488.12625,251.96505 -53.17607,-18.57959 0,-25.44397 79.71835,33.40665 0,21.50839 -79.71835,33.49818 0,-25.53549 53.17607,-18.85417 z"
       style="font-style:normal;font-variant:normal;font-weight:bold;font-stretch:normal;font-family:Roboto;-inkscape-font-specification:'Roboto Bold';fill:#20c5df;fill-opacity:1"
       id="path4146"
       inkscape:connector-curvature="0" /></g></svg>