<?xml version="1.0" encoding="UTF-8" standalone="no"?>
<!-- Generator: Adobe Illustrator 18.1.1, SVG Export Plug-In . SVG Version: 6.00 Build 0)  -->

<svg
   xmlns:dc="http://purl.org/dc/elements/1.1/"
   xmlns:cc="http://creativecommons.org/ns#"
   xmlns:rdf="http://www.w3.org/1999/02/22-rdf-syntax-ns#"
   xmlns:svg="http://www.w3.org/2000/svg"
   xmlns="http://www.w3.org/2000/svg"
   xmlns:sodipodi="http://sodipodi.sourceforge.net/DTD/sodipodi-0.dtd"
   xmlns:inkscape="http://www.inkscape.org/namespaces/inkscape"
   version="1.1"
   id="Network"
   x="0px"
   y="0px"
   viewBox="0 0 20 20"
   enable-background="new 0 0 20 20"
   xml:space="preserve"
   inkscape:version="0.91 r13725"
   sodipodi:docname="portfo_web.svg"><metadata
     id="metadata4294"><rdf:RDF><cc:Work
         rdf:about=""><dc:format>image/svg+xml</dc:format><dc:type
           rdf:resource="http://purl.org/dc/dcmitype/StillImage" /></cc:Work></rdf:RDF></metadata><defs
     id="defs4292" /><sodipodi:namedview
     pagecolor="#ffffff"
     bordercolor="#666666"
     borderopacity="1"
     objecttolerance="10"
     gridtolerance="10"
     guidetolerance="10"
     inkscape:pageopacity="0"
     inkscape:pageshadow="2"
     inkscape:window-width="1280"
     inkscape:window-height="751"
     id="namedview4290"
     showgrid="false"
     inkscape:zoom="23.6"
     inkscape:cx="6.7478722"
     inkscape:cy="8.8840309"
     inkscape:window-x="0"
     inkscape:window-y="0"
     inkscape:window-maximized="1"
     inkscape:current-layer="Network" /><path
     d="m 6.3728207,7.6325374 c 0.1534821,0 0.3023598,0.022255 0.4420286,0.065997 0.5295136,-0.593209 1.1165828,-1.1334662 1.7519996,-1.6115632 -0.026857,-0.112042 -0.041444,-0.2294559 -0.041444,-0.349172 0,-0.1665281 0.027626,-0.326917 0.078273,-0.4765621 C 7.8907595,4.7516769 7.1172092,4.3226943 6.2930099,3.9919402 5.521762,4.4685024 4.8487427,5.0901051 4.311555,5.8191456 4.7098413,6.5251635 5.1833339,7.1828346 5.7220562,7.7814151 5.9185135,7.6862562 6.1387604,7.6325374 6.3728207,7.6325374 Z M 4.87023,9.134361 c 0,-0.2110389 0.04451,-0.4121005 0.1220184,-0.5932092 C 4.5103144,8.0101035 4.0736577,7.4391499 3.6914871,6.830593 3.2118553,7.7837173 2.9394244,8.8603943 2.9394244,10.000768 c 0,1.319178 0.3637527,2.553943 0.993797,3.610668 C 4.1588403,12.342138 4.5862881,11.14114 5.1764271,10.04144 4.9845744,9.7897291 4.8702301,9.4743236 4.8702301,9.134361 Z m 5.157001,-4.8983841 c 0.396752,0 0.7559,0.1542495 1.025261,0.4059603 C 11.836018,4.3050438 12.660986,4.045659 13.519718,3.8806657 12.482946,3.2828526 11.281181,2.9398199 9.9996056,2.9398199 c -0.8740817,0 -1.7105599,0.1603888 -2.4833427,0.4512376 C 8.1294243,3.6941847 8.7141918,4.0471937 9.2636576,4.4462474 9.4877413,4.3127179 9.7478935,4.2359769 10.027231,4.2359769 Z m 2.245445,7.0747611 c 0.09362,-0.194922 0.226385,-0.36759 0.390612,-0.503421 C 12.219725,9.4436271 11.517543,8.1950496 10.612765,7.1214418 10.433192,7.1981828 10.2352,7.239623 10.026464,7.239623 9.700314,7.239623 9.4002569,7.1344877 9.1539175,6.9595181 8.6090564,7.3731525 8.104867,7.8366688 7.6467227,8.34316 c 0.1442733,0.2294557 0.227921,0.5003519 0.227921,0.7912011 0,0.1557836 -0.02379,0.3069641 -0.069067,0.449702 1.3176441,0.8794539 2.8348153,1.4841729 4.4670983,1.7266749 z m 1.948456,2.028266 c 0.01995,0.28471 0.03146,0.570955 0.03146,0.860268 0,0.509561 -0.03223,1.011448 -0.09362,1.504893 1.197161,-0.874081 2.108846,-2.116519 2.568524,-3.560018 -0.544861,0.131994 -1.103537,0.226385 -1.673723,0.280104 -0.132761,0.412099 -0.438959,0.743621 -0.83264,0.914753 z M 11.921201,12.32065 C 10.177644,12.031337 8.5622438,11.365991 7.1555797,10.414402 6.9268913,10.55407 6.6590648,10.636184 6.3720533,10.636184 c -0.1066702,0 -0.2087359,-0.01074 -0.3084992,-0.03146 -0.6730193,1.275438 -1.1035369,2.698984 -1.2270901,4.208482 0.6722519,0.721366 1.4918467,1.302296 2.4135072,1.692141 1.1449771,-1.759673 2.7442614,-3.214684 4.6712298,-4.184692 z M 14.739134,4.7670251 C 13.607204,4.876765 12.526689,5.1614743 11.52138,5.58662 c 0.0046,0.050649 0.0077,0.1005308 0.0077,0.1511799 0,0.23713 -0.05679,0.4604465 -0.15425,0.6592059 1.006076,1.1810454 1.785765,2.555478 2.278444,4.0603702 0.611626,0.01228 1.133465,0.385241 1.358317,0.917056 0.679926,-0.06907 1.341434,-0.199525 1.978385,-0.386774 0.04604,-0.322313 0.0706,-0.652299 0.0706,-0.9876589 -7.87e-4,-2.0750782 -0.895589,-3.9414215 -2.321438,-5.232974 z m -2.062033,8.3555709 c -1.798811,0.842616 -3.3029366,2.140307 -4.3918923,3.726546 0.5486988,0.137367 1.1227216,0.211038 1.7143969,0.211038 1.0643974,0 2.0735434,-0.23713 2.9790884,-0.659206 0.145807,-0.712157 0.222549,-1.448104 0.222549,-2.201702 0,-0.272431 -0.01228,-0.54256 -0.033,-0.809619 -0.181109,-0.05832 -0.347636,-0.14811 -0.491143,-0.267057 z"
     id="path4288"
     style="fill:#20c5df;fill-opacity:1"
     inkscape:connector-curvature="0" /></svg>