<?xml version="1.0" encoding="UTF-8" standalone="no"?>
<!-- License Agreement at http://iconmonstr.com/license/ -->

<svg
   xmlns:dc="http://purl.org/dc/elements/1.1/"
   xmlns:cc="http://creativecommons.org/ns#"
   xmlns:rdf="http://www.w3.org/1999/02/22-rdf-syntax-ns#"
   xmlns:svg="http://www.w3.org/2000/svg"
   xmlns="http://www.w3.org/2000/svg"
   xmlns:sodipodi="http://sodipodi.sourceforge.net/DTD/sodipodi-0.dtd"
   xmlns:inkscape="http://www.inkscape.org/namespaces/inkscape"
   version="1.1"
   x="0px"
   y="0px"
   width="512px"
   height="512px"
   viewBox="0 0 512 512"
   enable-background="new 0 0 512 512"
   xml:space="preserve"
   id="svg2"
   inkscape:version="0.91 r"
   sodipodi:docname="organisation.svg"><metadata
     id="metadata9"><rdf:RDF><cc:Work
         rdf:about=""><dc:format>image/svg+xml</dc:format><dc:type
           rdf:resource="http://purl.org/dc/dcmitype/StillImage" /><dc:title></dc:title></cc:Work></rdf:RDF></metadata><defs
     id="defs7"><inkscape:path-effect
       effect="skeletal"
       id="path-effect4142"
       is_visible="true"
       pattern="m -12,8 1,0"
       copytype="single_stretched"
       prop_scale="1"
       scale_y_rel="false"
       spacing="0"
       normal_offset="0"
       tang_offset="0"
       prop_units="false"
       vertical_pattern="false"
       fuse_tolerance="0" /><inkscape:path-effect
       effect="skeletal"
       id="path-effect4142-8"
       is_visible="true"
       pattern="m 84.256435,2.5253778 1,0"
       copytype="single_stretched"
       prop_scale="1"
       scale_y_rel="false"
       spacing="0"
       normal_offset="0"
       tang_offset="0"
       prop_units="false"
       vertical_pattern="false"
       fuse_tolerance="0" /></defs><sodipodi:namedview
     pagecolor="#ffffff"
     bordercolor="#666666"
     borderopacity="1"
     objecttolerance="10"
     gridtolerance="10"
     guidetolerance="10"
     inkscape:pageopacity="0"
     inkscape:pageshadow="2"
     inkscape:window-width="1920"
     inkscape:window-height="1027"
     id="namedview5"
     showgrid="false"
     inkscape:zoom="0.4609375"
     inkscape:cx="-774.50848"
     inkscape:cy="247.32204"
     inkscape:window-x="1024"
     inkscape:window-y="0"
     inkscape:window-maximized="1"
     inkscape:current-layer="svg2" /><g
     id="g4176"><path
       sodipodi:nodetypes="csccascc"
       inkscape:connector-curvature="0"
       inkscape:original-d="M 50.870416,477.82064 C 128.2499,465.76818 229.92748,434.92158 248.54273,394.80739 c 2.39279,-5.15626 -15.46908,-18.87973 -15.46908,-18.87973 l 18.94627,-8.87202 c 0,0 16.88181,18.0856 17.33294,29.47438 0.19169,4.8393 -2.67323,9.39218 -6.35137,13.06754 -46.79966,46.76433 -86.3203,59.35485 -212.492482,85.12265 z"
       inkscape:path-effect="#path-effect4142"
       id="path4140"
       d="m 50.870416,477.82064 c 20.48195,-3.19022 40.811568,-7.35275 60.913004,-12.41439 20.30102,-5.1119 40.39262,-11.12659 59.95974,-18.56909 0,0 1e-5,0 1e-5,0 16.99095,-6.46263 33.71952,-13.89329 48.94143,-23.83065 0,0 1e-5,0 1e-5,0 6.13119,-4.00264 12.01229,-8.43562 17.19354,-13.60932 4.28456,-4.27832 8.11584,-9.0975 10.66458,-14.5898 0,0 0,-10e-6 0,-10e-6 0.3285,-0.70789 0.24592,-1.54186 0.0229,-2.2897 -1e-5,0 -1e-5,0 -1e-5,-10e-6 -0.30312,-1.01634 -0.84036,-1.94783 -1.42749,-2.83107 -1.52869,-2.29965 -3.44966,-4.31233 -5.42336,-6.2436 l -1e-5,-10e-6 c 0,0 -1e-5,-1e-5 -1e-5,-1e-5 l 0,0 c -1.88291,-1.84242 -3.8548,-3.59255 -5.87664,-5.28134 l 0,0 -1e-5,-10e-6 -1e-5,-10e-6 c -0.65862,-0.55012 -1.3229,-1.09347 -1.99406,-1.6282 0,0 -1e-5,-10e-6 -1e-5,-10e-6 -0.18802,-0.1498 -0.37658,-0.29892 -0.56599,-0.44696 0,0 -1e-5,-1e-5 -1e-5,-1e-5 -0.0502,-0.0392 -0.10046,-0.0784 -0.15083,-0.11743 0,0 -2e-5,-1e-5 -2e-5,-1e-5 0.002,0.002 -0.0417,-0.0322 -0.0394,-0.0304 0.004,0.003 -0.0179,-0.0138 -0.0141,-0.0109 l 18.94624,-8.87204 c 3e-5,3e-5 3e-5,3e-5 3e-5,4e-5 2.83531,3.49279 5.67061,6.98559 8.50591,10.47838 10e-6,10e-6 10e-6,2e-5 2e-5,2e-5 2.19733,3.05532 4.25119,6.22524 5.93172,9.59259 1.47488,2.95531 2.76453,6.10304 2.89526,9.40335 0.1972,4.97836 -2.82705,9.54588 -6.35137,13.06754 -10.83344,10.82527 -22.45369,20.91934 -35.20259,29.40552 -12.88091,8.57405 -26.85183,15.43567 -41.27893,21.02949 -1e-5,10e-6 -2e-5,10e-6 -3e-5,10e-6 -18.25661,7.07865 -37.163,12.35179 -56.16129,17.09266 -26.44612,6.59941 -53.143796,12.14091 -79.849642,17.59497 0.120469,-5.63319 0.240939,-11.26638 0.361408,-16.89957 z"
       style="fill:#20c5df;fill-rule:evenodd;stroke:none;stroke-width:1px;stroke-linecap:butt;stroke-linejoin:miter;stroke-opacity:1;fill-opacity:1" /><path
       sodipodi:nodetypes="csccsscc"
       inkscape:connector-curvature="0"
       inkscape:original-d="M 432.88174,461.66336 C 302.53125,440.99773 254.31368,416.21572 229.24945,392.29268 c -1.79499,-1.71327 22.56863,-25.01794 22.56863,-25.01794 l -27.37512,-2.47496 c 0,0 -10.09282,9.97142 -13.35043,16.1497 -2.16576,4.1075 -7.17677,12.82573 -1.93796,20.24095 19.21872,27.20286 104.67281,67.32325 223.72717,84.19377 z"
       inkscape:path-effect="#path-effect4142-8"
       id="path4140-1"
       d="m 432.88174,461.66336 c -47.8795,-7.59077 -95.89038,-16.48824 -141.29849,-33.46381 -13.20733,-4.93749 -26.16165,-10.66103 -38.27282,-17.88127 0,-1e-5 -1e-5,-1e-5 -1e-5,-1e-5 -8.62613,-5.14258 -16.79624,-11.09162 -24.06097,-18.02559 -0.0595,-0.0568 -0.0875,-0.14027 -0.0932,-0.22237 -0.008,-0.11508 0.0174,-0.23006 0.0507,-0.34052 0,0 0,-2e-5 0,-2e-5 0.10785,-0.35798 0.29982,-0.68458 0.49612,-1.00277 0,0 0,-2e-5 0,-2e-5 0.67211,-1.0895 1.49053,-2.08108 2.31241,-3.06253 1e-5,0 1e-5,-10e-6 1e-5,-10e-6 2.47695,-2.95782 5.14863,-5.74662 7.83642,-8.51424 3.98871,-3.95848 7.97741,-7.91696 11.96612,-11.87544 -9.12502,-0.82501 -18.25006,-1.64999 -27.3751,-2.47498 -0.003,0.003 -0.028,0.0278 -0.0312,0.0309 -0.029,0.0288 -0.058,0.0577 -0.0869,0.0865 0,0 -1e-5,1e-5 -1e-5,1e-5 0,0 -2e-5,2e-5 -2e-5,2e-5 -0.10995,0.10971 -0.21952,0.21978 -0.32887,0.33008 0,0 -1e-5,1e-5 -1e-5,1e-5 -0.39986,0.40331 -0.79672,0.80956 -1.19143,1.21791 0,0 0,1e-5 -1e-5,1e-5 -1.29982,1.34474 -2.57644,2.71198 -3.82548,4.10402 -1.53081,1.70606 -3.02316,3.44791 -4.43112,5.25669 -1.26683,1.62746 -2.49344,3.29915 -3.45536,5.12349 -1.50274,2.85005 -2.99389,5.74703 -3.74569,8.88005 0,1e-5 0,2e-5 0,3e-5 -0.44273,1.84501 -0.63231,3.76392 -0.40415,5.64754 1e-5,10e-6 1e-5,2e-5 1e-5,3e-5 0.24816,2.04868 1.02111,4.02785 2.21187,5.7133 2.86205,4.05104 6.46296,7.53045 10.24806,10.73594 5.03542,4.26435 10.47796,8.02868 16.07519,11.52313 15.18252,9.47872 31.49555,17.03541 48.10194,23.71243 10e-6,0 2e-5,1e-5 3e-5,1e-5 47.775,19.20915 98.31913,30.99777 149.30195,38.22226 0,-7.90695 0,-15.81389 0,-23.72084 z"
       style="fill:#20c5df;fill-rule:evenodd;stroke:#222222;stroke-width:2.55798197;stroke-linecap:butt;stroke-linejoin:round;stroke-miterlimit:4;stroke-dasharray:none;stroke-opacity:1;fill-opacity:1" /><rect
       transform="matrix(-0.69683445,0.71723201,-0.71723201,-0.69683445,0,0)"
       ry="9.3635988"
       y="-435.13428"
       x="61.347687"
       height="18.727198"
       width="58.602196"
       id="rect4162"
       style="color:#000000;display:inline;overflow:visible;visibility:visible;opacity:1;fill:#20c5df;fill-opacity:1;fill-rule:nonzero;stroke:none;stroke-width:1.83063424;stroke-linecap:butt;stroke-linejoin:round;stroke-miterlimit:4;stroke-dasharray:none;stroke-dashoffset:0;stroke-opacity:1;marker:none;enable-background:accumulate" /><rect
       transform="matrix(-0.69683445,0.71723201,-0.71723201,-0.69683445,0,0)"
       ry="8.6126041"
       y="-412.26093"
       x="34.945652"
       height="19.060934"
       width="81.743431"
       id="rect4162-3"
       style="color:#000000;display:inline;overflow:visible;visibility:visible;opacity:1;fill:#20c5df;fill-opacity:1;fill-rule:nonzero;stroke:none;stroke-width:1.83063424;stroke-linecap:butt;stroke-linejoin:round;stroke-miterlimit:4;stroke-dasharray:none;stroke-dashoffset:0;stroke-opacity:1;marker:none;enable-background:accumulate" /><rect
       transform="matrix(-0.69683445,0.71723201,-0.71723201,-0.69683445,0,0)"
       ry="8.6126041"
       y="-388.78308"
       x="14.019801"
       height="19.060934"
       width="81.743431"
       id="rect4162-3-6"
       style="color:#000000;display:inline;overflow:visible;visibility:visible;opacity:1;fill:#20c5df;fill-opacity:1;fill-rule:nonzero;stroke:none;stroke-width:1.83063424;stroke-linecap:butt;stroke-linejoin:round;stroke-miterlimit:4;stroke-dasharray:none;stroke-dashoffset:0;stroke-opacity:1;marker:none;enable-background:accumulate" /><rect
       transform="matrix(-0.69683445,0.71723201,-0.71723201,-0.69683445,0,0)"
       ry="8.6126041"
       y="-362.922"
       x="-8.8901873"
       height="19.060934"
       width="81.743431"
       id="rect4162-3-4"
       style="color:#000000;display:inline;overflow:visible;visibility:visible;opacity:1;fill:#20c5df;fill-opacity:1;fill-rule:nonzero;stroke:none;stroke-width:1.83063424;stroke-linecap:butt;stroke-linejoin:round;stroke-miterlimit:4;stroke-dasharray:none;stroke-dashoffset:0;stroke-opacity:1;marker:none;enable-background:accumulate" /><g
       style="stroke:none;fill:#20c5df;fill-opacity:1"
       id="g7836"
       transform="matrix(-0.04058269,-0.29626769,0.29626769,-0.04058269,-181.54262,546.85781)"><path
         sodipodi:nodetypes="cccccccccccccccccccccccccccccccccccccccccccccccccccccccccccccccccccccccccccccccccccccccccccccccccccccccccc"
         style="fill:#20c5df;fill-opacity:1;stroke:none"
         id="path4"
         d="m 1318.5398,1801.5506 -139.9264,140.2312 51.5197,51.5197 12.8037,-13.1085 -12.8037,-21.6444 73.1641,-73.1641 -17.3764,-17.3765 49.6906,-49.3858 z m 25.6074,25.6074 -43.2888,42.9839 8.5358,8.5359 42.984,-43.2888 z m 17.3765,17.3765 -43.2888,42.9839 8.5358,8.5358 42.9839,-43.2887 z m 17.3764,17.3765 -43.2887,42.9839 8.5358,8.5358 42.9839,-43.2888 z m 17.0717,17.0716 -43.2888,42.9839 8.5358,8.5358 42.9839,-43.2887 z m -84.1387,14.9377 -66.7623,66.7622 13.1086,21.6444 -60.3604,60.3604 25.9123,25.9123 60.3604,-60.3604 21.6443,12.8037 66.7623,-66.7622 z m 101.5152,2.1339 -43.2888,42.9839 8.5358,8.5359 42.9839,-43.2888 z m 17.3764,17.3765 -43.2887,43.2888 8.5358,8.5358 42.9839,-43.2888 z m 17.3765,17.3765 -49.6906,49.6906 -17.6813,-17.6813 -73.1642,73.4689 -21.6443,-13.1085 -13.1086,13.1085 51.8246,51.8246 140.2312,-140.2312 z m -288.9982,4.2679 -19.5104,15.2425 -48.1664,72.5544 54.5682,54.5683 -13.1086,12.8037 -52.1294,-51.8246 -13.7182,20.7298 48.4712,48.4712 -12.8037,13.1086 -46.0325,-45.7276 -13.7182,20.7299 42.3742,42.3742 -13.1086,13.1086 -39.6305,-39.6306 -13.7183,20.7298 36.2772,36.2772 -13.1086,13.1086 -33.8384,-33.8384 -13.71826,20.7298 30.18016,30.1802 C 895.71219,2342.0504 767.08269,2146.3838 866.19217,1999.0003 967.0518,1844.7935 880.44061,1653.0698 826.365,1562.0186 l -53.40847,33.5823 c 74.53994,113.3797 122.09763,261.1471 36.02205,395.8828 -121.2907,202.7635 79.72205,444.7655 259.27902,249.6612 l 30.1801,30.1802 20.7299,-13.7182 -33.5336,-33.8384 12.8037,-12.8038 36.2773,36.2772 20.7298,-13.7182 -39.9354,-39.6306 13.1085,-13.1085 42.3742,42.3742 20.7299,-13.7183 -46.0324,-45.7276 13.1085,-13.1085 48.4712,48.4712 20.7299,-13.7183 -52.1294,-52.1294 13.1085,-13.1086 54.5683,54.5682 72.5544,-48.1663 14.9376,-19.5105 -64.6283,-64.6283 -49.6906,49.6907 -43.2888,-43.2888 49.6907,-49.6906 z"
         inkscape:connector-curvature="0" /></g><g
       style="fill:#20c5df;fill-opacity:1"
       id="g3"
       transform="matrix(0.45269185,0,0,0.45269185,71.749569,21.649789)"><path
         style="fill:#20c5df;fill-opacity:1"
         sodipodi:nodetypes="ccccccccccccccccccccccccccccccccccc"
         id="path5"
         d="m 243.523,71.26 121.099,121.098 -62.403,62.411 c -11.757,11.759 -47.475,34.394 -73.128,40.771 -0.886,2.835 -2.363,5.527 -4.618,7.78 -7.403,7.399 -19.412,7.399 -26.81,0 l -0.877,-0.88 -42.389,42.392 -19.933,-19.929 c -35.594377,35.55707 -112.292092,79.73722 -106.63,106.622 20.2605,84.94733 207.82725,65.32286 293.94534,94.73273 l -31.25186,29.11635 C 210.96517,539.64332 0.82442546,556.95083 -22.602413,441.35969 -29.120176,380.47933 60.558596,345.16123 106.628,297.062 L 86.08,276.515 128.786,233.806 c -4.728,-7.344 -3.892,-17.225 2.528,-23.649 1.968,-1.967 4.265,-3.374 6.709,-4.293 7.076,-24.559 32.005,-61.123 43.089,-72.211 z m 114.903,95.676 -89.483,-89.483 75.279,-75.275 89.479,89.486 z m 12.318,-79.683 18.055,18.046 13.536,-13.538 -18.052,-18.046 z m -24.411,-24.852 13.54,-13.538 -18.047,-18.051 -13.54,13.539 z"
         inkscape:connector-curvature="0" /></g></g></svg>