<?xml version="1.0" encoding="UTF-8" standalone="no"?>
<svg
   xmlns:dc="http://purl.org/dc/elements/1.1/"
   xmlns:cc="http://creativecommons.org/ns#"
   xmlns:rdf="http://www.w3.org/1999/02/22-rdf-syntax-ns#"
   xmlns:svg="http://www.w3.org/2000/svg"
   xmlns="http://www.w3.org/2000/svg"
   xmlns:sodipodi="http://sodipodi.sourceforge.net/DTD/sodipodi-0.dtd"
   xmlns:inkscape="http://www.inkscape.org/namespaces/inkscape"
   id="svg2"
   xml:space="preserve"
   enable-background="new 0 0 512 512"
   viewBox="0 0 512 512"
   height="512px"
   width="512px"
   y="0px"
   x="0px"
   version="1.1"
   inkscape:version="0.91 r"
   sodipodi:docname="portfo_projectm.svg"><sodipodi:namedview
     pagecolor="#ffffff"
     bordercolor="#666666"
     borderopacity="1"
     objecttolerance="10"
     gridtolerance="10"
     guidetolerance="10"
     inkscape:pageopacity="0"
     inkscape:pageshadow="2"
     inkscape:window-width="874"
     inkscape:window-height="480"
     id="namedview12"
     showgrid="false"
     inkscape:zoom="0.4609375"
     inkscape:cx="256"
     inkscape:cy="256"
     inkscape:window-x="0"
     inkscape:window-y="0"
     inkscape:window-maximized="0"
     inkscape:current-layer="svg2" /><metadata
     id="metadata9"><rdf:RDF><cc:Work
         rdf:about=""><dc:format>image/svg+xml</dc:format><dc:type
           rdf:resource="http://purl.org/dc/dcmitype/StillImage" /><dc:title /></cc:Work></rdf:RDF></metadata><defs
     id="defs7" /><g
     transform="matrix(0.84546279,0,0,0.84546279,781.6732,34.473063)"
     id="g4403"><path
       style="fill:#20c5df;fill-opacity:1"
       d="m -446.27977,27.935922 -34.53503,86.337698 -253.25691,0 -34.53503,-86.337698 c -22.18876,0 -40.29087,18.102 -40.29087,40.2909 l 0,437.443898 c 0,22.1599 18.10211,40.2908 40.26208,40.2908 l 322.32698,0 c 22.15998,0 40.29087,-18.1596 40.29087,-40.2908 l 0,-437.443898 c 0.0288,-22.1889 -18.13089,-40.2909 -40.26209,-40.2909 z m -57.55838,57.5585 25.90126,-57.5585 -62.76741,0 -20.69225,-57.55846 -92.09341,0 -20.72103,57.55846 -62.73864,0 25.8725,57.5585 207.23898,0 z"
       id="path3-8" /><g
       style="font-style:normal;font-weight:normal;font-size:47.50568771px;line-height:125%;font-family:Sans;letter-spacing:0px;word-spacing:0px;fill:#000000;fill-opacity:1;stroke:none;stroke-width:1px;stroke-linecap:butt;stroke-linejoin:miter;stroke-opacity:1"
       id="text4783"><path
         d="m -733.65763,206.19453 q 0,-2.76614 -2.76614,-4.33188 -2.71395,-1.61793 -8.76814,-2.87052 -20.14585,-4.2275 -20.14585,-17.11875 0,-7.51555 6.21077,-12.52591 6.26296,-5.06256 16.33588,-5.06256 10.75141,0 17.17094,5.06256 6.47172,5.06255 6.47172,13.15221 l -15.08329,0 q 0,-3.23587 -2.08765,-5.32352 -2.08765,-2.13984 -6.52391,-2.13984 -3.80997,0 -5.89762,1.72231 -2.08765,1.72231 -2.08765,4.38407 0,2.50518 2.34861,4.07092 2.4008,1.51355 8.03746,2.66176 5.63666,1.09602 9.49881,2.50518 11.95181,4.38407 11.95181,15.18767 0,7.72432 -6.62829,12.52592 -6.6283,4.7494 -17.11875,4.7494 -7.09802,0 -12.6303,-2.50518 -5.48008,-2.55737 -8.61156,-6.94144 -3.13148,-4.43626 -3.13148,-9.55101 l 14.30042,0 q 0.20876,4.01873 2.9749,6.15857 2.76614,2.13985 7.41117,2.13985 4.33188,0 6.52391,-1.61793 2.24423,-1.67013 2.24423,-4.33188 z"
         style="font-style:normal;font-variant:normal;font-weight:bold;font-stretch:normal;font-size:106.88779449px;font-family:Roboto;-inkscape-font-specification:'Roboto Bold';fill:#222222;fill-opacity:1"
         id="path4141" /><path
         d="m -685.8504,210.68298 q 4.17531,0 6.78487,-2.29642 2.60957,-2.29641 2.71395,-6.10638 l 14.14385,0 q -0.0522,5.74104 -3.13148,10.54264 -3.07929,4.74941 -8.45499,7.41117 -5.32352,2.60956 -11.79524,2.60956 -12.10838,0 -19.10202,-7.67212 -6.99363,-7.72431 -6.99363,-21.29405 l 0,-0.99164 q 0,-13.04782 6.94144,-20.82433 6.94144,-7.7765 19.04983,-7.7765 10.59483,0 16.96217,6.05419 6.41953,6.002 6.52392,16.02273 l -14.14385,0 q -0.10438,-4.38407 -2.71395,-7.09802 -2.60956,-2.76614 -6.88925,-2.76614 -5.27132,0 -7.98527,3.86216 -2.66176,3.80997 -2.66176,12.42153 l 0,1.56574 q 0,8.71595 2.66176,12.52591 2.66176,3.80997 8.08965,3.80997 z"
         style="font-style:normal;font-variant:normal;font-weight:bold;font-stretch:normal;font-size:106.88779449px;font-family:Roboto;-inkscape-font-specification:'Roboto Bold';fill:#222222;fill-opacity:1"
         id="path4143" /><path
         d="m -621.86386,179.47258 q -3.07928,-0.41753 -5.42789,-0.41753 -8.55938,0 -11.22113,5.79323 l 0,36.95145 -15.08329,0 0,-56.47099 14.24823,0 0.41753,6.73267 q 4.54064,-7.7765 12.5781,-7.7765 2.50519,0 4.69722,0.67849 l -0.20877,14.50918 z"
         style="font-style:normal;font-variant:normal;font-weight:bold;font-stretch:normal;font-size:106.88779449px;font-family:Roboto;-inkscape-font-specification:'Roboto Bold';fill:#222222;fill-opacity:1"
         id="path4145" /><path
         d="m -580.73711,216.05868 q -5.58447,6.78487 -15.44863,6.78487 -9.08128,0 -13.88288,-5.21913 -4.74941,-5.21913 -4.8538,-15.29205 l 0,-37.00363 15.08329,0 0,36.48172 q 0,8.82033 8.03746,8.82033 7.67213,0 10.54265,-5.32351 l 0,-39.97854 15.13548,0 0,56.47099 -14.19604,0 -0.41753,-5.74105 z"
         style="font-style:normal;font-variant:normal;font-weight:bold;font-stretch:normal;font-size:106.88779449px;font-family:Roboto;-inkscape-font-specification:'Roboto Bold';fill:#222222;fill-opacity:1"
         id="path4147" /><path
         d="m -540.49761,165.32874 0.46972,6.31514 q 6.002,-7.35897 16.23149,-7.35897 10.90799,0 14.97891,8.61156 5.94981,-8.61156 16.96217,-8.61156 9.18567,0 13.67413,5.3757 4.48845,5.32352 4.48845,16.07493 l 0,36.06419 -15.13548,0 0,-36.012 q 0,-4.8016 -1.87889,-6.99364 -1.87888,-2.24422 -6.62829,-2.24422 -6.78487,0 -9.39444,6.47172 l 0.0522,38.77814 -15.08328,0 0,-35.95981 q 0,-4.90598 -1.93108,-7.09802 -1.93108,-2.19203 -6.57611,-2.19203 -6.41953,0 -9.29005,5.32351 l 0,39.92635 -15.08329,0 0,-56.47099 14.14385,0 z"
         style="font-style:normal;font-variant:normal;font-weight:bold;font-stretch:normal;font-size:106.88779449px;font-family:Roboto;-inkscape-font-specification:'Roboto Bold';fill:#222222;fill-opacity:1"
         id="path4149" /></g><g
       style="font-style:normal;font-weight:normal;font-size:47.50568771px;line-height:125%;font-family:Sans;letter-spacing:0px;word-spacing:0px;fill:#000000;fill-opacity:1;stroke:none;stroke-width:1px;stroke-linecap:butt;stroke-linejoin:miter;stroke-opacity:1"
       id="text4783-1"><path
         d="m -731.20627,323.76044 q -1.04382,-2.03546 -1.51354,-5.06256 -5.48009,6.10638 -14.24823,6.10638 -8.29842,0 -13.77851,-4.8016 -5.42789,-4.8016 -5.42789,-12.10838 0,-8.9769 6.62829,-13.7785 6.68049,-4.8016 19.2586,-4.8538 l 6.94144,0 0,-3.23586 q 0,-3.91435 -2.03546,-6.26295 -1.98327,-2.34861 -6.31515,-2.34861 -3.80996,0 -6.002,1.82669 -2.13984,1.8267 -2.13984,5.01037 l -15.08329,0 q 0,-4.90598 3.0271,-9.08129 3.02709,-4.1753 8.55937,-6.52391 5.53228,-2.4008 12.42153,-2.4008 10.43826,0 16.54465,5.27132 6.15857,5.21913 6.15857,14.71795 l 0,24.47772 q 0.0522,8.03746 2.24423,12.16057 l 0,0.88726 -15.23987,0 z m -12.47372,-10.49046 q 3.34025,0 6.15858,-1.46135 2.81833,-1.51355 4.1753,-4.01873 l 0,-9.70759 -5.63666,0 q -11.32551,0 -12.05619,7.8287 l -0.0522,0.88725 q 0,2.81833 1.98327,4.64503 1.98327,1.82669 5.42789,1.82669 z"
         style="font-style:normal;font-variant:normal;font-weight:bold;font-stretch:normal;font-size:106.88779449px;font-family:Roboto;-inkscape-font-specification:'Roboto Bold';fill:#222222;fill-opacity:1"
         id="path4152" /><path
         d="m -708.71181,295.10741 q 0,-12.99564 6.15857,-20.92871 6.21076,-7.93308 16.70122,-7.93308 9.29005,0 14.45699,6.36734 l 0.62629,-5.32352 13.67413,0 0,54.59211 q 0,7.41117 -3.39244,12.89125 -3.34024,5.48009 -9.44662,8.35061 -6.10639,2.87052 -14.30042,2.87052 -6.21077,0 -12.10839,-2.50518 -5.89761,-2.45299 -8.92471,-6.36734 l 6.68049,-9.18567 q 5.63666,6.31515 13.67412,6.31515 6.002,0 9.34224,-3.23586 3.34025,-3.18367 3.34025,-9.08129 l 0,-3.02709 q -5.21913,5.89761 -13.72632,5.89761 -10.1773,0 -16.49245,-7.93308 -6.26295,-7.98527 -6.26295,-21.13747 l 0,-0.6263 z m 15.08328,1.09602 q 0,7.67212 3.07929,12.05619 3.07929,4.33188 8.45499,4.33188 6.88925,0 9.86416,-5.16694 l 0,-23.74705 q -3.0271,-5.16694 -9.75978,-5.16694 -5.42789,0 -8.55937,4.43627 -3.07929,4.43626 -3.07929,13.25659 z"
         style="font-style:normal;font-variant:normal;font-weight:bold;font-stretch:normal;font-size:106.88779449px;font-family:Roboto;-inkscape-font-specification:'Roboto Bold';fill:#222222;fill-opacity:1"
         id="path4154" /><path
         d="m -629.64199,323.76044 -15.13547,0 0,-56.471 15.13547,0 0,56.471 z m -16.02273,-71.08456 q 0,-3.39244 2.24423,-5.58447 2.29642,-2.19204 6.21076,-2.19204 3.86216,0 6.15858,2.19204 2.29642,2.19203 2.29642,5.58447 0,3.44462 -2.34861,5.63666 -2.29642,2.19203 -6.10639,2.19203 -3.80996,0 -6.15857,-2.19203 -2.29642,-2.19204 -2.29642,-5.63666 z"
         style="font-style:normal;font-variant:normal;font-weight:bold;font-stretch:normal;font-size:106.88779449px;font-family:Roboto;-inkscape-font-specification:'Roboto Bold';fill:#222222;fill-opacity:1"
         id="path4156" /><path
         d="m -601.24992,323.76044 -15.13548,0 0,-80.16585 15.13548,0 0,80.16585 z"
         style="font-style:normal;font-variant:normal;font-weight:bold;font-stretch:normal;font-size:106.88779449px;font-family:Roboto;-inkscape-font-specification:'Roboto Bold';fill:#222222;fill-opacity:1"
         id="path4158" /><path
         d="m -562.78492,324.80426 q -12.42153,0 -20.25023,-7.61993 -7.7765,-7.61993 -7.7765,-20.30242 l 0,-1.46135 q 0,-8.50718 3.28805,-15.18767 3.28805,-6.73268 9.29005,-10.33388 6.05419,-3.65339 13.77851,-3.65339 11.58647,0 18.21476,7.30678 6.68049,7.30678 6.68049,20.71995 l 0,6.15857 -35.95981,0 q 0.73068,5.53228 4.38407,8.87253 3.70558,3.34024 9.34224,3.34024 8.71595,0 13.62193,-6.31515 l 7.41117,8.29842 q -3.39244,4.8016 -9.18567,7.51555 -5.79324,2.66175 -12.83906,2.66175 z m -1.72232,-46.34588 q -4.48845,0 -7.30678,3.0271 -2.76614,3.02709 -3.54901,8.66376 l 20.98091,0 0,-1.2004 q -0.10438,-5.01037 -2.71395,-7.72432 -2.60957,-2.76614 -7.41117,-2.76614 z"
         style="font-style:normal;font-variant:normal;font-weight:bold;font-stretch:normal;font-size:106.88779449px;font-family:Roboto;-inkscape-font-specification:'Roboto Bold';fill:#222222;fill-opacity:1"
         id="path4160" /></g><path
       style="fill:#222222;fill-opacity:1;stroke:#20c5df;stroke-width:12.67004776;stroke-miterlimit:4;stroke-dasharray:none;stroke-opacity:1"
       d="m -623.55499,476.97612 c -7.94844,0 -15.47662,-3.7093 -20.3005,-10.1046 l -65.28683,-86.2634 c -8.49661,-11.2009 -6.28566,-27.1526 4.93352,-35.6492 11.23744,-8.5332 27.18915,-6.2856 35.68574,4.9336 l 42.95812,56.717 108.0074,-173.4404 c 7.43681,-11.9135 23.15096,-15.5679 35.10104,-8.1311 11.93178,7.4186 15.60451,23.1327 8.14943,35.0827 l -127.61355,204.8323 c -4.42189,7.1443 -12.07798,11.6028 -20.46494,11.9866 -0.402,0 -0.76744,0 -1.16943,0 z"
       id="path3-6" /></g></svg>