<?xml version="1.0" encoding="UTF-8" standalone="no"?>
<svg
   xmlns:dc="http://purl.org/dc/elements/1.1/"
   xmlns:cc="http://creativecommons.org/ns#"
   xmlns:rdf="http://www.w3.org/1999/02/22-rdf-syntax-ns#"
   xmlns:svg="http://www.w3.org/2000/svg"
   xmlns="http://www.w3.org/2000/svg"
   xmlns:sodipodi="http://sodipodi.sourceforge.net/DTD/sodipodi-0.dtd"
   xmlns:inkscape="http://www.inkscape.org/namespaces/inkscape"
   id="svg2"
   xml:space="preserve"
   enable-background="new 0 0 512 512"
   viewBox="0 0 512 512"
   height="512px"
   width="512px"
   y="0px"
   x="0px"
   version="1.1"
   inkscape:version="0.91 r"
   sodipodi:docname="portfo_data.svg"><sodipodi:namedview
     pagecolor="#ffffff"
     bordercolor="#666666"
     borderopacity="1"
     objecttolerance="10"
     gridtolerance="10"
     guidetolerance="10"
     inkscape:pageopacity="0"
     inkscape:pageshadow="2"
     inkscape:window-width="874"
     inkscape:window-height="480"
     id="namedview25"
     showgrid="false"
     inkscape:zoom="0.4609375"
     inkscape:cx="295.32203"
     inkscape:cy="256"
     inkscape:window-x="0"
     inkscape:window-y="0"
     inkscape:window-maximized="0"
     inkscape:current-layer="svg2" /><metadata
     id="metadata9"><rdf:RDF><cc:Work
         rdf:about=""><dc:format>image/svg+xml</dc:format><dc:type
           rdf:resource="http://purl.org/dc/dcmitype/StillImage" /><dc:title /></cc:Work></rdf:RDF></metadata><defs
     id="defs7" /><g
     style="fill:#20c5df;fill-opacity:1"
     transform="matrix(2.156635,0,0,2.156635,1075.615,-371.70431)"
     id="g4202"><path
       style="color:#000000;clip-rule:nonzero;display:inline;overflow:visible;visibility:visible;opacity:1;isolation:auto;mix-blend-mode:normal;color-interpolation:sRGB;color-interpolation-filters:linearRGB;solid-color:#000000;solid-opacity:1;fill:#20c5df;fill-opacity:1;fill-rule:evenodd;stroke:none;stroke-width:1px;stroke-linecap:butt;stroke-linejoin:miter;stroke-miterlimit:4;stroke-dasharray:none;stroke-dashoffset:0;stroke-opacity:1;color-rendering:auto;image-rendering:auto;shape-rendering:auto;text-rendering:auto;enable-background:accumulate"
       d="m -455.40179,306.1278 61.42969,49.28516 0,42.85742 12.14258,0 12.14257,0 0,-42.85742 61.42773,-49.28516 -73.5703,0 z"
       id="path4329" /><g
       style="font-style:normal;font-variant:normal;font-weight:bold;font-stretch:normal;font-size:40px;line-height:125%;font-family:Roboto;-inkscape-font-specification:'Roboto Bold';letter-spacing:0px;word-spacing:0px;fill:#20c5df;fill-opacity:1;stroke:none;stroke-width:1px;stroke-linecap:butt;stroke-linejoin:miter;stroke-opacity:1"
       id="text4393"><path
         d="m -410.08945,278.64056 q 0,5.89844 -2.4414,9.02344 -2.44141,3.125 -7.14844,3.125 -4.64844,0 -7.10938,-3.0664 -2.46093,-3.06641 -2.51953,-8.78907 l 0,-5.23437 q 0,-5.95703 2.46094,-9.04297 2.48047,-3.08594 7.12891,-3.08594 4.64843,0 7.10937,3.06641 2.46094,3.04687 2.51953,8.76953 l 0,5.23437 z m -5.64453,-5.74218 q 0,-3.53516 -0.97656,-5.13672 -0.95703,-1.6211 -3.00781,-1.6211 -1.99219,0 -2.94922,1.54297 -0.9375,1.52344 -0.9961,4.78516 l 0,6.91406 q 0,3.47656 0.9375,5.17578 0.95704,1.67969 3.04688,1.67969 2.07031,0 2.98828,-1.62109 0.91797,-1.6211 0.95703,-4.96094 l 0,-6.75781 z"
         style=""
         id="path4154" /></g><g
       style="font-style:normal;font-variant:normal;font-weight:bold;font-stretch:normal;font-size:40px;line-height:125%;font-family:Roboto;-inkscape-font-specification:'Roboto Bold';letter-spacing:0px;word-spacing:0px;fill:#20c5df;fill-opacity:1;stroke:none;stroke-width:1px;stroke-linecap:butt;stroke-linejoin:miter;stroke-opacity:1"
       id="text4393-6"><path
         d="m -361.32407,255.11966 -5.64453,0 0,-21.75781 -6.73828,2.08984 0,-4.58984 11.77735,-4.21875 0.60546,0 0,28.47656 z"
         style=""
         id="path4157" /></g><g
       style="font-style:normal;font-variant:normal;font-weight:bold;font-stretch:normal;font-size:40px;line-height:125%;font-family:Roboto;-inkscape-font-specification:'Roboto Bold';letter-spacing:0px;word-spacing:0px;fill:#20c5df;fill-opacity:1;stroke:none;stroke-width:1px;stroke-linecap:butt;stroke-linejoin:miter;stroke-opacity:1"
       id="text4393-6-8"><path
         d="m -319.91641,233.92598 -5.64453,0 0,-21.75781 -6.73828,2.08984 0,-4.58984 11.77734,-4.21875 0.60547,0 0,28.47656 z"
         style=""
         id="path4160" /></g><g
       style="font-style:normal;font-variant:normal;font-weight:bold;font-stretch:normal;font-size:40px;line-height:125%;font-family:Roboto;-inkscape-font-specification:'Roboto Bold';letter-spacing:0px;word-spacing:0px;fill:#20c5df;fill-opacity:1;stroke:none;stroke-width:1px;stroke-linecap:butt;stroke-linejoin:miter;stroke-opacity:1"
       id="text4393-67"><path
         d="m -310.4375,266.59534 q 0,5.89843 -2.44141,9.02343 -2.4414,3.125 -7.14843,3.125 -4.64844,0 -7.10938,-3.0664 -2.46094,-3.06641 -2.51953,-8.78906 l 0,-5.23438 q 0,-5.95703 2.46094,-9.04297 2.48047,-3.08594 7.1289,-3.08594 4.64844,0 7.10938,3.06641 2.46094,3.04688 2.51953,8.76953 l 0,5.23438 z m -5.64453,-5.74219 q 0,-3.53516 -0.97656,-5.13672 -0.95703,-1.62109 -3.00782,-1.62109 -1.99218,0 -2.94921,1.54297 -0.9375,1.52343 -0.9961,4.78515 l 0,6.91406 q 0,3.47657 0.9375,5.17579 0.95703,1.67968 3.04688,1.67968 2.07031,0 2.98828,-1.62109 0.91797,-1.62109 0.95703,-4.96094 l 0,-6.75781 z"
         style=""
         id="path4163" /></g><g
       style="font-style:normal;font-variant:normal;font-weight:bold;font-stretch:normal;font-size:40px;line-height:125%;font-family:Roboto;-inkscape-font-specification:'Roboto Bold';letter-spacing:0px;word-spacing:0px;fill:#20c5df;fill-opacity:1;stroke:none;stroke-width:1px;stroke-linecap:butt;stroke-linejoin:miter;stroke-opacity:1"
       id="text4393-2"><path
         d="m -346.80301,195.88467 q 0,5.89844 -2.44141,9.02344 -2.4414,3.125 -7.14843,3.125 -4.64844,0 -7.10938,-3.0664 -2.46094,-3.06641 -2.51953,-8.78907 l 0,-5.23437 q 0,-5.95703 2.46094,-9.04297 2.48047,-3.08594 7.1289,-3.08594 4.64844,0 7.10938,3.06641 2.46094,3.04687 2.51953,8.76953 l 0,5.23437 z m -5.64453,-5.74218 q 0,-3.53516 -0.97656,-5.13672 -0.95703,-1.6211 -3.00782,-1.6211 -1.99218,0 -2.94921,1.54297 -0.9375,1.52344 -0.9961,4.78516 l 0,6.91406 q 0,3.47656 0.9375,5.17578 0.95703,1.67969 3.04688,1.67969 2.07031,0 2.98828,-1.62109 0.91797,-1.6211 0.95703,-4.96094 l 0,-6.75781 z"
         style=""
         id="path4166" /></g><g
       transform="scale(1,-1)"
       style="font-style:normal;font-variant:normal;font-weight:bold;font-stretch:normal;font-size:40px;line-height:125%;font-family:Roboto;-inkscape-font-specification:'Roboto Bold';letter-spacing:0px;word-spacing:0px;fill:#20c5df;fill-opacity:1;stroke:none;stroke-width:1px;stroke-linecap:butt;stroke-linejoin:miter;stroke-opacity:1"
       id="text4393-62"><path
         d="m -394.28018,-240.46028 q 0,5.89844 -2.44141,9.02344 -2.4414,3.125 -7.14844,3.125 -4.64843,0 -7.10937,-3.06641 -2.46094,-3.06641 -2.51953,-8.78906 l 0,-5.23438 q 0,-5.95703 2.46094,-9.04297 2.48046,-3.08593 7.1289,-3.08593 4.64844,0 7.10938,3.0664 2.46093,3.04688 2.51953,8.76953 l 0,5.23438 z m -5.64453,-5.74219 q 0,-3.53516 -0.97657,-5.13672 -0.95703,-1.62109 -3.00781,-1.62109 -1.99219,0 -2.94922,1.54297 -0.9375,1.52343 -0.99609,4.78515 l 0,6.91407 q 0,3.47656 0.9375,5.17578 0.95703,1.67968 3.04687,1.67968 2.07032,0 2.98829,-1.62109 0.91796,-1.62109 0.95703,-4.96094 l 0,-6.75781 z"
         style=""
         id="path4169" /></g><g
       style="font-style:normal;font-variant:normal;font-weight:bold;font-stretch:normal;font-size:40px;line-height:125%;font-family:Roboto;-inkscape-font-specification:'Roboto Bold';letter-spacing:0px;word-spacing:0px;fill:#20c5df;fill-opacity:1;stroke:none;stroke-width:1px;stroke-linecap:butt;stroke-linejoin:miter;stroke-opacity:1"
       id="text4393-6-7"><path
         d="m -363.35297,297.56558 -5.64453,0 0,-21.75781 -6.73828,2.08984 0,-4.58984 11.77734,-4.21875 0.60547,0 0,28.47656 z"
         style=""
         id="path4172" /></g><g
       style="font-style:normal;font-variant:normal;font-weight:bold;font-stretch:normal;font-size:40px;line-height:125%;font-family:Roboto;-inkscape-font-specification:'Roboto Bold';letter-spacing:0px;word-spacing:0px;fill:#20c5df;fill-opacity:1;stroke:none;stroke-width:1px;stroke-linecap:butt;stroke-linejoin:miter;stroke-opacity:1"
       id="text4393-6-8-3"><path
         d="m -437.09409,267.26102 -5.64453,0 0,-21.75782 -6.73828,2.08985 0,-4.58985 11.77735,-4.21875 0.60546,0 0,28.47657 z"
         style=""
         id="path4175" /></g><g
       style="font-style:normal;font-variant:normal;font-weight:bold;font-stretch:normal;font-size:40px;line-height:125%;font-family:Roboto;-inkscape-font-specification:'Roboto Bold';letter-spacing:0px;word-spacing:0px;fill:#20c5df;fill-opacity:1;stroke:none;stroke-width:1px;stroke-linecap:butt;stroke-linejoin:miter;stroke-opacity:1"
       id="text4393-6-5"><path
         d="m -405.77936,212.71278 -5.64453,0 0,-21.75781 -6.73828,2.08985 0,-4.58985 11.77734,-4.21875 0.60547,0 0,28.47656 z"
         style=""
         id="path4178" /></g></g></svg>