<?xml version="1.0" encoding="UTF-8" standalone="no"?>
<!-- Generator: Adobe Illustrator 16.0.0, SVG Export Plug-In . SVG Version: 6.00 Build 0)  -->

<svg
   xmlns:dc="http://purl.org/dc/elements/1.1/"
   xmlns:cc="http://creativecommons.org/ns#"
   xmlns:rdf="http://www.w3.org/1999/02/22-rdf-syntax-ns#"
   xmlns:svg="http://www.w3.org/2000/svg"
   xmlns="http://www.w3.org/2000/svg"
   xmlns:sodipodi="http://sodipodi.sourceforge.net/DTD/sodipodi-0.dtd"
   xmlns:inkscape="http://www.inkscape.org/namespaces/inkscape"
   version="1.1"
   id="Ebene_1"
   x="0px"
   y="0px"
   width="420"
   height="420"
   viewBox="0 0 419.99999 419.99998"
   enable-background="new 0 0 841.89 595.28"
   xml:space="preserve"
   inkscape:version="0.91 r"
   sodipodi:docname="portrait-01.svg"><metadata
     id="metadata73"><rdf:RDF><cc:Work
         rdf:about=""><dc:format>image/svg+xml</dc:format><dc:type
           rdf:resource="http://purl.org/dc/dcmitype/StillImage" /><dc:title></dc:title></cc:Work></rdf:RDF></metadata><defs
     id="defs71" /><sodipodi:namedview
     pagecolor="#ffffff"
     bordercolor="#666666"
     borderopacity="1"
     objecttolerance="10"
     gridtolerance="10"
     guidetolerance="10"
     inkscape:pageopacity="0"
     inkscape:pageshadow="2"
     inkscape:window-width="1920"
     inkscape:window-height="1027"
     id="namedview69"
     showgrid="false"
     inkscape:zoom="0.39645207"
     inkscape:cx="424.72857"
     inkscape:cy="297.64001"
     inkscape:window-x="1024"
     inkscape:window-y="0"
     inkscape:window-maximized="1"
     inkscape:current-layer="Ebene_1" /><path
     d="m 254.90892,266.13838 c -0.197,1.091 -0.671,2.215 -0.545,3.267 0.745,6.181 1.615,12.347 2.484,18.512 0.111,0.787 0.458,1.542 0.962,3.177 1.409,-1.797 2.436,-3.105 3.462,-4.414 0.306,0.231 0.611,0.463 0.917,0.695 -0.764,1.183 -1.329,2.584 -2.334,3.503 -2.017,1.844 -2.635,3.84 -1.842,6.459 0.394,1.301 0.367,2.729 0.604,4.713 0.913,-0.867 1.653,-1.276 1.93,-1.895 0.551,-1.229 0.473,-2.864 2.734,-1.812 0.42,0.195 1.909,-1.457 2.64,-2.451 3.438,-4.681 6.806,-9.413 8.721,-14.989 0.266,-0.774 0.689,-1.494 1.424,-3.056 -0.074,4.722 -1.685,8.074 -3.567,11.131 -1.946,3.161 -1.733,6.238 -1.199,10.377 6.583,-8.403 12.243,-16.388 14.826,-26.165 -0.922,11.043 -5.881,20.23 -13.901,28.762 3.34,-0.46 5.409,-1.471 6.933,-3.452 1.465,-1.907 2.813,-3.904 4.252,-5.832 2.954,-3.954 5.736,-8.064 8.996,-11.751 1.469,-1.662 2.394,-3.382 3.025,-5.362 1.913,-6.007 2.34,-12.21 2.307,-18.466 -0.008,-1.376 -10e-4,-2.752 0.407,-4.106 1.567,8.211 0.82,16.283 -1.65,24.253 -2.478,7.993 -8.046,14.102 -12.759,20.824 3.475,-1.077 6.4,-2.896 8.35,-5.821 2.818,-4.23 5.337,-8.659 8.028,-12.975 0.934,-1.497 1.134,-3.502 3.208,-4.269 0.504,-0.187 0.784,-1.408 0.882,-2.189 0.4,-3.198 0.689,-6.409 1.005,-9.478 0.988,2.413 1.158,6.642 0.428,10.547 -0.256,1.375 -0.389,2.772 -0.577,4.161 -0.611,1.111 -1.223,2.221 -1.834,3.33 0.318,0.113 0.636,0.227 0.954,0.34 0.265,-1.246 0.53,-2.492 0.795,-3.738 0.545,-0.91 1.281,-1.757 1.605,-2.739 2.37,-7.183 3.581,-14.533 2.99,-22.126 -0.087,-1.115 -0.012,-2.244 -0.012,-3.541 1.903,5.556 1.79,11.718 -0.188,20.69 -1.517,6.879 -4.291,13.263 -7.518,19.55 4.53,-3.87 8.479,-8.132 11.602,-13.105 -3.289,13.332 -12.79,21.497 -24.609,28.614 9.827,-1.362 18.579,-3.184 24.002,-11.742 0.5,0.529 0.776,0.819 1.268,1.339 8.468,-11.065 15.936,-22.563 19.755,-36.229 -0.118,0.991 -0.132,2.008 -0.371,2.97 -2.172,8.755 -6.354,16.58 -11.113,24.16 -1.007,1.604 -1.431,3.567 -2.183,5.341 -0.881,2.075 -1.661,4.218 -2.776,6.164 -3.875,6.762 -9.312,12.05 -15.824,16.271 -1.157,0.75 -2.307,1.513 -3.195,2.922 1.284,-0.393 2.642,-0.631 3.841,-1.202 7.662,-3.65 13.472,-9.154 17.015,-16.985 1.364,-3.015 3.055,-5.881 4.782,-8.713 -1.084,6.152 -2.887,11.994 -6.422,17.164 -1.342,0.981 -2.599,2.026 -3.185,3.567 0.255,0.19 0.51,0.381 0.765,0.571 0.918,-1.271 1.836,-2.544 2.754,-3.815 10.766,-12.592 18.049,-26.744 18.386,-43.631 0.194,-9.72 -0.435,-19.455 -0.711,-29.851 2.064,8.462 2.432,16.514 2.626,24.586 0.195,8.116 -0.524,16.098 -3.115,23.867 -2.603,7.808 -6.866,14.748 -11.325,21.602 0.255,0.184 0.511,0.368 0.767,0.552 2.155,-2.639 4.502,-5.146 6.43,-7.941 5.087,-7.377 7.862,-15.747 8.804,-24.534 0.978,-9.115 1.115,-18.321 1.654,-28.119 0,2.249 -0.042,3.921 0.009,5.59 0.11,3.627 -0.214,7.201 0.682,10.885 0.666,2.736 -0.239,5.887 -0.598,8.834 -1.478,12.131 -4.739,23.618 -13.018,33.025 -2.499,2.84 -5.556,5.198 -8.425,7.699 -2.014,1.756 -4.143,3.381 -6.058,5.308 3.234,-0.237 5.606,-2.143 7.826,-4.127 7.902,-7.062 14.055,-15.479 18.839,-24.916 2.724,-5.374 4.035,-11.136 4.806,-17.065 0.203,-1.554 -0.262,-3.324 1.686,-4.448 0.567,-0.328 0.375,-2.118 0.384,-3.238 0.035,-4.79 0.015,-9.579 0.411,-14.377 2.633,8.625 2.071,17.32 0.73,26.103 -1.354,8.865 -4.521,17.061 -8.495,25.026 6.293,-8.179 10.427,-17.282 11.965,-27.495 1.499,-9.951 2.023,-19.909 -0.136,-29.867 3.664,9.187 3.421,18.703 2.41,29.025 2.308,-4.079 2.937,-7.901 3.168,-11.693 0.23,-3.79 0.155,-7.669 -0.406,-11.415 -0.576,-3.851 -1.902,-7.589 -2.912,-11.425 7.159,5.073 11.746,23.271 9.553,37.73 2.118,-2.645 3.951,-8.553 4.103,-13.914 0.207,-7.351 -1.944,-14.189 -4.474,-21.011 -4.845,-13.065 -13.043,-23.983 -21.473,-34.812 -14.416,-18.516 -25.193,-39.027 -31.772,-61.509 -5.419,-18.519 -12.631,-36.326 -19.681,-54.217997 -1.394,-3.538005 -3.373,-6.842005 -4.993,-10.295005 -0.708,-1.507 -1.192,-3.12 -1.778,-4.685 2.962,4.441 6.236,8.709 8.805,13.367 2.932,5.317005 5.228,10.985001 7.816,16.493002 4.646,9.885 8.413,20.101 11.391,30.602 6.432,22.682 16.689,43.578 29.566,63.229 5.119,7.812 10.624,15.371 15.777,23.161 3.353,5.068 6.888,10.108 9.475,15.572 8.39,17.723 6.54,34.326 -6.542,49.295 -2.701,3.091 -5.478,6.132 -8.417,8.991 -1.597,1.555 -3.44,3.219 -5.479,3.861 -2.461,0.775 -3.709,2.403 -4.953,4.271 -4.672,7.012 -10.757,12.031 -18.695,15.296 -5.882,2.421 -11.841,3.575 -18.019,4.234 -6.783,0.723 -13.052,-1.913 -19.52,-3.173 -1.655,-0.322 -3.095,-1.755 -4.929,-2.854 0.717,-0.239 0.966,-0.421 1.117,-0.359 7.928,3.266 7.942,3.285 14.397,-2.439 2.842,-2.52 5.607,-5.126 8.229,-8.128 -8.888,3.297 -18.112,3.241 -27.479,3.83 0.348,-3.211 3.784,-4.046 4.998,-7.07 -5.44,1.917 -10.172,4.928 -15.88,5.465 2.921,-1.829 3.679,-4.33 2.89,-7.582 -3.259,1.976 -4.165,6.967 -8.988,6.941 -0.749,2.827 0.099,5.328 2.339,7.124 4.956,3.974 9.808,8.165 15.169,11.521 6.341,3.971 13.204,7.102 19.784,10.7 5.09,2.784 10.398,5.308 15.066,8.694 7.596,5.511 16.295,7.651 25.151,9.497 11.346,2.364 22.746,4.468 34.098,6.8 4.935,1.013 9.833,2.228 14.7,3.53 1.682,0.45 3.218,1.446 4.583,2.667 -6.606,-1.276 -13.212,-2.556 -19.819,-3.827 -9.996,-1.922 -20.005,-3.783 -29.985,-5.784 -4.294,-0.86 -8.523,-2.042 -12.798,-3.01 -2.051,-0.464 -4.245,-0.482 -6.189,-1.202 -5.024,-1.86 -10.096,-3.7 -14.874,-6.096 -6.954,-3.488 -13.684,-7.427 -20.48,-11.227 -9.425,-5.271 -18.329,-11.232 -25.851,-20.526 0.252,2.918 0.403,4.88 0.595,6.838 0.196,1.999 0.431,3.993 0.255,6.06 -2.496,-3.419 -3.765,-7.279 -4.435,-11.253 -1.315,-7.811 -2.42,-15.659 -3.442,-23.514 -1.205,-9.254 -2.229,-18.53 -3.356,-28.001 -0.826,0.319 -1.385,0.536 -2.308,0.894 0,-0.958 -0.208,-1.807 0.033,-2.499 1.95,-5.606 3.857,-11.235 6.095,-16.729 0.478,-1.173 2.131,-2.304 3.444,-2.621 4.619,-1.119 5.875,-2.912 4.572,-7.375 -0.157,-0.538 -0.573,-1.042 -0.589,-1.571 -0.051,-1.724 0.796,-3.008 2.368,-3.666 1.473,-0.617 2.399,0.142 3.022,1.479 0.35,0.75 0.821,1.444 1.315,2.295 7.96,-6.582 14.441,-13.099 17.435,-22.431 3.083,-9.612 5.361,-19.375 5.917,-29.468 0.155,-2.8 0.001,-5.715 -0.642,-8.429 -0.497,-2.096 -1.62,-4.299 -3.095,-5.856 -3.267,-3.448 -6.619,-3.484 -10.023,-0.167 -1.878,1.831 -3.431,4.104 -4.726,6.406 -4.229,7.521 -8.056,15.288 -13.675,21.928 -2.865,3.386 -6.21,6.215 -10.496,7.672 -1.238,0.421 -2.564,0.581 -3.978,0.365 2.465,-1.59 6.065,-2.661 7.095,-4.908 1.177,-2.57 3.322,-4.935 3.357,-8.134 0.038,-3.569 -0.397,-6.998 -1.302,-10.144 -2.664,-0.37 -4.985,-0.964 -7.298,-0.931 -1.962,0.028 -4.338,-0.354 -5.512,2.167 -0.236,0.507 -1.098,0.725 -1.674,1.071 -1.656,0.994 -3.704,1.653 -4.892,3.046 -2.66,3.118 -6.104,4.65 -9.849,5.358 -14.24,2.696 -28.575,4.131 -43.093,2.613 -7.664,-0.801 -15.021,-2.683 -22.11,-5.666 -0.519,-0.219 -1.03,-0.76 -1.51,-0.722 -4.038,0.319 -4.805,-2.68 -5.613,-5.524 -1.469,-5.171 -2.798,-10.381 -4.228,-15.563 -1.095,-3.967 -2.748,-5.336 -6.85,-5.612 -1.973,-0.133 -3.959,-0.112 -5.938,-0.076 -0.519,0.009 -1.032,0.337 -1.998,0.676 0.361,1.121 0.573,2.171 1.022,3.106 1.789,3.725 2.157,7.621 1.356,11.607 -1.604,7.971 -4.629,15.438 -8.452,22.576 -0.921,1.719 -2.223,3.293 -3.597,4.69 -0.885,0.9 -2.223,1.354 -3.775,1.61 4.363,-5.694 7.564,-11.804 10.024,-19.147 -1.562,0.398 -2.544,0.656 -3.53,0.897 -10.981,2.692 -21.91,5.594 -33.370998,5.515 -4.9,-0.034 -9.804,0.466 -15.072,0.742 -0.685,3.414 -1.5,6.415 -1.861,9.47 -1.243,10.512 -1.13,20.994 2.67,31.025 3.054,8.059 6.442,16.003 9.988,23.859 6.051,13.405 12.095998,26.823 18.636998,39.991 3.191,6.425 7.041,12.646 11.404,18.337 5.856,7.64 14.252,11.067 23.704,12.694 6.75,1.162 13.236,0.11 19.827,-0.482 12.545,-1.128 23.375,-7.279 34.742,-11.878 15.08,-6.101 25.818,-17.619 36.494,-29.171 2.37,-2.564 3.972,-5.835 5.94,-8.772 0.817,-1.221 1.668,-2.418 2.732,-3.956 1.379,2.198 0.906,3.683 0.361,5.329 -3.113,9.413 -8.017,17.958 -14.386,25.34 -10.636,12.329 -21.97,23.983 -36.544,32.01 -7.394,4.071 -14.235,9.146 -21.055,14.282 4.795,-2.426 9.589,-4.851 14.384,-7.275 0.138,0.231 0.275,0.463 0.414,0.695 -1.229,0.801 -2.443,1.623 -3.688,2.397 -6.492,4.036 -13.009,8.033 -19.473,12.114 -1.041,0.657 -2.721,1.089 -2.143,3.392 5.746,-3.299 11.275,-6.474 16.804,-9.647 0.194,0.329 0.389,0.658 0.583,0.987 -5.584,3.328 -11.168,6.656 -17.025,10.146 2.886,16.203 6.662,32.226 8.168,48.588 -0.314,0.088 -0.628,0.177 -0.943,0.265 -0.861,-2.162 -1.99,-4.259 -2.536,-6.498 -2.411,-9.89 -4.663,-19.818 -6.954,-29.737 -0.636,-2.755 -1.084,-5.561 -1.854,-8.275 -0.606,-2.145 -1.573,-4.187 -2.449,-6.453 -3.429,2.648 -6.548,5.241 -9.852,7.573 -9.126,6.443 -17.873,13.62 -27.628,18.928 -10.401,5.659 -20.054998,12.144 -29.225998,19.503 -0.705,0.565 -1.541,0.967 -2.769,0.909 1.392,-1.532 2.706,-3.144 4.188,-4.584 5.828,-5.663 12.310998,-10.479 19.611998,-14.044 13.853,-6.762 25.769,-16.374 38.046,-25.463 2.268,-1.679 4.424,-3.508 6.938,-5.513 -1.763,-8.306 -4.652,-16.362 -7.355,-24.566 -3.769,-0.669 -7.396,-1.188 -10.967,-1.968 -13.386,-2.925 -23.08,-10.285 -27.936,-23.435 -0.977,-2.646 -2.232,-5.188 -3.382,-7.83 -9.907998,0.075 -16.156998,-5.944 -21.906998,-13.071 0.621,3.273 2.47,6.8 4.562,8.408 2.643,2.03 5.377,3.94 7.772,6.478 -0.903,-0.071 -1.807,-0.142 -2.752,-0.217 -0.156,0.716 -0.297,1.36 -0.479,2.196 -0.704,-0.38 -1.399,-0.597 -1.883,-1.042 -5.084,-4.684 -10.123,-9.417 -15.208,-14.1 -0.678,-0.624 -1.57,-1.011 -2.313,-1.573 -0.741,-0.562 -1.762,-1.069 -2.068,-1.837 -1.469,-3.681 -4.526,-5.892 -7.125,-8.641 -9.662,-10.222 -16.101,-21.964 -14.418,-36.668 0.96,-8.398 3.938,-16.254 8.105,-23.544 3.647,-6.381 7.884,-12.423 11.776,-18.667 1.926,-3.09 3.664,-6.298 5.643,-9.722 -2.939,-1.36 -5.252,-2.716 -7.746,-3.497 -2.073,-0.649 -2.831,-1.865 -3.449,-3.778 -2.379,-7.355 -4.95,-14.649 -7.593,-22.386 5.369,-4.634 12.809,-5.392 19.938,-7.201 -2.233,-23.411 -1.02,-46.076 8.894,-67.702002 -3.758,2.062005 -9.295,8.113001 -13.039,13.966001 -3.637,5.686001 -5.149,11.831001 -4.325,18.590001 -2.764,-3.751 -3.023,-7.837 -1.568,-12.03 0.804,-2.318 0.957,-4.58 1.048,-7.012001 0.114,-3.032 0.812,-6.205 2.001,-9.000996 3.068,-7.220005 7.279,-13.748005 13.254,-18.994005 0.39,-0.343 0.669,-0.813 1.338,-1.646 -7.829,-1.895 -13.61,-6.303 -17.773,-12.562 -2.4,-3.609 -4.414,-7.607 -5.848,-11.694 -1.922,-5.478 -0.46,-10.616 3.352,-15.004 0.503,-0.579 1.271,-0.929 2.38,-1.014 -0.58,1.05 -1.268,2.055 -1.72,3.157 -1.432,3.492 0.353,6.743 4.05,6.934 2.644,0.137 5.502,0.172 7.946,-0.671 5.319,-1.835 10.582,-3.971 15.593,-6.521 5.54,-2.819 10.718998,-6.337 16.157998,-9.364 3.823,-2.128 7.739,-4.131 11.755,-5.862 8.39,-3.616 16.726,-4.133 24.255,1.193 17.452,-8.36 34.898,-8.492 52.804,-3.289 19.51,5.67 37.54,14.165 53.662,26.627 9.635,7.448 19.662,14.409 28.239,23.139 1.676,1.707 3.195,3.568 4.786,5.357 -0.406,-0.064 -0.902,0.001 -1.205,-0.211 -11.94,-8.363 -24.108,-16.427 -35.733,-25.21 -18.634,-14.08 -39.366,-23.461 -62.035,-28.429 -11.608,-2.543 -23.356,-1.999 -34.731,2.064 -0.798,0.285 -1.574,0.635 -2.34,0.998 -0.243,0.115 -0.421,0.366 -0.772,0.685 0.891,1.821 1.812,3.704 2.734,5.586 -0.252,0.17 -0.504,0.341 -0.756,0.511 -0.793,-0.846 -1.571,-1.708 -2.382,-2.537 -5.378,-5.493 -11.827,-7.583 -19.352,-5.848 -5.842,1.348 -11.19,3.949 -16.349,6.947 -5.997,3.486 -11.952998,7.043 -17.982998,10.471 -2.455,1.396 -4.992,2.692 -7.606,3.753 -6.436,2.611 -12.958,4.931 -20.177,3.125 -0.292,3.163 1.785,4.301 3.719,5.385 4.948,2.772 10.319,2.743 15.699,1.908 3.457,-0.536 6.857,-1.44 10.719,-2.275 -5.375,4.053 -12.557,5.097 -24.464,3.98 7.074,3.827 14.949,2.511 22.962,3.072 -3.185,1.631 -9.7,2.132 -15.762,1.417 -5.626,-0.664 -8.61,-2.355 -13.646,-7.37 0.499,1.058 0.942,2.147 1.514,3.164 0.554,0.984 1.222,1.907 1.87,2.835 6.699,9.589 15.921,12.913 27.352,11.453 8.557998,-1.093 16.463998,-3.854 23.994998,-7.917 2.824,-1.524 5.688,-2.97 8.728,-4.174 -2.133,3.701 -6.073,5.24 -8.978,8.183 2.761,-1.306 5.526,-2.601 8.278,-3.925 0.636,-0.306 1.185,-0.836 1.844,-1.043 4.362,-1.37 7.676,-3.432 8.264,-8.678 0.19,-1.702 2.371,-3.181 3.589,-4.695 2.014,1.22 1.222,2.563 1,3.722 -1.418,7.364 -0.725,14.658 0.605,21.942 1.082,5.922 3.556,11.283 6.475,16.572 -2.008,-0.952 -3.7,-1.896 -4.767,-4.256 -1.31,-2.896 -3.5,-5.394 -5.649,-8.565 0.656,6.366 2.963,11.496 6.26,16.203005 5.903,8.428996 13.901,14.454997 22.818,19.320997 6.757,3.688 14.061,5.912 21.573,7.474 0.689,0.143 1.403,0.206 2.107,0.224 0.38,0.009 0.764,-0.157 1.465,-0.316 -2.869,-1.108 -5.456,-2.108 -8.042,-3.107 0.056,-0.282 0.112,-0.564 0.167,-0.846 10.223,3.749 20.546,6.103 31.295,2.45 -2.88,0 -5.76,0 -8.64,0 0.005,-0.116 0.009,-0.232 0.013,-0.348 0.606,-0.156 1.211,-0.312 1.817,-0.469 0,-0.194 0.001,-0.389 0.002,-0.583 -0.907,-0.139 -1.96,-0.648 -2.697,-0.357 -4.222,1.665 -8.345,-0.386 -12.523,-0.755 1.412,-0.034 2.827,-0.149 4.233,-0.079 1.659,0.083 3.31,0.328 5.11,0.126 -7.868,-4.092 -15.964,-7.691 -21.867,-14.585001 11.491,8.042001 23.794,13.741001 38.232,14.072001 -14.694,-7.167 -25.141,-18.624001 -33.285,-32.407002 -1.702,-2.88 -3.449,-5.78 -3.963,-9.596 1.901,0.598 2.062,2.095 2.678,3.196 7.477,13.351 17.36,24.443001 30.583,32.335002 6.905,4.122 14.37,6.61 22.452,7.096 0.95,0.058 1.888,0.308 3.234,0.538 -1.42,1.652 -2.971,1.874 -4.559,1.867 -1.981,-0.009 -3.961,-0.202 -5.942,-0.197 -3.948,0.009 -7.779,0.127 -11.474,2.174 -2.631,1.458 -5.806,1.935 -9.15,2.979 6.852,9.876 14.978,17.832 26.179,22.174 -14.813,-16.333 -14.813,-16.333 -15.764,-21.564 7.925,12.804 17.331,23.062 32.143,26.717 -2.766,-3.905 -7.268,-6.301 -9.038,-11.071 5.004,3.932 9.622,8.358 16.183,11.7 -5.412,-6.906 -10.208,-13.029 -14.816,-18.91 1.001,-1.123 1.642,-1.84 2.585,-2.898 3.22,9.084 9.464,15.623 18.012,21.258 -0.788,-1.396 -1.149,-2.188 -1.644,-2.888 -4.473,-6.323 -7.378,-13.38 -9.51,-20.754 -2.94,-10.17 -5.696,-20.394 -7.824,-30.897001 0.485,0.957 1.087,1.874 1.438,2.878 2.708,7.742001 5.201,15.564001 8.097,23.235001 2.345,6.208 4.787,12.434 7.851,18.304 4.424,8.479 11.3,14.423 20.603,17.272 0.52,0.159 1.069,0.22 2.255,0.457 -0.405,-4.5 -0.779,-8.668 -1.156,-12.834 -0.135,-1.5 -1.287,-3.021 0.765,-4.38 0.562,-0.373 0.138,-2.422 -0.027,-3.677 -0.957,-7.289 -1.977,-14.569 -2.962,-21.854 -0.092,-0.681 -0.095,-1.374 0.519,-2.193 0.61,2.604 1.43,5.18 1.788,7.818 0.894,6.586 1.359,13.235 2.411,19.793 0.969,6.05 2.264,12.075 4.797,17.725 0.323,0.719 0.978,1.29 1.522,1.985 -1.617,3.719 -1.857,7.969 -0.113,11.498 2.376,4.805 3.184,9.705 2.901,14.796 -0.281,5.068 -1.283,10.093 -1.858,15.149 -0.653,5.739 -1.182,11.492 -1.761,17.197 -0.082,-1.698 -0.169,-3.516 -0.287,-5.969 -3.417,4.756 -2.875,9.792 -3.752,14.625 -0.15,-1.233 -0.302,-2.465 -0.489,-3.993 -2.273,2.953 -4.474,5.517 -6.291,8.329 -0.658,1.018 -0.593,2.639 -0.526,3.968 0.677,13.442 -3.003,25.667 -10.223,36.938 4.854,-12.099 9.402,-24.256 8.301,-37.708 -1.923,15.417 -7.801,29.293 -15.669,42.405 -0.263,-0.094 -0.526,-0.187 -0.789,-0.28 0.392,-1.115 0.722,-2.257 1.187,-3.341 2.731,-6.37 5.437,-12.751 8.263,-19.079 2.305,-5.163 1.462,-10.682 1.752,-16.321 -0.432,0.481 -1.201,0.939 -1.237,1.449 -0.147,2.067 -0.225,4.165 -0.042,6.226 0.345,3.893 -2.181,8.615 -6.255,10.153 -2.286,0.863 -3.298,2.25 -4.142,4.303 -0.855,2.081 -1.976,4.082 -3.209,5.97 -0.735,1.126 -1.91,1.965 -2.887,2.932 1.689,-3.392 3.424,-6.763 5.035,-10.192 0.381,-0.812 0.607,-1.87 0.447,-2.729 -0.347,-1.868 -0.989,-3.682 -1.647,-5.999 -0.87,0.561 -2.267,0.953 -2.645,1.8 -1.155,2.59 -4.303,4.619 -2.721,8.552 1.046,-0.738 1.812,-1.278 3.218,-2.271 -0.976,2.472 -1.68,4.257 -2.385,6.042 -0.324,-0.21 -0.647,-0.421 -0.971,-0.632 -0.073,0.121 -0.146,0.241 -0.304,0.503 0.607,1.738 -0.76,4.127 1.58,5.541 z m -173.467998,-94.438 c 0.443,0.295 0.886,0.59 1.531,1.02 0.208,-0.973 0.371,-1.736 0.434,-2.03 -3.35,-2.744 -6.397,-5.142 -9.329,-7.674 -2.013,-1.738 -3.981,-2.287 -6.21,-0.5 -2.758,-3.428 -1.816,-3.35 -8.624,-0.773 0.924,1.646 0.114,4.389 3.303,4.408 l 0.063,-0.011 c -0.984,1.062 -1.568,2.009 -0.987,3.714 1.366,4.007 2.486,8.114 3.43,12.243 0.443,1.937 1.329,3.013 3.211,3.352 7.917,1.423 15.786,3.315 23.766,4.146 10.410998,1.084 20.429998,-2.174 30.532998,-4.133 1.889,-0.366 3.669,-1.295 5.576,-1.992 0.601,-7.085 1.181,-13.932 1.793,-21.155 -1.265,0 -2.466,0.283 -3.418,-0.083 -0.884,-0.339 -1.466,-1.413 -2.255,-2.075 -0.288,-0.24 -0.787,-0.288 -1.196,-0.31 -3.414,-0.182 -6.829,-0.338 -10.446,-0.511 5.145,4.61 8.271,10.718 6.063,12.062 -0.879,-0.463 -1.848,-0.975 -2.941,-1.552 -1.514,2.67 -4.238,3.506 -6.866,4.58 -2.958,1.209 -5.466,0.757 -7.828,-1.359 -2.508998,-2.248 -3.108998,-4.951 -2.214998,-8.078 0.296,-1.039 0.724,-2.039 1.249998,-3.496 -5.486998,1.11 -7.583998,5.013 -9.308998,8.641 -1.45,-0.68 -2.642,-1.24 -4.134,-1.939 0.711,-0.397 1.264,-0.706 1.925,-1.075 -0.383,-0.224 -0.972,-0.389 -0.995,-0.611 -0.116,-1.146 -0.498,-2.544 -0.002,-3.399 0.606,-1.046 1.887,-1.914 3.065,-2.36 1.458,-0.551 3.109,-0.59 5.121,-0.925 -1.224,-0.918 -1.919,-1.439 -3.027,-2.271 2.937,0 5.22,0 8.056998,0 -6.852998,-2.245 -27.353998,-1.21 -33.131998,2.424 5,0.601 9.804,1.179 14.709,1.768 -0.257,0.873 -0.257,1.208 -0.424,1.374 -0.399,0.393 -0.876,0.707 -1.323,1.052 -1.023,-2.092 -2.721,-1.727 -4.391,-1.465 -0.045,0.287 -0.09,0.573 -0.135,0.86 1.535,0.172 3.07,0.345 4.604,0.517 0.905,1.381 1.81,2.762 2.789,4.256 0.302,-0.807 0.56,-1.496 1.111,-2.974 0.51,4.51 -0.095,7.959 -1.847,11.905 -0.196,-1.384 -0.302,-2.124 -0.423,-2.981 -1.146,0.211 -2.17,0.401 -3.466,0.64 0,-1.037 0,-1.72 0,-2.405 1.099,0.471 2.225,1.016 2.589,-0.825 z m -14.583,88.654 c -0.222,2.62 -0.774,5.265 -0.595,7.857 0.321,4.62 1.524,9.047 4.674,12.719 -0.432,-2.778 -1.281,-5.445 -1.846,-8.171 -0.853,-4.117 -1.507,-8.276 -2.246,-12.417 -0.97,-3.016 -1.053,-10.102 -0.158,-13.53 1.263,14.423 3.308,23.256 7.116,29.949 0.167,-6.332 -3.627,-11.784 -1.701,-17.728 1.812,6.685 3.444,13.344 6.586,19.546 4.075,8.043 8.842,13.898 13.141,15.373 -1.31,-1.595 -2.586,-2.918 -3.596,-4.42 -3.308,-4.92 -6.593,-9.859 -9.723,-14.894 -0.953,-1.532 -2.168,-3.54 -1.883,-5.072 0.607,-3.25 -1.089,-5.637 -1.975,-8.344 -1.011,-3.091 -2.116,-6.152 -3.085,-9.255 -0.573,-1.836 -0.481,-2.392 0.146,-4.806 2.764,9.052 5.74,17.727 11.125,25.324 -0.634,-3.387 -3.201,-6.053 -3.388,-9.66 5.44,6.142 8.917,13.811 15.329,19.166 -0.097,-1.2 -0.443,-2.24 -0.91,-3.224 -2.85,-6.008 -5.662,-12.035 -8.612,-17.994 -4.402,-8.893 -8.422,-17.93 -10.998,-27.547 -3.856,-14.402 -2.574,-28.485 2.341,-42.593 -1.261,-0.837 -2.21,-0.387 -2.643,1.43 -1.212,5.085 -4.126,9.315 -7.139,13.399 -6.534,8.857 -11.634,18.406 -14.733,28.976 -1.811,6.177 -3.028,12.523 -1.073,18.819 1.414,4.555 3.637,8.859 5.511,13.271 0.165,0.389 0.39,0.762 0.65,1.093 0.253,0.324 0.588,0.585 0.886,0.873 -1.886,-5.441 -4.39,-10.466 -4.39,-17.239 2.23,6.381 3.413,12.15 7.18,17.158 -1.366,-7.024 -3.012,-13.6 -3.839,-20.276 -0.821,-6.623 -0.365,-13.298 1.75,-19.551 -0.118,6.072 -0.438,12.277 -0.304,18.47 0.151,7.041 2.108,14.427 4.189,17.504 0.393,-3.437 -0.57,-7.146 2.02,-10.497 1.238,2.348 -0.02,4.903 2.193,6.291 z m 16.878,-117.366 c 0,2.02 -0.119,3.991 0.03,5.941 0.193,2.528 0.879,3.171 3.484,3.127 9.544,-0.161 18.866998,1.307 28.187998,3.226 4.93,1.015 10.043,1.464 15.083,1.535 5.071,0.072 10.152,-0.9 15.232,-0.942 5.608,-0.046 11.183,0.369 16.597,-1.728 1.806,-0.699 3.875,-0.774 5.84,-1 18.943,-2.178 37.875,-2.182 56.71,0.936 4.974,0.823 9.987,2.156 14.609,4.129 3.577,1.527 6.892,1.695 10.709,1.347 -0.569,-3.651 -2.696,-6.195 -4.344,-8.945 -0.306,-0.51 -1.141,-0.759 -1.779,-1.005 -5.38,-2.074 -10.771,-4.119 -16.349,-6.245 0.17,0.865 0.337,1.716 0.599,3.052 -1.32,-0.647 -2.212,-1.085 -3.429,-1.683 2.093,3.737 2.093,3.737 1.106,5.743 -0.316,-0.277 -0.597,-0.54 -0.893,-0.781 -2.616,-2.122 -4.995,-5.477 -7.914,-6.043 -3.529,-0.684 -6.325,-2.449 -9.482,-3.621 -2.767,-1.026 -5.465,-2.695 -8.303,-2.979 -5.914,-0.591 -11.921,-0.305 -17.631,1.623 -7.501,2.532 -15.078,5.035 -20.278,11.642 -0.176,0.224 -0.765,0.124 -1.527,0.222 0.062,-0.909 -0.093,-1.746 0.196,-2.378 2.115,-4.613 5.227,-8.499 9.634,-11.002 4.164,-2.366 8.476,-4.604 12.964,-6.232 6.896,-2.502 13.971,-3.27 21.142,-0.513 2.852,1.096 5.949,1.553 9.498,2.443 -2.968,-4.621 -5.589,-8.701 -8.05,-12.533 -3.373,-0.167 -6.334,-0.337 -9.298,-0.458 -19.237,-0.781 -35.71,-7.955 -49.417,-21.442001 -6.843,-6.732 -11.498,-14.757001 -13.043,-24.283001 -0.832,-5.132 -0.961,-10.378 -1.419,-15.722 -0.383,0.087 -0.956,0.107 -1.42,0.341 -6.286,3.163 -12.682,5.947 -17.981,10.958 -9.607,9.085 -17.574998,19.022005 -21.786998,31.826002 -3.922,11.92 -6.244,24.042 -6.786,36.868 1.921,-0.721 3.595,-1.42 5.315,-1.981 4.852,-1.584 9.753,-3.139 14.937998,-2.033 5.717,1.219 11.026,3.533 15.703,7.032 1.382,1.034 2.265,2.811 3.166,4.369 0.287,0.497 -0.108,1.387 -0.277,2.839 -5.697,-5.208 -11.354,-9.117 -18.675,-9.367 -6.985998,-0.239 -13.766998,0.748 -20.660998,3.717 z m 110.089998,48.418 c 9.718,0.426 19.479,-1.304 29.237,-2.939 1.552,-0.26 3.622,-0.9 4.348,-2.058 4.951,-7.883 6.248,-16.24 2.347,-25.034 -0.71,-1.601 -1.784,-2.323 -3.54,-2.502 -8.714,-0.884 -17.397,-2.246 -26.131,-2.736 -14.282,-0.802 -28.572,-0.594 -42.667,2.372 -5.092,1.071 -5.765,1.868 -6.277,6.889 -0.111,1.088 0.074,2.256 0.358,3.325 1.09,4.095 2.495,8.12 3.362,12.258 0.737,3.518 2.732,5.191 6.045,6.119 10.696,2.997 21.556,4.577 32.918,4.306 z M 81.106922,82.042378 c 5.664,-3.848 10.231,-9.161 17.543,-9.938 -1.597,1.57 -3.338,2.949 -5.188,4.16 -3.289,2.152 -5.418,5.072 -7.185,8.616 -5.519,11.072001 -7.831,23.016002 -9.696,35.020002 -1.524,9.811 -1.292,19.763 -0.103,29.649 0.127,1.057 0.532,2.081 0.825,3.185 1.302,-0.237 2.229,-0.406 3.289,-0.598 -0.273,-1.788 -0.549,-3.295 -0.723,-4.813 -0.158,-1.373 -3.016,-1.764 -1.197,-3.972 0.871,-1.057 1.107,-2.777 1.288,-4.238 0.71,-5.755 1.015,-11.571 1.961,-17.283 2.526,-15.254 8.329,-29.328001 16.029,-42.664002 1.747,-3.026 3.503998,-6.045 5.151998,-8.887 -5.632998,0 -11.115998,-0.099 -16.588998,0.082 -1.119,0.037 -2.338,0.962 -3.282,1.75 -6.895,5.757 -11.801,12.908 -14.673,21.427001 -0.257,0.764 -0.283,1.607 -0.552,3.24 9.943,-15.336001 9.943,-15.336001 14.144,-16.506001 -0.373,0.633 -0.708,1.201 -1.043,1.77 z M 345.52492,295.48638 c 12.647,-8.227 21.191,-32.084 15.282,-41.631 -0.441,15.543 -7.604,28.639 -15.282,41.631 z m -78.252,-141.478 c 0.735,5.052 0.737,5.03 5.476,5.349 2.673,0.18 5.338,0.461 8.009,0.666 1.583,0.122 2.807,0.421 3.85,2.022 1.149,1.765 3.288,2.47 5.877,2.752 -0.971,-1.286 -1.903,-2.065 -2.208,-3.041 -0.38,-1.211 -0.242,-2.585 -0.328,-3.889 -0.277,-0.021 -0.555,-0.043 -0.832,-0.064 -0.429,1.024 -0.857,2.049 -1.124,2.686 -0.663,-0.941 -1.231,-2.703 -2.186,-2.944 -5.414,-1.371 -10.921,-2.378 -16.534,-3.537 z m 0.172,5.632 c -1.048,-2.646 -1.258,-5.281 -2.619,-6.185 -2.985,-1.982 -6.542,-3.11 -9.896,-4.515 -0.35,-0.146 -0.904,0.195 -1.252,0.282 1.372,3.633 2.652,7.022 3.936,10.417 2.884,0.001 5.797,0.001 9.831,0.001 z m -3.984,90.285 c 4.096,-3.203 3.966,-7.563 4.15,-11.565 0.098,-2.116 -0.859,-4.388 -4.3,-4.988 0.271,1.388 0.35,2.428 0.684,3.376 0.906,2.57 1.011,5.088 -0.931,7.155 -1.763,1.878 -1.149,3.505 0.397,6.022 z m -3.682,-58.285 c 2.473,-4.263 4.869,-8.394 7.265,-12.525 -0.216,-0.278 -0.432,-0.556 -0.648,-0.834 -2.251,0.449 -4.503,0.897 -6.617,1.317 0,4.203 0,7.935 0,12.042 z m 39.205,119.746 c 0.242,0.261 0.484,0.521 0.726,0.781 6.344,-3.674 11.595,-8.502 15.173,-15.091 -5.299,4.771 -10.599,9.54 -15.899,14.31 z m -140.305,45.524 c 5.767,-3.926 11.534,-7.852 17.301,-11.777 -4.319,1.19 -15.531,8.521 -17.301,11.777 z m -79.656998,-65.799 c -1.41,-3.286 -2.55,-5.942 -3.69,-8.6 -0.193,3.244 -0.667,6.589 3.69,8.6 z m 8.421,-5.535 c 0.295,-0.262 0.591,-0.524 0.886,-0.786 -2.036,-2.966 -4.071,-5.931 -6.106,-8.896 -0.283,0.191 -0.566,0.383 -0.85,0.575 2.024,3.036 4.046,6.072 6.07,9.107 z m 44.163998,-106.636 c 1.878,-3.451 2.231,-6.978 0.92,-10.637 -0.307,3.546 -0.614,7.091 -0.92,10.637 z m -34.043998,116.785 c 1.538,1.743 3.074998,3.488 4.879998,5.535 0.86,-4.339 -2.022,-4.928 -4.879998,-5.535 z m 189.444998,-150.458 c -0.882,3.085 -0.84,6.128 -0.382,9.15 0.381,-0.021 0.762,-0.042 1.143,-0.063 -0.255,-3.029 -0.508,-6.058 -0.761,-9.087 z m 18.12,172.175 c 2.381,-0.062 5.081,0.282 6.84,-3.268 -2.835,1.355 -4.837,2.311 -6.84,3.268 z m -208.685998,-25.805 c 0.232,-0.229 0.465,-0.459 0.698,-0.688 -1.611,-1.722 -3.223,-3.442 -4.834,-5.164 -0.229,0.222 -0.457,0.442 -0.685,0.663 1.607,1.729 3.214,3.459 4.821,5.189 z m 62.508998,67.107 c 0.169,0.279 0.337,0.56 0.506,0.839 0.827,-0.596 1.659,-1.185 2.465,-1.807 0.044,-0.034 -0.136,-0.355 -0.28,-0.715 -0.916,0.574 -1.803,1.128 -2.691,1.683 z m 117.125,-125.799 c -1.512,0.851 -1.512,0.851 -0.639,2.404 0.267,-1.005 0.452,-1.704 0.639,-2.404 z m 17.408,60.317 c 0.19,0.122 0.379,0.243 0.57,0.365 0.502,-0.785 1.005,-1.57 1.508,-2.356 -0.134,-0.08 -0.269,-0.161 -0.403,-0.242 -0.559,0.743 -1.117,1.487 -1.675,2.233 z m 7.347,-11.944 c 0.168,0.075 0.336,0.15 0.504,0.225 0.383,-0.854 0.767,-1.709 1.151,-2.563 -0.17,-0.075 -0.34,-0.151 -0.509,-0.228 -0.381,0.855 -0.763,1.711 -1.146,2.566 z"
     id="path3"
     inkscape:connector-curvature="0"
     style="clip-rule:evenodd;fill-rule:evenodd" /><path
     d="m 120.04992,262.02938 c -1.284,-2.951 -2.568,-5.903 -3.961,-9.104 -0.271,0.774 -0.491,1.404 -0.821,2.351 -1.904,-3.251 0.695,-7.018 -2.118,-10.3 3.874,-0.982 7.644,-1.888 11.38,-2.916 1.184,-0.325 2.308,-0.918 3.408,-1.488 3.287,-1.705 6.564,-2.477 10.077,-0.541 4.207,2.317 8.296,0.326 11.703,-1.501 5.555,-2.979 10.334,-1.08 15.309,0.822 2.498,0.956 4.916,2.137 7.31,3.336 3.796,1.902 7.897,1.057 11.843,1.312 8.999,0.581 18.023,1.269 27.585,-0.443 -3.839,4.475 -7.223,8.417 -10.606,12.36 -0.212,-0.097 -0.424,-0.193 -0.637,-0.29 0.129,-0.783 0.259,-1.566 0.425,-2.569 -4.304,3.219 -8.22,6.75 -12.676,9.361 -11.147,6.533 -22.73,11.944 -36.082,12.285 -12.58,0.321 -23.281,-3.759 -32.145,-12.681 l 0.006,0.006 z m 5.802,-7.173 c 1.606,0.285 3.434,0.062 4.227,0.862 1.805,1.821 3.965,2.172 6.185,2.323 5.082,0.347 10.25,1.108 15.248,0.529 4.924,-0.57 10.119,1.113 14.824,-1.58 0.494,-0.282 1.434,-0.097 2.034,0.171 2.664,1.187 5.177,0.939 7.747,-0.338 0.982,-0.487 2.16,-0.692 3.27,-0.791 4.31,-0.383 4.647,-0.675 5.332,-5.61 -1.376,-0.115 -2.741,-0.231 -4.105,-0.343 -2.959,-0.239 -5.97,-0.205 -8.868,-0.763 -12.009,-2.312 -24.088,-3.349 -36.314,-2.734 -3.884,0.195 -7.446,1.285 -10.935,3.012 0.46,1.794 0.883,3.43 1.355,5.262 z m 33.653,-9.867 c 0.32,-0.282 0.641,-0.565 0.96,-0.848 -2.252,-1.256 -2.293,-4.789 -6.392,-5.279 2.154,2.43 3.794,4.279 5.432,6.127 z m 4.757,0.666 c 0.205,-0.184 0.41,-0.369 0.615,-0.553 -1.052,-1.04 -2.104,-2.081 -3.156,-3.12 -0.116,0.106 -0.232,0.213 -0.348,0.319 0.963,1.119 1.926,2.237 2.889,3.354 z"
     id="path5"
     inkscape:connector-curvature="0"
     style="clip-rule:evenodd;fill-rule:evenodd" /><path
     d="m 120.04292,262.02238 c 0.884,1.6 1.632,3.295 2.679,4.779 2.284,3.238 4.802,6.312 7.07,9.56 2.522,3.611 6,5.213 10.234,6.087 6.279,1.297 12.38,0.14 18.569,-0.4 7.916,-0.689 14.72,-4.753 22.144,-6.913 1.185,-0.345 2.312,-0.89 3.907,-0.771 -1.304,1.049 -2.501,2.279 -3.929,3.115 -8.781,5.139 -17.583,10.241 -26.447,15.235 -2.626,1.479 -2.727,1.301 -6.298,0.463 1.333,-1.593 2.54,-3.033 3.747,-4.474 -0.084,-0.199 -0.168,-0.398 -0.251,-0.597 -2.523,0.976 -5.046,1.95 -7.021,2.714 -1.083,-0.688 -1.757,-1.428 -2.534,-1.561 -5.957,-1.017 -10.505,-4.218 -13.686,-9.177 -2.808,-4.379 -5.295,-8.978 -7.675,-13.607 -0.637,-1.238 -0.36,-2.945 -0.503,-4.442 0.001,-0.004 -0.006,-0.011 -0.006,-0.011 z"
     id="path7"
     inkscape:connector-curvature="0"
     style="clip-rule:evenodd;fill-rule:evenodd" /><path
     d="m 284.96292,203.71538 c 0.686,-8.92 4.791,-17.869 -1.23,-27.419 -3.258,5.565 -6.134,10.477 -9.132,15.598 1.569,6.491 0.209,19.486 -2.729,24.055 -1.772,-0.472 -2.356,-1.504 -1.987,-3.39 0.406,-2.076 0.65,-4.195 0.79,-6.306 0.087,-1.314 0.229,-2.79 -1.508,-4.002 -0.874,2.675 -1.655,5.066 -2.436,7.457 -0.33,-0.121 -0.66,-0.242 -0.99,-0.362 1.143,-6.324 0.658,-12.969 5.756,-18.353 2.66,-2.809 4.308,-6.581 6.389,-9.932 1.039,-1.672 1.806,-3.57 3.085,-5.025 2.187,-2.487 4.529,-2.311 6.229,0.488 0.997,1.641 1.921,3.639 1.959,5.496 0.153,7.492 -0.766,14.855 -4.196,21.695 z"
     id="path9"
     inkscape:connector-curvature="0"
     style="clip-rule:evenodd;fill-rule:evenodd" /><path
     d="m 263.05792,221.73638 c 2.086,-3.351 2.851,-3.571 7.188,-1.891 8.184,-7.644 9.496,-16.958 6.243,-27.76 3.472,1.725 4.084,4.669 4.32,7.492 0.598,7.172 -1.324,13.702 -5.962,19.289 -1.065,1.283 -2.412,2.363 -3.752,3.374 -0.633,0.478 -1.6,0.88 -2.34,0.777 -1.926,-0.269 -3.809,-0.835 -5.697,-1.281 z"
     id="path11"
     inkscape:connector-curvature="0"
     style="clip-rule:evenodd;fill-rule:evenodd" /><path
     d="m 142.45592,226.41338 c -0.25,0.443 -0.325,0.797 -0.528,0.901 -7.332,3.781 -16.847,1.031 -20.594,-6.063 -0.877,-1.662 -1.647,-2.88 -3.673,-3.523 -2.779,-0.882 -4.185,-3.347 -4.17,-6.261 0.013,-2.606 1.425,-4.379 4.197,-5.244 -2.376,5.12 -2.358,7.188 -0.049,9.253 1.188,1.062 2.36,1.333 3.526,-0.179 0.327,0.588 0.75,1.049 0.845,1.57 1.17,6.441 6.629,9.757 13.615,9.211 1.539,-0.12 3.069,-0.461 4.605,-0.476 0.728,-0.006 1.463,0.517 2.226,0.811 z"
     id="path13"
     inkscape:connector-curvature="0"
     style="clip-rule:evenodd;fill-rule:evenodd" /><path
     d="m 225.89092,241.86838 c -0.108,0.92 -0.044,1.904 -0.356,2.751 -1.264,3.432 -2.37,6.961 -4.031,10.2 -4.565,8.899 -9.373,17.675 -14.108,26.486 -0.618,1.149 -1.38,2.22 -2.076,3.326 -0.247,-0.142 -0.494,-0.283 -0.741,-0.425 6.956,-14.15 13.911,-28.302 20.867,-42.452 0.149,0.039 0.297,0.076 0.445,0.114 z"
     id="path15"
     inkscape:connector-curvature="0"
     style="clip-rule:evenodd;fill-rule:evenodd" /><path
     d="m 145.94992,222.81938 c 2.871,-5.026 6.804,-8.406 12.924,-7.622 1.076,0.138 2.237,0.45 3.125,1.036 1.522,1.003 1.583,2.593 0.096,3.429 -2.612,1.467 -5.584,2.89 -8.424,1.317 -2.73,-1.512 -4.483,-0.678 -6.382,1.09 -0.363,0.34 -0.889,0.505 -1.339,0.75 z"
     id="path17"
     inkscape:connector-curvature="0"
     style="clip-rule:evenodd;fill-rule:evenodd" /><path
     d="m 106.90992,266.21338 c -0.509,-0.965 -1.169,-1.881 -1.503,-2.903 -2.153,-6.583 -4.239,-13.188 -6.335998,-19.79 -0.2,-0.63 -0.323,-1.284 -0.034,-2.093 0.397,0.687 0.924,1.328 1.169998,2.065 2.274,6.825 4.514,13.663 6.716,20.513 0.207,0.643 0.09,1.39 0.125,2.088 l -0.138,0.12 z"
     id="path19"
     inkscape:connector-curvature="0"
     style="clip-rule:evenodd;fill-rule:evenodd" /><path
     d="m 166.41392,204.31738 c 5.427,-0.093 9.123,2.914 9.455,7.214 0.234,3.031 -1.29,4.755 -5.851,6.089 0.825,-0.938 1.28,-1.49 1.771,-2.008 3.058,-3.223 2.6,-7.139 -1.218,-9.448 -1.287,-0.778 -2.766,-1.241 -4.157,-1.847 z"
     id="path21"
     inkscape:connector-curvature="0"
     style="clip-rule:evenodd;fill-rule:evenodd" /><path
     d="m 209.32392,231.54838 c 3.182,3.309 7.154,4.858 11.541,5.68 1.415,0.266 2.737,1.022 4.005,1.786 -7.637,0.576 -13.701,-2.303 -15.546,-7.466 z"
     id="path23"
     inkscape:connector-curvature="0"
     style="clip-rule:evenodd;fill-rule:evenodd" /><path
     d="m 105.84692,224.06838 c -0.659,7.493 -3.533,11.637 -8.740998,11.999 4.465998,-3.129 6.613998,-7.255 8.740998,-11.999 z"
     id="path25"
     inkscape:connector-curvature="0"
     style="clip-rule:evenodd;fill-rule:evenodd" /><path
     d="m 107.04792,266.09338 c 0.554,0.72 1.451,1.372 1.607,2.17 0.964,4.916 1.761,9.866 2.188,14.892 -2.23,-5.438 -2.389,-11.354 -3.932,-16.941 -0.001,-0.001 0.137,-0.121 0.137,-0.121 z"
     id="path27"
     inkscape:connector-curvature="0"
     style="clip-rule:evenodd;fill-rule:evenodd" /><path
     d="m 215.53292,244.56138 c -0.769,1.614 -1.084,3.666 -4.109,3.176 1.087,-1.318 2.173,-2.637 3.26,-3.955 0.283,0.261 0.566,0.52 0.849,0.779 z"
     id="path29"
     inkscape:connector-curvature="0"
     style="clip-rule:evenodd;fill-rule:evenodd" /><path
     d="m 111.31592,250.59638 c -0.541,-1.489 -1.083,-2.979 -1.623,-4.469 0.308,-0.112 0.615,-0.225 0.923,-0.337 0.525,1.495 1.052,2.989 1.577,4.484 -0.292,0.108 -0.584,0.214 -0.877,0.322 z"
     id="path31"
     inkscape:connector-curvature="0"
     style="clip-rule:evenodd;fill-rule:evenodd" /><path
     d="m 265.77092,280.94838 c 10.683,-15.046 18.644,-31.002 17.01,-50.166 0.301,0.014 0.603,0.028 0.904,0.042 0.257,2.184 0.706,4.365 0.735,6.552 0.088,6.563 -1.216,12.911 -3.458,19.061 -2.724,7.469 -6.435,14.433 -11.017,20.924 -1.004,1.422 -2.194,2.713 -3.298,4.064 -0.292,-0.159 -0.584,-0.318 -0.876,-0.477 z"
     id="path33"
     inkscape:connector-curvature="0"
     style="clip-rule:evenodd;fill-rule:evenodd" /><path
     d="m 324.03892,253.80638 c 2.926,19.438 -6.276,39.17 -21.36,45.864 6.32,-6.153 12.778,-12.199 16.793,-20.229 4.039,-8.079 4.556,-16.8 4.567,-25.635 z"
     id="path35"
     inkscape:connector-curvature="0"
     style="clip-rule:evenodd;fill-rule:evenodd" /><path
     d="m 144.90792,27.249378 c -4.851,-1.249 -9.537,-2.456 -14.223,-3.663 0.034,-0.214 0.068,-0.428 0.102,-0.643 3.068,0.461 6.136,0.923 9.52,1.432 -0.869,-0.951 -1.633,-1.787 -2.396,-2.621 0.866,-1.171 4.021,1.312 6.997,5.495 z"
     id="path37"
     inkscape:connector-curvature="0"
     style="clip-rule:evenodd;fill-rule:evenodd" /><path
     d="m 218.22192,127.95038 c -1.421,-2.122 -2.842,-4.244 -4.263,-6.366 0.261,-0.165 0.521,-0.33 0.782,-0.496 1.413,2.129 2.827,4.258 4.239,6.387 -0.252,0.158 -0.505,0.317 -0.758,0.475 z"
     id="path39"
     inkscape:connector-curvature="0"
     style="clip-rule:evenodd;fill-rule:evenodd" /><path
     d="m 183.60992,105.35838 c 2.34,1.223 4.68,2.446 7.021,3.669 -0.128,0.245 -0.257,0.49 -0.386,0.735 -2.449,-1.059 -4.962,-1.996 -6.808,-4.221 l 0.173,-0.183 z"
     id="path41"
     inkscape:connector-curvature="0"
     style="clip-rule:evenodd;fill-rule:evenodd" /><path
     d="m 146.82592,89.483383 c 1.144,1.041 2.287,2.082996 3.431,3.123996 -0.242,0.211 -0.484,0.422 -0.726,0.633 -0.868,-1.285 -1.736,-2.569996 -2.605,-3.853996 l -0.1,0.097 z"
     id="path43"
     inkscape:connector-curvature="0"
     style="clip-rule:evenodd;fill-rule:evenodd" /><path
     d="m 183.43592,105.54138 c -1.377,-0.852 -2.754,-1.705 -4.131,-2.556 0.153,-0.235 0.307,-0.47 0.46,-0.705 1.546,0.629 2.842,1.632 3.844,3.079 10e-4,-0.001 -0.173,0.182 -0.173,0.182 z"
     id="path45"
     inkscape:connector-curvature="0"
     style="clip-rule:evenodd;fill-rule:evenodd" /><path
     d="m 291.16592,219.64238 c 0,1.06 0,2.119 0,3.178 -0.06,0 -0.12,0.001 -0.18,0.002 0,-1.016 0,-2.031 0,-3.047 0.06,-0.045 0.12,-0.089 0.18,-0.133 z"
     id="path47"
     inkscape:connector-curvature="0"
     style="clip-rule:evenodd;fill-rule:evenodd" /><path
     d="m 260.83592,284.54538 c -0.662,0.901 -1.324,1.804 -2.418,3.294 -0.314,-2.36 0.972,-2.911 2.418,-3.294 z"
     id="path49"
     inkscape:connector-curvature="0"
     style="clip-rule:evenodd;fill-rule:evenodd" /><path
     d="m 146.92592,89.386383 c -0.742,-0.778 -1.484,-1.556 -2.227,-2.333 0.231,-0.165 0.462,-0.329 0.693,-0.494 0.479,0.973 0.959,1.946 1.436,2.922 -0.002,0.002 0.098,-0.095 0.098,-0.095 z"
     id="path51"
     inkscape:connector-curvature="0"
     style="clip-rule:evenodd;fill-rule:evenodd" /><path
     d="m 185.41892,162.27738 c -5.341,1.766 -9.948,4.764 -14.192,8.452 -0.958,-3.418 -0.712,-3.622 2.18,-5.08 2.373,-1.196 4.553,-2.795 6.729,-4.342 0.255,-0.182 -0.061,-1.168 -0.116,-1.818 5.539,-2.426 11.515,-2.34 16.937,-0.301 7.109,2.674 13.296,7.084 17.064,14.276 -2.038,0.41 -2.038,0.41 -6.102,-1.543 -1.706,1.678 -3.305,3.402 -5.062,4.947 -3.114,2.737 -6.949,2.979 -10.8,2.611 -3.526,-0.336 -7.437,-4.643 -7.58,-8.61 -0.098,-2.702 0.566,-5.43 0.942,-8.592 z"
     id="path53"
     inkscape:connector-curvature="0"
     style="clip-rule:evenodd;fill-rule:evenodd" /><path
     d="m 176.52792,176.75338 c 3.744,1.32 6.661,2.259 9.512,3.371 6.562,2.558 12.644,1.141 18.538,-2.073 1.104,-0.602 2.175,-1.262 3.272,-1.876 0.078,-0.043 0.244,0.07 0.36,0.107 -2.983,5.638 -8.013,7.819 -14.041,7.988 -6.591,0.184 -12.492,-1.627 -17.641,-7.517 z"
     id="path55"
     inkscape:connector-curvature="0"
     style="clip-rule:evenodd;fill-rule:evenodd" /><path
     d="m 92.492922,173.81638 c 9.090998,5.041 18.124998,2.737 27.451998,0.083 -0.37,0.404 -0.67,0.922 -1.12,1.195 -6.536,3.962 -13.646,5.101 -21.128998,4.054 -3.459,-0.484 -4.644,-1.835 -5.203,-5.332 z"
     id="path57"
     inkscape:connector-curvature="0"
     style="clip-rule:evenodd;fill-rule:evenodd" /><path
     d="m 76.101922,175.88238 c 0.333,0.101 0.667,0.202 1,0.303 -2.63,2.407 -5.303,4.747 -8.944,6.04 -1.092,-3.939 -1.974,-7.496 -3.107,-10.97 -0.322,-0.988 -1.367,-1.745 -2.099,-2.592 -0.663,-0.767 -1.354,-1.512 -0.356,-2.518 0.013,-0.006 -0.05,0.005 -0.036,-0.002 1.55,1.775 3.052,3.588 4.629,5.332 1.79,1.98 3.648,3.898 5.664,6.042 1.017,-0.517 2.117,-1.077 3.219,-1.636 l 0.03,0.001 z"
     id="path59"
     inkscape:connector-curvature="0"
     style="clip-rule:evenodd;fill-rule:evenodd" /><path
     d="m 81.546922,171.84338 c -1.343,-0.613 -2.686,-1.227 -4.149,-1.896 0.555,0.956 1.077,1.855 1.599,2.756 -0.518,-0.171 -1.186,-0.193 -1.532,-0.538 -3.253,-3.233 -6.451,-6.522 -9.665,-9.795 6.334,0.616 9.916,5.226 13.747,9.473 z"
     id="path61"
     inkscape:connector-curvature="0"
     style="clip-rule:evenodd;fill-rule:evenodd" /><path
     d="m 63.994922,165.12938 c 2.827,2.937 5.652,5.874 8.333,8.659 -2.34,-0.865 -5.577,-3.832 -8.333,-8.659 z"
     id="path63"
     inkscape:connector-curvature="0"
     style="clip-rule:evenodd;fill-rule:evenodd" /><path
     d="m 76.071922,175.88138 c -0.531,-0.737 -0.97,-1.567 -1.608,-2.194 -2.761,-2.714 -5.58,-5.369 -7.991,-8.414 3.709,3.068 8.352,5.294 9.629,10.607 0,0.002 -0.03,0.001 -0.03,0.001 z"
     id="path65"
     inkscape:connector-curvature="0"
     style="clip-rule:evenodd;fill-rule:evenodd" /><path
     d="m 261.72192,183.25338 c 0.326,-0.612 0.694,-1.306 1.062,-2 0.14,0.044 0.279,0.088 0.419,0.131 -0.274,0.716 -0.541,1.436 -0.831,2.146 -0.04,0.097 -0.233,0.229 -0.285,0.203 -0.106,-0.053 -0.165,-0.201 -0.365,-0.48 z"
     id="path67"
     inkscape:connector-curvature="0"
     style="clip-rule:evenodd;fill-rule:evenodd" /></svg>