<?xml version="1.0" encoding="UTF-8" standalone="no"?>
<svg
   xmlns:dc="http://purl.org/dc/elements/1.1/"
   xmlns:cc="http://creativecommons.org/ns#"
   xmlns:rdf="http://www.w3.org/1999/02/22-rdf-syntax-ns#"
   xmlns:svg="http://www.w3.org/2000/svg"
   xmlns="http://www.w3.org/2000/svg"
   version="1.1"
   x="0px"
   y="0px"
   width="512px"
   height="512px"
   viewBox="0 0 512 512"
   enable-background="new 0 0 512 512"
   xml:space="preserve"
   id="svg2"><metadata
     id="metadata9"><rdf:RDF><cc:Work
         rdf:about=""><dc:format>image/svg+xml</dc:format><dc:type
           rdf:resource="http://purl.org/dc/dcmitype/StillImage" /><dc:title></dc:title></cc:Work></rdf:RDF></metadata><defs
     id="defs7" /><path
     id="path4966"
     d="m 242.66785,429.05357 c -6.8309,-1.84437 -15.89054,-4.88865 -20.13254,-6.76511 -5.81874,-2.5739 -9.79259,-3.16537 -16.18241,-2.40857 -5.22891,0.61928 -10.61951,0.15673 -14.08827,-1.20905 -7.00704,-2.75877 -15.91427,-10.94706 -18.37773,-16.89435 -1.80347,-4.35399 -2.34087,-4.50504 -15.94168,-4.48071 -11.91738,0.0213 -15.542,-0.69517 -23.64224,-4.67323 -5.26184,-2.5841 -10.99481,-6.27612 -12.73997,-8.20446 -3.13077,-3.45951 -3.02341,-3.65569 8.07633,-14.75542 l 11.24928,-11.24929 5.07836,3.75459 c 3.46226,2.55976 6.93144,3.57773 10.9014,3.19888 6.43842,-0.61446 6.39048,0.1545 0.97547,-15.65356 l -3.41338,-9.9647 -24.95725,24.77321 c -29.526449,29.30873 -34.780219,32.51317 -53.581429,32.68105 -12.60305,0.11251 -13.31231,0.32873 -15.086153,4.5988 -6.91183,16.63838 -30.339654,23.46421 -45.326837,13.20622 -7.0278677,-4.81022 -14.4808937,-17.81032 -14.4808937,-25.2586 0,-10.31346 11.1474817,-26.29999 19.9078807,-28.54979 3.31047,-0.85016 3.647477,-2.08847 3.594216,-13.2071 -0.06735,-14.05446 4.511238,-26.92609 12.197158,-34.28964 l 4.65216,-4.45705 10.629761,10.7251 10.629788,10.7251 -3.428819,6.7254 c -4.109143,8.05985 -4.263547,11.40166 -0.83325,18.03509 4.724599,9.13639 16.796889,12.71918 26.149399,7.76058 2.54122,-1.34733 16.147019,-14.03851 30.235089,-28.20262 l 25.61471,-25.75292 5.58619,5.41434 c 3.07241,2.97788 6.10171,4.89882 6.73181,4.26873 0.63009,-0.63009 -6.65632,-9.07401 -16.19206,-18.76425 l -17.33765,-17.61864 7.87071,-7.87071 c 4.32889,-4.3289 7.54685,-8.84233 7.151,-10.02984 -0.41417,-1.24255 -9.62099,6.42276 -21.68777,18.05658 l -20.968069,20.21572 -11.03714,-10.93901 -11.03714,-10.93903 13.8745,-13.94695 c 7.73528,-7.77566 13.09037,-14.43155 12.10237,-15.04215 -0.97464,-0.60238 -2.23822,-0.34101 -2.80793,0.58081 -0.61651,0.99753 -3.26193,0.31874 -6.53465,-1.67674 -14.89098,-9.07947 -32.498565,2.06299 -29.483928,18.65809 0.939704,5.1729 5.677568,10.63248 28.403108,32.7297 15.00142,14.58664 27.266529,27.34689 27.255799,28.35612 -0.011,1.00922 -5.0955,6.31914 -11.29951,11.79981 L 89.655621,352.47887 61.522675,324.42415 C 27.849581,290.84466 24.283933,285.10442 24.502974,264.82696 l 0.142441,-13.18734 -6.036105,-3.25064 C 10.745852,244.15422 5.1327573,236.63044 2.5038433,226.80125 c -1.994117,-7.4558 -1.828351,-8.48283 2.894783,-17.93495 6.7546877,-13.51778 14.4727077,-18.09239 29.1869727,-17.29957 12.731031,0.68596 21.60722,6.53495 26.416577,17.40732 3.025845,6.84039 3.370685,7.06049 10.062925,6.42228 l 6.92971,-0.66086 0,-44.89771 c 0,-40.63777 0.2841,-45.1421 2.99432,-47.47351 4.94982,-4.25795 101.803369,-63.544543 103.809579,-63.544543 1.02182,0 16.09992,8.83715 33.50687,19.638098 17.40694,10.80096 40.69613,25.225885 51.75373,32.055395 l 20.10475,12.41728 0,32.98422 c 0,29.26385 0.33836,33.29042 2.9999,35.69908 3.34983,3.03155 21.32276,11.70613 22.27699,10.7519 0.33609,-0.33608 1.67119,-5.11669 2.96693,-10.62356 6.40751,-27.23191 20.34443,-59.89895 30.68115,-71.91421 8.16927,-9.49584 14.72791,-11.57046 28.65369,-9.06368 11.86387,2.13562 37.41465,12.0742 49.99488,19.44671 l 8.02124,4.70077 -5.60307,3.77593 c -7.82123,5.27071 -14.01686,15.16572 -21.76787,34.76531 -6.30738,15.94912 -15.42691,50.90191 -13.7249,52.60392 0.43556,0.43556 8.05096,0.95149 16.92315,1.14649 l 16.13122,0.35457 2.95529,-13.73762 c 3.68039,-17.10813 10.51833,-34.56706 17.98569,-45.92177 6.97044,-10.59913 11.66345,-13.15622 18.70881,-10.19387 7.72045,3.2462 32.92498,27.85033 38.51676,37.59926 7.20943,12.56917 6.65522,16.53951 -3.86083,27.6587 -7.93423,8.38925 -25.13228,21.40181 -30.87928,23.36413 -1.33045,0.45428 2.14535,5.3401 8.94596,12.57503 37.79613,40.21009 36.40107,100.36092 -3.23015,139.27465 -20.15449,19.78959 -42.13981,29.03201 -69.57604,29.24909 -17.33835,0.13723 -32.34839,-3.66695 -48.38,-12.26137 l -12.53498,-6.7199 -11.79938,7.00988 c -18.84391,11.19495 -34.791,15.61479 -58.94901,16.33808 -16.44786,0.49247 -23.00325,-0.0523 -32.95234,-2.73865 z m 184.8198,-9.43206 c 42.08552,-8.91831 74.78623,-49.71814 74.78623,-93.30884 0,-40.73416 -28.74414,-78.64849 -68.95228,-90.95001 -19.03562,-5.82388 -57.22303,-2.78533 -66.57253,5.29713 -0.69708,0.60262 -0.12607,2.72521 1.26898,4.71686 l 2.53638,3.62121 8.9973,-3.43763 c 23.74794,-9.07348 56.74283,-4.09978 77.86673,11.73774 6.29221,4.71756 7.11588,7.41717 2.26298,7.41717 -4.38012,0 -10.39043,7.86649 -10.39043,13.59928 0,2.52042 3.46486,11.37295 7.69969,19.67227 9.98794,19.57417 10.04457,24.9914 0.58668,56.13041 -3.93021,12.93977 -7.59495,23.50402 -8.14386,23.47611 -0.54892,-0.0279 -7.40795,-19.46963 -15.24225,-43.20382 -7.83435,-23.7342 -14.61236,-44.04542 -15.06227,-45.13604 -0.47653,-1.15513 1.54128,-2.48916 4.83349,-3.19554 7.27802,-1.56157 8.23949,-2.18515 7.2696,-4.71481 -0.57125,-1.48995 -7.13237,-2.084 -23.01765,-2.084 -23.19148,0 -25.44443,0.82074 -19.25184,7.01333 1.63907,1.63907 5.78596,10.58522 9.21533,19.88033 l 6.2352,16.90017 -9.02685,27.39223 c -8.41093,25.52318 -11.11489,32.23644 -11.11489,27.59544 0,-1.03667 -0.83167,-4.05238 -1.84813,-6.70159 l -1.84815,-4.81675 -2.67144,5.13313 c -1.46931,2.82322 -4.97866,8.07289 -7.79856,11.66594 -4.77671,6.08633 -4.99406,6.9769 -3.18011,13.03132 2.73381,9.12465 2.58417,9.35476 -3.34014,5.13629 l -5.28718,-3.76478 -3.52012,3.52013 -3.52013,3.52012 5.81296,3.56361 c 19.94727,12.22854 46.16369,16.43318 70.41726,11.29359 z m -36.18062,-7.78431 c -4.12951,-0.87214 -7.85162,-1.9291 -8.27136,-2.34881 -0.91994,-0.91997 23.96872,-74.59336 25.19031,-74.56632 0.47054,0.01 6.3594,15.20937 13.08635,33.77545 6.72694,18.5661 12.74135,35.01221 13.36538,36.54694 0.8458,2.08016 -0.30751,3.29666 -4.53112,4.77942 -7.74628,2.7194 -29.69672,3.74424 -38.83956,1.81332 z m 58.72742,-12.96807 c 0.72211,-1.7926 7.8519,-21.73851 15.84399,-44.32427 11.97205,-33.83318 14.69347,-43.42068 15.45326,-54.44126 0.98379,-14.26987 1.78122,-14.70847 6.15499,-3.38538 8.1001,20.97005 6.95512,45.61718 -3.10723,66.88649 -6.1861,13.07594 -20.12385,29.40054 -30.10835,35.26442 -5.45713,3.20496 -5.52769,3.20496 -4.23666,0 z m -128.52438,14.21241 c 8.60905,-3.94135 13.3192,-8.45318 11.12031,-10.65206 -0.40286,-0.40289 -3.94716,0.85798 -7.87619,2.80189 -14.1207,6.98638 -42.18567,7.33473 -55.04815,0.68328 -6.0279,-3.11715 -10.34074,-2.46031 -10.34074,1.5749 0,2.53921 7.00669,6.96865 15.38832,9.72808 2.35877,0.77657 11.64765,1.16911 20.64197,0.87233 13.243,-0.43698 18.20982,-1.38955 26.11448,-5.00842 z m -27.19135,-26.93 c 9.04457,-6.84346 19.79299,-7.11557 25.78256,-0.65273 2.2595,2.43806 4.91763,3.93255 5.90695,3.32112 2.73953,-1.69313 2.20625,-3.585 -2.63094,-9.33367 -3.82427,-4.5449 -5.56299,-5.26441 -12.72142,-5.26441 -4.56046,0 -10.09506,0.68564 -12.29912,1.52361 -5.67217,2.15655 -15.50852,11.72834 -14.2106,13.82841 1.59484,2.58048 2.75477,2.19026 10.17257,-3.42232 z m -34.7149,-4.00269 c 5.30708,-2.18298 17.67044,-8.65746 27.47411,-14.38775 28.13797,-16.44668 29.89994,-16.34471 49.98824,2.89351 7.67818,7.35326 15.56397,13.87854 17.52396,14.50062 12.3524,3.92051 26.2413,-17.62085 26.66296,-41.3536 0.21291,-11.98332 -3.2828,-18.82265 -11.03229,-21.5846 -6.44377,-2.2966 -10.84066,-0.54787 -30.46185,12.11524 -23.88102,15.41233 -25.72,15.41293 -48.99529,0.0155 -20.63485,-13.65031 -28.81836,-16.88166 -42.43201,-16.75481 -19.59692,0.18262 -36.01658,12.185 -41.23726,30.14343 -4.39761,15.12731 -0.39271,26.86369 11.62467,34.06622 9.89808,5.93234 26.95266,6.0766 40.88476,0.34584 z m -219.25194,-5.523 c 0,-3.98615 -6.871081,-8.00378 -13.688339,-8.00378 -4.244972,0 -8.222201,1.18337 -10.301459,3.06507 -6.095623,5.51648 -4.136083,6.81232 10.301459,6.81232 8.776676,0 13.688339,-0.67229 13.688339,-1.87361 z m 52.063621,-5.02678 c 7.591419,-3.60238 19.853459,-16.19869 15.768829,-16.19869 -1.96748,0 -2.56122,-0.743 -1.70918,-2.1388 0.71809,-1.17635 -2.75077,1.32606 -7.708569,5.56089 -11.76748,10.05148 -15.26772,11.91631 -22.4828,11.97827 -4.50162,0.0387 -5.35136,0.46328 -3.42208,1.71007 3.84961,2.48781 13.32034,2.04621 19.5538,-0.91174 z m -24.57677,-76.8726 c 1.2121,0.74912 -1.78169,-3.42703 -6.652872,-9.28035 -6.961628,-8.36523 -8.856683,-11.92636 -8.856683,-16.64317 0,-3.56484 -0.694574,-5.57154 -1.711042,-4.94333 -2.154695,1.33167 -2.222425,11.26497 -0.114572,16.80895 2.51578,6.61704 12.403389,17.10986 13.876659,14.72608 0.71774,-1.16132 2.19793,-1.44729 3.45855,-0.66818 z M 204.45374,254.43573 c 18.9512,-9.74712 37.168,-23.67786 47.63637,-36.4285 8.88966,-10.82772 10.11739,-14.22575 6.56004,-18.15659 -2.52302,-2.78791 -2.43793,-3.27494 1.09957,-6.29379 3.799,-3.242 3.81092,-3.24062 1.29715,0.15005 -2.35798,3.18049 -2.32277,3.25388 0.4986,1.03947 1.66961,-1.31046 2.63875,-2.77954 2.15364,-3.26466 -0.48513,-0.48511 -0.0293,-1.90951 1.01294,-3.16532 1.25461,-1.51171 1.45604,-5.61235 0.59607,-12.13472 l -1.29889,-9.85146 -2.05679,7.78297 c -1.13126,4.28063 -3.41934,9.86243 -5.08466,12.40403 -3.17563,4.84663 -20.33323,16.89545 -33.43436,23.47906 -19.85273,9.97647 -44.41225,31.87944 -49.48907,44.13599 -5.60645,13.53513 4.58614,13.63653 30.50939,0.30347 z m -29.68735,7.01535 c -0.52792,-0.85416 -0.31517,-3.29572 0.47275,-5.42568 0.9423,-2.54729 1.85636,-3.18694 2.67087,-1.86904 1.88762,3.05426 6.83461,2.42294 17.30759,-2.20869 20.49296,-9.06296 51.23196,-32.35208 57.0502,-43.22354 1.54643,-2.88954 1.42846,-4.18695 -0.56159,-6.17703 -2.21825,-2.21822 -2.17214,-2.65237 0.386,-3.63402 1.78708,-0.68577 3.72956,0.0123 5.04713,1.81442 6.87463,9.40162 -29.131,41.934 -62.5698,56.53401 -13.47111,5.88176 -18.14607,6.8708 -19.80317,4.18957 z m -39.05714,-26.16183 c 10.26545,-9.38727 18.11785,-13.18096 27.83768,-13.44908 l 4.27761,-0.11813 -4.27761,-1.74306 c -6.06812,-2.47264 -18.20409,-0.44655 -26.38261,4.40457 -3.84048,2.278 -11.60253,8.86929 -17.24897,14.64733 -9.37587,9.59437 -9.83603,10.40008 -5.30568,9.29007 3.97536,-0.97405 4.68156,-0.74112 3.55573,1.1729 -1.68487,2.86439 3.22651,-1.11221 17.54385,-14.20473 z m -5.09989,-13.12214 c 3.78579,-2.02521 3.85033,-2.60652 3.87846,-34.93682 l 0.0286,-32.87738 15.61416,-9.41073 c 8.58779,-5.1759 16.2746,-9.66739 17.08183,-9.98108 0.80721,-0.31369 1.46766,17.97307 1.46766,40.63725 0,37.89613 1.32659,49.54616 4.07633,35.79755 1.4358,-7.17898 12.99318,-18.0608 20.72201,-19.51074 l 6.00041,-1.12567 0,-28.04178 c 0,-16.26959 0.67214,-28.04178 1.60105,-28.04178 0.8806,0 8.77278,4.46862 17.53819,9.93027 l 15.93713,9.93029 0,22.5812 c 0,12.41966 0.46195,22.58045 1.02655,22.57953 2.09978,-0.004 14.8143,-10.0573 18.26227,-14.44071 4.32483,-5.49811 8.95101,-24.80077 8.92276,-37.23002 l -0.0207,-9.07296 -38.993,-24.06774 -38.993,-24.067725 -38.83881,23.937795 -38.8388,23.9378 0,43.62679 c 0,38.19403 0.35264,44.01644 2.83176,46.75584 2.63498,2.91161 2.63498,3.34649 0,6.25811 -1.55747,1.72098 -2.83176,4.14808 -2.83176,5.39357 0,1.24549 4.42733,-1.9578 9.83849,-7.11845 5.41118,-5.16062 11.57093,-10.3097 13.68834,-11.44241 z m -48.732139,-1.35036 c -1.15843,-0.46869 -3.46834,-0.49721 -5.13313,-0.0632 -1.66479,0.43381 -0.71698,0.81729 2.10624,0.85215 2.82322,0.0349 4.18532,-0.32006 3.02689,-0.78876 z M 50.569143,206.44814 c -2.582031,-4.82458 -11.78863,-10.16055 -17.544138,-10.16828 -6.530747,-0.008 -15.998505,4.17795 -18.037191,7.97619 -1.59075,2.96369 -0.725058,3.10864 15.485411,2.59297 10.637085,-0.33838 17.866471,0.1499 18.999838,1.28328 2.789711,2.78971 3.174216,2.19888 1.09608,-1.68416 z m 168.920207,1.05585 c 2.16526,-0.83088 2.2365,-1.46499 0.41155,-3.66391 -6.11621,-7.36957 -19.8381,-9.72612 -29.01154,-4.98235 -4.0826,2.11119 -8.51934,7.1659 -8.5214,9.7083 -7.7e-4,0.96067 34.41626,-0.024 37.12139,-1.06204 z"
     style="fill:#20c5df;fill-opacity:1" /></svg>