<?xml version="1.0" encoding="UTF-8" standalone="no"?>
<svg
   xmlns:dc="http://purl.org/dc/elements/1.1/"
   xmlns:cc="http://creativecommons.org/ns#"
   xmlns:rdf="http://www.w3.org/1999/02/22-rdf-syntax-ns#"
   xmlns:svg="http://www.w3.org/2000/svg"
   xmlns="http://www.w3.org/2000/svg"
   id="svg2"
   xml:space="preserve"
   enable-background="new 0 0 512 512"
   viewBox="0 0 512 512"
   height="512px"
   width="512px"
   y="0px"
   x="0px"
   version="1.1"><metadata
     id="metadata9"><rdf:RDF><cc:Work
         rdf:about=""><dc:format>image/svg+xml</dc:format><dc:type
           rdf:resource="http://purl.org/dc/dcmitype/StillImage" /><dc:title></dc:title></cc:Work></rdf:RDF></metadata><defs
     id="defs7" /><g
     transform="matrix(1.3780539,0,0,1.3780539,1265.0397,-95.961602)"
     id="g4250"><path
       style="clip-rule:evenodd;fill:#20c5df;fill-rule:evenodd;fill-opacity:1"
       d="m -578.31148,81.673168 -301.27534,0 c -11.89433,0 -21.51967,9.63543 -21.51967,21.519672 l 0,225.95651 c 0,11.89499 9.62534,21.51966 21.51967,21.51966 l 301.27534,0 c 11.895,0 21.51967,-9.62534 21.51967,-21.51966 l 0,-225.95651 c 0,-11.884242 -9.62467,-21.519672 -21.51967,-21.519672 z m 0,193.677012 c 0,11.89499 -9.62534,21.51967 -21.51967,21.51967 l -258.23601,0 c -11.89499,0 -21.51966,-9.62535 -21.51966,-21.51967 l 0,-150.63767 c 0,-11.895 9.62534,-21.51967 21.51966,-21.51967 l 258.23601,0 c 11.895,0 21.51967,9.62534 21.51967,21.51967 l 0,150.63767 z m -129.118,86.07867 c 5.92665,0 10.75983,4.83385 10.75983,10.75983 l 0,10.75984 c 0,5.92665 3.86681,13.66028 8.61661,17.21169 l 25.80678,19.37645 c 4.74913,3.55141 3.78276,6.45119 -2.14389,6.45119 l -129.118,0 c -5.92665,0 -6.89302,-2.90045 -2.1439,-6.45187 l 25.80679,-19.37644 c 4.74979,-3.55074 8.61661,-11.28437 8.61661,-17.21102 l 0,-10.75984 c 0,-5.92665 4.83385,-10.75983 10.75983,-10.75983 l 43.03934,0 z"
       id="path3" /><path
       style="fill:none;fill-rule:evenodd;stroke:#20c5df;stroke-width:6.5;stroke-linecap:butt;stroke-linejoin:miter;stroke-miterlimit:4;stroke-dasharray:none;stroke-opacity:1"
       d="m -858.24868,268.9828 c 6.06092,-1.01015 58.58885,-57.57869 58.58885,-57.57869 l 23.23351,25.25381 13.13198,-40.4061 54.54824,-28.28427 55.55839,-37.37564 14.14213,67.68022 44.44672,-82.83251"
       id="path4580" /></g></svg>