<?xml version="1.0" encoding="UTF-8" standalone="no"?>
<svg
   xmlns:dc="http://purl.org/dc/elements/1.1/"
   xmlns:cc="http://creativecommons.org/ns#"
   xmlns:rdf="http://www.w3.org/1999/02/22-rdf-syntax-ns#"
   xmlns:svg="http://www.w3.org/2000/svg"
   xmlns="http://www.w3.org/2000/svg"
   version="1.1"
   id="Ebene_2"
   x="0px"
   y="0px"
   width="448"
   height="448"
   viewBox="0 0 448.00001 448.00001"
   enable-background="new 0 0 595.154 842.298"
   xml:space="preserve"><metadata
   id="metadata227"><rdf:RDF><cc:Work
       rdf:about=""><dc:format>image/svg+xml</dc:format><dc:type
         rdf:resource="http://purl.org/dc/dcmitype/StillImage" /><dc:title></dc:title></cc:Work></rdf:RDF></metadata><defs
   id="defs225">
	
	
	
	
	
	
	
	
	
	
	
	
	
	
	
	
	
	
	
	
	
	
	
	
	
	
	
	
	
	
	
	
	
	
	
	
	
	
	
	
	
	
	
	
	
	
	
	
	
	
	
	
	
	
	
	
	
	
	
	
	
	
	
	
	
	
	
	
	
	
	
	
	
	
	
	
	
	
	
	
	
	
	
	
	
	
	
	
	
	
	
	
	
	
	
	
	
	
	
	
	
	
	
	
	
	
	
	
	
</defs>
<g
   style="stroke-width:1.37048888"
   transform="matrix(0.7296666,0,0,0.7296666,6.0428221,213.65783)"
   id="g1028"><path
     d="m 464.571,-14.412974 c 3.099,1.959 4.57,4.9710004 5.443,8.3810004 1.62,6.32399997 0.758,12.561 -1.167,18.5939996 -1.649,5.174 -3.596,10.309 -5.995,15.172 -4.304,8.725 -5.626,17.662 -3.943,27.254 1.109,6.316 1.626,12.744 2.201,19.141 0.493,5.484 -1.026,10.586 -4.102,15.092 -2.513,3.68 -5.279,7.209 -8.181,10.592 -1.337,1.559004 -2.177,3.041004 -2.447,5.109004 -2.068,15.848 -5.717,31.357 -11.043,46.406 -2.554,7.215 -6.124,14.074 -9.275,21.076 -2.063,4.584 -4.355,9.07 -6.254,13.721 -1.366,3.348 -2.253,6.893 -3.449,10.646 0.843,0.865 1.641,1.803 2.554,2.605 10.213,8.979 21.397,16.609 32.921,23.781 3.913,2.434 7.723,5.037 11.521,7.65 1.348,0.928 2.52,2.109 4.077,3.432 -4.631,0.207 -8.105,-1.537 -11.708,-3.176 -14.152,-6.438 -27.512,-14.293 -40.761,-22.361 -0.324,-0.199 -0.727,-0.268 -1.099,-0.398 -3.676,11.361 -7.09,22.691 -11.023,33.844 -3.886,11.016 -7.731,22.078 -13.595,32.502 -0.1,-0.428 -0.282,-0.857 -0.281,-1.285 0,-0.545 0.147,-1.088 0.28,-1.949 -0.462,0.393 -0.822,0.562 -0.968,0.844 -0.963,1.842 -1.875,3.709 -2.82,5.561 -0.05,0.1 -0.24,0.127 -0.906,0.451 0.787,-2.459 1.38,-4.559 2.128,-6.6 6.049,-16.518 12.928,-32.744 17.489,-49.785 0.681,-2.545 1.345,-5.094 2.235,-8.473 -1.258,1.072 -1.946,1.594 -2.559,2.189 -10.511,10.236 -20.963,20.537 -31.55,30.695 -2.744,2.631 -5.617,5.26 -9.696,6.141 1.529,-1.455 3.059,-2.912 5.192,-4.945 -1.154,0.381 -1.53,0.434 -1.83,0.617 -0.716,0.432 -1.349,1.021 -2.097,1.377 -5.077,2.42 -10.174,4.793 -15.657,6.775 0.56,-0.623 1.052,-1.332 1.693,-1.857 2.704,-2.213 5.419,-4.414 8.191,-6.541 15.189,-11.656 28.035,-25.65 40.046,-40.434 6.89,-8.48 12.503,-17.775 17.281,-27.658 9.968,-20.613 17.43,-42.047 22.329,-64.395 0.379,-1.729 0.661,-3.479 0.338,-5.391 -0.477,1.34 -0.955,2.68 -1.666,4.68 -0.521,-1.156 -0.8,-1.775 -1.262,-2.801 -0.932,1.275 -1.742,2.385 -2.765,3.785 0,-1.699 0,-3.072 0,-4.584 -4.295,3.361 -3.651,8.562 -5.458,12.781 1.575,-13.916 4.205,-27.703004 4.149,-41.764004 1.003,9.438 -0.365,18.773004 -1.091,28.148004 3.093,-11.279004 4.476,-22.744004 4.449,-34.537004 0.295,1.033 0.591,2.066 0.886,3.1 0.203,-0.01 0.404,-0.02 0.605,-0.029 0,-2.471 -0.183,-4.959 0.055,-7.406 0.215,-2.223 0.88,-4.402 1.361,-6.598 0.498,-2.273 -1.174,-4.438 0.422,-7.014 1.134,-1.832 0.479,-4.771 1.375,-7.32 0.407,2.084 0.815,4.168 1.1,5.621 0,-3.486 0.051,-7.611 -0.017,-11.734 -0.049,-2.932 -0.051,-5.893 -0.476,-8.781 -0.249,-1.695 1.497,-1.758 1.603,-2.574 0.267,-2.051 0.497,-4.314 -0.1,-6.23 -1.824,-5.85 -1.574,-11.889 -2.134,-17.8499996 -0.445,-4.729 0.078,-9.64800003 -1.017,-14.197 -2.556,-10.6290004 -1.536,-21.6780004 -4.343,-32.2540004 -1.029,-3.877 -1.341,-7.945 -2.023,-11.918 -0.113,-0.66 -0.451,-1.279 -0.558,-1.568 -7.877,-1.211 -15.5,-2.072 -22.982,-3.615 -7.395,-1.525 -13.851,-5.534 -20.485,-9.547 -0.048,0.764 -0.159,1.093 -0.061,1.177 5.657,4.867 11.873,8.929 18.907,11.38 3.082,1.072 6.605,0.891 9.932,1.248 1.898,0.205 3.939,-0.037 5.34,1.799 -21.763,8.318 -61.099,-11.72 -64.563,-32.81 0.411,0.032 0.822,0.065 1.231,0.098 l -0.152,-0.143 c 3.336,7.234 8.379,13.163 14.485,18.125 7.931,6.445 16.847,10.812 27.455,11.24 -0.842,-0.559 -1.659,-1.16 -2.528,-1.672 -9.593,-5.652 -18.37,-12.33 -25.041,-21.329 -2.994,-4.038 -5.226,-8.643 -7.264,-13.4 1.234,1.392 2.436,2.812 3.708,4.167 2.964,3.158 5.925,6.321 8.967,9.402 1.021,1.033 1.923,2.144 3.822,2.131 1.109,-0.007 2.304,1.389 3.329,2.301 4.629,4.125 9.744,7.483 15.45,9.909 4.802,2.042 9.774,3.196 15.144,2.383 -8.125,-2.127 -15.806,-5.086 -21.99,-11.009 6.704,3.169 13.264,6.675 20.856,7.526 -8.455,-4.177 -16.419,-8.98 -22.826,-16.038 3.131,2.177 6.263,4.354 9.394,6.529 0.145,-0.156 0.29,-0.313 0.434,-0.471 -2.723,-3.098 -5.447,-6.196 -8.17,-9.295 0.224,-0.243 0.447,-0.486 0.671,-0.729 0.43,0.324 0.952,0.574 1.277,0.981 6.043,7.572 13.887,12.949 22.188,17.601 2.041,1.143 2.154,3.157 3.66,4.32 -0.331,0.393 -0.663,0.783 -1.081,1.279 3.911,0.861 7.464,-0.273 11.756,-1.633 -13.025,-5.307 -22.836,-13.746 -30.879,-24.377 -7.882,-10.422 -15.25,-21.104996 -18.677,-33.871996 0.333,-0.177 0.667,-0.354 1.001,-0.532 0.669,1.328 1.427,2.618 1.992,3.988 3.967,9.629 9.618,18.268996 15.592,26.723996 4.576,6.478 11.254,9.837 18.431,12.457 0.913,0.334 1.855,0.599 2.798,0.839 0.23,0.058 0.518,-0.109 1.333,-0.309 -4.193,-7.124 -7.25,-14.696 -12.11,-21.309 -0.008,-0.007 0.13,0.11 0.13,0.11 -3.497,-7.879996 -9.158,-14.180996 -15.207,-21.402996 0.771,5.785 1.279,10.416 4.937,14.283 2.834,2.995996 4.905,6.714996 7.03,10.341996 -3.394,-3.438 -6.218,-7.347 -9.136,-11.396996 -0.483,2.64 -0.069,3.938996 1.8,6.767996 0.971,1.469 1.795,3.033 2.685,4.556 l 0.081,-0.074 c -5.012,-1.575 -7.515,-5.118 -8.167,-10.214996 -0.185,-1.449 -0.511,-2.953 -1.136,-4.259 -1.611,-3.37 -3.453,-6.629 -5.14,-9.965 -0.517,-1.021 -1.594,-2.057 -0.397,-3.315 -0.888,-1.35 -1.777,-2.702 -2.665,-4.053 -1.954,-3.171 -3.908,-6.343 -5.642,-9.156 2.632,1.243 3.158,1.702 7.695,8.497 2.317,3.471 4.379,7.112 6.766,10.574 -5.301,-20.025 -13.038,-38.874 -26.835,-54.832 4.881,4.267 8.902,9.172 12.188,14.677 5.973,10.004 10.564,20.627 14.019,31.738 0.686,2.207 1.758,3.938 3.447,5.555 8.868,8.486 15.587,18.614996 21.767,29.123996 1.982,3.371 3.829,6.823 5.68,10.27 2.653,4.937 2.631,4.948 7.076,7.599 -1.009,0.166 -1.735,0.286 -2.683,0.442 0.896,2.241 1.566,4.517 2.706,6.525 0.606,1.067 1.925,1.892 3.103,2.439 2.222,1.033 4.575,1.787 6.874,2.656 -0.064,0.34 -0.128,0.682 -0.192,1.023 -1.257,-0.078 -2.616,0.125 -3.75,-0.291 -2.204,-0.805 -3.774,-0.207 -5.322,1.787 3.583,6.504 4.593,13.805 5.199,21.201 0.08,0.975 0.166,1.959 0.107,2.93 -0.417,6.865 0.677,11.471 4.505,17.342 -0.902,-5.062 -3.599,-9.734 -3.565,-15.062 2.723,6.27 5.573,12.41 9.981,17.742 -3.408,-8.07 -7.137,-16 -7.892,-24.951 1.931,5.75 3.861,11.502 5.792,17.252 0.142,-4.789 -2.418,-9.104 -1.386,-14.658 0.571,1.652 1.059,2.613 1.228,3.629 1.389,8.369 4.954,15.961 8.403,23.5900004 1.493,3.301 3.456,12.525 2.996,15.922 -1.231,-1.021 -2.189,-1.814 -3.27,-2.709 -3.385,3.264 -4.633,7.5859996 -5.338,11.9509996 -0.663,4.115 -0.666,8.344 -0.809,12.527 -0.037,1.045 0.45,2.129 0.802,3.156 0.269,0.785 0.953,1.488 1.029,2.27 0.843,8.658 2.91,17.346 -0.353,25.949 -0.146,0.385 -0.354,0.762 -0.6,1.092 -0.149,0.203 -0.427,0.311 -0.933,0.654 0.205,-1.168 0.283,-2.117 0.542,-3.016 1.283,-4.457 0.933,-8.781 -0.535,-13.168 -3.603,-10.773 -3.355,-21.717 -0.938,-32.672 0.507,-2.299 1.466,-4.496 2.359,-7.1659996 -0.479,-0.734 -1.185,-1.816 -2.215,-3.398 0.13,1.922 0.222,3.281 0.341,5.062 -1.208,-0.391 -2.136,-0.691 -3.509,-1.133 0,1.6539996 0.056,3.0059996 -0.01,4.3499996 -0.24,4.871 -0.719,9.742 -0.734,14.613 -0.017,5.725 0.267,11.455 0.585,17.174 0.394,7.111 1.021,14.213 1.431,21.324 0.385,6.684 0.617,13.375 0.961,21.037 1.798,-1.705 3.299,-2.707 4.229,-4.092 2.442,-3.633 4.325,-7.533 3.855,-12.125 -0.498,-4.863 -0.773,-9.764 -1.587,-14.574 -1.163,-6.877 -0.957,-13.605 0.803,-20.344 1.982,-7.586 4.291,-15.061 7.975,-22.008 3.158,-5.9509996 3.711,-12.1989996 2.836,-18.7249996 -0.268,-1.998 -0.87,-3.689 -2.505,-5.076 -1.25,-1.0590004 -2.146,-2.5330004 -3.803,-4.5640004 1.025,4.143 1.89,7.3830004 2.622,10.6540004 0.74,3.31599997 1.557,6.678 -0.866,9.773 -0.147,-1.889 -0.18,-3.793 -0.462,-5.66000003 -0.817,-5.40999997 -2.263,-10.51599997 -5.335,-15.25400037 -3.316,-5.113 -6.113,-10.609 -7.553,-17.691 2.451,2.764 2.773,5.59 4.24,7.898 1.528,-1.402 2.776,-0.855 3.928,0.58 0.945,1.176 1.964,2.291 2.951,3.434 l -0.059,-0.08 c 0.98,3.742 3.482,6.457 5.498,9.5 0.375,-0.182 0.751,-0.363 1.125,-0.545 -0.242,-0.939 -0.484,-1.879 -0.725,-2.816 z m -25.948,108.189 c -1.808,3.514 -3.213,7.189004 -3.699,11.111004 -0.215,1.74 -1.097,3.633 0.394,6.168 0.577,-1.398 1.059,-2.139 1.184,-2.936 0.752,-4.777 1.422,-9.566004 2.12,-14.355004 0.072,-1.447 0.145,-2.896 0.217,-4.342 -0.201,0.006 -0.402,0.012 -0.603,0.02 0.129,1.446 0.258,2.889 0.387,4.334 z M 454.926,3.5300264 c -1.309,-4.01400003 -1.309,-4.01400003 -4.488,-5.918 0.381,3.07399997 0.722,5.826 1.189,9.604 1.564,-1.746 2.383,-2.662 3.299,-3.686 z M 442.305,-10.219974 c -0.277,0.016 -0.552,0.031 -0.829,0.047 0.135,4.9590004 -0.058,9.93400037 0.663,14.8630004 0.401,-0.023 0.802,-0.047 1.204,-0.072 -0.346,-4.94500003 -0.692,-9.893 -1.038,-14.8380004 z"
     id="path4"
     style="clip-rule:evenodd;fill-rule:evenodd;stroke-width:1.37048888" /><path
     d="m 156.418,-208.63297 c -3.626,3.675 -7.285,7.317 -10.866,11.037 -1.975,2.051 -3.819,4.229 -5.461,6.608 7.179,-4.722 13.23,-10.865 20.858,-14.997 -3.337,3.346 -6.81,6.569 -9.973,10.073 -3.242,3.591 -6.18,7.457 -9.251,11.202 0.202,0.211 0.404,0.423 0.606,0.635 4.817,-3.813 9.633,-7.626 14.937,-11.824 -1.283,5.454 -1.386,5.365 -4.052,8.482 -9.372,10.958 -18.279,22.252 -24.393,35.456 -0.636,1.375 -1.182,2.792 -1.391,4.493 2.278,-2.401 4.469,-4.896 6.858,-7.18 2.397,-2.29 4.993,-4.371 7.86,-6.236 -4.179,5.354 -8.52,10.525 -11.138,16.771 0.262,0.178 0.524,0.356 0.787,0.535 1.479,-2.2 2.958,-4.4 4.437,-6.601 0.301,0.153 0.603,0.306 0.904,0.459 -2.241,6.528 -6.438,12.359 -7.149,19.646 1.81,-2.098 3.621,-4.196 5.573,-6.459 -0.02,3.339 -0.134,3.678 -5.785,11.028 -2.548,3.313 -5.329,6.447 -7.639,10.188 1.376,-1.132 2.775,-2.238 4.125,-3.4 1.478,-1.271 2.806,-2.742 4.389,-3.855 1.52,-1.066 3.284,-1.786 5.242,-2.285 -9.123,7.226 -12.083,17.581 -14.986,27.925996 -1.34,4.776 -1.28,8.061 -0.261,12.739 1.846,-9.559 4.774,-18.155996 12.365,-24.813996 1.472,2.301 1.08,3.729 0.456,5.349 -3.499,9.072996 -4.893,18.591996 -5.692,28.218996 -0.044,0.527 0.102,1.07 0.27,2.631 1.834,-7.705 2.667,-14.734 7.087,-20.433 0.882,-1.137 2.047,-2.053 3.481,-2.707 -0.805,2.015 -1.646,4.015 -2.406,6.046 -2.368,6.324 -1.915,12.941 -1.681,19.463 0.321,8.927 1.084,17.837 1.855,26.751 1.771,-6.391 3.023,-12.775 2.486,-19.464 -0.229,-2.852 0.5,-5.78 1.398,-8.679 0,3.573 0,7.146 0,10.719 0.238,0.009 0.476,0.017 0.715,0.024 0.104,-1.396 0.209,-2.79 0.313,-4.187 0.243,0.008 0.487,0.017 0.73,0.023 0,7.45 0,14.897 0,22.346 0.268,0.012 0.536,0.023 0.805,0.035 0.518,-6.729 1.036,-13.457 1.553,-20.185 0.189,0.021 0.378,0.042 0.568,0.063 -0.255,6.667 -0.514,13.334 -0.737,20.004 -0.005,0.156 0.381,0.328 0.829,0.688 0.45,-4.877 0.886,-9.598 1.321,-14.32 0.208,0.014 0.417,0.025 0.625,0.039 -0.34,6.346 -0.68,12.693 -1.021,19.039 0.391,0.025 0.781,0.051 1.172,0.078 0.788,-9.211 1.575,-18.422 2.415,-28.239 0.355,1.138 0.747,1.801 0.732,2.455 -0.052,2.367 -0.234,4.731 -0.381,7.094 -0.086,1.395 -0.353,2.795 -0.271,4.178 0.387,6.543 -0.977,12.947 -1.372,19.42 -0.202,3.301 0.575,6.648 0.67,9.98 0.362,12.7070004 0.679,25.4140004 0.904,38.123 0.121,6.84 0.022,13.682 0.022,21.393 0.798,-3.742 1.427,-6.689 2.242,-10.51 2.291,9.635 -0.165,18.33 0.333,27.275 0.351,-1.082 0.627,-1.934 0.875,-2.701 0.37,-0.029 0.53,-0.09 0.638,-0.039 0.105,0.051 0.233,0.219 0.224,0.324 -0.241,2.924 -0.518,5.844 -0.752,8.768 -0.757,9.461 -2.284,18.893 -1.332,28.424 0.356,3.555 1.014,7.082 1.24,10.66 -3.196,-9.889 -3.89,-20.109 -3.852,-30.424 -4.333,16.406 1.231,69.600004 22.194,99.010004 0.96,-0.113 1.953,-0.227 3.81,-0.443 -1.172,1.273 -1.772,1.928 -2.739,2.979 4.982,7.248 9.863,14.723 15.133,21.912 5.452,7.436 11.708,14.309 16.812,21.961 4.131,6.195 8.705,11.918 13.642,17.424 0.876,0.979 1.427,2.248 1.585,3.918 -1.011,-0.58 -2.147,-1.016 -3.014,-1.764 -9.614,-8.297 -19.378,-16.422 -26.929,-26.824 -2.177,-2.996 -5.021,-5.51 -8.203,-7.906 0.61,8.076 1.344,16.146 1.798,24.232 0.454,8.094 0.695,16.201 0.905,24.307 0.211,8.18 0.594,16.369 -0.406,24.631 -1.818,-1.867 -2.428,-4.209 -2.664,-6.576 -0.941,-9.449 -2.01,-18.896 -2.543,-28.371 -0.557,-9.906 -0.537,-19.842 -0.812,-29.764 -0.045,-1.639 -0.311,-3.275 -0.504,-5.221 -10.048,4.727 -19.725,9.244 -29.369,13.832 -3.279,1.561 -6.387,3.504 -9.731,4.889 -3.321,1.375 -6.841,2.271 -10.277,3.365 -0.397,0.125 -0.866,0.074 -1.228,0.256 -4.006,1.992 -8.264,1.119 -12.757,0.619 1.753,-0.916 3.461,-1.93 5.268,-2.725 4.601,-2.025 9.156,-4.203 13.891,-5.857 6.788,-2.371 12.703,-6.354 18.965,-9.684 8.243,-4.383 16.349,-9.023 24.913,-13.775 -0.715,-1.451 -1.115,-2.596 -1.778,-3.561 -16.979,-24.641 -26.657,-52.104 -31.319,-81.459 -0.896,-5.639 -1.037,-11.395004 -1.533,-17.180004 -0.264,-0.203 -0.555,-0.541 -0.922,-0.693 -13.215,-5.486 -19.076,-16.08 -20.629,-29.666 -0.757,-6.619 0.037,-13.057 1.86,-19.473 2.586,-9.102 2.006,-18.24 -0.692,-27.232 -2.044,-6.8139996 -4.452,-13.52299963 -6.436,-20.3539996 -1.619,-5.5760004 -1.593,-11.3200004 -0.807,-17.0530004 0.397,-2.906 0.867,-5.803 1.266,-8.709 0.443,-3.23 1.464,-6.23 3.268,-8.973 3.443,-5.234 6.265,-10.93 11.404,-14.896 0.607,-0.469 0.888,-1.67 0.909,-2.541 0.095,-3.91 0.041,-7.822 -0.217,-11.787 0.049,3.538 -0.434,6.86 -3.305,9.236 0.437,1.373 0.808,2.537 1.425,4.472 -1.213,-0.703 -1.978,-0.912 -2.375,-1.414 -2.506,-3.167 -4.086,-6.751 -3.615,-10.849 0.829,-7.206 1.868,-14.388 2.822,-21.58 0.071,-0.533 0.167,-1.063 -0.017,-1.672 -2.788,4.513 -4.157,9.481 -4.743,15.514 -1.51,-1.48 -2.594,-2.546 -3.872,-3.799 0,1.201 0,2.327 0,3.64 -0.649,-0.05 -1.083,0.043 -1.357,-0.124 -2.119,-1.292 -2.919,-3.423 -2.976,-5.692 -0.062,-2.488 -0.084,-5.108 0.601,-7.46 1.521,-5.216 3.478,-10.306996 5.297,-15.433996 0.458,-1.291 1.07,-2.527 1.907,-4.479 -5.012,1.899 -8.411,5.661 -14.01,6.987 1.503,-1.825 2.413,-2.973 3.368,-4.081 3.836,-4.443 7.73,-8.838 11.495,-13.341 0.731,-0.876 1.266,-2.12 1.398,-3.251 0.338,-2.877 0.42,-5.786 0.556,-8.684 0.062,-1.335 0.01,-2.675 -0.593,-4.428 -1.274,1.719 -2.549,3.438 -3.824,5.158 -0.333,-0.291 -0.668,-0.583 -1.002,-0.874 0.533,-0.887 1.137,-1.739 1.585,-2.667 0.963,-1.993 2.31,-3.942 2.684,-6.053 1.754,-9.919 5.805,-18.913 10.561,-27.658 0.467,-0.857 0.938,-1.712 1.387,-2.579 0.027,-0.053 -0.123,-0.198 -0.466,-0.72 -2.871,3.21 -5.666,6.334 -8.459,9.46 -0.208,-0.159 -0.417,-0.317 -0.625,-0.477 4.874,-7.462 9.748,-14.924 14.622,-22.387 -0.184,-0.166 -0.368,-0.332 -0.551,-0.498 -3.085,2.847 -6.169,5.694 -9.254,8.541 -0.253,-0.212 -0.507,-0.424 -0.76,-0.636 1.088,-1.487 2.252,-2.924 3.239,-4.475 0.849,-1.331 3.031,-2.134 1.925,-4.86 -1.193,1.111 -2.111,1.966 -3.027,2.82 -0.203,-0.133 -0.407,-0.267 -0.61,-0.4 0.652,-1.144 1.17,-2.391 1.976,-3.414 4.255,-5.4 8.996,-10.231 14.911,-13.939 2.635,-1.652 4.648,-4.295 6.944,-6.489 0.474,-0.219 0.948,-0.437 1.422,-0.656 0.047,0.35 0.096,0.697 0.144,1.044 z m -16.22,155.660996 c -2.524,6.754 -0.794,13.473 -0.105,20.875 -0.859,-1.895 -1.189,-4.061 -2.094,-4.334 -2.582,-0.787 -2.477,-2.787 -2.836,-4.596 -0.406,-2.047 -0.464,-4.164 -0.868,-6.211 -0.272,-1.385 -0.88,-2.701 -1.337,-4.049 -0.349,-0.045 -0.697,-0.09 -1.045,-0.135 -1.795,2.93 -3.376,6.021 -5.43,8.756 -4.944,6.586 -6.151,13.93 -4.934,21.832 1.34,8.693 2.797,17.3670004 4.181,26.0530004 0.966,6.0589996 2.119,12.0999996 2.785,18.1929996 0.893,8.172 -1.046,16.082 -2.66,24.041 -1.646,8.115 -0.854,16.162 2.577,23.775 2.693,5.979 6.836,8.27 13.919,7.721 0,-1.561 -0.061,-3.195 0.01,-4.824 0.798,-18.42 1.503,-36.846 2.471,-55.256 0.534,-10.1879996 1.407,-20.3539996 -0.098,-30.523 -0.999,-6.752 -2,-13.502 -2.996,-20.254 -0.649,-4.395 -1.342,-8.785 -1.91,-13.193 -0.157,-1.223 0.041,-2.496 0.106,-3.746 0.07,-1.375 0.174,-2.75 0.264,-4.125 z"
     id="path6"
     style="clip-rule:evenodd;fill-rule:evenodd;stroke-width:1.37048888" /><path
     d="m 479.238,-157.72297 c 1.882,1.807 3.746,3.634 5.651,5.416 1.992,1.863 4.025,3.684 5.79,5.839 -7.973,-1.537 -13.26,-7.322 -19.896,-11.585 1.007,2.063 1.996,4.136 3.025,6.188 1.127,2.247 2.303,4.47 3.436,6.714 0.377,0.747 1.007,1.541 0.977,2.292 -0.231,5.713 3.392,9.862 5.716,14.539 0.108,0.217 0.065,0.51 0.092,0.768 -5.364,-5.508 -7.1,-8.736 -10.383,-17.666 -1.824,-4.959 -4.126,-9.743 -6.252,-14.589 -0.709,-1.617 -1.54,-3.182 -2.576,-5.308 1.51,0.232 2.345,0.359 3.837,0.588 -1.676,-2.285 -3.134,-3.96 -4.227,-5.848 -1.09,-1.879 -1.785,-3.983 -2.712,-5.962 -0.465,-0.993 -0.94,-2.021 -1.616,-2.87 -5.923,-7.432 -11.888,-14.831 -17.857,-22.226 -0.523,-0.648 -1.118,-1.256 -1.754,-1.792 -11.751,-9.914 -23.28,-20.112 -35.335,-29.644 -15.337,-12.126 -32.13,-21.935 -51.023,-27.393 -7.996,-2.31 -16.4,-3.329 -24.682,-4.495 -14.968,-2.109 -30.023,-3.357 -45.14,-2.059 -7.646,0.656 -15.249,1.831 -22.86,2.856 -4.427,0.597 -8.914,1.035 -13.225,2.128 -6.202,1.575 -12.374,3.399 -18.366,5.633 -7.189,2.68 -14.114,6.062 -21.264,8.852 -10.029,3.915 -18.863,9.55 -26.525,17.731 -2.815,-2.694 -5.488,-5.252 -8.161,-7.811 0.162,-0.237 0.324,-0.476 0.487,-0.713 1.23,0.893 2.583,1.66 3.658,2.711 1.192,1.164 2.131,2.588 3.309,4.059 6.658,-8.839 14.7,-14.659 23.888,-19.025 6.181,-2.938 12.431,-5.746 18.478,-8.938 10.285,-5.427 21.277,-8.333 32.705,-9.894 6.918,-0.946 13.821,-2.03 20.757,-2.826 13.233,-1.517 26.49,-1.604 39.742,-0.149 8.47,0.929 16.955,1.746 25.404,2.834 8.916,1.15 17.444,3.737 25.687,7.354 20.835,9.141 39.493,21.454 55.502,37.689 2.257,2.289 4.525,4.572 6.889,6.751 6.804,6.273 12.525,13.495 18.408,20.596 8.827,10.654 17.934,21.078 26.783,31.714 1.658,1.991 2.672,4.517 3.984,6.796 -2.175,-1.766 -4.351,-3.53 -6.525,-5.295 -0.154,0.189 -0.309,0.376 -0.462,0.565 2.209,1.826 4.422,3.651 6.636,5.475 z"
     id="path8"
     style="clip-rule:evenodd;fill-rule:evenodd;stroke-width:1.37048888" /><path
     d="m 358.501,-81.328974 c -2.079,-4.508 -7.292,-10.165 -12.494,-13.414 0.186,0.751 0.225,1.283 0.441,1.731 5.11,10.57 10.249,21.115 17.832,30.239 2.446,2.943 5.17,5.441 8.477,7.38 6.069,3.561 12.455,6.256 19.352,7.732 1.588,0.34 3.122,0.938 4.597,2.156 -1.393,0 -2.849,0.266 -4.165,-0.049 -4.199,-1.004 -8.363,-2.168 -12.506,-3.385 -2.205,-0.648 -4.084,-1.953 -6.662,-1.922 -1.676,0.021 -3.48,-1.607 -5.045,-2.746 -9.391,-6.833 -17.067,-15.253 -22.66,-25.438 -2.539,-4.624 -4.563,-9.531 -6.884,-14.443 -3.625,-0.424 -7.487,-0.796 -11.326,-1.336 -10.092,-1.417 -19.342,-5.245996 -28.276,-9.982996 -1.706,-0.905 -3.52,-1.815 -5.389,-2.166 -6.268,-1.171 -12.084,-3.539 -17.525,-6.694 -7.607,-4.413 -15.1,-9.04 -22.463,-13.85 -4.91,-3.208 -9.416,-6.982 -12.126,-12.5 2.243,1.166 3.803,3.161 5.665,4.782 2.002,1.744 3.976,3.526 6.062,5.164 2.086,1.638 4.262,3.168 6.462,4.65 2.085,1.404 4.229,2.721 6.388,4.011 2.277,1.36 4.575,2.691 6.913,3.943 2.337,1.252 4.708,2.447 7.114,3.561 2.389,1.104 4.838,2.074 7.577,2.619 -0.725,-0.589 -1.419,-1.223 -2.18,-1.761 -7.07,-5.006 -14.199,-9.93 -21.204,-15.024 -2.589,-1.883 -4.938,-4.108 -7.302,-6.281 -1.057,-0.97 -1.879,-2.196 -2.458,-3.668 15.683,12.217 32.167,22.993 50.234,31.569 -0.657,-0.728 -1.323,-1.449 -1.972,-2.186 -4.8,-5.443 -9.599,-10.89 -14.395,-16.337 -0.184,-0.209 -0.356,-0.436 -0.495,-0.676 -3.336,-5.77 -6.441,-11.694 -11.256,-16.458 -0.369,-0.363 -0.484,-0.984 -0.364,-1.852 2.682,2.669 5.364,5.339 8.045,8.008 0.079,-0.107 0.158,-0.213 0.238,-0.32 -2.166,-3.528 -4.354,-7.042 -6.477,-10.595 -0.394,-0.66 -0.524,-1.478 -0.289,-2.513 0.402,0.46 0.905,0.866 1.192,1.39 4.961,9.059 12.816,15.009 21.572,19.922 5.356,3.005 10.851,5.765 16.299,8.603 10.317,5.372 20.065,11.614 29.112,18.939 0.533,0.432 1.115,0.803996 2.401,1.724996 -2.714,-6.088996 -7.323,-10.160996 -9.049,-15.848996 7.623,9.576 14.144,19.895996 20.759,30.142996 1.083,1.678 1.602,3.719 2.737,6.444 -2.115,-1.551 -3.387,-2.481 -4.659,-3.413 0,0.006 0.152,0.148 0.152,0.148 z m -19.981,-14.247 c -1.918,-3.792 -2.64,-7.469996 -5.744,-9.466996 -9.273,-5.966 -18.676,-11.729 -28.006,-17.606 -1.48,-0.933 -2.489,-0.544 -3.185,0.907 -4.388,-2.886 -8.62,-5.671 -12.853,-8.455 -0.202,0.306 -0.404,0.614 -0.606,0.92 12.734,16.675 26.704,31.547996 50.394,33.700996 z"
     id="path10"
     style="clip-rule:evenodd;fill-rule:evenodd;stroke-width:1.37048888" /><path
     d="m 304.066,252.20003 c 2.914,0.9 1.937,-2.451 3.777,-2.75 0,0.936 0,1.854 0,3.217 16.507,-0.598 30.52,-7.486 44.1,-15.65 0.166,0.23 0.33,0.461 0.495,0.691 -1.347,1.248 -2.614,2.6 -4.056,3.73 -6.678,5.23 -14.61,8.117 -22.112,11.826 -6.583,3.258 -13.011,6.811 -20.197,9.115 1.492,0.178 2.983,0.355 4.7,0.561 -0.453,0.436 -0.629,0.762 -0.845,0.789 -9.155,1.156 -18.49,2.799 -27.238,-1.111 -3.73,-1.668 -7.848,-1.824 -11.304,-4.164 2.3,0.297 4.602,0.592 6.903,0.887 0.057,-0.174 0.114,-0.348 0.171,-0.523 -1.746,-0.721 -3.492,-1.441 -5.658,-2.336 1.002,-0.439 1.485,-0.65 2.021,-0.887 -0.083,-0.182 -0.12,-0.467 -0.254,-0.525 -2.946,-1.271 -5.997,-2.344 -8.81,-3.859 -1.095,-0.59 -3.983,-0.586 -2.426,-3.393 0.061,-0.113 -0.689,-0.756 -1.127,-1.053 -5.67,-3.832 -11.329,-7.615 -16.102,-12.656 -2.246,-2.373 -5.371,-3.914 -7.731,-6.547 3.415,1.346 6.987,2.396 10.203,4.113 3.807,2.033 7.273,4.695 10.945,6.992 10.672,6.672 22.278,10.822 34.949,12.885 0.277,-4.092 0.544,-8.039 0.811,-11.986 0.269,-0.004 0.538,-0.01 0.807,-0.016 0.198,1.215 0.396,2.43 0.725,4.439 1.354,-4.777 2.688,-8.658 2.39,-13.002 -0.218,-3.174 0.29,-6.414 0.671,-9.602 0.156,-1.309 0.832,-2.555 1.982,-3.709 -0.039,0.676 -0.045,1.355 -0.119,2.029 -0.435,3.994 -1.427,7.893 -0.516,12.037 0.411,1.871 -0.566,4.09 -1.074,6.111 -1.053,4.193 -2.326,8.35 -0.583,13.67 0.974,-5.766 1.615,-10.697 2.675,-15.535 1.271,-5.807 1.048,-11.6 0.856,-17.465 -0.139,-4.252 0.533,-8.531 0.843,-12.799 0.35,-0.035 0.7,-0.07 1.05,-0.105 0.277,1.256 0.73,2.502 0.8,3.768 0.283,5.162 0.43,10.332 0.671,15.498 0.065,1.416 0.283,2.826 0.432,4.238 0.364,-0.018 0.728,-0.035 1.091,-0.051 0.145,-3.719 0.289,-7.436 0.435,-11.152 0.377,-0.014 0.755,-0.027 1.132,-0.041 0.134,1.406 0.251,2.814 0.408,4.221 0.277,2.477 0.856,4.955 0.8,7.424 -0.071,3.105 -0.654,6.197 -1.017,9.295 -3.705,2.18 -2.412,6.307 -3.691,9.434 -0.514,1.258 -1.218,2.437 -1.983,3.947 z m -0.985,-5.367 c 1.167,-0.652 2.144,-0.879 2.233,-1.295 0.915,-4.275 1.883,-8.561 1.762,-14.061 -1.368,1.311 -2.558,1.9 -2.665,2.645 -0.567,3.951 -0.863,7.945 -1.33,12.711 z"
     id="path12"
     style="clip-rule:evenodd;fill-rule:evenodd;stroke-width:1.37048888" /><path
     d="m 234.388,-125.85697 c -1.377,-1.347 -2.753,-2.694 -4.133,-4.037 -8.248,-8.033 -15.329,-17.011 -21.519,-26.697 -0.968,-1.514 -1.628,-3.236 -2.331,-4.904 -0.31,-0.735 -0.371,-1.577 -0.281,-2.526 7.738,12.571 16.584,24.177 28.018,33.804 -1.056,-1.988 -2.112,-3.977 -3.168,-5.965 0.187,-0.183 0.372,-0.365 0.559,-0.548 1.677,1.636 3.325,3.303 5.038,4.9 1.738,1.619 3.494,3.223 5.324,4.735 1.879,1.553 3.857,2.988 6.03,4.115 -4.028,-5.529 -8.056,-11.058 -12.083,-16.587 0.21,-0.19 0.421,-0.382 0.631,-0.572 4.28,3.832 8.378,7.896 12.89,11.431 4.605,3.609 9.472,6.941 14.491,9.95 4.946,2.965 10.227,5.373 15.141,8.466 -6.316,-1.415 -12.055,-4.16 -17.405,-7.632 -5.212,-3.38 -10.202,-7.102 -15.409,-10.467 10.459,12.852 23.667,20.704 40.596,22.108 -3.302,1.579 -6.686,0.132 -10.021,0.693 -0.307,0.658 -0.46,1.663 -1.01,1.982 -0.617,0.357 -1.617,0.22 -2.411,0.081 -2.58,-0.453 -5.144,-1.005 -7.713,-1.519 -0.108,0.285 -0.216,0.57 -0.324,0.854 2.455,1.146 4.909,2.294 7.365,3.44 -0.066,0.258 -0.132,0.516 -0.198,0.773996 -1.601,-0.289996 -3.277,-0.371996 -4.784,-0.918996 -2.09,-0.759 -4.019,-1.947 -6.079,-2.802 -1.788,-0.743 -3.62,-1.623 -5.505,-1.848 -11.825,-1.413 -22.414,-5.634 -31.537,-13.372 -0.419,-0.354 -0.904,-0.629 -1.464,-1.015 -0.275,0.692 -0.502,1.263 -0.917,2.306 -8.961,-2.246 -14.856,-8.108 -19.314,-16.529 -0.776,2.209 0.155,3.652 0.495,5.107 0.336,1.44 0.916,2.823 1.096,4.305 -6.018,-9.327 -4.432,-20.314 -7.164,-30.364 0.339,-0.094 0.68,-0.188 1.02,-0.281 1.333,4.287 2.602,8.595 4.019,12.852 1.438,4.315 3.032,8.574 6.449,12.072 -2.998,-9.627 -5.939,-19.02 -8.818,-28.432 -0.231,-0.753 -0.031,-1.638 0.493,-2.582 0.354,0.832 0.787,1.64 1.055,2.499 4.828,15.56 14.101,28.097 26.354,38.559 6.411,5.474 14.003,8.562 22.167,10.349 0.347,0.076 0.749,-0.093 1.155,-0.151 -3.698,-3.896 -7.454,-7.61 -10.904,-11.591 -1.711,-1.975 -3.494,-3.544 -6.025,-4.199 z m -18.328,-1.894 c -0.369,0.398 -0.739,0.796 -1.109,1.195 1.668,1.607 3.336,3.214 5.004,4.821 -0.049,-1.21 -0.681,-1.835 -1.232,-2.523 -0.914,-1.143 -1.778,-2.327 -2.663,-3.493 z"
     id="path14"
     style="clip-rule:evenodd;fill-rule:evenodd;stroke-width:1.37048888" /><path
     d="m 194.113,-20.656974 c 0.852,-0.387 1.658,-0.754 3.224,-1.463 -1.786,-0.41 -2.777,-0.637 -3.769,-0.865 0,-0.164 10e-4,-0.326 10e-4,-0.49 1.668,0 3.337,0 5.006,0 0.054,-0.162 0.108,-0.324 0.162,-0.486 -0.736,-0.283 -1.472,-0.566 -2.206,-0.85 -0.04,-0.219 -0.079,-0.441 -0.118,-0.66 0.931,-0.219 1.992,-0.23 2.758,-0.711 0.81,-0.512 1.34,-1.469 2.216,-2.494 1.885,0.428 4.021,0.912 6.142,1.395 -0.46,-0.855 -0.912,-1.697 -1.791,-3.332 3.212,0.766 5.538,1.32 8.572,2.045 -1.589,-2.186 -2.727,-3.752 -3.864,-5.318 -0.278,0.109 -0.556,0.219 -0.834,0.326 1.513,0.203 3.056,0.283 4.533,0.635 2.577,0.613 5.114,1.389 7.666,2.104 0.533,0.148 1.243,0.637 1.554,0.447 2.615,-1.584 4.408,0.156 6.355,1.393 0.163,0.102 0.485,-0.051 0.989,-0.121 -1.184,-1.051 -2.241,-1.99 -3.298,-2.928 0.056,-0.26 0.112,-0.521 0.168,-0.781 0.797,0 1.73,-0.273 2.371,0.045 3.973,1.971 7.881,4.074 12.228,6.354 -0.616,-1.076 -1.058,-1.848 -1.516,-2.648 3.319,-1.93 4.965,1.461 6.701,2.061 1.457,-0.416 2.361,-0.963 3.19,-0.867 6.176,0.711 11.272,3.387 15.339,8.221 2.142,2.547 4.854,4.605 7.209,6.98 1.022,1.031 2.121,2.16 2.022,3.6430004 -3.654,-1.1480004 -7.799,-1.4300004 -10.467,-3.5590004 -3.059,-2.443 -7.403,-0.994 -9.949,-4.217 0.356,0.959 0.711,1.918 1.114,3.006 -0.61,0.162 -1.158,0.467 -1.323,0.324 -2.837,-2.434 -6.098,-3.15 -9.794,-3.156 -1.444,-0.004 -2.885,-1.512 -4.772,-2.588 -4.467,2.922 -8.694,-0.43 -13.908,-1.83 1.546,2.344 2.501,4.4 0.823,5.551 -7.521,1.168 -12.549,-4.744 -19.864,-4.598 2.94,2.385 6.864,1.25 9.241,4.658 -9.516,0.453 -18.564,0.885 -27.614,1.314 -0.08,-0.242 -0.16,-0.484 -0.241,-0.727 0.706,-0.492 1.413,-0.982 2.129,-1.48 -0.327,-0.551 -0.645,-1.09 -1.234,-2.086 2.667,0 4.969,0 7.271,0 0.067,-0.238 0.135,-0.479 0.202,-0.717 -0.851,-0.499 -1.7,-0.993 -2.624,-1.53 z"
     id="path16"
     style="clip-rule:evenodd;fill-rule:evenodd;stroke-width:1.37048888" /><path
     d="m 349.893,-1.5419736 c 2.716,-1.094 5.432,-2.186 8.147,-3.279 -0.048,-0.348 -0.096,-0.699 -0.145,-1.047 -0.773,-0.053 -1.626,-0.34 -2.302,-0.107 -1.306,0.449 -2.501,1.211 -3.759,1.807 -1.687,0.799 -3.157,2.225 -5.381,1.033 -0.699,-0.375 -2.007,0.391 -3.466,0.734 1.25,-3.17 3.742,-4.574 6.081,-6.068 1.393,-0.889 3.021,-1.414 4.397,-2.3200004 4.64,-3.055 9.877,-4.273 15.224,-5.242 4.347,-0.787 8.679,-1.656 13.018,-2.488 2.302,-0.439 4.603,-0.877 7.219,-0.674 -0.835,0.533 -1.671,1.066 -2.507,1.6 0.07,0.156 0.138,0.314 0.207,0.473 2.677,-0.475 5.366,-0.889 8.028,-1.439 2.559,-0.529 5.09,-1.201 7.506,-1.779 0.867,1.514 1.501,2.621 2.211,3.861 -0.513,0.271 -1.072,0.566 -1.734,0.916 4.481,0.9 8.883,1.787 13.165,2.646 0.37,3.3770004 -2.111,3.4100004 -4.58,4.3420004 4.064,1.379 7.49,2.541 10.917,3.705 -0.054,0.299 -0.107,0.598 -0.161,0.898 -2.212,0 -4.426,-0.057 -6.636,0.012 -5.143,0.158 -10.283,0.43 -15.426,0.545 -1.777,0.041 -3.927,2.26 -5.353,-0.811 -0.13,-0.283 -1.569,0.027 -2.397,0.084 -1.441,0.098 -3.026,0.953 -4.094,-0.852 -0.095,-0.16 -0.532,-0.234 -0.771,-0.178 -3.704,0.867 -7.457,0.633 -10.881,-0.717 -3.539,-1.393 -7.147,0.773 -10.381,-0.986 -4.386,4.986 -10.637,4.049 -15.746,6.35699997 -0.134,-0.343 -0.267,-0.68399997 -0.4,-1.02599997 z"
     id="path18"
     style="clip-rule:evenodd;fill-rule:evenodd;stroke-width:1.37048888" /><path
     d="m 466.728,-47.815974 c -1.905,0.566 -2.933,-0.535 -3.533,-2.057 -0.917,-2.32 -1.719,-4.688 -2.466,-7.068 -0.407,-1.295 -0.602,-2.656 -1.579,-3.905 0.094,1.559 -0.013,3.163 0.32,4.67 0.873,3.945 1.998,7.834 2.896,11.773 0.326,1.428 0.216,2.949 0.453,4.404 0.173,1.066 0.502,2.127 0.917,3.125 0.61,1.475 1.358,2.895 2.047,4.336 -0.233,0.143 -0.467,0.285 -0.7,0.428 -3.449,-3.525 -7.375,-6.711 -10.203,-10.68 -2.449,-3.438 -3.654,-7.762 -5.409,-11.693 0.984,-6.379 -3.249,-11.538 -3.572,-17.759 1.701,3.622 3.401,7.243 5.102,10.864 -1.239,-6.661 -1.716,-13.274 -0.603,-20.064 2.041,5.086 4.605,9.929 5.275,15.487 0.288,-0.032 0.576,-0.065 0.864,-0.098 0.033,-3.344 0.179,-6.69 0.071,-10.029 -0.113,-3.484 -0.348,-6.977 -0.757,-10.438 -0.407,-3.456 -0.956,-6.909 -1.698,-10.308 -0.729,-3.335996 -1.781,-6.600996 -2.691,-9.895996 0.343,-0.106 0.685,-0.214 1.028,-0.319 2.866,8.496996 5.733,16.994996 8.811,26.118996 0.293,-1.726 0.49,-2.883 0.69,-4.04 0.122,0.021 0.301,-0.004 0.352,0.066 0.192,0.266 0.343,0.56 0.609,1.014 0.662,-6.513 -0.071,-12.648 -1.893,-18.699996 5.09,7.265996 3.251,15.981996 5.44,23.870996 1.485,-6.216 -0.322,-12.304 -0.794,-18.438 l -0.08,0.085 c 0.592,1.767 1.25,3.515 1.75,5.307 0.279,1.001 0.294,2.075 0.494,3.618 2.291,-3.675 0.132,-7.271 1.115,-10.756 1.768,3.28 4.772,23.151 4.055,28.111 -0.775,-2.619 -1.3,-4.387 -1.823,-6.155 -0.215,-0.008 -0.429,-0.017 -0.644,-0.024 -0.183,0.854 -0.376,1.707 -0.546,2.566 -0.27,1.368 -0.246,2.875 -0.833,4.087 -2.84,5.878 -1.675,11.977 -1.208,18.038 0.133,1.723 0.277,3.371 -1.347,4.533 -0.329,-7.66 -1.029,-10.875 -3.272,-13.297 -0.184,5.133 1.235,9.258 3.362,13.222 z m -4.278,-16.142 c 2.108,-1.998 1.777,-4.273 0.743,-6.629 -0.247,2.21 -0.495,4.419 -0.743,6.629 z m -9.257,-6.275 c -0.326,0.058 -0.653,0.116 -0.979,0.174 0.479,1.536 0.958,3.071 1.438,4.607 0.116,-0.021 0.233,-0.045 0.349,-0.067 -0.27,-1.571 -0.538,-3.143 -0.808,-4.714 z m 15.39,-9.504 c 0.131,0.071 0.264,0.141 0.396,0.211 0.062,-0.522 0.18,-1.045 0.174,-1.566 -0.006,-0.49 -0.141,-0.979 -0.219,-1.468 -0.118,0.018 -0.235,0.033 -0.352,0.05 0.001,0.923 0.001,1.849 0.001,2.773 z"
     id="path20"
     style="clip-rule:evenodd;fill-rule:evenodd;stroke-width:1.37048888" /><path
     d="m 373.513,135.21203 c -1.563,1.377 -3.086,1.701 -4.833,1.113 -0.654,-0.221 -1.36,-0.281 -2.035,-0.443 -7.537,-1.816 -14.425,-1.027 -19.89,5.494 -0.155,-0.258 -0.309,-0.516 -0.464,-0.773 0.691,-0.818 1.367,-1.648 2.08,-2.447 0.731,-0.822 1.5,-1.609 2.89,-3.096 -1.95,0.395 -3.07,0.592 -4.176,0.848 -13.709,3.18 -27.412,6.395 -41.134,9.52 -1.75,0.4 -3.602,0.514 -5.405,0.502 -8.814,-0.062 -17.533,-0.65 -25.999,-3.559 -8.565,-2.941 -17.252,-5.525 -25.887,-8.268 -0.489,-0.154 -0.982,-0.299 -2.259,-0.686 1.773,2.342 3.065,4.045 4.355,5.75 -0.137,0.193 -0.275,0.387 -0.414,0.582 -0.768,-0.33 -1.622,-0.537 -2.29,-1.01 -2.62,-1.855 -5.262,-3.695 -7.74,-5.732 -2.268,-1.861 -4.913,-2.574 -7.669,-3.025 -1.957,-0.32 -3.818,-0.295 -5.34,1.492 -0.77,0.906 -2.048,1.412 -3.155,1.988 -1.385,0.721 -2.992,0.748 -3.595,-0.771 -0.341,-0.857 0.162,-2.506 0.867,-3.24 2.578,-2.691 6.016,-3.412 9.6,-3.236 1.65,0.08 3.307,0.516 4.913,0.961 13.291,3.695 26.58,7.402 39.852,11.166 12.61,3.578 25.236,3.756 38.068,1.035 10.906,-2.312 21.944,-3.998 32.917,-5.994 5.338,-0.973 10.651,-2.08 15.996,-3.014 5,-0.874 8.09,0.526 10.747,4.843 z"
     id="path22"
     style="clip-rule:evenodd;fill-rule:evenodd;stroke-width:1.37048888" /><path
     d="m 341.544,10.401026 c 8.549,-8.5549996 17.991,-14.9919996 31.118,-12.4099996 9.75,1.91599997 19.068,4.889 27.472,10.324 1.118,0.725 2.133,1.609 3.664,2.7749996 -3.588,1.309 -5.597,-1.1579996 -8.038,-1.6719996 -2.607,-0.549 -5.094,-1.662 -7.636,-2.521 -2.524,-0.854 -5.051,-1.699 -8.152,-2.74 0.953,4.656 -0.309,8.1929996 -3.631,10.9059996 -3.006,2.455 -6.454,3.623 -10.336,3.348 -6.901,-0.488 -10.504,-5.459 -10.053,-14.1539996 -5.163,1.392 -9.783,3.681 -14.408,6.1439996 z"
     id="path24"
     style="clip-rule:evenodd;fill-rule:evenodd;stroke-width:1.37048888" /><path
     d="m 209.231,0.03002637 c 0.32,0.43 0.925,0.865 0.914,1.28500003 -0.1,3.893 2.21,5.766 5.52,6.922 3.128,1.092 6.23,2.2619996 9.885,3.5939996 -5.29,0.789 -16.119,-3.3009996 -24.201,-8.8549996 -1.01,0.391 -2.139,0.828 -3.467,1.34 3.32,-6.012 18.196,-11.547 27.815,-11.602 12.431,-0.074 23.728,2.969 33.906,10.082 3.367,2.354 6.78,4.699 8.878,8.4899996 -4.534,-0.49 -7.552,-3.7749996 -11.257,-5.7129996 -3.792,-1.982 -7.559,-4.014 -11.456,-6.08600003 -2.604,9.95100003 -8.063,14.09599963 -15.616,12.33799963 -7.138,-1.66 -10.05,-6.7339996 -8.41,-15.3359996 -4.428,0.678 -8.746,0.898 -12.426,3.63699997 -1.971,-0.52 -3.374,0.525 -5.21,1.80100003 1.435,1.039 2.595,1.879 3.87,2.801 0.488,-1.821 0.873,-3.258 1.255,-4.69800003 z"
     id="path26"
     style="clip-rule:evenodd;fill-rule:evenodd;stroke-width:1.37048888" /><path
     d="m 338.659,263.55903 c -2.862,1.363 -5.658,2.898 -8.6,4.062 -13.891,5.494 -28.254,6.092 -42.837,3.783 -4.397,-0.697 -8.791,-1.512 -13.117,-2.562 -11.663,-2.828 -21.31,-9.545 -30.865,-16.377 -2.901,-2.074 -5.662,-4.346 -8.486,-6.527 0.187,-0.283 0.373,-0.568 0.559,-0.852 1.824,1.115 3.734,2.111 5.458,3.365 11.481,8.35 24.646,12.807 38.032,16.924 12.513,3.848 25.034,3.359 37.658,1.162 4.386,-0.766 8.767,-1.592 13.098,-2.617 1.485,-0.352 2.487,1.711 4.176,0.301 1.18,-0.986 2.96,-1.254 4.472,-1.842 0.15,0.395 0.301,0.788 0.452,1.18 z"
     id="path28"
     style="clip-rule:evenodd;fill-rule:evenodd;stroke-width:1.37048888" /><path
     d="m 160.992,-38.848974 c -2.984,1.488 -3.634,4.145 -3.607,7.154 0.017,2.066 0.003,4.131 0.003,6.197 -0.33,0.014 -0.659,0.029 -0.989,0.043 -0.091,-2.07 -0.411,-4.162 -0.228,-6.209 0.422,-4.717 1.058,-9.414 1.673,-14.113 0.178,-1.352 0.588,-2.447 1.907,-3.455 1.445,-1.109 2.167,-2.898 0.871,-5.086 -0.745,-1.254 -0.925,-3.266 -0.527,-4.707 2.302,-8.33 4.768,-16.616 7.359,-24.861 1.085,-3.453 2.597,-6.773 3.958,-10.137 0.235,-0.58 0.687,-1.072 1.438,-1.455 -2.972,11.691 -7.493,22.924 -9.594,34.815 2.467,-4.888 3.212,-10.448 5.775,-15.274 0.317,0.102 0.633,0.204 0.95,0.307 -1.464,5.187 -2.927,10.372 -4.48,15.875 1.185,-0.067 2.202,-0.124 3.787,-0.214 -3.573,13.762 -7.127,27.454 -10.751,41.409 -0.99,-3.252 0.037,-11.469 2.394,-20.377 0.689,-3.395 1.396,-6.764 2.102,-10.135 -1.408,3.284 -3.142,6.518 -2.041,10.223 z"
     id="path30"
     style="clip-rule:evenodd;fill-rule:evenodd;stroke-width:1.37048888" /><path
     d="m 295.267,170.27803 c -7.811,-2.389 -13.865,-6.307 -19.31,-11.543 1.719,0.5 3.458,0.938 5.15,1.518 1.845,0.635 3.678,1.326 5.458,2.125 5.212,2.338 10.669,3.496 16.322,2.678 6.802,-0.982 13.239,-3.303 19.434,-6.273 1.322,-0.633 2.647,-1.26 4.734,-2.254 -1.739,3.484 -3.544,5.648 -5.91,7.414 -3.98,2.979 -8.455,5.084 -12.774,7.469 -2.596,-1.336 -4.917,2.598 -7.792,0.246 -1.204,-0.986 -3.165,-0.453 -4.468,1.02 -1.387,1.566 -2.897,3.027 -4.392,4.494 -0.646,0.633 -1.389,1.168 -2.355,1.52 1.146,-3.189 4.08,-5.179 5.903,-8.414 z"
     id="path32"
     style="clip-rule:evenodd;fill-rule:evenodd;stroke-width:1.37048888" /><path
     d="m 283.652,99.431026 c 2.585,1.840004 5.241,3.586004 7.739,5.535004 4.952,3.865 10.655,4.648 16.625,4.092 1.418,-0.133 2.854,-1.033 4.092,-1.863 1.015,-0.68 1.896,-1.682 2.583,-2.711 3.741,-5.605004 9.231,-7.268004 15.581,-7.135004 1.104,0.023 2.264,0.078 3.309,-0.207 4.164,-1.135 7.346,-3.264 7.849,-8.061 0.186,-1.771 0.692,-3.51 1.066,-5.336 2.016,2.467 2.39,5.695 0.991,8.721 -2.301,4.979 -7.881,9.500004 -14.429,8.703004 -3.001,-0.365 -5.48,0.475 -7.383,2.883 -0.431,0.547 -1.039,0.979 -1.379,1.57 -3.062,5.316 -8.173,7.246 -13.754,7.322 -6.201,0.086 -12.257,-1.227 -16.85,-6.051 -2.188,-2.297 -4.31,-4.656 -6.461,-6.988004 0.14,-0.158 0.281,-0.316 0.421,-0.474 z"
     id="path34"
     style="clip-rule:evenodd;fill-rule:evenodd;stroke-width:1.37048888" /><path
     d="m 469.357,-116.00997 c 1.218,1.353 2.436,2.705 4.233,4.698 -0.759,-3.988 -1.358,-7.137 -1.957,-10.286 0.334,-0.147 0.669,-0.297 1.004,-0.444 0.968,1.26 2.06,2.445 2.884,3.795 2.886,4.72 4.246,10.013 5.342,15.351 1.1,5.358996 2.473,10.588996 5.077,15.445996 0.556,1.037 0.779,2.251 0.487,3.707 -0.775,-1.073 -1.549,-2.146 -2.333,-3.234 -0.516,0.446 -0.895,0.774 -1.556,1.345 -0.891,-3.518 -1.695,-6.69 -2.498,-9.863 0.313,9.479 -0.148,18.608 -5.703,26.756 5.494,-16.501 3.787,-32.122996 -5.892,-46.848996 0.304,-0.141 0.608,-0.282 0.912,-0.422 z"
     id="path36"
     style="clip-rule:evenodd;fill-rule:evenodd;stroke-width:1.37048888" /><path
     d="m 345.268,14.263026 c 0.713,-0.584 1.341,-1.096 2.008,-1.641 0.946,1.059 1.769,2.355 2.932,3.168 1.111,0.779 2.557,1.109 3.888,1.541 6.183,1.998 12.592,1.674 18.953,1.736 4.853,0.047 9.711,-0.023 14.204,-2.289 0.683,-0.346 1.462,-0.561 2.045,-1.023 0.849,-0.672 1.446,-1.738 2.368,-2.219 0.767,-0.398 1.847,-0.199 3.303,-0.301 -0.682,1.014 -1.125,2.008 -1.855,2.701 -2.839,2.695 -6.241,4.609 -10.069,5.166 -8.629,1.262 -17.308,1.572 -25.853,-0.66 -3.666,-0.957 -7.467,-1.762 -10.388,-4.5 -0.547,-0.515 -1.021,-1.111 -1.536,-1.679 z"
     id="path38"
     style="clip-rule:evenodd;fill-rule:evenodd;stroke-width:1.37048888" /><path
     d="m 155.943,67.663026 c 0.245,0.311 0.49,0.619 0.753,0.949 0.398,-1.918 0.807,-3.879 1.215,-5.84 0.109,0.021 0.219,0.045 0.329,0.066 -0.259,16.379 -0.517,32.756 -0.779,49.279004 -1.396,-0.592 -1.823,-1.822 -1.947,-3.24 -0.278,-3.188 -0.56,-6.375 -0.803,-9.564004 -0.317,-4.139 -0.676,-8.275 -0.875,-12.42 -0.306,-6.381 0.241,-12.707 1.23,-18.992 0.292,-0.078 0.585,-0.158 0.877,-0.238 z"
     id="path40"
     style="clip-rule:evenodd;fill-rule:evenodd;stroke-width:1.37048888" /><path
     d="m 154.159,-50.016974 c 2.171,-0.645 1.41,-2.762 2,-4.168 0.722,-1.727 1.026,-3.627 1.512,-5.452 0.287,0.023 0.574,0.045 0.862,0.068 0.064,0.838 0.308,1.708 0.163,2.508 -0.644,3.551 -1.227,7.127 -2.147,10.609 -2.551,9.652 -3.203,19.51 -3.492,29.418 -0.046,1.586 -0.006,3.176 -0.006,4.764 -0.387,0.031 -0.775,0.062 -1.161,0.096 -0.535,-2.955 -1.357,-5.893 -1.53,-8.869 -0.193,-3.324 0.201,-6.684 0.342,-10.029 0.012,-0.277 0.141,-0.594 0.05,-0.828 -1.852,-4.746 0.415,-9.178 1.183,-13.672 0.86,-5.039 2.302,-9.977 3.491,-14.96 0.266,0.06 0.533,0.118 0.799,0.177 -0.665,3.469 -1.33,6.938 -1.979,10.424 -0.434,2.902 -0.883,5.783 -1.334,8.666 1.404,-2.824 2.904,-5.66 1.247,-8.752 z"
     id="path42"
     style="clip-rule:evenodd;fill-rule:evenodd;stroke-width:1.37048888" /><path
     d="m 175.027,-124.23797 c -4.204,4.051 -2.854,10.1 -5.676,14.725 0.59,-0.631 1.179,-1.261 1.768,-1.891 0.215,0.102 0.43,0.203 0.646,0.305 -0.531,1.332 -1.035,2.675 -1.597,3.993 -3.058,7.177996 -6.131,14.348996 -9.39,21.970996 -1.24,-1.97 -0.262,-3.241 -0.026,-4.495 0.271,-1.438 1.25,-2.732 -0.209,-4.218 -0.411,-0.418 0.019,-1.864 0.33,-2.745 0.603,-1.705 1.4,-3.341 2.108,-5.010996 0.272,-0.639 0.915,-1.467 0.717,-1.905 -1.623,-3.594 0.883,-6.153 2.311,-8.799 2.366,-4.386 5.202,-8.518 7.838,-12.757 0.394,0.276 0.787,0.551 1.18,0.827 z"
     id="path44"
     style="clip-rule:evenodd;fill-rule:evenodd;stroke-width:1.37048888" /><path
     d="m 141.288,-207.39697 c -1.506,0.592 -3.012,1.185 -4.517,1.777 4.325,-3.63 8.631,-7.259 13.906,-9.255 5.137,-1.944 10.406,-3.539 16.526,-5.592 -8.936,-1.115 -16.373,1.599 -24.166,3.608 4.524,-5.537 23.811,-8.362 31.625,-4.373 -11.135,3.321 -21.731,6.506 -31.208,12.364 -0.721,0.489 -1.444,0.98 -2.166,1.471 z"
     id="path46"
     style="clip-rule:evenodd;fill-rule:evenodd;stroke-width:1.37048888" /><path
     d="m 250.08,89.140026 c -0.724,1.318 -1.446,2.637 -2.319,4.229 0.922,0.389 1.617,0.682 2.318,0.977 -0.05,0.191 -0.049,0.484 -0.188,0.678 -1.132,1.564 -2.161,3.232 -3.474,4.633 -1.549,1.650004 -2.959,3.150004 -5.676,3.658004 -3.584,0.668 -6.923,2.744 -10.314,4.33 -2.343,1.094 -4.449,2.76 -7.351,2.596 4.676,-3.375 9.51,-6.555 13.983,-10.18 4.399,-3.564004 8.43,-7.582004 12.622,-11.402004 0.132,0.158 0.265,0.32 0.399,0.481 z"
     id="path48"
     style="clip-rule:evenodd;fill-rule:evenodd;stroke-width:1.37048888" /><path
     d="m 487.656,-88.130974 c 0,-2.746 0.258,-5.522 -0.054,-8.232 -0.635,-5.519996 -1.259,-11.075996 -2.487,-16.480996 -1.146,-5.045 -3.585,-9.583 -7.038,-13.61 -2.613,-3.048 -4.721,-6.53 -6.524,-10.389 0.612,0.531 1.32,0.984 1.82,1.604 2.101,2.604 4.062,5.325 6.238,7.864 0.941,1.098 1.237,3.358 3.592,2.546 1.078,1.926 2.482,3.744 3.162,5.802 1.177,3.562 2.478,7.239 2.694,10.93 0.364,6.207 -0.066,12.460996 -0.215,18.693996 -0.01,0.461 -0.442,0.911 -0.677,1.366 -0.17,-0.032 -0.34,-0.063 -0.511,-0.094 z"
     id="path50"
     style="clip-rule:evenodd;fill-rule:evenodd;stroke-width:1.37048888" /><path
     d="m 144.423,-222.15397 c 10.397,-5.307 21.509,-7.027 33.353,-6 -0.166,-2.821 -2.983,-3.441 -3.915,-5.901 0.903,0.281 1.683,0.305 2.137,0.702 2.398,2.094 4.753,4.242 7.01,6.488 0.294,0.293 -0.07,1.25 -0.112,1.704 -2.518,-0.304 -4.788,-0.742 -7.071,-0.825 -9.298,-0.34 -18.377,0.979 -27.233,3.852 -1.285,0.417 -2.618,0.681 -3.928,1.016 -0.08,-0.346 -0.16,-0.692 -0.241,-1.036 z"
     id="path52"
     style="clip-rule:evenodd;fill-rule:evenodd;stroke-width:1.37048888" /><path
     d="m 249.376,274.10203 c 18.608,16.018 40.194,20.904 64.183,18.734 -2.575,0.502 -5.131,1.301 -7.727,1.461 -18.507,1.131 -35.385,-3.574 -50.38,-14.578 -2.209,-1.622 -4.059,-3.732 -6.076,-5.617 z"
     id="path54"
     style="clip-rule:evenodd;fill-rule:evenodd;stroke-width:1.37048888" /><path
     d="m 234.253,-126.01097 c 0,0.277 0,0.555 0,1.22 -0.766,-0.172 -1.563,-0.161 -2.142,-0.511 -3.097,-1.872 -6.489,-3.448 -9.142,-5.833 -13.08,-11.765 -20.933,-26.631 -25.022,-43.603 -0.228,-0.942 -0.283,-1.932 -0.348,-2.904 -0.034,-0.515 0.082,-1.039 0.215,-2.467 0.553,1.601 0.911,2.343 1.064,3.126 3.323,16.975 11.482,31.318 23.72,43.398 3.385,3.34 7.286,6.027 11.789,7.729 z"
     id="path56"
     style="clip-rule:evenodd;fill-rule:evenodd;stroke-width:1.37048888" /><path
     d="m 464.576,-14.418974 c 0.118,-3.668 -1.658,-6.748 -3.266,-9.799 -3.182,-6.039 -6.624,-11.939 -9.899,-17.93 -1.538,-2.812 -2.984,-5.676 -4.374,-8.564 -0.374,-0.777 -0.388,-1.729 0.012,-2.855 0.612,0.857 1.316,1.664 1.821,2.58 4.433,8.051 8.735,16.178 13.279,24.164 2.238,3.934 3.088,7.982 2.421,12.408 0.001,0.002 0.006,-0.004 0.006,-0.004 z"
     id="path58"
     style="clip-rule:evenodd;fill-rule:evenodd;stroke-width:1.37048888" /><path
     d="m 269.159,76.386026 c -1.586,2.283 -2.887,3.775 -3.764,5.484 -3.78,7.375 -1.604,10.055 5.016,12.867 1.619,0.686 3.493,0.771 5.428,1.17 -0.548,2.205 -2.149,2.293 -3.824,2.195 -4.265,-0.248 -10.153,-5.033 -10.728,-8.695 -0.774,-4.928 2.488,-10.723 7.872,-13.021 z"
     id="path60"
     style="clip-rule:evenodd;fill-rule:evenodd;stroke-width:1.37048888" /><path
     d="m 193.989,-148.84597 c 3.864,15.37 -1.011,12.119 16.905,33.483 -11.293,-4.898 -17.457,-19.952 -16.905,-33.483 z"
     id="path62"
     style="clip-rule:evenodd;fill-rule:evenodd;stroke-width:1.37048888" /><path
     d="m 294.874,235.67303 c -1.239,-8.248 -1.654,-16.357 4.699,-23.918 0.514,4.762 -0.621,8.764 -2.057,12.553 -1.223,3.225 -1.732,6.377 -1.482,9.746 0.043,0.58 -0.187,1.18 -0.29,1.771 -0.29,-0.051 -0.58,-0.102 -0.87,-0.152 z"
     id="path64"
     style="clip-rule:evenodd;fill-rule:evenodd;stroke-width:1.37048888" /><path
     d="m 189.118,-152.16997 c 0,6.187 0,11.726 0,17.266 0.127,0.007 0.254,0.015 0.382,0.021 0.399,-3.718 0.799,-7.437 1.198,-11.155 0.198,0.024 0.396,0.049 0.594,0.073 0,5.946 0,11.892 0,18.82 -1.286,-1.742 -2.544,-2.75 -2.868,-4.001 -1.696,-6.554 -1.671,-13.196 -0.401,-19.835 0.042,-0.217 0.343,-0.385 1.095,-1.189 z"
     id="path66"
     style="clip-rule:evenodd;fill-rule:evenodd;stroke-width:1.37048888" /><path
     d="m 354.006,-14.102974 c -3.047,2.223 -6.269,4.2440004 -9.093,6.7210004 -2.747,2.41 -5.087,5.283 -7.672,8.02099997 -1.129,-3.77699997 0.598,-6.24199997 3.321,-8.07399997 4.091,-2.7540004 8.321,-5.3030004 12.491,-7.9390004 0.317,0.424 0.635,0.847 0.953,1.271 z"
     id="path68"
     style="clip-rule:evenodd;fill-rule:evenodd;stroke-width:1.37048888" /><path
     d="m 327.926,61.768026 c -4.575,-13.521 -7.864,-27.318 -3.271,-41.674 -1.768,6.99 -1.413,14.098 -0.454,21.127 0.939,6.891 2.459,13.702 3.725,20.547 z"
     id="path70"
     style="clip-rule:evenodd;fill-rule:evenodd;stroke-width:1.37048888" /><path
     d="m 171.404,-101.21697 c -3.381,8.801996 -6.763,17.601996 -10.469,27.247996 -0.33,-1.499 -0.732,-2.255 -0.599,-2.897 1.843,-8.913 5.977,-16.834 11.068,-24.350996 z"
     id="path72"
     style="clip-rule:evenodd;fill-rule:evenodd;stroke-width:1.37048888" /><path
     d="m 265.657,29.014026 c -6.805,9.572 -14.062,18.645 -23.067,26.082 -0.209,-0.193 -0.417,-0.387 -0.626,-0.578 7.897,-8.502 15.795,-17.002 23.693,-25.504 z"
     id="path74"
     style="clip-rule:evenodd;fill-rule:evenodd;stroke-width:1.37048888" /><path
     d="m 287.105,130.83103 c 2.529,-1.762 4.964,-2.211 7.608,-0.256 3.753,2.773 7.848,3.236 12.256,1.449 2.277,-0.922 4.716,-1.445 7.898,-2.393 -6.818,5.986 -14.741,6.598 -21.247,2.369 -1.068,-0.693 -2.505,-0.887 -3.804,-1.139 -0.872,-0.167 -1.804,-0.03 -2.711,-0.03 z"
     id="path76"
     style="clip-rule:evenodd;fill-rule:evenodd;stroke-width:1.37048888" /><path
     d="m 414.442,0.28402637 c -0.448,2.39100003 -2.71,2.41400003 -8.679,-0.051 1.07,-0.529 1.874,-0.928 2.979,-1.47499997 -0.683,-0.354 -1.246,-0.648 -1.733,-0.9 1.161,-1.713 8.808,-0.656 12.539,1.67999997 -1.978,0.289 -3.349,0.49 -5.106,0.746 z"
     id="path78"
     style="clip-rule:evenodd;fill-rule:evenodd;stroke-width:1.37048888" /><path
     d="m 194.745,128.62803 c -5.577,-4.898 -14.051,-19.848 -14.636,-24.848 4.899,8.318 9.767,16.582 14.636,24.848 z"
     id="path80"
     style="clip-rule:evenodd;fill-rule:evenodd;stroke-width:1.37048888" /><path
     d="m 164.105,-116.37097 c 4.749,-7.673 9.505,-15.365 16.321,-22.596 -0.914,3.3 -10.801,17.085 -16.321,22.596 z"
     id="path82"
     style="clip-rule:evenodd;fill-rule:evenodd;stroke-width:1.37048888" /><path
     d="m 298.576,128.41103 c 3.875,0.699 6.792,-0.461 9.291,-2.869 2.86,-2.758 1.612,-6.123 1.198,-9.664 3.249,3.961 3.071,8.043 -0.202,11.271 -3.419,3.373 -7.211,3.991 -10.287,1.262 z"
     id="path84"
     style="clip-rule:evenodd;fill-rule:evenodd;stroke-width:1.37048888" /><path
     d="m 368.229,260.22303 c 6.055,-6.682 12.109,-13.365 18.484,-20.398 -1.692,4.051 -12.773,16.666 -18.484,20.398 z"
     id="path86"
     style="clip-rule:evenodd;fill-rule:evenodd;stroke-width:1.37048888" /><path
     d="m 156.273,-209.67497 c -0.475,0.219 -0.948,0.438 -1.422,0.656 -3.52,1.922 -7.061,3.805 -10.55,5.78 -2.491,1.408 -4.911,2.94 -7.363,4.417 -0.154,-0.244 -0.308,-0.488 -0.462,-0.732 2.558,-1.703 5.06,-3.5 7.686,-5.092 4.045,-2.453 8.166,-4.782 12.282,-7.115 0.417,-0.236 1.021,-0.143 1.539,-0.202 -0.571,0.762 -1.141,1.525 -1.71,2.288 z"
     id="path88"
     style="clip-rule:evenodd;fill-rule:evenodd;stroke-width:1.37048888" /><path
     d="m 232.059,18.763026 c 8.617,-0.193 16.905,-1.699 25.01,-4.299 -7.872,4.267 -16.298,5.386 -25.01,4.299 z"
     id="path90"
     style="clip-rule:evenodd;fill-rule:evenodd;stroke-width:1.37048888" /><path
     d="m 351.459,103.77803 c 4.296,4.973 9.327,8.895 15.709,10.922 -7.503,-0.309 -12.339,-4.547 -15.709,-10.922 z"
     id="path92"
     style="clip-rule:evenodd;fill-rule:evenodd;stroke-width:1.37048888" /><path
     d="m 256.056,8.5500264 c 0.109,0.195 0.494,0.891 0.978,1.7659996 1.132,-0.258 2.305,-0.5249996 3.478,-0.7929996 0.071,0.271 0.259,0.6369996 0.175,0.7149996 -3.031,2.895 -6.604,4.193 -11.124,3.803 2.333,-1.974 4.39,-3.714 6.493,-5.4909996 z"
     id="path94"
     style="clip-rule:evenodd;fill-rule:evenodd;stroke-width:1.37048888" /><path
     d="m 393.699,20.909026 c -5.063,4.756 -18.371,9.92 -25.355,8.646 9.138,-0.672 16.458,-3.971 23.509,-8.027 0.562,-0.322 1.283,-0.365 1.93,-0.537 z"
     id="path96"
     style="clip-rule:evenodd;fill-rule:evenodd;stroke-width:1.37048888" /><path
     d="m 411.15,120.73303 c 4.75,-5.164 9.836,-10.693 14.896,-16.197 -2.195,5.418 -9.88,13.645 -14.896,16.197 z"
     id="path98"
     style="clip-rule:evenodd;fill-rule:evenodd;stroke-width:1.37048888" /><path
     d="m 298.259,99.358026 c -9.859,0.219 -16.245,-5.545 -15.653,-14.111 0.985,9.51 7.894,12.295 15.653,14.111 z"
     id="path100"
     style="clip-rule:evenodd;fill-rule:evenodd;stroke-width:1.37048888" /><path
     d="m 355.18,50.257026 c -0.391,-0.08 -0.886,-0.033 -1.158,-0.26 -5.695,-4.701 -10.796,-9.988 -15.184,-16.111 0.334,0.219 0.718,0.387 0.995,0.664 4.626,4.615 9.248,9.234 13.845,13.881 0.553,0.559 0.951,1.271 1.419,1.914 z"
     id="path102"
     style="clip-rule:evenodd;fill-rule:evenodd;stroke-width:1.37048888" /><path
     d="m 137.357,-63.581974 c -0.614,-7.429 -0.658,-14.814 1.961,-21.986 -0.653,7.329 -1.307,14.657 -1.961,21.986 z"
     id="path104"
     style="clip-rule:evenodd;fill-rule:evenodd;stroke-width:1.37048888" /><path
     d="m 244.393,29.983026 c 5.904,-1.891 11.289,-3.617 16.66,-5.34 -2.59,2.825 -10.498,5.461 -16.66,5.34 z"
     id="path106"
     style="clip-rule:evenodd;fill-rule:evenodd;stroke-width:1.37048888" /><path
     d="m 308.582,178.05703 c 1.637,-1.486 3.261,-2.986 4.916,-4.451 1.189,-1.053 2.419,-2.057 3.937,-2.725 -2.063,2.668 -4.126,5.336 -6.189,8.004 l 0.134,-0.127 c -1.362,1.127 -2.724,2.252 -4.787,3.959 0.692,-1.758 1.085,-2.76 1.478,-3.76 0.169,-0.298 0.34,-0.599 0.511,-0.9 z"
     id="path108"
     style="clip-rule:evenodd;fill-rule:evenodd;stroke-width:1.37048888" /><path
     d="m 238.402,-10.213974 c 5.607,-0.562 10.665,0.9880004 16.188,4.1090004 -5.951,-1.509 -11.069,-2.808 -16.188,-4.1090004 z"
     id="path110"
     style="clip-rule:evenodd;fill-rule:evenodd;stroke-width:1.37048888" /><path
     d="m 308.582,178.05703 c -0.17,0.301 -0.341,0.602 -0.511,0.9 -0.881,0.629 -1.737,1.299 -2.653,1.873 -0.755,0.471 -1.332,0.471 -1.011,-0.705 1.072,-1.037 2.144,-2.076 3.216,-3.113 1.124,-2.688 2.587,-5.031 6.402,-6.201 -2.146,2.856 -3.795,5.051 -5.443,7.246 z"
     id="path112"
     style="clip-rule:evenodd;fill-rule:evenodd;stroke-width:1.37048888" /><path
     d="m 386.602,261.18803 c -0.668,1.133 -1.117,2.375 -1.977,3.176 -0.538,0.5 -1.697,0.33 -2.576,0.461 -0.049,-0.873 -0.3,-1.799 -0.089,-2.604 0.199,-0.762 0.771,-1.531 1.387,-2.047 0.54,-0.451 1.402,-0.809 2.059,-0.723 0.416,0.056 0.717,0.997 1.196,1.737 z"
     id="path114"
     style="clip-rule:evenodd;fill-rule:evenodd;stroke-width:1.37048888" /><path
     d="m 311.245,178.88603 c 1.481,-1.367 2.968,-2.729 4.443,-4.102 1.652,-1.539 3.294,-3.09 5.381,-4.252 -0.454,0.881 -0.909,1.762 -1.362,2.645 -1.596,1.541 -3.192,3.082 -4.789,4.621 -0.936,0.781 -1.872,1.562 -2.907,2.428 -0.239,-0.568 -0.43,-1.023 -0.627,-1.475 -0.005,0.008 -0.139,0.135 -0.139,0.135 z"
     id="path116"
     style="clip-rule:evenodd;fill-rule:evenodd;stroke-width:1.37048888" /><path
     d="m 403.756,-104.01597 c 1.86,2.137 3.7,4.292996 5.593,6.399996 0.701,0.782 1.525,1.452 2.3,2.178 0.006,0.006 -0.131,-0.111 -0.124,-0.104 -0.096,0.659 -0.2,1.313 -0.305,1.978 -2.592,-1.398 -5.439,-5.475 -7.379,-10.532996 z"
     id="path118"
     style="clip-rule:evenodd;fill-rule:evenodd;stroke-width:1.37048888" /><path
     d="m 450.052,-34.561974 c -2.842,-4.191 -3.637,-9.086 -5.146,-13.734 0.307,-0.1 0.614,-0.201 0.919,-0.301 1.379,4.703 2.758,9.408 4.136,14.111 z"
     id="path120"
     style="clip-rule:evenodd;fill-rule:evenodd;stroke-width:1.37048888" /><path
     d="m 211.591,12.358026 c -3.225,-1.717 -6.45,-3.4339996 -9.675,-5.1479996 0.185,-0.359 0.369,-0.719 0.553,-1.076 3.192,1.785 6.383,3.568 9.575,5.3539996 -0.15,0.288 -0.302,0.579 -0.453,0.87 z"
     id="path122"
     style="clip-rule:evenodd;fill-rule:evenodd;stroke-width:1.37048888" /><path
     d="m 306.798,84.204026 c -0.436,-3.904 -0.873,-7.811 -1.308,-11.715 2.367,3.649 2.14,7.639 1.308,11.715 z"
     id="path124"
     style="clip-rule:evenodd;fill-rule:evenodd;stroke-width:1.37048888" /><path
     d="m 333.595,74.376026 c 3.856,0.578 6.422,2.428 8.07,5.709 -2.55,-1.805 -5.1,-3.61 -8.07,-5.709 z"
     id="path126"
     style="clip-rule:evenodd;fill-rule:evenodd;stroke-width:1.37048888" /><path
     d="m 314.92,177.79803 c 1.596,-1.539 3.191,-3.08 4.788,-4.621 0.375,-0.082 0.75,-0.164 1.515,-0.332 -1.453,2.305 -2.732,4.336 -4.01,6.365 10e-4,0 0.07,-0.068 0.07,-0.068 -1.145,0.179 -2.502,0.732 -2.363,-1.344 z"
     id="path128"
     style="clip-rule:evenodd;fill-rule:evenodd;stroke-width:1.37048888" /><path
     d="m 307.622,177.01303 c -1.072,1.037 -2.144,2.076 -3.216,3.113 -0.813,0.35 -1.626,0.701 -2.44,1.053 -0.095,-0.125 -0.189,-0.25 -0.285,-0.371 1.645,-1.727 3.289,-3.451 5.216,-5.473 0.354,0.82 0.54,1.25 0.725,1.678 z"
     id="path130"
     style="clip-rule:evenodd;fill-rule:evenodd;stroke-width:1.37048888" /><path
     d="m 294.683,180.61803 c 1.55,-1.801 2.998,-3.482 4.447,-5.166 0.131,2.783 -1.864,4.033 -3.406,5.59 -0.058,0.058 -0.387,-0.152 -1.041,-0.424 z"
     id="path132"
     style="clip-rule:evenodd;fill-rule:evenodd;stroke-width:1.37048888" /><path
     d="m 458.736,-20.477974 c -1.233,-3.203 -2.467,-6.406 -3.7,-9.609 2.038,2.857 4.344,5.617 3.625,9.506 0.017,0.023 0.075,0.103 0.075,0.103 z"
     id="path134"
     style="clip-rule:evenodd;fill-rule:evenodd;stroke-width:1.37048888" /><path
     d="m 479.238,-157.72297 c -2.214,-1.824 -4.427,-3.648 -6.641,-5.473 0.154,-0.188 0.308,-0.376 0.462,-0.565 2.175,1.765 4.35,3.53 6.525,5.295 -0.115,0.248 -0.23,0.495 -0.346,0.743 z"
     id="path136"
     style="clip-rule:evenodd;fill:#ffffff;fill-rule:evenodd;stroke-width:1.37048888" /><path
     d="m 465.639,-28.928974 c 0.586,2.873 1.172,5.746 1.759,8.621 -0.283,0.051 -0.565,0.102 -0.848,0.152 -0.457,-2.895 -0.915,-5.789 -1.372,-8.686 0.153,-0.028 0.307,-0.058 0.461,-0.087 z"
     id="path138"
     style="clip-rule:evenodd;fill-rule:evenodd;stroke-width:1.37048888" /><path
     d="m 287.554,172.17303 c -1.211,0.734 -2.423,1.471 -4.201,2.549 1.311,-2.745 1.311,-2.745 4.201,-2.549 z"
     id="path140"
     style="clip-rule:evenodd;fill-rule:evenodd;stroke-width:1.37048888" /><path
     d="m 156.273,-209.67497 c 0.569,-0.762 1.139,-1.525 1.708,-2.288 0.633,-0.457 1.267,-0.914 1.9,-1.371 -0.009,2.697 -1.877,3.573 -3.463,4.701 -0.048,-0.347 -0.097,-0.694 -0.145,-1.042 z"
     id="path142"
     style="clip-rule:evenodd;fill-rule:evenodd;stroke-width:1.37048888" /><path
     d="m 140.322,-205.62097 c -1.447,1.61 -2.895,3.221 -4.342,4.832 0.727,-2.344 2.064,-4.08 4.423,-4.75 0.001,0 -0.081,-0.082 -0.081,-0.082 z"
     id="path144"
     style="clip-rule:evenodd;fill-rule:evenodd;stroke-width:1.37048888" /><path
     d="m 299.343,179.81303 c 1.269,-1.438 2.538,-2.877 4.168,-4.723 -1.036,2.839 -1.036,2.839 -4.168,4.723 z"
     id="path146"
     style="clip-rule:evenodd;fill-rule:evenodd;stroke-width:1.37048888" /><path
     d="m 317.282,179.14103 c 0,0 -0.069,0.068 -0.07,0.068 0.681,-0.986 1.363,-1.975 2.045,-2.963 0.37,0.344 0.739,0.689 1.108,1.035 -0.979,1.098 -1.957,2.195 -2.936,3.293 -0.185,-0.107 -0.369,-0.215 -0.553,-0.322 0.136,-0.37 0.271,-0.741 0.406,-1.111 z"
     id="path148"
     style="clip-rule:evenodd;fill-rule:evenodd;stroke-width:1.37048888" /><path
     d="m 351.286,114.86603 c 0,-1.189 0,-2.381 0,-4.154 1.703,1.771 0.982,2.963 0,4.154 z"
     id="path150"
     style="clip-rule:evenodd;fill-rule:evenodd;stroke-width:1.37048888" /><path
     d="m 386.342,-124.16597 c 0.888,1.352 1.776,2.704 2.665,4.053 -0.304,0.142 -0.832,0.46 -0.878,0.401 -1.019,-1.306 -2.461,-2.468 -1.787,-4.454 z"
     id="path152"
     style="clip-rule:evenodd;fill-rule:evenodd;stroke-width:1.37048888" /><path
     d="m 291.896,20.427026 c 0,1.498 0,2.996 0,4.494 -0.067,0.002 -0.135,0.004 -0.203,0.006 0,-1.527 0,-3.051 0,-4.576 0.068,0.025 0.135,0.05 0.203,0.076 z"
     id="path154"
     style="clip-rule:evenodd;fill-rule:evenodd;stroke-width:1.37048888" /><path
     d="m 465.705,-97.150974 c -0.473,-1.817 -0.946,-3.634996 -1.418,-5.450996 0.248,-0.042 0.495,-0.084 0.743,-0.126 0.203,1.883 0.406,3.764996 0.603,5.653996 -0.008,0.008 0.072,-0.077 0.072,-0.077 z"
     id="path156"
     style="clip-rule:evenodd;fill-rule:evenodd;stroke-width:1.37048888" /><path
     d="m 461.185,-89.065974 c 0,-1.432 0,-2.861 0,-4.293 0.075,-0.004 0.15,-0.008 0.225,-0.011 0,1.429 0,2.857 0,4.287 -0.075,0.006 -0.15,0.012 -0.225,0.017 z"
     id="path158"
     style="clip-rule:evenodd;fill-rule:evenodd;stroke-width:1.37048888" /><path
     d="m 231.43,233.58703 c -1.688,0.756 -2.649,0.25 -3.392,-0.74 0.125,-0.283 0.249,-0.566 0.374,-0.85 0.958,0.506 1.917,1.01 3.018,1.59 z"
     id="path160"
     style="clip-rule:evenodd;fill-rule:evenodd;stroke-width:1.37048888" /><path
     d="m 141.288,-207.39697 c 0.722,-0.491 1.445,-0.981 2.167,-1.471 0.148,2.231 -1.484,2.747 -3.132,3.247 0,0 0.081,0.082 0.08,0.082 0.295,-0.62 0.59,-1.238 0.885,-1.858 z"
     id="path162"
     style="clip-rule:evenodd;fill-rule:evenodd;stroke-width:1.37048888" /><path
     d="m 331.163,235.51603 c -0.915,0 -1.829,0 -2.743,0 -0.021,-0.129 -0.04,-0.258 -0.06,-0.385 0.948,-0.199 1.896,-0.398 2.844,-0.596 -0.014,0.327 -0.027,0.653 -0.041,0.981 z"
     id="path164"
     style="clip-rule:evenodd;fill-rule:evenodd;stroke-width:1.37048888" /><path
     d="m 215.626,187.23703 c 0.933,-0.324 1.866,-0.646 2.798,-0.971 0.091,0.242 0.183,0.482 0.273,0.725 -0.864,0.361 -1.728,0.721 -2.592,1.084 -0.16,-0.281 -0.319,-0.559 -0.479,-0.838 z"
     id="path166"
     style="clip-rule:evenodd;fill-rule:evenodd;stroke-width:1.37048888" /><path
     d="m 414.384,145.63203 c 0.573,-0.678 1.147,-1.359 1.72,-2.039 0.312,0.293 0.623,0.586 0.935,0.877 -0.613,0.684 -1.226,1.363 -1.839,2.045 -0.271,-0.293 -0.544,-0.588 -0.816,-0.883 z"
     id="path168"
     style="clip-rule:evenodd;fill-rule:evenodd;stroke-width:1.37048888" /><path
     d="m 422.887,134.66503 c 0.792,-0.414 1.584,-0.824 2.375,-1.236 0.185,0.346 0.37,0.689 0.555,1.035 -0.785,0.426 -1.568,0.852 -2.353,1.277 -0.193,-0.359 -0.384,-0.719 -0.577,-1.076 z"
     id="path170"
     style="clip-rule:evenodd;fill-rule:evenodd;stroke-width:1.37048888" /><path
     d="m 403.765,-92.284974 c 0.649,0.547 1.298,1.093 1.947,1.639 -0.229,0.197 -0.458,0.395 -0.687,0.592 -0.393,-0.769 -0.787,-1.536 -1.179,-2.305 z"
     id="path172"
     style="clip-rule:evenodd;fill-rule:evenodd;stroke-width:1.37048888" /><path
     d="m 449.962,-34.485974 c 0.56,1.002 1.12,2.004 1.68,3.006 -0.268,0.1 -0.537,0.197 -0.805,0.295 -0.263,-1.125 -0.526,-2.248 -0.787,-3.375 0.002,-0.002 -0.088,0.074 -0.088,0.074 z"
     id="path174"
     style="clip-rule:evenodd;fill-rule:evenodd;stroke-width:1.37048888" /><path
     d="m 403.841,-104.09797 c -0.811,-0.734 -1.622,-1.471 -2.433,-2.205 0.257,-0.193 0.515,-0.384 0.771,-0.576 0.525,0.954 1.05,1.909 1.576,2.863 z"
     id="path176"
     style="clip-rule:evenodd;fill-rule:evenodd;stroke-width:1.37048888" /><path
     d="m 393.784,20.991026 c 0.515,-0.643 1.028,-1.287 1.542,-1.93 0.175,0.227 0.35,0.453 0.525,0.68 -0.717,0.389 -1.435,0.779 -2.151,1.168 z"
     id="path178"
     style="clip-rule:evenodd;fill-rule:evenodd;stroke-width:1.37048888" /><path
     d="m 355.096,50.345026 c 0.93,0.51 1.859,1.018 2.788,1.527 -0.214,0.268 -0.428,0.533 -0.643,0.801 -0.687,-0.805 -1.375,-1.611 -2.062,-2.416 z"
     id="path180"
     style="clip-rule:evenodd;fill-rule:evenodd;stroke-width:1.37048888" /><path
     d="m 400.578,117.55703 c -0.573,0.297 -1.145,0.594 -1.718,0.891 -0.111,-0.18 -0.22,-0.361 -0.331,-0.541 0.54,-0.381 1.079,-0.762 1.618,-1.143 0.144,0.264 0.288,0.528 0.431,0.793 z"
     id="path182"
     style="clip-rule:evenodd;fill-rule:evenodd;stroke-width:1.37048888" /><path
     d="m 213.674,140.82503 c -0.485,0.145 -0.966,0.332 -1.463,0.4 -0.103,0.014 -0.266,-0.416 -0.401,-0.643 0.558,-0.213 1.116,-0.426 1.674,-0.639 0.063,0.294 0.127,0.587 0.19,0.882 z"
     id="path184"
     style="clip-rule:evenodd;fill-rule:evenodd;stroke-width:1.37048888" /><path
     d="m 292.875,123.63003 c -0.536,0.375 -1.071,0.752 -1.607,1.127 -0.192,-0.285 -0.384,-0.572 -0.576,-0.857 0.613,-0.287 1.226,-0.572 1.838,-0.859 0.114,0.196 0.229,0.391 0.345,0.589 z"
     id="path186"
     style="clip-rule:evenodd;fill-rule:evenodd;stroke-width:1.37048888" /><path
     d="m 438.621,93.768026 c -0.697,4.785 -1.367,9.574004 -2.119,14.352004 -0.125,0.797 -0.606,1.537 -1.184,2.936 -1.491,-2.535 -0.609,-4.428 -0.394,-6.168 0.485,-3.922 1.891,-7.598004 3.699,-11.111004 z"
     id="path188"
     style="clip-rule:evenodd;fill:#ffffff;fill-rule:evenodd;stroke-width:1.37048888" /><path
     d="m 454.926,3.5300264 c -0.917,1.023 -1.735,1.939 -3.298,3.686 -0.468,-3.777 -0.808,-6.52900003 -1.189,-9.604 3.178,1.90399997 3.178,1.90399997 4.487,5.918 z"
     id="path190"
     style="clip-rule:evenodd;fill:#ffffff;fill-rule:evenodd;stroke-width:1.37048888" /><path
     d="m 442.305,-10.219974 c 0.346,4.9450004 0.692,9.89300037 1.038,14.8380004 -0.402,0.025 -0.803,0.049 -1.204,0.072 -0.72,-4.93000003 -0.528,-9.904 -0.663,-14.8630004 0.276,-0.016 0.552,-0.031 0.829,-0.047 z"
     id="path192"
     style="clip-rule:evenodd;fill:#ffffff;fill-rule:evenodd;stroke-width:1.37048888" /><path
     d="m 438.623,93.776026 c -0.129,-1.445 -0.258,-2.889 -0.387,-4.334 0.2,-0.008 0.402,-0.014 0.603,-0.02 -0.072,1.445 -0.145,2.895 -0.217,4.344 -0.001,0.002 10e-4,0.01 10e-4,0.01 z"
     id="path194"
     style="clip-rule:evenodd;fill:#ffffff;fill-rule:evenodd;stroke-width:1.37048888" /><path
     d="m 140.198,-52.971974 c -0.09,1.375 -0.194,2.75 -0.265,4.125 -0.065,1.25 -0.263,2.523 -0.106,3.746 0.568,4.408 1.261,8.799 1.91,13.193 0.997,6.752 1.997,13.502 2.996,20.254 1.505,10.1700004 0.632,20.3360004 0.098,30.523 -0.968,18.41 -1.673,36.836 -2.471,55.256 -0.07,1.629 -0.01,3.264 -0.01,4.824 -7.083,0.549 -11.226,-1.742 -13.919,-7.721 -3.431,-7.613 -4.224,-15.66 -2.577,-23.775 1.614,-7.959 3.553,-15.869 2.66,-24.041 -0.666,-6.094 -1.819,-12.135 -2.785,-18.1929996 -1.384,-8.686 -2.841,-17.3590004 -4.181,-26.0530004 -1.218,-7.902 -0.01,-15.246 4.934,-21.832 2.054,-2.734 3.635,-5.826 5.43,-8.756 0.348,0.045 0.696,0.09 1.045,0.135 0.457,1.348 1.065,2.664 1.337,4.049 0.404,2.047 0.462,4.164 0.868,6.211 0.36,1.809 0.254,3.809 2.836,4.596 0.905,0.273 1.234,2.439 2.094,4.334 -0.688,-7.402 -2.418,-14.121 0.106,-20.875 z m -12.526,25.213 c 2.793,3.879 4.861,7.928 5.889,12.451 1.174,5.166 2.25,10.3570004 3.352,15.54100037 0.741,3.49000003 0.651,6.87700003 -0.897,10.20899963 -1.505,3.238 -2.055,6.742 -1.263,10.223 0.791,3.477 2.542,6.791 2.943,10.283 0.407,3.539 -0.334,7.209 -0.539,10.824 -0.022,0.4 0.281,0.814 0.271,1.219 -0.081,3.158 -1.94,5.354 -3.877,7.637 -1.31,1.545 -2.64,0.77 -4.682,0.422 0.208,1.529 -0.021,3.105 0.598,3.584 0.782,0.604 2.377,0.662 3.396,0.307 1.103,-0.385 2.035,-1.43 2.884,-2.336 3.839,-4.092 6.336,-9.02 6.858,-14.508 0.341,-3.592 0.06,-7.688 -1.398,-10.896 -2.185,-4.816 -3.05,-9.461 -2.012,-14.533 0.476,-2.322 1.19,-4.5939996 1.668,-6.9139996 1.085,-5.27300003 1.213,-10.619 -0.711,-15.658 -1.686,-4.4120004 -3.979,-8.6050004 -6.209,-12.7870004 -1.107,-2.074 -2.556,-4.012 -4.104,-5.789 -0.604,-0.693 -2.047,-1.246 -2.848,-1.002 -0.752,0.229 -1.205,1.564 -1.686,2.469 -0.113,0.213 0.193,0.648 0.324,1.035 0.713,-0.623 1.316,-1.148 2.043,-1.781 z"
     id="path196"
     style="clip-rule:evenodd;fill:#ffffff;fill-rule:evenodd;stroke-width:1.37048888" /><path
     d="m 338.52,-95.575974 c -23.69,-2.153 -37.66,-17.025996 -50.394,-33.700996 0.202,-0.306 0.404,-0.614 0.606,-0.92 4.233,2.784 8.465,5.568 12.853,8.455 0.696,-1.452 1.705,-1.84 3.185,-0.907 9.33,5.878 18.733,11.641 28.006,17.606 3.104,1.997 3.826,5.674996 5.744,9.466996 z"
     id="path198"
     style="clip-rule:evenodd;fill:#ffffff;fill-rule:evenodd;stroke-width:1.37048888" /><path
     d="m 303.081,246.83303 c 0.467,-4.766 0.763,-8.76 1.331,-12.711 0.107,-0.744 1.296,-1.334 2.665,-2.645 0.121,5.5 -0.848,9.785 -1.762,14.061 -0.09,0.416 -1.067,0.643 -2.234,1.295 z"
     id="path200"
     style="clip-rule:evenodd;fill:#ffffff;fill-rule:evenodd;stroke-width:1.37048888" /><path
     d="m 216.06,-127.75097 c 0.885,1.166 1.749,2.35 2.663,3.492 0.551,0.688 1.183,1.313 1.232,2.523 -1.668,-1.607 -3.336,-3.214 -5.004,-4.821 0.369,-0.397 0.739,-0.795 1.109,-1.194 z"
     id="path202"
     style="clip-rule:evenodd;fill:#ffffff;fill-rule:evenodd;stroke-width:1.37048888" /><path
     d="m 466.728,-47.815974 c -2.127,-3.965 -3.546,-8.09 -3.36,-13.223 2.243,2.422 2.943,5.637 3.272,13.297 -10e-4,0.003 0.088,-0.074 0.088,-0.074 z"
     id="path204"
     style="clip-rule:evenodd;fill:#ffffff;fill-rule:evenodd;stroke-width:1.37048888" /><path
     d="m 462.45,-63.957974 c 0.248,-2.21 0.496,-4.419 0.743,-6.629 1.035,2.356 1.365,4.631 -0.743,6.629 z"
     id="path206"
     style="clip-rule:evenodd;fill:#ffffff;fill-rule:evenodd;stroke-width:1.37048888" /><path
     d="m 453.193,-70.232974 c 0.27,1.571 0.538,3.143 0.808,4.714 -0.116,0.022 -0.233,0.046 -0.349,0.067 -0.479,-1.536 -0.959,-3.071 -1.438,-4.607 0.326,-0.058 0.653,-0.116 0.979,-0.174 z"
     id="path208"
     style="clip-rule:evenodd;fill:#ffffff;fill-rule:evenodd;stroke-width:1.37048888" /><path
     d="m 468.583,-79.736974 c 0,-0.924 0,-1.85 0,-2.773 0.117,-0.017 0.233,-0.032 0.352,-0.05 0.078,0.489 0.213,0.978 0.219,1.468 0.006,0.521 -0.112,1.044 -0.174,1.566 -0.133,-0.07 -0.266,-0.14 -0.397,-0.211 z"
     id="path210"
     style="clip-rule:evenodd;fill:#ffffff;fill-rule:evenodd;stroke-width:1.37048888" /><path
     d="m 209.231,0.03002637 c -0.383,1.43900003 -0.767,2.87700003 -1.253,4.69700003 -1.274,-0.922 -2.435,-1.762 -3.87,-2.801 1.836,-1.27500003 3.239,-2.32000003 5.21,-1.80100003 0.003,0.005 -0.087,-0.095 -0.087,-0.095 z"
     id="path212"
     style="clip-rule:evenodd;fill:#ffffff;fill-rule:evenodd;stroke-width:1.37048888" /><path
     d="m 160.992,-38.848974 c -1.102,-3.705 0.633,-6.939 2.038,-10.223 -0.707,3.371 -1.413,6.74 -2.102,10.135 0.016,0.026 0.064,0.088 0.064,0.088 z"
     id="path214"
     style="clip-rule:evenodd;fill:#ffffff;fill-rule:evenodd;stroke-width:1.37048888" /><path
     d="m 154.159,-50.016974 c 1.657,3.092 0.157,5.928 -1.249,8.752 0.451,-2.883 0.9,-5.764 1.334,-8.666 -0.016,-0.017 -0.085,-0.086 -0.085,-0.086 z"
     id="path216"
     style="clip-rule:evenodd;fill:#ffffff;fill-rule:evenodd;stroke-width:1.37048888" /><path
     d="m 127.672,-27.758974 c -0.727,0.633 -1.33,1.158 -2.042,1.779 -0.131,-0.387 -0.437,-0.822 -0.324,-1.035 0.48,-0.904 0.934,-2.24 1.686,-2.469 0.8,-0.244 2.244,0.309 2.848,1.002 1.548,1.777 2.997,3.715 4.104,5.789 2.231,4.182 4.524,8.375 6.209,12.7870004 1.924,5.039 1.796,10.38499997 0.711,15.658 -0.478,2.32 -1.193,4.5919996 -1.668,6.9139996 -1.038,5.072 -0.172,9.717 2.012,14.533 1.458,3.209 1.739,7.305 1.398,10.896 -0.521,5.488 -3.019,10.416 -6.858,14.508 -0.849,0.906 -1.781,1.951 -2.884,2.336 -1.019,0.355 -2.615,0.297 -3.396,-0.307 -0.62,-0.479 -0.391,-2.055 -0.598,-3.584 2.042,0.348 3.372,1.123 4.682,-0.422 1.937,-2.283 3.796,-4.479 3.877,-7.637 0.01,-0.404 -0.292,-0.818 -0.271,-1.219 0.204,-3.615 0.946,-7.285 0.539,-10.824 -0.401,-3.492 -2.153,-6.807 -2.943,-10.283 -0.792,-3.48 -0.242,-6.984 1.263,-10.223 1.548,-3.3319996 1.638,-6.7189996 0.897,-10.20899963 -1.101,-5.18399997 -2.177,-10.37500037 -3.352,-15.54100037 -1.029,-4.521 -3.097,-8.57 -5.89,-12.449 z"
     id="path218"
     style="clip-rule:evenodd;fill-rule:evenodd;stroke-width:1.37048888" /></g>
</svg>