<?xml version="1.0" encoding="UTF-8" standalone="no"?>
<svg
   xmlns:dc="http://purl.org/dc/elements/1.1/"
   xmlns:cc="http://creativecommons.org/ns#"
   xmlns:rdf="http://www.w3.org/1999/02/22-rdf-syntax-ns#"
   xmlns:svg="http://www.w3.org/2000/svg"
   xmlns="http://www.w3.org/2000/svg"
   version="1.1"
   id="svg4211"
   viewBox="0 0 744.09449 871.65353"
   height="246mm"
   width="210mm">
  <defs
     id="defs4213" />
  <metadata
     id="metadata4216">
    <rdf:RDF>
      <cc:Work
         rdf:about="">
        <dc:format>image/svg+xml</dc:format>
        <dc:type
           rdf:resource="http://purl.org/dc/dcmitype/StillImage" />
        <dc:title></dc:title>
      </cc:Work>
    </rdf:RDF>
  </metadata>
  <g
     transform="translate(0,-180.70873)"
     id="layer1">
    <path
       id="path4805"
       d="m 281.76643,1037.5769 c -6.13073,-13.6987 -10.60847,-31.673 -19.84617,-79.6653 l -4.133,-21.47201 -7.54763,5.93192 c -27.49851,21.61191 -70.66449,52.04119 -76.41137,53.86521 -1.80336,0.57235 -3.79724,-0.0451 -2.76535,-0.85658 12.42762,-9.7712 36.80618,-28.00986 75.37608,-56.3921 4.43873,-3.2663 8.13769,-6.80669 8.72798,-8.35381 0.85706,-2.24635 0.002,-6.07466 -5.2307,-23.43015 -3.62479,-12.02154 -7.08704,-21.67048 -8.23341,-22.94574 -1.59781,-1.77744 -4.73641,-2.69604 -16.32055,-4.77666 -24.29792,-4.36414 -36.01057,-9.39878 -48.2505,-20.74032 -8.61583,-7.98345 -13.30295,-15.20992 -20.07327,-30.94844 -3.14214,-7.30435 -5.96814,-13.53579 -6.28,-13.84764 -0.31185,-0.31185 -3.34951,-0.93777 -6.75036,-1.39091 -10.20318,-1.35954 -19.59329,-6.63504 -29.67508,-16.67182 -8.66567,-8.62708 -10.33848,-9.13767 -6.72382,-2.05237 2.94671,5.77601 6.07979,9.05076 15.29731,15.98881 4.64667,3.49754 8.45757,6.6036 8.46873,6.90238 0.0111,0.29877 -1.53766,0.36136 -3.44176,0.13906 -2.99008,-0.34907 -3.46193,-0.11979 -3.46193,1.6823 0,1.14757 -0.46418,2.08647 -1.03146,2.08647 -1.0768,0 -2.22253,-1.0028 -23.20533,-20.31108 -7.074053,-6.50949 -14.518676,-12.94821 -16.54369,-14.30826 -2.043926,-1.3728 -4.861109,-4.67284 -6.332926,-7.41843 -1.537336,-2.86783 -6.449326,-8.53764 -11.691605,-13.49547 -13.046151,-12.33818 -21.022764,-25.11521 -28.00147,-44.85324 -3.34134,-9.45008 -4.140631,-26.43865 -1.789839,-38.0402 4.692167,-23.15682 13.323659,-41.11879 36.086332,-75.09513 4.279584,-6.38781 9.435294,-14.8991 11.457143,-18.91399 4.323818,-8.58591 4.62823,-8.06443 -7.634139,-13.07806 -4.251809,-1.73842 -8.305872,-4.07125 -9.009021,-5.18405 -0.703148,-1.11281 -2.757678,-6.25179 -4.565718,-11.41997 -1.808039,-5.16817 -5.686751,-15.83378 -8.619464,-23.70135 -2.932634,-7.86757 -5.109499,-14.88468 -4.837529,-15.59356 0.539666,-1.40637 0.420101,-1.35318 18.349518,-8.15716 6.800267,-2.58059 14.144474,-5.00116 16.320547,-5.37905 7.483001,-1.29945 7.1338,-0.80408 6.167466,-8.74829 -1.555695,-12.79018 -1.161628,-51.40057 0.663821,-65.02847 3.818177,-28.50548 9.188488,-48.74267 17.188834,-64.77323 2.72745,-5.465 3.0412,-5.56556 -6.06507,1.94401 -6.516345,5.37383 -15.828118,16.46167 -20.368435,24.25338 -5.649876,9.69584 -8.0578,17.16417 -8.69353,26.96374 -0.484671,7.4707 -0.738915,8.41252 -1.844993,6.83336 -0.705602,-1.00738 -1.812471,-3.93468 -2.459754,-6.5051 -1.011993,-4.0191 -0.889579,-5.87618 0.874386,-13.26266 1.128076,-4.72404 2.333541,-11.92745 2.678785,-16.00759 1.469126,-17.36406 11.677757,-37.36337 27.530489,-53.93359 l 6.173082,-6.45254 -9.995612,-4.90589 c -16.237382,-7.96941 -27.677986,-20.00844 -34.549629,-36.35695 -7.642448,-18.18224 -7.11932,-27.96814 2.06901,-38.70259 4.404213,-5.14537 5.926752,-5.21074 3.341578,-0.14347 -3.55784,6.97393 -2.404363,12.60338 3.173347,15.48774 2.437597,1.26052 4.906055,1.50873 11.098368,1.11599 14.258342,-0.90434 30.306048,-7.55172 57.914268,-23.98972 48.34503,-28.78472 67.66347,-33.73339 88.15301,-22.58158 l 4.78011,2.60165 5.70974,-2.55445 c 7.79649,-3.48802 19.60271,-7.25415 29.29114,-9.34372 11.28191,-2.43324 40.1154,-2.40854 52.58115,0.0451 33.67297,6.62775 74.13129,22.41236 104.35259,40.71264 20.91207,12.66314 64.56671,46.11984 84.5627,64.80843 4.37067,4.08491 9.49863,8.61175 11.39547,10.05965 2.92422,2.2321 3.18822,2.73613 1.73565,3.31363 -2.15462,0.85664 -27.54989,-16.44333 -84.83521,-57.79211 -35.39583,-25.54886 -72.72519,-42.28589 -117.70576,-52.77468 -12.57126,-2.93143 -14.51156,-3.11611 -33.13566,-3.15383 -17.7442,-0.0359 -20.69971,0.20201 -28.6846,2.30948 -7.43986,1.96361 -18.74252,6.17202 -20.0275,7.457 -0.18899,0.18899 0.87694,2.83228 2.36873,5.87398 1.49178,3.04169 2.40502,5.83768 2.02939,6.2133 -0.3756,0.37561 -3.55033,-2.07048 -7.05492,-5.43577 -13.17636,-12.65259 -25.85648,-15.2897 -43.58701,-9.06489 -12.38427,4.34786 -32.82085,14.35265 -48.28014,23.63568 -34.04232,20.44182 -47.987301,25.72033 -68.189251,25.81127 -7.051821,0.0317 -7.665711,0.19652 -7.665711,2.05772 0,2.72735 3.592815,6.13988 10.013654,9.51106 4.918321,2.58235 6.09799,2.78276 15.703572,2.6678 9.447876,-0.11307 29.602026,-2.39305 34.225586,-3.87184 1.80575,-0.57755 1.80417,-0.54076 -0.0419,0.96326 -6.29383,5.12845 -25.03092,8.2851 -39.624145,6.67549 -4.896164,-0.54003 -9.061485,-0.8241 -9.256303,-0.63126 -0.513553,0.50836 6.590653,3.36524 11.22284,4.51313 2.182482,0.54085 10.756052,1.25084 19.052348,1.57776 8.2963,0.32693 15.08414,0.9252 15.08414,1.32951 0,1.56276 -13.32516,3.19994 -21.64915,2.65991 -11.629253,-0.75446 -21.566943,-4.55358 -31.021704,-11.85947 -4.5855,-3.54333 -4.749932,-2.08412 -0.587381,5.21304 4.623166,8.10456 14.815575,17.62099 23.584833,22.02051 9.722932,4.87802 16.556752,6.058 30.662522,5.29446 19.45593,-1.05312 30.05878,-4.2676 54.62865,-16.56183 9.64507,-4.82619 17.76825,-8.77489 18.05151,-8.77489 1.81464,0 -0.43611,2.45062 -6.90339,7.51643 -6.26882,4.91036 -8.60648,7.32044 -7.10048,7.32044 0.17487,0 6.96273,-3.07813 15.08415,-6.84028 l 14.76616,-6.84029 2.06723,-6.26561 c 2.87839,-8.72422 4.76831,-12.04869 7.75961,-13.64959 3.72869,-1.99552 4.73388,-0.47691 3.6175,5.46519 -3.91025,20.81274 -1.32488,42.7799 7.75795,65.91755 2.17697,5.54562 3.83493,10.20615 3.68433,10.35673 -0.15059,0.1506 -4.17223,-4.6557 -8.93699,-10.68062 -4.76476,-6.02494 -8.85666,-10.76098 -9.09311,-10.52452 -0.91441,0.9144 3.5495,15.69241 6.54588,21.67049 6.97223,13.91028 19.41834,27.52694 36.19459,39.59873 27.68109,19.91864 63.04499,30.31237 95.30969,28.01228 8.13667,-0.58004 22.543,-2.92336 23.43088,-3.81123 0.16386,-0.16386 -4.68212,-1.52602 -10.76886,-3.02699 -21.26388,-5.24364 -40.74944,-14.93602 -53.71063,-26.71639 l -3.9565,-3.59605 5.44019,3.36105 c 20.37529,12.58827 51.79702,23.34045 64.96156,22.22917 l 3.63706,-0.30703 -7.34568,-4.32326 c -9.29853,-5.47261 -19.60635,-13.14184 -27.55831,-20.50394 -6.93614,-6.42164 -20.6018,-23.06452 -27.43089,-33.40703 -5.87201,-8.89302 -13.46908,-24.67136 -12.99347,-26.9861 0.40994,-1.99511 1.23405,-0.85905 10.1584,14.0034 10.35309,17.24188 23.86253,32.69249 39.59015,45.27886 21.61174,17.29528 39.99365,25.33338 63.81509,27.90529 5.74504,0.62027 8.83449,1.88354 7.60738,3.11065 -0.40391,0.4039 -8.62548,1.0187 -18.27015,1.36621 -16.74094,0.6032 -17.84962,0.76979 -24.45965,3.67534 -3.80812,1.67393 -10.13912,3.99187 -14.06887,5.15098 l -7.14501,2.10747 3.68183,5.15879 c 5.45564,7.64418 18.43473,20.86501 25.85339,26.33493 6.22183,4.58748 17.71171,10.87604 22.71022,12.42961 1.47096,0.45719 -1.70533,-3.27856 -8.50996,-10.00884 -10.75706,-10.6395 -16.56014,-18.16629 -19.52754,-25.32785 -0.84531,-2.04007 -1.36029,-3.70922 -1.14443,-3.70922 0.21588,0 3.19512,3.85744 6.62055,8.57209 9.65025,13.28233 27.15551,29.74095 38.51322,36.21052 4.48284,2.55352 18.53214,7.24276 19.32483,6.45007 0.23451,-0.2345 -3.09864,-4.26645 -7.407,-8.95988 -4.30834,-4.69343 -8.3815,-9.55772 -9.05145,-10.80953 -1.38092,-2.58027 -1.14723,-2.42353 14.93785,10.01951 11.89298,9.20014 15.61232,11.92992 16.25455,11.92992 1.64629,0 -0.2404,-2.88712 -7.77502,-11.89773 -7.89955,-9.44703 -18.55661,-24.25232 -21.33926,-29.64548 l -1.27587,-2.47281 2.2703,1.97825 2.27027,1.97825 -0.66151,-2.72009 c -0.36383,-1.49606 -0.49056,-2.72009 -0.2816,-2.72009 0.20895,0 2.40203,3.48018 4.87351,7.73374 7.0627,12.15526 15.43911,21.9712 24.51442,28.72736 4.49518,3.34645 8.37925,5.87826 8.63125,5.62624 0.25201,-0.25201 -2.02364,-4.61734 -5.057,-9.70072 -10.06997,-16.8755 -13.43111,-26.27447 -26.28592,-73.50515 -7.52147,-27.63515 -7.40541,-27.13104 -6.24622,-27.13104 0.9932,0 1.9737,2.52984 9.77564,25.22267 19.74017,57.41648 26.40871,71.20832 41.24372,85.30014 11.17272,10.61299 22.69143,16.29843 41.44798,20.45802 4.2242,0.93679 7.46269,2.05548 7.19663,2.48597 -0.26606,0.4305 -2.3869,1.31468 -4.713,1.96487 -3.70261,1.03494 -6.32315,0.79247 -21.04437,-1.94723 -23.75451,-4.42083 -33.96022,-7.18086 -43.54068,-11.77511 -8.56526,-4.10742 -11.91762,-4.94267 -11.10621,-2.76715 0.25365,0.68001 2.13112,5.79873 4.17219,11.37492 l 3.71104,10.13852 21.40358,0.009 c 27.62471,0.0111 31.58985,0.47253 33.56008,3.90545 0.82626,1.43968 3.42239,3.41175 5.76919,4.38239 6.0102,2.48585 11.75538,8.61406 14.31336,15.26764 1.70492,4.43465 2.25713,8.42222 2.62675,18.96825 0.5647,16.11167 -1.46753,29.67671 -7.68499,51.29724 -5.86091,20.38064 -9.38764,28.95846 -15.92354,38.72974 -7.21007,10.77918 -8.04167,12.9747 -7.27736,19.21332 0.70693,5.7704 -0.955,23.77662 -3.00901,32.60094 -2.11024,9.06592 -5.96013,19.79883 -10.29998,28.71468 -3.92102,8.05542 -7.96264,14.27801 -6.4686,9.95923 14.99849,-43.35585 16.29225,-48.43182 16.29225,-63.92197 0,-5.55378 -0.21602,-9.88178 -0.48003,-9.61776 -0.26401,0.26401 -1.39764,5.12308 -2.51915,10.79794 -1.12153,5.67485 -3.17276,14.10131 -4.55831,18.72546 -3.26191,10.88635 -12.36971,33.35807 -16.79743,41.44435 -3.66045,6.68505 -8.30967,13.26369 -8.93306,12.64029 -0.20407,-0.20406 3.89832,-10.29421 9.1164,-22.42256 5.21809,-12.12834 10.30093,-25.2322 11.29517,-29.1197 2.0332,-7.94975 3.7145,-27.27875 2.37074,-27.25534 -3.01181,0.0525 -3.62119,2.02531 -3.86431,12.51039 -0.15558,6.71038 -0.79631,12.05164 -1.70336,14.19962 -1.7828,4.22193 -6.17148,8.73441 -10.13845,10.42446 -3.7212,1.58536 -7.1408,5.32644 -11.2652,12.32426 -5.92949,10.06053 -7.14096,10.58393 -3.08346,1.33217 4.41744,-10.07248 4.61905,-11.63976 2.44086,-18.97455 -1.14893,-3.86883 -1.98809,-5.12514 -3.42342,-5.12514 -4.16143,0 -10.88057,11.00552 -10.88057,17.82169 l 0,4.03971 3.46194,-2.64054 c 1.90406,-1.4523 3.46157,-2.47644 3.46113,-2.27587 -4.5e-4,0.20058 -0.85625,2.59021 -1.90181,5.3103 -1.32045,3.43527 -2.41632,4.8972 -3.5884,4.78703 -1.46225,-0.13742 -1.60677,0.52247 -1.0831,4.94562 0.34729,2.93338 1.27273,5.59317 2.17596,6.25389 1.25021,0.91452 1.38355,1.83095 0.65194,4.48062 -0.52787,1.91182 -0.57858,6.05753 -0.11901,9.73069 2.81435,22.49381 6.98884,54.3853 7.48015,57.14542 0.80873,4.54353 4.30724,4.0962 5.54614,-0.70916 l 0.87045,-3.37619 2.45099,2.64328 c 3.38819,3.654 5.20914,2.41502 9.91087,-6.74339 2.10012,-4.09081 4.09825,-7.43974 4.44025,-7.44207 0.34201,-0.002 1.17382,1.32835 1.84847,2.95708 0.85925,2.07441 1.01647,5.48402 0.52496,11.38451 l -0.70164,8.42318 2.31511,-0.90658 c 1.27332,-0.49863 7.12453,-2.93375 13.00269,-5.41137 9.72318,-4.09831 10.62764,-4.31607 10.02374,-2.41332 l -0.66381,2.09145 3.44618,-2.12986 c 4.41297,-2.72735 4.90416,-2.67899 3.52536,0.34715 -1.85803,4.07793 -0.3298,3.85275 6.22567,-0.91732 4.71263,-3.42911 7.10415,-4.52704 9.86087,-4.52704 3.11019,0 4.85395,-1.06188 11.99287,-7.30314 8.84685,-7.73447 18.81956,-18.3903 25.59056,-27.34351 4.50114,-5.95179 4.47363,-4.53835 -0.10998,5.65289 -7.01888,15.60579 -19.12591,28.79455 -38.29397,41.71538 -3.40011,2.29196 -6.18202,4.37842 -6.18202,4.63659 0,0.72775 7.60912,-0.51227 16.15195,-2.63219 9.93851,-2.46627 19.67665,-7.39668 25.69683,-13.01027 9.3901,-8.75593 0.63149,4.52392 -12.54937,19.02739 -5.17604,5.69545 -9.24917,10.51716 -9.0514,10.71493 0.8891,0.88912 12.57183,-7.66463 19.18066,-14.04351 7.59781,-7.33345 13.19348,-14.78985 18.63597,-24.83299 3.09946,-5.71948 3.21694,-5.817 3.23859,-2.68833 0.0305,4.3996 -2.21045,9.43836 -7.11431,15.99697 -7.96075,10.64699 -14.67015,17.58807 -24.93352,25.79448 -5.70666,4.56295 -10.20244,8.46959 -9.99061,8.6814 0.87903,0.87904 8.39317,-2.29322 14.88484,-6.28394 9.1903,-5.6497 17.60697,-14.59174 26.12673,-27.75756 4.25572,-6.57648 6.97521,-9.97834 6.97857,-8.72965 0.0133,4.92053 -3.52836,13.06902 -9.44978,21.74186 -3.51022,5.14129 -6.10811,9.34779 -5.77307,9.34779 2.80959,0 14.08289,-7.7987 20.73229,-14.34229 18.96969,-18.66786 27.16873,-37.65679 32.05809,-74.24637 2.80029,-20.95597 4.10334,-20.48929 1.95203,0.6991 -3.60959,35.55103 -14.12287,59.25938 -34.8478,78.5848 -5.76662,5.37721 -10.51865,8.50936 -22.31704,14.70958 -8.24467,4.33268 -14.99031,8.21623 -14.99031,8.6301 0,0.41387 1.44659,0.49521 3.21465,0.18076 16.7091,-2.97171 28.20149,-10.61185 44.0025,-29.25284 19.08272,-22.51254 31.78046,-48.82278 33.50005,-69.41348 0.37883,-4.53604 1.25733,-7.99739 2.46785,-9.72338 1.43524,-2.04642 1.87962,-4.40745 1.87962,-9.98656 0,-11.46936 1.22325,-26.00314 2.00813,-23.85911 0.38383,1.0485 1.26291,5.90771 1.95349,10.79824 2.7502,19.47594 -1.22712,46.52526 -10.86381,73.88346 -5.93984,16.86295 -4.59827,15.52866 7.19934,-7.16033 8.5036,-16.35395 15.51589,-33.43702 18.68428,-45.51787 4.00923,-15.28692 2.91467,-37.54578 -2.61697,-53.21863 -0.84017,-2.38047 -1.5276,-5.26571 -1.5276,-6.41163 0,-2.84881 3.57754,2.47125 9.36345,13.92416 8.77547,17.3706 11.86885,31.21781 11.20445,50.1557 l -0.45367,12.93123 2.27575,-4.98002 c 5.80088,-12.69398 7.0759,-34.79707 2.94343,-51.02595 -5.29141,-20.78025 -20.77343,-49.1227 -40.76551,-74.62812 -26.42393,-33.71104 -37.92682,-51.62298 -53.3126,-83.01671 -9.62952,-19.64845 -17.45714,-39.16184 -23.21154,-57.86376 -12.90213,-41.93217 -29.79398,-87.47436 -45.91329,-123.78697 -5.98388,-13.4801 -6.05723,-13.70128 -4.54439,-13.70128 1.97968,0 9.77833,13.68576 20.00921,35.11391 15.91398,33.33119 21.33107,46.40865 28.88566,69.73324 27.20404,83.99168 31.97679,93.7482 84.19255,172.10759 27.30595,40.97761 32.87623,50.10161 37.44709,61.33747 12.41273,30.51245 8.29881,61.44212 -11.7102,88.04073 -9.37229,12.45886 -26.75083,29.71085 -32.73104,32.49266 -6.10837,2.84144 -8.39548,4.91627 -13.87395,12.58632 -14.11456,19.76085 -36.39814,31.85954 -67.62212,36.71488 -8.14195,1.26607 -11.63821,1.38166 -16.81511,0.55592 -6.89922,-1.10046 -20.98371,-3.88909 -26.82214,-5.3106 -3.39871,-0.82749 -12.1478,-5.88487 -11.42722,-6.60546 0.2007,-0.20069 3.34799,0.55648 6.99399,1.68261 9.02155,2.78647 10.45759,2.62854 15.97584,-1.75697 5.84759,-4.64725 24.27061,-22.04694 23.82033,-22.49721 -0.1786,-0.17859 -3.13011,0.54843 -6.55892,1.61559 -9.63706,2.99939 -50.55552,7.35259 -50.55552,5.37847 0,-0.38756 2.67063,-3.71698 5.93474,-7.39871 3.26411,-3.68174 5.93475,-6.92041 5.93475,-7.19705 0,-0.27664 -6.15021,2.11461 -13.66712,5.31389 -13.90476,5.91801 -19.9631,7.79245 -19.9631,6.17656 0,-0.49473 1.29234,-1.66292 2.87187,-2.59597 2.47657,-1.46295 2.92733,-2.41132 3.27475,-6.88984 0.22159,-2.85637 0.21588,-5.41595 -0.0127,-5.68796 -0.22854,-0.27201 -2.97268,2.31752 -6.09807,5.7545 -3.67592,4.0424 -7.04318,6.723 -9.53579,7.59121 -3.63428,1.26587 -3.84876,1.56651 -3.774,5.29032 0.11286,5.62273 1.96217,7.87579 15.01847,18.29723 16.0112,12.78002 23.71242,17.77197 43.75516,28.3622 29.12611,15.38974 40.65004,21.78759 50.41362,27.98864 19.92849,12.65696 27.79774,15.07676 81.06058,24.92621 29.60985,5.4755 63.38322,14.5022 63.38322,16.94061 0,0.72088 0.88921,0.88086 -47.47795,-8.54147 -22.03274,-4.29216 -46.99008,-9.14633 -55.46078,-10.78707 -24.44138,-4.73415 -46.64063,-13.07093 -65.21236,-24.49002 -3.53612,-2.17424 -13.99611,-8.11559 -23.24442,-13.20302 -28.20064,-15.51296 -42.76453,-25.85479 -52.92257,-37.58037 -2.82531,-3.2613 -5.59548,-5.92962 -6.15594,-5.92962 -0.6552,0 -0.79683,2.11888 -0.3967,5.93474 1.87086,17.84125 1.87385,18.46371 0.0785,16.32055 -0.91146,-1.08804 -2.51268,-3.85766 -3.55826,-6.15471 -3.0353,-6.66829 -9.40856,-45.30376 -14.65579,-88.84515 -4.37815,-36.32981 -3.80767,-33.25996 -5.96613,-32.10478 -2.58437,1.3831 -2.97151,1.26194 -2.97151,-0.92996 0,-1.74112 6.3628,-20.52352 11.83563,-34.93767 2.31213,-6.08963 4.44131,-7.83197 11.02571,-9.02248 4.99134,-0.90247 6.9578,-3.51333 7.69985,-10.22305 l 0.63212,-5.71578 1.69863,2.52451 c 3.16029,4.69685 3.10733,7.87524 -0.23526,14.12059 -2.774,5.18295 -2.97263,6.10631 -1.96833,9.1494 0.61438,1.86155 1.32718,3.38466 1.58401,3.38466 1.61378,0 6.47843,-3.38428 8.75684,-6.09203 2.47425,-2.94045 2.66065,-3.75749 2.33381,-10.22981 -0.27026,-5.35192 -1.07151,-8.47929 -3.35047,-13.07725 l -2.99527,-6.04316 2.70841,1.40057 c 1.48963,0.77032 3.20717,1.40059 3.81675,1.40059 1.74946,0 14.4771,-11.72794 20.32646,-18.72991 6.96355,-8.33571 11.51259,-17.16666 16.20656,-31.46137 9.29319,-28.30093 13.17661,-61.12662 8.94969,-75.64978 -1.48405,-5.09905 -6.69571,-11.59235 -11.15017,-13.89222 -9.19525,-4.74758 -17.20276,1.99063 -30.29106,25.48945 -17.30258,31.06516 -28.39504,44.85031 -40.88682,50.81209 -3.56694,1.70234 -7.71556,3.09517 -9.21915,3.09517 -2.41558,0 -1.92382,-0.56883 4.22462,-4.88671 8.04919,-5.65273 12.12561,-10.23539 15.88982,-17.86315 2.44914,-4.9629 2.68467,-6.43813 2.68467,-16.81511 0,-9.64157 -0.22609,-11.3098 -1.48369,-10.94757 -0.81602,0.23505 -7.57441,0.4576 -15.01863,0.49456 -13.18726,0.0654 -13.60651,0.13372 -16.32055,2.6562 -1.53209,1.42394 -5.01113,3.8313 -7.73122,5.34967 -2.72009,1.51837 -6.72604,4.39178 -8.90212,6.38534 -7.9196,7.25535 -11.05234,8.32127 -36.59759,12.45231 -12.07688,1.95301 -20.98553,2.68895 -37.60582,3.10656 -30.81846,0.77438 -43.25794,-0.8481 -69.18238,-9.02345 -7.63672,-2.40826 -15.1203,-4.64858 -16.63019,-4.97849 -5.82259,-1.27222 -6.73419,-3.32759 -14.3351,-32.32137 -4.12809,-15.74665 -5.60516,-18.81127 -10.21571,-21.19548 -4.41382,-2.28248 -19.58221,-3.06988 -22.11539,-1.14803 -1.90623,1.44619 -1.89663,1.56262 0.68075,8.25593 3.3854,8.79172 3.99678,13.73649 2.70115,21.84677 -1.65073,10.33314 -15.76498,45.467 -21.64434,53.87814 -2.17232,3.10778 -8.35905,7.72125 -10.3543,7.72125 -1.57009,0 -0.29112,-3.15849 2.75558,-6.80516 4.23405,-5.06783 9.48634,-14.42535 13.94891,-24.85146 1.90296,-4.446 3.45995,-8.20832 3.45995,-8.36071 0,-0.15238 -2.55937,0.33946 -5.68747,1.093 -37.81683,9.10965 -51.54143,11.30492 -70.65597,11.30151 -9.52812,-0.002 -18.43324,0.55612 -23.0841,1.44598 -4.16453,0.7968 -7.701317,1.44874 -7.859419,1.44874 -0.840518,0 -2.671347,6.52284 -4.16445,14.83686 -2.367409,13.18286 -2.332434,39.12332 0.06805,50.33393 4.25988,19.89496 10.016659,34.96789 28.564559,74.79027 7.34816,15.77652 17.68953,38.03182 22.98078,49.4562 19.44937,41.99323 27.46935,55.77427 39.60542,68.0555 15.39203,15.57615 25.93674,19.87336 60.29222,24.57042 15.8758,2.17053 21.26241,2.08161 43.52146,-0.71848 27.9371,-3.51437 48.60535,-9.14681 66.90327,-18.23226 12.05901,-5.98764 13.52247,-7.03429 28.95126,-20.7056 19.03759,-16.86904 31.14741,-31.44929 41.11921,-49.50765 5.17053,-9.36353 11.68224,-18.79335 12.97763,-18.79335 3.07036,0 -17.50678,40.7915 -27.11204,53.7461 -16.243,21.90694 -45.85991,44.22806 -80.58612,60.73463 -6.30226,2.99568 -19.50019,8.05446 -29.32873,11.24173 -18.29654,5.93332 -43.09277,17.04571 -43.09277,19.31197 0,0.68155 0.43422,1.50754 0.96492,1.83554 0.53071,0.32799 12.56674,-3.48515 26.74675,-8.47363 14.18002,-4.98849 25.991,-8.86084 26.24663,-8.60521 0.87713,0.87714 -19.4325,9.82307 -35.45514,15.61717 -10.19633,3.68721 -15.97609,6.27068 -15.88125,7.0987 0.082,0.71598 1.54966,7.08817 3.26147,14.1604 4.75459,19.64335 7.48785,32.75965 11.33658,54.4018 3.80309,21.3856 8.79946,56.9022 8.10281,57.5988 -0.23615,0.2361 -1.39214,-1.7218 -2.56887,-4.3512 z M 538.98377,814.1745 c 2.55855,-1.32309 3.99089,-3.43654 2.32902,-3.43654 -1.15675,0 -6.33464,3.40833 -6.33464,4.16976 0,1.10453 0.69935,0.97651 4.00562,-0.73322 z m -389.76401,-5.47981 c 0,-3.23662 -1.76219,-5.70852 -5.95761,-8.35697 -4.40077,-2.77808 -4.92276,-2.91896 -4.92276,-1.32861 0,1.43574 8.74757,11.72885 9.96772,11.72885 0.50196,0 0.91265,-0.91947 0.91265,-2.04327 z m 513.30991,-16.5028 c 15.83889,-15.91778 25.76272,-39.83199 25.76272,-62.0824 0,-8.38655 -1.51712,-17.29481 -2.94538,-17.29481 -0.40275,0 -0.98197,3.67212 -1.28716,8.16027 -1.35151,19.87541 -10.01956,42.12001 -29.09984,74.67802 -3.7621,6.41955 -1.00981,5.16111 7.56966,-3.46108 z m -539.69558,-0.9803 c -6.92632,-7.99153 -13.67935,-17.35885 -17.70936,-24.56521 -3.76412,-6.73099 -8.666302,-18.21519 -8.041888,-18.83963 0.216341,-0.21632 4.315348,6.08179 9.109038,13.99581 4.79361,7.91401 9.12131,14.6398 9.61706,14.9462 2.28701,1.41347 1.80155,-1.23733 -1.50957,-8.2421 -1.97896,-4.18658 -3.38842,-7.82161 -3.1322,-8.07784 0.57939,-0.57942 -0.15367,-1.5478 8.25824,10.90949 6.56723,9.72551 17.90557,21.90565 22.85992,24.55714 1.90352,1.01874 2.00239,0.89726 1.3618,-1.67347 -0.3799,-1.52456 -6.44681,-15.2349 -13.48205,-30.46741 -30.534254,-66.11218 -37.634029,-83.31233 -41.440574,-100.3961 -1.984262,-8.90528 -2.312335,-13.06484 -2.301494,-29.17916 0.01345,-19.73396 1.550868,-30.3678 6.44996,-44.60745 2.517518,-7.31721 2.481751,-8.52589 -0.240872,-8.1322 -1.684043,0.24352 -2.662643,1.67854 -4.26265,6.25082 -2.896788,8.278 -5.141863,12.29043 -13.683622,24.45527 -13.681643,19.48476 -21.683024,34.20827 -27.69769,50.96739 -9.823268,27.37081 -9.361624,44.97478 1.783272,68.00033 4.949894,10.22676 20.412198,32.4702 21.637683,31.12724 0.233038,-0.25541 -0.190228,-3.80268 -0.940617,-7.88282 -3.552617,-19.31656 -3.832263,-31.13905 -0.865603,-36.59759 1.874509,-3.44909 2.16096,-2.24596 3.88979,16.3344 1.498405,16.10369 3.801244,25.94985 7.457442,31.8854 2.252592,3.65701 4.510168,4.33108 3.663636,1.09391 -1.101726,-4.21276 1.196445,-0.19642 4.32635,7.56092 2.886027,7.15285 9.080713,15.4365 10.489938,14.02726 0.267617,-0.26761 -1.314032,-5.98132 -3.514714,-12.69711 -4.840694,-14.77169 -7.699738,-26.85071 -8.90457,-37.6193 -0.994109,-8.88537 0.02374,-15.19857 1.319254,-8.18107 1.394032,7.5524 8.472995,27.73126 12.454497,35.50201 6.735064,13.14502 16.677654,25.39547 24.707134,30.44216 4.04781,2.54411 3.57097,1.13539 -1.65754,-4.89729 z M 508.61178,672.0565 c 0.31387,-1.20028 0.32939,-2.42362 0.0345,-2.71853 -0.77553,-0.77554 -3.37762,3.05364 -2.75721,4.05746 0.92472,1.49624 2.13722,0.89996 2.72272,-1.33893 z M 355.76134,583.2036 c 18.12001,-1.27837 45.91231,-5.45415 49.84868,-7.48973 3.78553,-1.95756 9.07514,-13.09485 11.3263,-23.84751 1.36258,-6.50839 1.43276,-8.9541 0.45436,-15.83361 -1.38714,-9.75352 -4.03636,-16.36751 -7.45251,-18.60586 -6.07954,-3.98346 -43.48753,-7.35471 -81.68695,-7.36169 -25.49768,-0.005 -38.56971,0.80952 -53.90726,3.35759 -21.47997,3.56852 -21.6023,3.62406 -23.26684,10.56262 -0.70046,2.91984 -0.9722,7.47484 -0.6361,10.66232 0.62979,5.97268 7.92621,31.75605 9.86952,34.87589 3.06534,4.92121 31.70099,11.74418 57.06031,13.59566 16.59562,1.21165 22.23604,1.22403 38.39049,0.0844 z m -30.47749,-16.10371 c -2.44809,-0.71112 -6.23149,-2.25639 -8.40756,-3.43394 l -3.95649,-2.14099 5.93474,0.71871 c 16.77577,2.03157 29.92859,0.0881 41.79049,-6.1748 3.40011,-1.79523 6.18203,-2.95043 6.18203,-2.56709 0,2.07281 -7.71092,9.2056 -12.46759,11.53282 -4.5794,2.2405 -7.08345,2.74315 -15.05867,3.02281 -5.94001,0.20828 -11.25303,-0.15466 -14.01695,-0.95752 z m 5.44018,-9.74017 c -9.29583,-5.12868 -13.68733,-15.8904 -10.90929,-26.73412 0.83193,-3.24735 1.51261,-6.12624 1.51261,-6.39754 0,-0.2713 -1.4466,-0.19316 -3.21465,0.17365 -4.16417,0.86391 -14.30264,6.37573 -20.9264,11.37672 -2.86982,2.16675 -5.51126,3.93953 -5.86984,3.93953 -0.35857,0 -0.65196,-1.52157 -0.65196,-3.38126 0,-3.65979 -0.81885,-2.97049 13.1186,-11.04308 5.66309,-3.28007 6.6494,-4.24692 6.4293,-6.30235 -0.21984,-2.05306 0.27451,-2.54008 3.20196,-3.15451 12.6521,-2.65549 25.98979,-1.83185 34.06014,2.10332 7.23602,3.52833 17.68173,12.17521 20.77298,17.19569 l 2.9644,4.81449 -7.92854,7.63619 c -5.73378,5.52236 -9.26444,8.09137 -12.75442,9.28053 -5.45117,1.8574 -16.8188,2.14023 -19.80489,0.49274 z m -167.12079,19.42747 c 10.85772,-1.91669 23.99228,-4.79524 29.18791,-6.3968 l 9.44662,-2.91192 1.16724,-13.63297 c 0.64197,-7.49814 1.45964,-17.52765 1.81705,-22.28781 l 0.64982,-8.65484 -4.13975,0 c -3.20086,0 -4.68711,-0.59061 -6.55318,-2.60412 -2.25656,-2.43488 -3.16956,-2.64774 -14.04778,-3.27522 -6.3989,-0.3691 -11.83006,-0.52233 -12.06926,-0.3405 -0.23918,0.18184 0.65104,1.07844 1.97825,1.99246 6.85818,4.72306 11.74977,12.74712 11.7881,19.33693 l 0.0218,3.73461 -2.93552,-1.51801 c -2.86614,-1.48214 -3.05898,-1.42379 -8.16027,2.46913 -10.28237,7.84675 -19.75032,8.42542 -26.35528,1.61084 -4.8917,-5.04694 -5.51554,-9.94604 -2.63139,-20.66427 0.91901,-3.41527 0.23822,-3.39233 -6.03048,0.20311 -4.53345,2.60018 -7.08895,5.5102 -11.78737,13.42244 -0.96903,1.63186 -1.20523,1.6345 -4.27381,0.0476 -2.69928,-1.39585 -3.04278,-1.92701 -2.033,-3.14365 0.92028,-1.10891 0.93721,-1.74176 0.0704,-2.60905 -1.7312,-1.7312 -1.38493,-4.36768 1.06446,-8.1043 2.27126,-3.46499 4.89078,-4.51457 11.26723,-4.51457 4.04425,0 4.11539,-0.40007 0.61816,-3.47812 l -2.72009,-2.39411 3.46193,-0.0627 c 3.26039,-0.059 3.35021,-0.14729 1.54193,-1.51495 -2.50605,-1.89547 -17.10647,-1.90938 -31.22316,-0.0297 -16.80443,2.23755 -43.513945,8.48996 -43.513945,10.18618 0,0.26855 1.161943,4.77689 2.582009,10.01852 6.293361,23.2289 10.281431,36.17075 11.53113,37.42045 0.741684,0.74172 5.102693,2.2501 9.691042,3.35195 37.847054,9.08864 49.998474,9.74354 80.589614,4.34339 z m -15.10696,-19.18638 c -6.65246,-1.11465 -5.86112,-1.73652 2.92507,-2.29863 5.78912,-0.37036 11.73015,-1.68424 20.30098,-4.48964 6.66422,-2.18133 12.11677,-3.83594 12.11677,-3.67693 0,0.15901 -2.18173,1.68912 -4.84829,3.40025 -9.0387,5.80012 -21.21164,8.62034 -30.49453,7.06495 z m -40.38004,-8.48617 c 0.27545,-1.63205 1.00258,-5.97184 1.61583,-9.64396 0.61318,-3.67212 1.35613,-6.67658 1.65097,-6.67658 1.06612,0 -0.66026,12.44773 -2.19498,15.82598 -1.54304,3.39665 -1.56322,3.40597 -1.07182,0.49456 z m 373.92708,23.13266 c 6.13966,-6.79588 9.92987,-17.62144 5.70416,-16.29215 -1.55584,0.48942 -11.86168,2.55617 -12.74634,2.55617 -0.19776,0 -0.35707,2.3368 -0.35404,5.1929 0.006,5.70143 1.5913,12.61134 2.89325,12.61134 0.45515,0 2.48147,-1.83073 4.50297,-4.06826 z M 211.65615,552.82386 c 1.48681,-4.36266 1.61146,-14.73589 0.19411,-16.15324 -0.65585,-0.65584 -1.28847,2.50726 -1.88761,9.438 -0.49563,5.73345 -0.60178,10.42445 -0.23588,10.42445 0.36589,0 1.23411,-1.66915 1.92938,-3.70921 z m 246.17032,-35.27547 c 0,-0.22485 -2.58035,-4.78638 -5.73413,-10.13671 l -5.73413,-9.7279 -17.26301,-6.61104 c -9.49465,-3.63607 -17.81938,-6.64134 -18.4994,-6.67838 -0.68003,-0.037 -1.23641,0.82287 -1.23641,1.9109 0,1.45072 -0.65942,1.97825 -2.47281,1.97825 -2.70956,0 -3.07456,1.04153 -1.33899,3.82063 0.62361,0.99854 0.85103,2.94227 0.5054,4.3194 -0.61191,2.43804 -0.80452,2.3309 -7.32449,-4.07369 -4.81047,-4.72536 -7.947,-6.94813 -11.13847,-7.89351 -2.44333,-0.72376 -10.67391,-4.04284 -18.29016,-7.37574 l -13.84774,-6.05981 -13.70269,-0.3473 c -15.65866,-0.39688 -23.21637,0.88454 -37.60753,6.37642 -13.55021,5.17095 -22.24207,10.1593 -28.68231,16.46107 -3.2289,3.15948 -6.24313,5.37212 -6.69828,4.91696 -2.34779,-2.34778 5.22843,-15.40086 12.81483,-22.07869 5.41883,-4.76983 18.32789,-11.99041 29.44784,-16.47139 17.23134,-6.94368 33.02386,-7.9028 48.07438,-2.9197 7.61457,2.52112 18.61885,4.93892 19.31417,4.24359 0.42554,-0.42554 -14.33742,-24.1028 -15.46143,-24.79747 -0.4087,-0.25259 -7.827,-0.94659 -16.48508,-1.5422 -19.73157,-1.35739 -30.84616,-3.15887 -43.42224,-7.038 -13.6461,-4.20918 -26.652,-10.4921 -39.68323,-19.1703 -35.19697,-23.43953 -51.81127,-52.84992 -51.82283,-91.73602 -0.002,-6.89389 -0.37549,-10.63308 -1.06196,-10.63308 -1.41226,0 -25.55685,13.03179 -31.40733,16.95178 -6.46743,4.33336 -28.0929,26.44321 -35.69032,36.48974 -3.48491,4.6083 -8.21195,12.38469 -10.5045,17.28085 -8.81222,18.82003 -16.65258,45.49814 -19.18552,65.28219 -2.24959,17.57043 -3.69252,31.15741 -3.30906,31.15741 0.21476,0 5.81478,-1.85362 12.44445,-4.11915 21.24437,-7.25975 28.81464,-6.53971 51.99199,4.94515 9.77991,4.84615 11.68821,6.19751 14.12227,10.00073 2.8115,4.393 3.53388,7.40518 2.00283,8.35141 -0.44633,0.27585 -3.22823,-1.52255 -6.18203,-3.99646 -7.10963,-5.95461 -17.56914,-10.91215 -27.20859,-12.89619 -6.61846,-1.36224 -9.37213,-1.4412 -17.72688,-0.50829 -7.94388,0.88703 -27.41641,5.40272 -29.05338,6.7375 -0.20281,0.16538 -0.77982,4.39844 -1.28214,9.4068 -0.71889,7.16675 -0.64032,9.27933 0.36875,9.91946 0.7052,0.44733 6.1916,0.82016 12.1921,0.82849 12.59471,0.0175 30.05963,2.01093 47.85697,5.46239 19.34641,3.75189 30.77622,4.79594 44.0726,4.02581 6.54439,-0.37904 19.9108,-1.04207 29.70313,-1.4734 13.87355,-0.61108 20.09713,-1.35063 28.19004,-3.34983 19.2158,-4.74691 65.56198,-6.99518 95.55411,-4.63537 29.92195,2.35429 49.73341,5.88699 62.09988,11.07338 3.86934,1.62277 9.26069,3.29718 11.98079,3.72092 5.44825,0.84873 16.32054,1.25404 16.32054,0.60839 z m -311.57408,-4.53678 c 0,-1.26378 -5.95744,-1.26378 -7.913,0 -1.07308,0.69348 -0.18345,0.96302 3.21466,0.97398 2.58408,0.008 4.69834,-0.42996 4.69834,-0.97398 z M 104.4037,501.7773 c 0.14481,-0.14485 -0.94362,-3.64282 -2.41876,-7.77328 -2.445747,-6.84779 -2.576153,-7.9065 -1.4791,-12.00815 0.66169,-2.47404 1.87269,-9.97204 2.69113,-16.66224 0.81844,-6.69023 1.97872,-16.16998 2.57845,-21.06614 3.74205,-30.5507 15.0828,-61.0714 36.64681,-98.62515 4.28266,-7.45827 7.78665,-13.80635 7.78665,-14.10688 0,-0.63302 -32.93984,0.34763 -36.52949,1.08754 -3.1015,0.63927 -16.85285,13.97178 -22.313764,21.6342 -6.401216,8.98162 -15.491345,28.36947 -14.0003,29.86049 0.229714,0.22972 3.402428,-4.13781 7.050555,-9.70562 9.757749,-14.8926 19.344889,-23.5641 23.329479,-21.10145 0.75276,0.46522 0.0947,1.17566 -1.84412,1.99087 -1.65801,0.69714 -3.54621,2.26095 -4.19602,3.47513 l -1.18149,2.20761 3.27107,-2.32918 c 1.79902,-1.28104 6.60663,-5.32924 10.68349,-8.996 4.07685,-3.66676 10.11193,-7.99678 13.41125,-9.62227 12.64721,-6.23093 13.82403,-4.89407 2.99396,3.40111 -10.96582,8.39914 -15.5006,15.27462 -22.57608,34.22947 -4.62451,12.38872 -8.776694,28.72236 -12.089389,47.55713 -4.115073,23.39665 -4.465064,60.48027 -0.715176,75.77541 0.51925,2.11779 0.939588,2.2717 4.604415,1.68567 2.21817,-0.3547 4.15155,-0.76342 4.29643,-0.90827 z m 151.64146,291.36706 c 0,-0.51189 1.72104,-2.1234 3.82456,-3.58113 4.39661,-3.04686 8.82377,-7.50297 7.4755,-7.52441 -0.50284,-0.008 -8.80063,0.95624 -18.43955,2.14273 -14.9962,1.84596 -18.30835,1.98204 -22.95156,0.94293 -10.96065,-2.45289 -20.36266,-11.398 -31.9339,-30.38207 -5.22393,-8.57051 -9.56112,-18.56506 -8.90742,-20.52612 0.19726,-0.5918 5.68045,6.03477 12.18486,14.72571 9.66794,12.91793 12.79231,16.38055 17.1201,18.97363 7.02749,4.21065 14.05596,5.61414 27.77967,5.54727 17.59404,-0.0858 29.39418,-2.37432 52.66168,-10.21352 11.28556,-3.80228 21.03538,-6.91324 21.66627,-6.91324 1.9101,0 -15.66387,12.29792 -28.87126,20.20357 -16.10494,9.64003 -31.60895,17.78451 -31.60895,16.60465 z M 377.9927,741.49928 c 23.3559,-47.62725 26.31169,-53.33708 26.37162,-50.94327 0.0946,3.77547 -5.10395,17.41141 -11.03662,28.94976 -14.12987,27.48095 -28.88222,54.32316 -31.11415,56.61285 -1.41087,1.44737 5.13253,-12.9088 15.77916,-34.61934 z m -216.27389,16.68904 c -4.02996,-16.00515 -10.705,-38.73489 -15.92705,-54.23457 -4.22101,-12.52844 -5.55614,-18.47537 -3.66227,-16.31228 1.10109,1.25761 11.02469,29.72301 15.37497,44.10241 3.80144,12.56529 7.86994,32.22036 7.36471,35.5792 -0.17489,1.16276 -1.59256,-2.94788 -3.15036,-9.13476 z m 70.92523,-3.24871 c -17.75592,-3.38963 -35.36382,-12.41606 -44.97717,-23.05689 -3.06745,-3.39529 -9.76251,-17.10321 -9.76251,-19.9884 0,-0.58184 -0.44511,-1.05789 -0.98913,-1.05789 -0.54401,0 -0.98912,0.97923 -0.98912,2.17607 0,1.29821 -0.34849,1.79699 -0.86385,1.23641 -0.47511,-0.51682 -1.15102,-5.26891 -1.502,-10.56019 l -0.63816,-9.62051 2.73841,-0.62541 c 13.75508,-3.14143 23.05776,-5.84556 27.0241,-7.85545 7.31183,-3.70519 11.87146,-4.08136 17.92191,-1.47852 7.09914,3.05396 14.70569,2.45905 24.55828,-1.92074 9.3886,-4.17352 13.90443,-4.66662 22.93539,-2.50438 9.60278,2.29916 11.20256,3.91831 2.78183,2.81554 -11.81548,-1.54736 -17.53515,-0.9264 -27.41091,2.9759 -5.75394,2.27361 -10.76623,3.60055 -13.60045,3.60055 -4.65286,0 -6.16506,1.59943 -2.26282,2.39333 1.22404,0.24903 8.01191,0.68373 15.08415,0.966 7.07223,0.28228 22.20583,1.86223 33.63021,3.51101 15.43771,2.22798 24.43338,3.00074 35.03149,3.00933 7.84292,0.006 13.98016,-0.26814 13.63829,-0.61001 -0.34186,-0.34186 -4.0301,-1.43364 -8.19608,-2.42619 -7.30705,-1.74089 -9.12044,-2.45947 -8.24474,-3.26706 0.22668,-0.20904 6.19851,-0.007 13.27075,0.44808 16.02212,1.0319 35.26857,1.04146 45.00515,0.0224 4.08013,-0.42706 7.53009,-0.6959 7.66656,-0.59742 0.13647,0.0985 -4.53549,5.68967 -10.38214,12.42486 -9.87389,11.37445 -10.66574,12.06006 -11.1285,9.6354 -0.49062,-2.57059 -0.68176,-2.47201 -12.53368,6.46428 -21.65548,16.32812 -47.00027,28.29302 -70.5564,33.3086 -8.52183,1.81447 -29.10645,2.13573 -37.24886,0.58134 z m 58.02046,-32.25817 c 17.8703,-1.10625 29.80595,-3.19138 31.76246,-5.54883 0.69264,-0.83458 1.28496,-3.59412 1.31627,-6.13232 l 0.0569,-4.61492 -16.81511,-1.60625 c -9.24831,-0.88344 -22.60148,-2.53383 -29.67372,-3.66754 -33.8019,-5.41856 -62.90821,-5.31552 -76.65712,0.27136 -5.26689,2.14022 -5.43345,2.32426 -5.22873,5.77808 0.1163,1.96209 0.8307,5.04951 1.58756,6.86093 1.28474,3.07482 1.96026,3.44182 10.17434,5.52748 4.83904,1.2287 12.80421,2.60395 17.70037,3.05613 12.99762,1.20035 46.97877,1.23955 65.77675,0.0759 z m 97.91689,-41.45379 c -6.26286,-1.90507 -16.80871,-9.54798 -16.80871,-12.18178 0,-0.45926 1.66914,0.46841 3.70921,2.06146 3.83207,2.9924 7.50603,4.48507 19.78249,8.03731 3.94412,1.14125 7.17114,2.28474 7.17114,2.54109 0,0.74126 -11.12008,0.37358 -13.85413,-0.45808 z M 144.95035,669.2243 c 2.62018,-3.30201 5.533,-6.97413 6.47294,-8.16027 2.02444,-2.55471 2.26791,-1.08297 0.73429,4.4386 -1.13814,4.09775 -6.90253,9.72533 -9.96174,9.72533 -1.71732,0 -1.31686,-0.87282 2.75451,-6.00366 z m 57.75041,-10.38311 c -5.69517,-2.4711 -11.48602,-7.94166 -14.49972,-13.69777 -2.13092,-4.06998 -3.55211,-5.62337 -5.54539,-6.06117 -9.47601,-2.08128 -14.17441,-14.91991 -7.79475,-21.29957 3.79717,-3.79716 5.53416,-3.78402 3.56342,0.027 -2.28803,4.42455 -1.90221,9.89172 0.99938,14.16181 2.63636,3.87976 4.51374,4.56163 6.55195,2.37973 0.99431,-1.06442 1.98098,0.19057 5.23189,6.65471 3.38658,6.73389 4.75942,8.42905 8.87264,10.95578 4.79819,2.94749 5.05719,2.98924 18.54261,2.98924 7.52205,0 13.67801,0.29413 13.67992,0.6536 0.002,0.35949 -1.91749,1.58353 -4.26531,2.72009 -5.30238,2.56684 -19.92431,2.86496 -25.33664,0.51659 z M 491.5619,648.01531 c -1.35731,-0.74612 -3.78422,-1.07158 -5.68746,-0.76273 -3.8542,0.62545 -4.16374,-0.35875 -1.26982,-4.03776 2.19764,-2.79386 4.99783,-3.26222 9.42972,-1.57722 2.46071,0.93556 3.1,0.64369 7.04134,-3.21465 6.22081,-6.08984 9.99046,-14.33094 11.13148,-24.33539 0.51542,-4.51916 0.75257,-9.41405 0.52699,-10.87755 -0.22557,-1.4635 -0.65518,-6.18898 -0.95468,-10.50105 l -0.54455,-7.84012 2.50588,2.35415 c 7.62151,7.16002 6.72794,31.38797 -1.67167,45.32535 -3.98523,6.61265 -7.74855,10.83774 -12.394,13.91476 -5.13254,3.39965 -4.85055,3.3457 -8.11323,1.55221 z m -253.32097,-0.39204 c 0,-2.02737 9.28364,-10.2506 14.10834,-12.49685 8.01544,-3.73177 19.13639,-2.89096 21.5558,1.62974 1.53536,2.86884 -0.33595,5.28793 -5.69648,7.36395 -5.7763,2.23706 -10.68888,2.24745 -14.9737,0.0317 -3.66643,-1.89598 -6.07414,-1.43434 -10.63627,2.03933 -3.28662,2.5025 -4.35769,2.85451 -4.35769,1.43217 z m 54.03094,-13.07382 c 4.84053,-5.4081 5.87956,-11.42399 2.78802,-16.14227 -0.95545,-1.45821 -4.22698,-3.97533 -7.27007,-5.59362 l -5.53287,-2.94233 3.92231,0.61663 c 5.6906,0.89462 9.10599,2.96591 11.93192,7.23616 2.51387,3.79871 3.31476,8.72072 2.05963,12.65759 -0.74445,2.335 -3.66676,4.56952 -7.52806,5.75625 l -2.47281,0.75998 2.10193,-2.34839 z m 205.14035,-2.32336 c -0.93597,-1.12775 -0.96343,-3.295 -0.12112,-9.55394 1.46316,-10.87212 1.39584,-12.12885 -0.79458,-14.83391 l -1.88404,-2.32669 -2.22491,7.65729 c -4.04508,13.92159 -5.237,8.24988 -1.92215,-9.14653 1.49555,-7.84868 2.75835,-11.5833 5.19291,-15.35749 23.58908,-36.56929 24.8756,-38.42799 27.69282,-40.00925 2.41935,-1.35795 2.8598,-1.31126 5.39964,0.57237 4.21484,3.12587 7.19244,9.06756 7.13069,14.229 -0.11717,9.79477 -2.3999,9.73821 -5.2284,-0.12957 -0.87807,-3.06335 -2.48359,-6.6242 -3.56782,-7.91299 l -1.97133,-2.34324 -2.03022,2.47281 c -1.11662,1.36005 -4.06374,6.47876 -6.54915,11.37493 -2.4854,4.89616 -5.6951,10.45998 -7.13267,12.36405 -2.57133,3.40572 -2.61502,3.72695 -2.6906,19.78248 -0.063,13.38924 -0.47755,17.96385 -2.30794,25.46994 -1.78287,7.31124 -2.58767,9.1494 -4.00584,9.1494 -0.9761,0 -2.31949,-0.6564 -2.98529,-1.45866 z"
       style="fill:#000000" />
  </g>
</svg>
